<svg width="304" height="92" viewBox="0 0 304 92" fill="none" xmlns="http://www.w3.org/2000/svg">
<path d="M15.1875 37.7207C15.1875 36.7363 15.5215 35.9102 16.1895 35.2422C16.8926 34.5391 17.7363 34.1875 18.7207 34.1875H26.7891L25.418 30.2852C24.8555 28.8438 24.293 27.4902 23.7305 26.2246C23.2031 24.9238 22.5879 23.7461 21.8848 22.6914C21.252 21.6367 20.5312 21.0742 19.7227 21.0039C18.8789 21.0742 18.123 21.6367 17.4551 22.6914C16.7871 23.7461 16.1719 24.9238 15.6094 26.2246C15.082 27.4902 14.5371 28.8438 13.9746 30.2852L8.96484 43.9961C8.61328 44.7344 8.15625 45.3496 7.59375 45.8418C7.06641 46.2988 6.25781 46.5273 5.16797 46.5273C4.14844 46.5273 3.30469 46.1758 2.63672 45.4727C2.00391 44.7695 1.72266 43.9258 1.79297 42.9414C1.82812 42.4844 1.93359 42.0625 2.10938 41.6758L7.91016 26.6992C9.52734 22.7617 11.1445 19.5801 12.7617 17.1543C14.3438 14.7637 16.6641 13.5508 19.7227 13.5156C22.7461 13.5508 25.0488 14.7637 26.6309 17.1543C28.248 19.5098 29.8652 22.6914 31.4824 26.6992L37.2832 41.6758C37.459 42.0625 37.5645 42.4844 37.5996 42.9414C37.6699 43.9258 37.3711 44.7695 36.7031 45.4727C36.0703 46.1758 35.2441 46.5273 34.2246 46.5273C33.0645 46.5273 32.2031 46.2988 31.6406 45.8418C31.1133 45.3496 30.6738 44.7344 30.3223 43.9961L29.3203 41.2539H18.7207C17.7363 41.2539 16.9102 40.9023 16.2422 40.1992C15.5391 39.5312 15.1875 38.7051 15.1875 37.7207ZM43.9805 28.5977C44.6484 26.9102 45.7734 25.3984 47.3555 24.0625C48.9727 22.6914 51.0117 21.9883 53.4727 21.9531H73.3008C74.2852 21.9531 75.1113 22.3047 75.7793 23.0078C76.4824 23.6758 76.834 24.502 76.834 25.4863C76.834 26.4707 76.4824 27.3145 75.7793 28.0176C75.1113 28.6855 74.2852 29.0195 73.3008 29.0195H53.2617C52.5938 29.0195 52.0137 29.3008 51.5215 29.8633C51.0293 30.3906 50.6426 31.0234 50.3613 31.7617C50.1152 32.5 49.9922 33.2031 49.9922 33.8711V43.0996C49.7812 45.209 48.6211 46.3516 46.5117 46.5273C45.5273 46.5273 44.666 46.2109 43.9277 45.5781C43.2246 44.9102 42.873 44.084 42.873 43.0996V33.9238H42.9258C42.9258 32.0957 43.2773 30.3203 43.9805 28.5977ZM92.9707 45.8945C89.877 45.7891 87.5391 45.0684 85.957 43.7324C84.375 42.3613 83.2324 40.832 82.5293 39.1445C81.8262 37.4219 81.4746 35.6816 81.4746 33.9238C81.4746 32.0957 81.8086 30.3379 82.4766 28.6504C83.1797 26.9277 84.3223 25.3984 85.9043 24.0625C87.5215 22.6914 89.5605 21.9883 92.0215 21.9531H109.107C111.568 21.9883 113.59 22.6914 115.172 24.0625C116.789 25.3984 117.932 26.9277 118.6 28.6504C119.303 30.3379 119.654 32.0957 119.654 33.9238C119.654 35.6816 119.303 37.4219 118.6 39.1445C117.896 40.832 116.754 42.3613 115.172 43.7324C113.59 45.0684 111.252 45.7891 108.158 45.8945H92.9707ZM91.8105 29.0195C91.1426 29.0195 90.5625 29.3008 90.0703 29.8633C89.5781 30.3906 89.209 31.0234 88.9629 31.7617C88.752 32.4648 88.6465 33.168 88.6465 33.8711C88.6465 34.6094 88.752 35.3477 88.9629 36.0859C89.209 36.7891 89.5781 37.4219 90.0703 37.9844C90.5625 38.5117 91.1426 38.793 91.8105 38.8281H109.318C109.986 38.793 110.566 38.5117 111.059 37.9844C111.551 37.4219 111.902 36.7891 112.113 36.0859C112.359 35.3477 112.482 34.6094 112.482 33.8711C112.482 33.168 112.359 32.4648 112.113 31.7617C111.902 31.0234 111.551 30.3906 111.059 29.8633C110.566 29.3008 109.986 29.0195 109.318 29.0195H91.8105ZM155.303 30.3906C155.303 29.5117 154.846 29.0547 153.932 29.0195H135.475C134.807 29.0547 134.227 29.3535 133.734 29.916C133.242 30.4434 132.873 31.0762 132.627 31.8145C132.416 32.5176 132.311 33.2383 132.311 33.9766C132.311 34.6797 132.416 35.4004 132.627 36.1387C132.873 36.8418 133.242 37.4746 133.734 38.0371C134.227 38.5645 134.807 38.8281 135.475 38.8281H148.975C149.959 38.8281 150.785 39.1797 151.453 39.8828C152.156 40.5508 152.508 41.377 152.508 42.3613C152.508 43.3457 152.156 44.1719 151.453 44.8398C150.785 45.543 149.959 45.8945 148.975 45.8945H135.686C133.225 45.8594 131.186 45.1738 129.568 43.8379C127.986 42.4668 126.844 40.9375 126.141 39.25C125.473 37.5273 125.139 35.752 125.139 33.9238C125.139 32.166 125.49 30.4434 126.193 28.7559C126.896 27.0332 128.039 25.5039 129.621 24.168C131.203 22.7969 133.541 22.0586 136.635 21.9531H158.783C159.768 21.9531 160.611 22.2871 161.314 22.9551C162.018 23.5879 162.387 24.3965 162.422 25.3809V42.0449C162.422 44.8574 162.035 47.5117 161.262 50.0078C160.559 52.2227 159.398 54.0859 157.781 55.5977C156.199 57.1445 154.178 57.9883 151.717 58.1289H133.471C132.521 58.0938 131.713 57.7422 131.045 57.0742C130.412 56.4414 130.078 55.6504 130.043 54.7012C130.043 53.7168 130.359 52.873 130.992 52.1699C131.66 51.4668 132.486 51.0977 133.471 51.0625H149.924C151.26 50.9922 152.367 50.4824 153.246 49.5332C154.125 48.584 154.688 47.4766 154.934 46.2109C155.18 44.9453 155.303 43.3105 155.303 41.3066V30.3906ZM173.074 21.3203C174.059 21.3203 174.902 21.6543 175.605 22.3223C176.309 22.9551 176.678 23.7637 176.713 24.748V30.0742C176.678 31.5156 176.766 32.8516 176.977 34.082C177.223 35.2773 177.785 36.3496 178.664 37.2988C179.543 38.248 180.65 38.7578 181.986 38.8281H196.066V24.8535C196.066 23.8691 196.418 23.0605 197.121 22.4277C197.859 21.7598 198.721 21.4258 199.705 21.4258C201.814 21.6016 202.975 22.7441 203.186 24.8535V42.0449C203.186 44.8574 202.799 47.5117 202.025 50.0078C201.322 52.2227 200.162 54.0859 198.545 55.5977C196.963 57.1445 194.941 57.9883 192.48 58.1289H174.234C173.285 58.0938 172.477 57.7422 171.809 57.0742C171.176 56.4414 170.842 55.6504 170.807 54.7012C170.807 53.7168 171.123 52.873 171.756 52.1699C172.424 51.4668 173.25 51.0977 174.234 51.0625H190.688C192.023 50.9922 193.131 50.4824 194.01 49.5332C194.889 48.584 195.451 47.4766 195.697 46.2109C195.732 46.1055 195.75 46 195.75 45.8945H180.193C177.732 45.7539 175.693 44.9277 174.076 43.416C172.494 41.8691 171.352 39.9883 170.648 37.7734C169.98 35.5586 169.629 33.2031 169.594 30.707V24.748C169.629 23.7988 169.98 23.0078 170.648 22.375C171.316 21.707 172.125 21.3555 173.074 21.3203ZM239.572 43.0996V30.3906C239.572 29.5117 239.115 29.0547 238.201 29.0195H219.744C219.076 29.0547 218.496 29.3535 218.004 29.916C217.512 30.4434 217.143 31.0762 216.896 31.8145C216.686 32.5176 216.58 33.2383 216.58 33.9766C216.58 34.6797 216.686 35.4004 216.896 36.1387C217.143 36.8418 217.512 37.4746 218.004 38.0371C218.496 38.5645 219.076 38.8281 219.744 38.8281H233.244C234.229 38.8281 235.055 39.1797 235.723 39.8828C236.426 40.5508 236.777 41.377 236.777 42.3613C236.777 43.3457 236.426 44.1719 235.723 44.8398C235.055 45.543 234.229 45.8945 233.244 45.8945H219.955C217.494 45.8594 215.455 45.1738 213.838 43.8379C212.256 42.4668 211.113 40.9375 210.41 39.25C209.742 37.5273 209.408 35.752 209.408 33.9238C209.408 32.166 209.76 30.4434 210.463 28.7559C211.166 27.0332 212.309 25.5039 213.891 24.168C215.473 22.7969 217.811 22.0586 220.904 21.9531H243.053C244.037 21.9531 244.881 22.2871 245.584 22.9551C246.287 23.5879 246.656 24.3965 246.691 25.3809V43.0996C246.691 44.084 246.322 44.9102 245.584 45.5781C244.881 46.2109 244.037 46.5273 243.053 46.5273C240.943 46.3516 239.783 45.209 239.572 43.0996Z" fill="#2B2B2B"/>
<path d="M265.359 37.7207C265.359 36.7363 265.693 35.9102 266.361 35.2422C267.064 34.5391 267.908 34.1875 268.893 34.1875H276.961L275.59 30.2852C275.027 28.8438 274.465 27.4902 273.902 26.2246C273.375 24.9238 272.76 23.7461 272.057 22.6914C271.424 21.6367 270.703 21.0742 269.895 21.0039C269.051 21.0742 268.295 21.6367 267.627 22.6914C266.959 23.7461 266.344 24.9238 265.781 26.2246C265.254 27.4902 264.709 28.8438 264.146 30.2852L259.137 43.9961C258.785 44.7344 258.328 45.3496 257.766 45.8418C257.238 46.2988 256.43 46.5273 255.34 46.5273C254.32 46.5273 253.477 46.1758 252.809 45.4727C252.176 44.7695 251.895 43.9258 251.965 42.9414C252 42.4844 252.105 42.0625 252.281 41.6758L258.082 26.6992C259.699 22.7617 261.316 19.5801 262.934 17.1543C264.516 14.7637 266.836 13.5508 269.895 13.5156C272.918 13.5508 275.221 14.7637 276.803 17.1543C278.42 19.5098 280.037 22.6914 281.654 26.6992L287.455 41.6758C287.631 42.0625 287.736 42.4844 287.771 42.9414C287.842 43.9258 287.543 44.7695 286.875 45.4727C286.242 46.1758 285.416 46.5273 284.396 46.5273C283.236 46.5273 282.375 46.2988 281.812 45.8418C281.285 45.3496 280.846 44.7344 280.494 43.9961L279.492 41.2539H268.893C267.908 41.2539 267.082 40.9023 266.414 40.1992C265.711 39.5312 265.359 38.7051 265.359 37.7207ZM296.684 21.4258C297.633 21.4609 298.441 21.8125 299.109 22.4805C299.777 23.1133 300.129 23.9043 300.164 24.8535V43.0996C299.953 45.209 298.793 46.3516 296.684 46.5273C295.699 46.5273 294.838 46.2109 294.1 45.5781C293.396 44.9102 293.045 44.084 293.045 43.0996V24.8535C293.08 23.8691 293.449 23.0605 294.152 22.4277C294.855 21.7598 295.699 21.4258 296.684 21.4258ZM292.254 14.5703C292.254 13.5859 292.676 12.7422 293.52 12.0391C294.363 11.3359 295.383 10.9844 296.578 10.9844C297.773 10.9844 298.793 11.3359 299.637 12.0391C300.48 12.7422 300.902 13.5859 300.902 14.5703C300.902 15.5898 300.48 16.4512 299.637 17.1543C298.793 17.8574 297.773 18.209 296.578 18.209C295.383 18.209 294.363 17.8574 293.52 17.1543C292.676 16.4512 292.254 15.5898 292.254 14.5703Z" fill="#5CAB56"/>
<path d="M12.8576 77.616L5.75961 67.112H7.99561L13.8976 75.926H12.9616L18.9156 67.112H21.0736L13.9236 77.616H12.8576ZM12.4676 85V76.238H14.3916V85H12.4676ZM25.5129 85.26C24.3342 85.26 23.2596 84.974 22.2889 84.402C21.3356 83.83 20.5729 83.0587 20.0009 82.088C19.4462 81.1173 19.1689 80.034 19.1689 78.838C19.1689 77.6593 19.4462 76.5933 20.0009 75.64C20.5729 74.6867 21.3356 73.9327 22.2889 73.378C23.2596 72.806 24.3342 72.52 25.5129 72.52C26.7089 72.52 27.7836 72.7973 28.7369 73.352C29.6902 73.9067 30.4442 74.6693 30.9989 75.64C31.5709 76.5933 31.8569 77.6593 31.8569 78.838C31.8569 80.0513 31.5709 81.1433 30.9989 82.114C30.4442 83.0673 29.6902 83.83 28.7369 84.402C27.7836 84.974 26.7089 85.26 25.5129 85.26ZM25.5129 83.492C26.3796 83.492 27.1422 83.2927 27.8009 82.894C28.4769 82.4953 29.0056 81.9407 29.3869 81.23C29.7856 80.5193 29.9849 79.722 29.9849 78.838C29.9849 77.954 29.7856 77.174 29.3869 76.498C29.0056 75.8047 28.4769 75.2587 27.8009 74.86C27.1422 74.4613 26.3796 74.262 25.5129 74.262C24.6636 74.262 23.9009 74.4613 23.2249 74.86C22.5489 75.2587 22.0202 75.8047 21.6389 76.498C21.2576 77.174 21.0669 77.954 21.0669 78.838C21.0669 79.7393 21.2576 80.5453 21.6389 81.256C22.0202 81.9493 22.5489 82.4953 23.2249 82.894C23.9009 83.2927 24.6636 83.492 25.5129 83.492ZM39.5882 85.26C38.6003 85.26 37.7163 85.0347 36.9363 84.584C36.1563 84.116 35.5409 83.4833 35.0903 82.686C34.6569 81.8887 34.4403 80.9527 34.4403 79.878V72.78H36.2863V79.8C36.2863 80.5453 36.4163 81.1953 36.6763 81.75C36.9536 82.3047 37.3436 82.738 37.8463 83.05C38.3489 83.362 38.9296 83.518 39.5882 83.518C40.6109 83.518 41.4169 83.18 42.0063 82.504C42.6129 81.828 42.9163 80.9267 42.9163 79.8V72.78H44.7363V79.878C44.7363 80.9353 44.5196 81.8713 44.0863 82.686C43.6529 83.5007 43.0463 84.1333 42.2663 84.584C41.4863 85.0347 40.5936 85.26 39.5882 85.26ZM48.1331 85V72.78H49.9531V85H48.1331ZM49.9531 77.876L49.1991 77.538C49.1991 75.9953 49.5718 74.7733 50.3171 73.872C51.0798 72.9707 52.1198 72.52 53.4371 72.52C54.0438 72.52 54.5984 72.6327 55.1011 72.858C55.6038 73.066 56.0718 73.404 56.5051 73.872L55.3091 75.146C55.0144 74.8167 54.6851 74.5827 54.3211 74.444C53.9744 74.3053 53.5758 74.236 53.1251 74.236C52.1891 74.236 51.4264 74.548 50.8371 75.172C50.2478 75.7787 49.9531 76.68 49.9531 77.876ZM66.1487 77.824V76.134H71.4267C72.1547 76.134 72.8047 75.9867 73.3767 75.692C73.966 75.3973 74.4253 74.9813 74.7547 74.444C75.1013 73.8893 75.2747 73.2307 75.2747 72.468C75.2747 71.7053 75.1013 71.0553 74.7547 70.518C74.4253 69.9633 73.966 69.5387 73.3767 69.244C72.8047 68.932 72.1547 68.776 71.4267 68.776H66.1487V67.112H71.5567C72.6313 67.112 73.5933 67.3373 74.4427 67.788C75.292 68.2213 75.9593 68.8367 76.4447 69.634C76.9473 70.4313 77.1987 71.376 77.1987 72.468C77.1987 73.5427 76.9473 74.4873 76.4447 75.302C75.9593 76.0993 75.292 76.7233 74.4427 77.174C73.5933 77.6073 72.6313 77.824 71.5567 77.824H66.1487ZM64.9267 85V67.112H66.8247V85H64.9267ZM84.8199 85.26C83.6586 85.26 82.6186 84.9827 81.6999 84.428C80.7813 83.856 80.0533 83.0933 79.5159 82.14C78.9959 81.1867 78.7359 80.112 78.7359 78.916C78.7359 77.7027 78.9959 76.6193 79.5159 75.666C80.0533 74.6953 80.7813 73.9327 81.6999 73.378C82.6186 72.806 83.6499 72.52 84.7939 72.52C85.7299 72.52 86.5619 72.7107 87.2899 73.092C88.0353 73.456 88.6333 73.976 89.0839 74.652C89.5519 75.3107 89.8379 76.082 89.9419 76.966V80.788C89.8379 81.672 89.5519 82.452 89.0839 83.128C88.6333 83.804 88.0353 84.3327 87.2899 84.714C86.5619 85.078 85.7386 85.26 84.8199 85.26ZM85.1059 83.518C86.3713 83.518 87.3853 83.0933 88.1479 82.244C88.9279 81.3947 89.3179 80.2767 89.3179 78.89C89.3179 77.9713 89.1359 77.1653 88.7719 76.472C88.4253 75.7613 87.9313 75.2153 87.2899 74.834C86.6659 74.4353 85.9293 74.236 85.0799 74.236C84.2133 74.236 83.4419 74.4353 82.7659 74.834C82.1073 75.2327 81.5786 75.7873 81.1799 76.498C80.7986 77.1913 80.6079 77.9887 80.6079 78.89C80.6079 79.7913 80.7986 80.5887 81.1799 81.282C81.5786 81.9753 82.1159 82.5213 82.7919 82.92C83.4679 83.3187 84.2393 83.518 85.1059 83.518ZM89.2139 85V81.724L89.5779 78.708L89.2139 75.77V72.78H91.0339V85H89.2139ZM96.5213 85V67.632H98.3413V85H96.5213ZM93.4273 74.418V72.78H101.409V74.418H93.4273ZM112.808 85V77.824C112.808 76.7493 112.488 75.8827 111.846 75.224C111.222 74.548 110.39 74.21 109.35 74.21C108.64 74.21 108.016 74.366 107.478 74.678C106.941 74.99 106.516 75.4147 106.204 75.952C105.892 76.4893 105.736 77.1047 105.736 77.798L104.904 77.33C104.904 76.4113 105.121 75.588 105.554 74.86C105.988 74.132 106.568 73.56 107.296 73.144C108.042 72.728 108.891 72.52 109.844 72.52C110.78 72.52 111.612 72.7367 112.34 73.17C113.068 73.586 113.632 74.1667 114.03 74.912C114.446 75.6573 114.654 76.524 114.654 77.512V85H112.808ZM103.916 85V66.592H105.736V85H103.916ZM125.543 85V67.632H127.363V85H125.543ZM122.449 74.418V72.78H130.431V74.418H122.449ZM138.044 85.26C136.865 85.26 135.791 84.974 134.82 84.402C133.867 83.83 133.104 83.0587 132.532 82.088C131.977 81.1173 131.7 80.034 131.7 78.838C131.7 77.6593 131.977 76.5933 132.532 75.64C133.104 74.6867 133.867 73.9327 134.82 73.378C135.791 72.806 136.865 72.52 138.044 72.52C139.24 72.52 140.315 72.7973 141.268 73.352C142.221 73.9067 142.975 74.6693 143.53 75.64C144.102 76.5933 144.388 77.6593 144.388 78.838C144.388 80.0513 144.102 81.1433 143.53 82.114C142.975 83.0673 142.221 83.83 141.268 84.402C140.315 84.974 139.24 85.26 138.044 85.26ZM138.044 83.492C138.911 83.492 139.673 83.2927 140.332 82.894C141.008 82.4953 141.537 81.9407 141.918 81.23C142.317 80.5193 142.516 79.722 142.516 78.838C142.516 77.954 142.317 77.174 141.918 76.498C141.537 75.8047 141.008 75.2587 140.332 74.86C139.673 74.4613 138.911 74.262 138.044 74.262C137.195 74.262 136.432 74.4613 135.756 74.86C135.08 75.2587 134.551 75.8047 134.17 76.498C133.789 77.174 133.598 77.954 133.598 78.838C133.598 79.7393 133.789 80.5453 134.17 81.256C134.551 81.9493 135.08 82.4953 135.756 82.894C136.432 83.2927 137.195 83.492 138.044 83.492ZM157.809 85L152.037 67.112H153.935L158.797 82.504H158.225L163.035 67.112H164.465L169.301 82.504H168.703L173.565 67.112H175.489L169.691 85H168.287L163.477 69.634H164.023L159.213 85H157.809ZM181.947 85.26C180.716 85.26 179.616 84.9827 178.645 84.428C177.674 83.8733 176.903 83.1107 176.331 82.14C175.776 81.1693 175.499 80.0773 175.499 78.864C175.499 77.668 175.776 76.5933 176.331 75.64C176.886 74.6693 177.64 73.9067 178.593 73.352C179.546 72.7973 180.612 72.52 181.791 72.52C182.9 72.52 183.88 72.7713 184.729 73.274C185.596 73.7767 186.272 74.4787 186.757 75.38C187.26 76.264 187.511 77.2867 187.511 78.448C187.511 78.5867 187.502 78.7513 187.485 78.942C187.468 79.1153 187.433 79.3233 187.381 79.566H176.799V78.006H186.393L185.743 78.578C185.76 77.6767 185.604 76.9053 185.275 76.264C184.963 75.6053 184.504 75.1027 183.897 74.756C183.308 74.392 182.588 74.21 181.739 74.21C180.855 74.21 180.084 74.4007 179.425 74.782C178.766 75.1633 178.246 75.7007 177.865 76.394C177.501 77.07 177.319 77.876 177.319 78.812C177.319 79.748 177.51 80.5713 177.891 81.282C178.29 81.9927 178.836 82.5473 179.529 82.946C180.24 83.3447 181.054 83.544 181.973 83.544C182.718 83.544 183.403 83.414 184.027 83.154C184.651 82.8767 185.18 82.4693 185.613 81.932L186.783 83.128C186.211 83.804 185.5 84.3327 184.651 84.714C183.819 85.078 182.918 85.26 181.947 85.26ZM190.295 85V66.592H192.115V85H190.295ZM195.805 85V66.592H197.625V85H195.805ZM210.207 85V77.824C210.207 76.7493 209.886 75.8827 209.245 75.224C208.621 74.548 207.789 74.21 206.749 74.21C206.038 74.21 205.414 74.366 204.877 74.678C204.339 74.99 203.915 75.4147 203.603 75.952C203.291 76.4893 203.135 77.1047 203.135 77.798L202.303 77.33C202.303 76.4113 202.519 75.588 202.953 74.86C203.386 74.132 203.967 73.56 204.695 73.144C205.44 72.728 206.289 72.52 207.243 72.52C208.179 72.52 209.011 72.7453 209.739 73.196C210.467 73.6467 211.03 74.2533 211.429 75.016C211.845 75.7787 212.053 76.6107 212.053 77.512V85H210.207ZM201.315 85V72.78H203.135V85H201.315ZM221.099 85.26C219.869 85.26 218.768 84.9827 217.797 84.428C216.827 83.8733 216.055 83.1107 215.483 82.14C214.929 81.1693 214.651 80.0773 214.651 78.864C214.651 77.668 214.929 76.5933 215.483 75.64C216.038 74.6693 216.792 73.9067 217.745 73.352C218.699 72.7973 219.765 72.52 220.943 72.52C222.053 72.52 223.032 72.7713 223.881 73.274C224.748 73.7767 225.424 74.4787 225.909 75.38C226.412 76.264 226.663 77.2867 226.663 78.448C226.663 78.5867 226.655 78.7513 226.637 78.942C226.62 79.1153 226.585 79.3233 226.533 79.566H215.951V78.006H225.545L224.895 78.578C224.913 77.6767 224.757 76.9053 224.427 76.264C224.115 75.6053 223.656 75.1027 223.049 74.756C222.46 74.392 221.741 74.21 220.891 74.21C220.007 74.21 219.236 74.4007 218.577 74.782C217.919 75.1633 217.399 75.7007 217.017 76.394C216.653 77.07 216.471 77.876 216.471 78.812C216.471 79.748 216.662 80.5713 217.043 81.282C217.442 81.9927 217.988 82.5473 218.681 82.946C219.392 83.3447 220.207 83.544 221.125 83.544C221.871 83.544 222.555 83.414 223.179 83.154C223.803 82.8767 224.332 82.4693 224.765 81.932L225.935 83.128C225.363 83.804 224.653 84.3327 223.803 84.714C222.971 85.078 222.07 85.26 221.099 85.26ZM233.192 85.26C232.533 85.26 231.9 85.1733 231.294 85C230.687 84.8093 230.132 84.5493 229.63 84.22C229.144 83.8907 228.72 83.5007 228.356 83.05L229.526 81.854C230.011 82.4433 230.557 82.8853 231.164 83.18C231.788 83.4573 232.481 83.596 233.244 83.596C234.058 83.596 234.691 83.44 235.142 83.128C235.61 82.816 235.844 82.3827 235.844 81.828C235.844 81.308 235.679 80.9007 235.35 80.606C235.02 80.3113 234.596 80.0773 234.076 79.904C233.573 79.7307 233.036 79.566 232.464 79.41C231.892 79.2367 231.346 79.0287 230.826 78.786C230.306 78.526 229.881 78.1707 229.552 77.72C229.24 77.2693 229.084 76.68 229.084 75.952C229.084 75.2587 229.248 74.6607 229.578 74.158C229.924 73.638 230.41 73.2393 231.034 72.962C231.675 72.6673 232.429 72.52 233.296 72.52C234.214 72.52 235.046 72.6847 235.792 73.014C236.537 73.3433 237.135 73.8287 237.586 74.47L236.416 75.64C236.052 75.172 235.592 74.8167 235.038 74.574C234.5 74.314 233.894 74.184 233.218 74.184C232.438 74.184 231.84 74.34 231.424 74.652C231.025 74.9467 230.826 75.3367 230.826 75.822C230.826 76.29 230.99 76.6627 231.32 76.94C231.649 77.2 232.065 77.4167 232.568 77.59C233.088 77.746 233.634 77.9107 234.206 78.084C234.778 78.24 235.324 78.4567 235.844 78.734C236.364 78.994 236.78 79.358 237.092 79.826C237.421 80.2767 237.586 80.892 237.586 81.672C237.586 82.764 237.187 83.6393 236.39 84.298C235.61 84.9393 234.544 85.26 233.192 85.26ZM244.211 85.26C243.552 85.26 242.92 85.1733 242.313 85C241.706 84.8093 241.152 84.5493 240.649 84.22C240.164 83.8907 239.739 83.5007 239.375 83.05L240.545 81.854C241.03 82.4433 241.576 82.8853 242.183 83.18C242.807 83.4573 243.5 83.596 244.263 83.596C245.078 83.596 245.71 83.44 246.161 83.128C246.629 82.816 246.863 82.3827 246.863 81.828C246.863 81.308 246.698 80.9007 246.369 80.606C246.04 80.3113 245.615 80.0773 245.095 79.904C244.592 79.7307 244.055 79.566 243.483 79.41C242.911 79.2367 242.365 79.0287 241.845 78.786C241.325 78.526 240.9 78.1707 240.571 77.72C240.259 77.2693 240.103 76.68 240.103 75.952C240.103 75.2587 240.268 74.6607 240.597 74.158C240.944 73.638 241.429 73.2393 242.053 72.962C242.694 72.6673 243.448 72.52 244.315 72.52C245.234 72.52 246.066 72.6847 246.811 73.014C247.556 73.3433 248.154 73.8287 248.605 74.47L247.435 75.64C247.071 75.172 246.612 74.8167 246.057 74.574C245.52 74.314 244.913 74.184 244.237 74.184C243.457 74.184 242.859 74.34 242.443 74.652C242.044 74.9467 241.845 75.3367 241.845 75.822C241.845 76.29 242.01 76.6627 242.339 76.94C242.668 77.2 243.084 77.4167 243.587 77.59C244.107 77.746 244.653 77.9107 245.225 78.084C245.797 78.24 246.343 78.4567 246.863 78.734C247.383 78.994 247.799 79.358 248.111 79.826C248.44 80.2767 248.605 80.892 248.605 81.672C248.605 82.764 248.206 83.6393 247.409 84.298C246.629 84.9393 245.563 85.26 244.211 85.26Z" fill="#5CAB56"/>
</svg>
