<svg width="75" height="55" viewBox="0 0 75 55" fill="none" xmlns="http://www.w3.org/2000/svg">
<path fill-rule="evenodd" clip-rule="evenodd" d="M44.0277 40.6167C40.203 44.0025 37.4693 47.0622 37.4693 47.0622C37.4693 47.0622 34.7356 44.0025 30.9109 40.6167C25.8072 33.4063 21.9324 20.0262 37.4693 0C53.0062 20.0262 49.1314 33.4063 44.0277 40.6167ZM41.4946 38.648C41.4946 36.4284 39.7014 34.6227 37.4693 34.6227C35.2372 34.6227 33.444 36.4284 33.444 38.648C33.444 40.8801 35.2372 42.6858 37.4693 42.6858C39.7014 42.6858 41.4946 40.8801 41.4946 38.648Z" fill="#87C440"/>
<path d="M66.4495 22.321C51.063 22.4088 44.8683 33.7073 44.0658 35.2998C43.9905 35.467 43.9069 35.6301 43.815 35.7889C42.5108 38.2467 41.6957 40.8049 41.2067 43.2376C42.5359 41.946 44.1661 40.4537 45.9342 38.9866L45.9969 38.9239L46.323 38.6605C46.5319 38.485 46.7451 38.3094 46.9625 38.1339C47.0628 38.0461 47.1631 37.9583 47.276 37.8705C47.3847 37.7869 47.4933 37.7033 47.602 37.6197C47.8194 37.4525 48.0367 37.2853 48.2541 37.1181C48.5551 36.9008 48.8518 36.6876 49.1444 36.4786C50.737 35.3249 52.3797 34.2841 53.9974 33.4565C54.2064 33.3394 54.4112 33.2266 54.6118 33.1179C54.8125 33.005 55.0006 32.9047 55.1887 32.8169C55.3809 32.7166 55.569 32.6205 55.753 32.5285C55.9369 32.4366 56.1166 32.3446 56.2922 32.2526C56.4677 32.1649 56.6308 32.0771 56.8063 32.0018C57.1407 31.843 57.4584 31.6925 57.7593 31.5504C58.0603 31.4083 58.3445 31.2787 58.6121 31.1617C58.8712 31.0446 59.1137 30.9401 59.3394 30.8482C60.2046 30.472 60.7062 30.2588 60.7062 30.2588C60.7062 30.2588 60.2297 30.5221 59.3895 30.9736C59.1805 31.0906 58.9506 31.216 58.6998 31.3498C58.4574 31.4919 58.1899 31.6466 57.8973 31.8138C57.613 31.9809 57.3121 32.1565 56.9944 32.3404C56.8314 32.4407 56.6684 32.5411 56.5053 32.6414C56.3382 32.7501 56.171 32.8587 56.0038 32.9674C55.8282 33.0761 55.6526 33.1848 55.4771 33.2935C55.3015 33.4063 55.1134 33.5192 54.9379 33.6446C54.57 33.8954 54.1938 34.1504 53.8093 34.4095C53.7173 34.4764 53.6212 34.5433 53.5209 34.6102C53.4289 34.677 53.3328 34.7439 53.2324 34.8108C53.0402 34.9529 52.8479 35.095 52.6556 35.2371C52.455 35.3793 52.2543 35.5256 52.0537 35.676C51.853 35.8265 51.6649 35.9895 51.4643 36.14C50.6618 36.7545 49.8717 37.4316 49.0817 38.1339C48.8895 38.3094 48.6972 38.4892 48.5049 38.6731C48.4046 38.765 48.3043 38.8528 48.2039 38.9364C48.1036 39.0242 48.0158 39.1245 47.9155 39.2248C47.7316 39.4088 47.5435 39.5927 47.3512 39.7766L47.0753 40.065L46.7995 40.3534C46.4358 40.7547 46.0596 41.1309 45.721 41.5322C45.5538 41.7328 45.3825 41.9335 45.2069 42.1341C45.0481 42.3431 44.885 42.5479 44.7178 42.7485C44.3918 43.1498 44.0909 43.5762 43.7899 43.99C43.6394 44.1906 43.5015 44.4038 43.3635 44.6044C43.2967 44.7131 43.2298 44.8176 43.1629 44.9179C43.0877 45.0183 43.0124 45.1186 42.9497 45.2314C42.6989 45.6453 42.4356 46.0465 42.2099 46.4604C42.1513 46.569 42.0928 46.6735 42.0343 46.7739C42.0176 46.8073 42.0009 46.8407 41.9841 46.8742C40.2536 50.2976 40.5922 53.7711 40.7427 54.7367C40.7678 54.9122 40.7803 55 40.7803 55C40.7887 54.9081 40.8012 54.8161 40.8179 54.7241C41.4575 48.6674 46.486 44.0151 52.5804 43.8144C62.4242 43.4759 65.9103 37.9081 68.0295 32.1649C70.4999 25.456 74.939 23.1487 74.939 23.1487C71.8291 22.4715 69.0076 22.2333 66.4495 22.321Z" fill="#A4CD38"/>
<path d="M8.48951 22.321C23.876 22.4088 30.0707 33.7073 30.8732 35.2998C30.9485 35.467 31.0321 35.6301 31.124 35.7889C32.4282 38.2467 33.2433 40.8049 33.7323 43.2376C32.4031 41.946 30.7729 40.4537 29.0048 38.9866L28.9421 38.9239L28.6161 38.6605C28.4071 38.485 28.1939 38.3094 27.9765 38.1339C27.8762 38.0461 27.7759 37.9583 27.663 37.8705C27.5543 37.7869 27.4457 37.7033 27.337 37.6197C27.1196 37.4525 26.9023 37.2853 26.6849 37.1181C26.3839 36.9008 26.0872 36.6876 25.7946 36.4786C24.202 35.3249 22.5593 34.2841 20.9416 33.4565C20.7326 33.3394 20.5278 33.2266 20.3272 33.1179C20.1265 33.005 19.9384 32.9047 19.7503 32.8169C19.5581 32.7166 19.37 32.6205 19.186 32.5285C19.0021 32.4366 18.8224 32.3446 18.6468 32.2526C18.4713 32.1649 18.3083 32.0771 18.1327 32.0018C17.7983 31.843 17.4806 31.6925 17.1797 31.5504C16.8787 31.4083 16.5945 31.2787 16.3269 31.1617C16.0678 31.0446 15.8254 30.9401 15.5996 30.8482C14.7344 30.472 14.2328 30.2588 14.2328 30.2588C14.2328 30.2588 14.7093 30.5221 15.5495 30.9736C15.7585 31.0906 15.9884 31.216 16.2392 31.3498C16.4816 31.4919 16.7491 31.6466 17.0417 31.8138C17.326 31.9809 17.6269 32.1565 17.9446 32.3404C18.1076 32.4407 18.2706 32.5411 18.4337 32.6414C18.6009 32.7501 18.7681 32.8587 18.9352 32.9674C19.1108 33.0761 19.2864 33.1848 19.4619 33.2935C19.6375 33.4063 19.8256 33.5192 20.0011 33.6446C20.369 33.8954 20.7452 34.1504 21.1297 34.4095C21.2217 34.4764 21.3178 34.5433 21.4181 34.6102C21.5101 34.677 21.6062 34.7439 21.7066 34.8108C21.8988 34.9529 22.0911 35.095 22.2834 35.2371C22.484 35.3793 22.6847 35.5256 22.8853 35.676C23.086 35.8265 23.2741 35.9895 23.4747 36.14C24.2772 36.7545 25.0673 37.4316 25.8573 38.1339C26.0496 38.3094 26.2418 38.4892 26.4341 38.6731C26.5344 38.765 26.6347 38.8528 26.7351 38.9364C26.8354 39.0242 26.9232 39.1245 27.0235 39.2248C27.2074 39.4088 27.3955 39.5927 27.5878 39.7766L27.8637 40.065L28.1395 40.3534C28.5032 40.7547 28.8794 41.1309 29.218 41.5322C29.3852 41.7328 29.5565 41.9335 29.7321 42.1341C29.8909 42.3431 30.054 42.5479 30.2212 42.7485C30.5472 43.1498 30.8482 43.5762 31.1491 43.99C31.2996 44.1906 31.4375 44.4038 31.5755 44.6044C31.6423 44.7131 31.7092 44.8176 31.7761 44.9179C31.8513 45.0183 31.9266 45.1186 31.9893 45.2314C32.2401 45.6453 32.5034 46.0465 32.7291 46.4604C32.7877 46.569 32.8462 46.6735 32.9047 46.7739C32.9214 46.8073 32.9381 46.8407 32.9549 46.8742C34.6854 50.2976 34.3468 53.7711 34.1963 54.7367C34.1712 54.9123 34.1587 55 34.1587 55C34.1503 54.9081 34.1378 54.8161 34.1211 54.7241C33.4815 48.6674 28.453 44.0151 22.3586 43.8144C12.5148 43.4759 9.02873 37.9081 6.90948 32.1649C4.43912 25.456 0 23.1487 0 23.1487C3.10989 22.4715 5.93137 22.2333 8.48951 22.321Z" fill="#A4CD38"/>
<path d="M49.1688 25.0798C49.219 26.0245 49.219 26.9608 49.1688 27.8887C49.2273 27.8302 49.2859 27.7759 49.3444 27.7257C51.4386 25.945 53.7835 24.5406 56.3166 23.5248C56.7178 23.3744 57.1191 23.2281 57.5204 23.0859C57.7085 20.3146 57.4201 17.0166 56.4545 13.0791C52.843 15.0102 50.1846 17.0417 48.2534 19.0481C48.7634 21.1046 49.0685 23.1152 49.1688 25.0798Z" fill="#6DBD44"/>
<path d="M18.6215 23.5248C21.1546 24.5406 23.4995 25.945 25.5937 27.7257C25.6522 27.7759 25.7107 27.8302 25.7692 27.8887C25.7191 26.9608 25.7191 26.0245 25.7692 25.0798C25.8696 23.0149 26.204 20.8998 26.7724 18.7346C24.8664 16.8285 22.2957 14.9225 18.8723 13.0791C17.8817 17.0793 17.6058 20.4275 17.8064 23.2239C18.0823 23.3242 18.354 23.4245 18.6215 23.5248Z" fill="#6DBD44"/>
</svg>
