<svg width="13" height="13" viewBox="0 0 13 13" fill="none" xmlns="http://www.w3.org/2000/svg">
<g clip-path="url(#clip0_42_47393)">
<path d="M0.781371 5.58751C0.834564 5.57888 0.888396 5.5749 0.942257 5.5756H10.1135L9.91352 5.48258C9.71804 5.39006 9.54021 5.26414 9.38799 5.11052L6.81614 2.53868C6.47742 2.21534 6.42051 1.69518 6.68127 1.30624C6.98476 0.891772 7.56676 0.801781 7.98126 1.10527C8.01475 1.1298 8.04657 1.15654 8.07648 1.18532L12.7272 5.83604C13.0907 6.19908 13.091 6.78801 12.7279 7.15146C12.7277 7.15169 12.7274 7.15196 12.7272 7.15219L8.07648 11.8029C7.71274 12.1656 7.12381 12.1648 6.76106 11.8011C6.73251 11.7724 6.70586 11.742 6.68127 11.7099C6.42051 11.3209 6.47742 10.8008 6.81614 10.4775L9.38333 7.90095C9.5198 7.76434 9.67671 7.64979 9.84841 7.56145L10.1274 7.43588H0.993443C0.518286 7.45353 0.101407 7.12161 0.0121422 6.65456C-0.0700874 6.14749 0.274299 5.66977 0.781371 5.58751Z" fill="black"/>
</g>
<defs>
<clipPath id="clip0_42_47393">
<rect width="13" height="13" fill="white" transform="matrix(-1 0 0 1 13 0)"/>
</clipPath>
</defs>
</svg>
