<svg width="240" height="72" viewBox="0 0 240 72" fill="none" xmlns="http://www.w3.org/2000/svg">
<g opacity="0.6">
<path d="M239.696 7.81496V71.0603H100.701V20.5701H112.759V35.1952H115.857V9.60124H131.179V33.9113H133.217V3.09808H146.53V11.555H153.368V22.0773H155.434V15.4625H167.547V35.1952H171.092V19.1467H182.172V6.94974H189.708V0H198.416V30.8133H201.375V17.9465H215.721V36.3396H217.702V21.3237H232.272V7.81496H239.696Z" fill="#EBEBEB"/>
<path d="M104.218 25.2033H102.152V22.4122H104.218V25.2033Z" fill="white"/>
<path d="M107.734 25.2033H105.697V22.4122H107.734V25.2033Z" fill="white"/>
<path d="M111.279 25.2033H109.241V22.4122H111.279V25.2033Z" fill="white"/>
<path d="M104.218 29.4177H102.152V26.5988H104.218V29.4177Z" fill="white"/>
<path d="M107.734 29.4177H105.697V26.5988H107.734V29.4177Z" fill="white"/>
<path d="M111.279 29.4177H109.241V26.5988H111.279V29.4177Z" fill="white"/>
<path d="M104.218 33.6323H102.152V30.8134H104.218V33.6323Z" fill="white"/>
<path d="M107.734 33.6323H105.697V30.8134H107.734V33.6323Z" fill="white"/>
<path d="M111.279 33.6323H109.241V30.8134H111.279V33.6323Z" fill="white"/>
<path d="M104.218 37.8467H102.152V35.0277H104.218V37.8467Z" fill="white"/>
<path d="M107.734 37.8467H105.697V35.0277H107.734V37.8467Z" fill="white"/>
<path d="M111.279 37.8467H109.241V35.0277H111.279V37.8467Z" fill="white"/>
<path d="M174.831 23.4728H172.794V21.1562H174.831V23.4728Z" fill="white"/>
<path d="M178.376 23.4728H176.338V21.1562H178.376V23.4728Z" fill="white"/>
<path d="M181.921 23.4728H179.883V21.1562H181.921V23.4728Z" fill="white"/>
<path d="M174.831 26.9894H172.794V24.6729H174.831V26.9894Z" fill="white"/>
<path d="M178.376 26.9894H176.338V24.6729H178.376V26.9894Z" fill="white"/>
<path d="M181.921 26.9894H179.883V24.6729H181.921V26.9894Z" fill="white"/>
<path d="M174.831 30.5062H172.794V28.1617H174.831V30.5062Z" fill="white"/>
<path d="M178.376 30.5062H176.338V28.1617H178.376V30.5062Z" fill="white"/>
<path d="M181.921 30.5062H179.883V28.1617H181.921V30.5062Z" fill="white"/>
<path d="M174.831 34.023H172.794V31.6785H174.831V34.023Z" fill="white"/>
<path d="M178.376 34.023H176.338V31.6785H178.376V34.023Z" fill="white"/>
<path d="M181.921 34.023H179.883V31.6785H181.921V34.023Z" fill="white"/>
<path d="M174.831 37.6235H172.794V35.2791H174.831V37.6235Z" fill="white"/>
<path d="M178.376 37.6235H176.338V35.2791H178.376V37.6235Z" fill="white"/>
<path d="M181.921 37.6235H179.883V35.2791H181.921V37.6235Z" fill="white"/>
<path d="M174.831 41.2239H172.794V38.8794H174.831V41.2239Z" fill="white"/>
<path d="M178.376 41.2239H176.338V38.8794H178.376V41.2239Z" fill="white"/>
<path d="M181.921 41.2239H179.883V38.8794H181.921V41.2239Z" fill="white"/>
<path d="M174.831 44.8244H172.794V42.5078H174.831V44.8244Z" fill="white"/>
<path d="M178.376 44.8244H176.338V42.5078H178.376V44.8244Z" fill="white"/>
<path d="M181.921 44.8244H179.883V42.5078H181.921V44.8244Z" fill="white"/>
<path d="M174.831 48.4247H172.794V46.1082H174.831V48.4247Z" fill="white"/>
<path d="M178.376 48.4247H176.338V46.1082H178.376V48.4247Z" fill="white"/>
<path d="M181.921 48.4247H179.883V46.1082H181.921V48.4247Z" fill="white"/>
<path d="M129.337 13.1459H117.587V11.4154H129.337V13.1459Z" fill="white"/>
<path d="M129.337 16.551H117.587V14.7926H129.337V16.551Z" fill="white"/>
<path d="M129.337 19.956H117.587V18.1976H129.337V19.956Z" fill="white"/>
<path d="M129.337 23.3332H117.587V21.6028H129.337V23.3332Z" fill="white"/>
<path d="M129.337 26.7383H117.587V24.98H129.337V26.7383Z" fill="white"/>
<path d="M129.337 30.1434H117.587V28.385H129.337V30.1434Z" fill="white"/>
<path d="M129.337 33.5485H117.587V31.7902H129.337V33.5485Z" fill="white"/>
<path d="M129.337 36.9256H117.587V35.1952H129.337V36.9256Z" fill="white"/>
<path d="M213.906 21.3516H203.105V19.5933H213.906V21.3516Z" fill="white"/>
<path d="M213.906 24.7287H203.105V22.9983H213.906V24.7287Z" fill="white"/>
<path d="M213.906 28.1338H203.105V26.3755H213.906V28.1338Z" fill="white"/>
<path d="M213.906 31.5389H203.105V29.7805H213.906V31.5389Z" fill="white"/>
<path d="M213.906 34.9161H203.105V33.1857H213.906V34.9161Z" fill="white"/>
<path d="M213.906 38.3212H203.105V36.5629H213.906V38.3212Z" fill="white"/>
<path d="M213.906 41.7263H203.105V39.9679H213.906V41.7263Z" fill="white"/>
<path d="M213.906 45.1314H203.105V43.373H213.906V45.1314Z" fill="white"/>
<path d="M213.906 48.3411H203.105V46.6106H213.906V48.3411Z" fill="white"/>
<path d="M213.906 51.5787H203.105V49.8203H213.906V51.5787Z" fill="white"/>
<path d="M213.906 54.8163H203.105V53.058H213.906V54.8163Z" fill="white"/>
<path d="M213.906 58.0261H203.105V56.2957H213.906V58.0261Z" fill="white"/>
<path d="M213.906 61.2637H203.105V59.5054H213.906V61.2637Z" fill="white"/>
<path d="M231.35 25.4544H219.935V23.696H231.35V25.4544Z" fill="white"/>
<path d="M231.35 28.8316H219.935V27.1012H231.35V28.8316Z" fill="white"/>
<path d="M231.35 32.2368H219.935V30.4784H231.35V32.2368Z" fill="white"/>
<path d="M231.35 35.6418H219.935V33.8834H231.35V35.6418Z" fill="white"/>
<path d="M231.35 39.0469H219.935V37.2886H231.35V39.0469Z" fill="white"/>
<path d="M231.35 42.4241H219.935V40.6658H231.35V42.4241Z" fill="white"/>
<path d="M231.35 45.8292H219.935V44.0708H231.35V45.8292Z" fill="white"/>
<path d="M231.35 49.2342H219.935V47.4758H231.35V49.2342Z" fill="white"/>
<path d="M231.35 52.2764H219.935V50.5181H231.35V52.2764Z" fill="white"/>
<path d="M231.35 55.3187H219.935V53.5603H231.35V55.3187Z" fill="white"/>
<path d="M231.35 58.361H219.935V56.6027H231.35V58.361Z" fill="white"/>
<path d="M162.606 18.7281H158.978V17.0255H162.606V18.7281Z" fill="white"/>
<path d="M162.606 22.0214H158.978V20.3188H162.606V22.0214Z" fill="white"/>
<path d="M162.606 25.2869H158.978V23.6123H162.606V25.2869Z" fill="white"/>
<path d="M162.606 28.5805H158.978V26.8779H162.606V28.5805Z" fill="white"/>
<path d="M162.606 31.8459H158.978V30.1713H162.606V31.8459Z" fill="white"/>
<path d="M162.606 35.1394H158.978V33.4369H162.606V35.1394Z" fill="white"/>
<path d="M162.606 38.405H158.978V36.7303H162.606V38.405Z" fill="white"/>
<path d="M162.606 41.6984H158.978V39.9958H162.606V41.6984Z" fill="white"/>
<path d="M167.547 18.7281H163.918V17.0255H167.547V18.7281Z" fill="white"/>
<path d="M167.547 22.0214H163.918V20.3188H167.547V22.0214Z" fill="white"/>
<path d="M167.547 25.2869H163.918V23.6123H167.547V25.2869Z" fill="white"/>
<path d="M167.547 28.5805H163.918V26.8779H167.547V28.5805Z" fill="white"/>
<path d="M167.547 31.8459H163.918V30.1713H167.547V31.8459Z" fill="white"/>
<path d="M167.547 35.1394H163.918V33.4369H167.547V35.1394Z" fill="white"/>
<path d="M167.547 38.405H163.918V36.7303H167.547V38.405Z" fill="white"/>
<path d="M167.547 41.6984H163.918V39.9958H167.547V41.6984Z" fill="white"/>
<path d="M139.022 7.53585H135.226V4.85645H139.022V7.53585Z" fill="white"/>
<path d="M144.632 7.53585H140.864V4.85645H144.632V7.53585Z" fill="white"/>
<path d="M139.022 11.4434H135.226V8.79187H139.022V11.4434Z" fill="white"/>
<path d="M144.632 11.4434H140.864V8.79187H144.632V11.4434Z" fill="white"/>
<path d="M139.022 15.3786H135.226V12.6992H139.022V15.3786Z" fill="white"/>
<path d="M144.632 15.3786H140.864V12.6992H144.632V15.3786Z" fill="white"/>
<path d="M139.022 19.2862H135.226V16.6068H139.022V19.2862Z" fill="white"/>
<path d="M144.632 19.2862H140.864V16.6068H144.632V19.2862Z" fill="white"/>
<path d="M139.022 23.1936H135.226V20.5421H139.022V23.1936Z" fill="white"/>
<path d="M144.632 23.1936H140.864V20.5421H144.632V23.1936Z" fill="white"/>
<path d="M139.022 27.1291H135.226V24.4497H139.022V27.1291Z" fill="white"/>
<path d="M144.632 27.1291H140.864V24.4497H144.632V27.1291Z" fill="white"/>
<path d="M139.022 31.0366H135.226V28.3572H139.022V31.0366Z" fill="white"/>
<path d="M144.632 31.0366H140.864V28.3572H144.632V31.0366Z" fill="white"/>
<path d="M139.022 34.944H135.226V32.2925H139.022V34.944Z" fill="white"/>
<path d="M144.632 34.944H140.864V32.2925H144.632V34.944Z" fill="white"/>
<path d="M151.638 15.3786H147.842V12.6992H151.638V15.3786Z" fill="white"/>
<path d="M151.638 19.2862H147.842V16.6068H151.638V19.2862Z" fill="white"/>
<path d="M151.638 23.1936H147.842V20.5421H151.638V23.1936Z" fill="white"/>
<path d="M151.638 27.1291H147.842V24.4497H151.638V27.1291Z" fill="white"/>
<path d="M151.638 31.0366H147.842V28.3572H151.638V31.0366Z" fill="white"/>
<path d="M151.638 34.944H147.842V32.2925H151.638V34.944Z" fill="white"/>
<path d="M139.022 38.8236H135.226V36.1442H139.022V38.8236Z" fill="white"/>
<path d="M144.632 38.8236H140.864V36.1442H144.632V38.8236Z" fill="white"/>
<path d="M151.638 38.8236H147.842V36.1442H151.638V38.8236Z" fill="white"/>
<path d="M139.022 42.7031H135.226V40.0237H139.022V42.7031Z" fill="white"/>
<path d="M144.632 42.7031H140.864V40.0237H144.632V42.7031Z" fill="white"/>
<path d="M151.638 42.7031H147.842V40.0237H151.638V42.7031Z" fill="white"/>
<path d="M139.022 46.5548H135.226V43.9033H139.022V46.5548Z" fill="white"/>
<path d="M144.632 46.5548H140.864V43.9033H144.632V46.5548Z" fill="white"/>
<path d="M151.638 46.5548H147.842V43.9033H151.638V46.5548Z" fill="white"/>
<path d="M139.022 50.4343H135.226V47.7828H139.022V50.4343Z" fill="white"/>
<path d="M144.632 50.4343H140.864V47.7828H144.632V50.4343Z" fill="white"/>
<path d="M151.638 50.4343H147.842V47.7828H151.638V50.4343Z" fill="white"/>
<path d="M139.022 54.3139H135.226V51.6345H139.022V54.3139Z" fill="white"/>
<path d="M144.632 54.3139H140.864V51.6345H144.632V54.3139Z" fill="white"/>
<path d="M151.638 54.3139H147.842V51.6345H151.638V54.3139Z" fill="white"/>
<path d="M185.772 10.9967H183.707V8.68018H185.772V10.9967Z" fill="white"/>
<path d="M189.289 10.9967H187.251V8.68018H189.289V10.9967Z" fill="white"/>
<path d="M185.772 14.5135H183.707V12.1969H185.772V14.5135Z" fill="white"/>
<path d="M189.289 14.5135H187.251V12.1969H189.289V14.5135Z" fill="white"/>
<path d="M185.772 18.0302H183.707V15.7136H185.772V18.0302Z" fill="white"/>
<path d="M189.289 18.0302H187.251V15.7136H189.289V18.0302Z" fill="white"/>
<path d="M185.772 21.547H183.707V19.2025H185.772V21.547Z" fill="white"/>
<path d="M189.289 21.547H187.251V19.2025H189.289V21.547Z" fill="white"/>
<path d="M185.772 25.1475H183.707V22.803H185.772V25.1475Z" fill="white"/>
<path d="M189.289 25.1475H187.251V22.803H189.289V25.1475Z" fill="white"/>
<path d="M185.772 28.7478H183.707V26.4313H185.772V28.7478Z" fill="white"/>
<path d="M189.289 28.7478H187.251V26.4313H189.289V28.7478Z" fill="white"/>
<path d="M185.772 32.3483H183.707V30.0317H185.772V32.3483Z" fill="white"/>
<path d="M189.289 32.3483H187.251V30.0317H189.289V32.3483Z" fill="white"/>
<path d="M185.772 35.9489H183.707V33.6323H185.772V35.9489Z" fill="white"/>
<path d="M189.289 35.9489H187.251V33.6323H189.289V35.9489Z" fill="white"/>
<path d="M185.772 39.6051H183.707V37.2606H185.772V39.6051Z" fill="white"/>
<path d="M189.289 39.6051H187.251V37.2606H189.289V39.6051Z" fill="white"/>
<path d="M185.772 43.2334H183.707V40.8889H185.772V43.2334Z" fill="white"/>
<path d="M189.289 43.2334H187.251V40.8889H189.289V43.2334Z" fill="white"/>
<path d="M185.772 46.8898H183.707V44.5453H185.772V46.8898Z" fill="white"/>
<path d="M189.289 46.8898H187.251V44.5453H189.289V46.8898Z" fill="white"/>
<path d="M185.772 50.5181H183.707V48.1736H185.772V50.5181Z" fill="white"/>
<path d="M189.289 50.5181H187.251V48.1736H189.289V50.5181Z" fill="white"/>
<path d="M235.565 11.8062H233.527V9.04309H235.565V11.8062Z" fill="white"/>
<path d="M239.11 11.8062H237.072V9.04309H239.11V11.8062Z" fill="white"/>
<path d="M235.565 15.9369H233.527V13.2017H235.565V15.9369Z" fill="white"/>
<path d="M239.11 15.9369H237.072V13.2017H239.11V15.9369Z" fill="white"/>
<path d="M235.565 20.0955H233.527V17.3324H235.565V20.0955Z" fill="white"/>
<path d="M239.11 20.0955H237.072V17.3324H239.11V20.0955Z" fill="white"/>
<path d="M235.565 24.2264H233.527V21.4633H235.565V24.2264Z" fill="white"/>
<path d="M239.11 24.2264H237.072V21.4633H239.11V24.2264Z" fill="white"/>
<path d="M235.565 28.4688H233.527V25.7057H235.565V28.4688Z" fill="white"/>
<path d="M239.11 28.4688H237.072V25.7057H239.11V28.4688Z" fill="white"/>
<path d="M235.565 32.7113H233.527V29.9481H235.565V32.7113Z" fill="white"/>
<path d="M239.11 32.7113H237.072V29.9481H239.11V32.7113Z" fill="white"/>
<path d="M235.565 36.9536H233.527V34.1904H235.565V36.9536Z" fill="white"/>
<path d="M239.11 36.9536H237.072V34.1904H239.11V36.9536Z" fill="white"/>
<path d="M235.565 41.196H233.527V38.4329H235.565V41.196Z" fill="white"/>
<path d="M239.11 41.196H237.072V38.4329H239.11V41.196Z" fill="white"/>
<path d="M235.565 45.4941H233.527V42.731H235.565V45.4941Z" fill="white"/>
<path d="M239.11 45.4941H237.072V42.731H239.11V45.4941Z" fill="white"/>
<path d="M235.565 49.7645H233.527V47.0293H235.565V49.7645Z" fill="white"/>
<path d="M239.11 49.7645H237.072V47.0293H239.11V49.7645Z" fill="white"/>
<path d="M235.565 54.0627H233.527V51.2996H235.565V54.0627Z" fill="white"/>
<path d="M239.11 54.0627H237.072V51.2996H239.11V54.0627Z" fill="white"/>
<path d="M235.565 58.3609H233.527V55.5978H235.565V58.3609Z" fill="white"/>
<path d="M239.11 58.3609H237.072V55.5978H239.11V58.3609Z" fill="white"/>
<path d="M193.308 10.9967H191.271V8.68018H193.308V10.9967Z" fill="white"/>
<path d="M196.853 10.9967H194.815V8.68018H196.853V10.9967Z" fill="white"/>
<path d="M193.308 7.39628H191.271V5.07971H193.308V7.39628Z" fill="white"/>
<path d="M196.853 7.39628H194.815V5.07971H196.853V7.39628Z" fill="white"/>
<path d="M193.308 3.79591H191.271V1.45142H193.308V3.79591Z" fill="white"/>
<path d="M196.853 3.79591H194.815V1.45142H196.853V3.79591Z" fill="white"/>
<path d="M193.308 14.5135H191.271V12.1969H193.308V14.5135Z" fill="white"/>
<path d="M196.853 14.5135H194.815V12.1969H196.853V14.5135Z" fill="white"/>
<path d="M193.308 18.0302H191.271V15.7136H193.308V18.0302Z" fill="white"/>
<path d="M196.853 18.0302H194.815V15.7136H196.853V18.0302Z" fill="white"/>
<path d="M193.308 21.547H191.271V19.2025H193.308V21.547Z" fill="white"/>
<path d="M196.853 21.547H194.815V19.2025H196.853V21.547Z" fill="white"/>
<path d="M193.308 25.1475H191.271V22.803H193.308V25.1475Z" fill="white"/>
<path d="M196.853 25.1475H194.815V22.803H196.853V25.1475Z" fill="white"/>
<path d="M193.308 28.7478H191.271V26.4313H193.308V28.7478Z" fill="white"/>
<path d="M196.853 28.7478H194.815V26.4313H196.853V28.7478Z" fill="white"/>
<path d="M193.308 32.3483H191.271V30.0317H193.308V32.3483Z" fill="white"/>
<path d="M196.853 32.3483H194.815V30.0317H196.853V32.3483Z" fill="white"/>
<path d="M193.308 35.9489H191.271V33.6323H193.308V35.9489Z" fill="white"/>
<path d="M196.853 35.9489H194.815V33.6323H196.853V35.9489Z" fill="white"/>
<path d="M193.308 39.6051H191.271V37.2606H193.308V39.6051Z" fill="white"/>
<path d="M196.853 39.6051H194.815V37.2606H196.853V39.6051Z" fill="white"/>
<path d="M193.308 43.2334H191.271V40.8889H193.308V43.2334Z" fill="white"/>
<path d="M196.853 43.2334H194.815V40.8889H196.853V43.2334Z" fill="white"/>
<path d="M193.308 46.8898H191.271V44.5453H193.308V46.8898Z" fill="white"/>
<path d="M196.853 46.8898H194.815V44.5453H196.853V46.8898Z" fill="white"/>
<path d="M193.308 50.5181H191.271V48.1736H193.308V50.5181Z" fill="white"/>
<path d="M196.853 50.5181H194.815V48.1736H196.853V50.5181Z" fill="white"/>
<path d="M100.701 71.0602H0V14.4297H12.0574V29.0548H15.1833V20.7654H30.5062V33.9113H32.5437V3.09802H45.857V11.5549H52.6951V22.0772H54.7605V15.4624H66.8737V35.1952H70.4183V19.1466H81.4988V6.94968H89.0347L97.7427 7.0055V30.8132H100.673L100.701 71.0602Z" fill="#EBEBEB"/>
<path d="M3.51696 19.0628H1.47949V16.2717H3.51696V19.0628Z" fill="white"/>
<path d="M7.0614 19.0628H5.02393V16.2717H7.0614V19.0628Z" fill="white"/>
<path d="M10.6063 19.0628H8.56885V16.2717H10.6063V19.0628Z" fill="white"/>
<path d="M3.51696 23.2773H1.47949V20.4584H3.51696V23.2773Z" fill="white"/>
<path d="M7.0614 23.2773H5.02393V20.4584H7.0614V23.2773Z" fill="white"/>
<path d="M10.6063 23.2773H8.56885V20.4584H10.6063V23.2773Z" fill="white"/>
<path d="M3.51696 27.4918H1.47949V24.6729H3.51696V27.4918Z" fill="white"/>
<path d="M7.0614 27.4918H5.02393V24.6729H7.0614V27.4918Z" fill="white"/>
<path d="M10.6063 27.4918H8.56885V24.6729H10.6063V27.4918Z" fill="white"/>
<path d="M3.51696 31.7063H1.47949V28.8873H3.51696V31.7063Z" fill="white"/>
<path d="M7.0614 31.7063H5.02393V28.8873H7.0614V31.7063Z" fill="white"/>
<path d="M10.6063 31.7063H8.56885V28.8873H10.6063V31.7063Z" fill="white"/>
<path d="M74.1586 23.4727H72.1211V21.1561H74.1586V23.4727Z" fill="white"/>
<path d="M77.7035 23.4727H75.666V21.1561H77.7035V23.4727Z" fill="white"/>
<path d="M81.2479 23.4727H79.2104V21.1561H81.2479V23.4727Z" fill="white"/>
<path d="M74.1586 26.9894H72.1211V24.6729H74.1586V26.9894Z" fill="white"/>
<path d="M77.7035 26.9894H75.666V24.6729H77.7035V26.9894Z" fill="white"/>
<path d="M81.2479 26.9894H79.2104V24.6729H81.2479V26.9894Z" fill="white"/>
<path d="M74.1586 30.5061H72.1211V28.1616H74.1586V30.5061Z" fill="white"/>
<path d="M77.7035 30.5061H75.666V28.1616H77.7035V30.5061Z" fill="white"/>
<path d="M81.2479 30.5061H79.2104V28.1616H81.2479V30.5061Z" fill="white"/>
<path d="M74.1586 34.0228H72.1211V31.6783H74.1586V34.0228Z" fill="white"/>
<path d="M77.7035 34.0228H75.666V31.6783H77.7035V34.0228Z" fill="white"/>
<path d="M81.2479 34.0228H79.2104V31.6783H81.2479V34.0228Z" fill="white"/>
<path d="M74.1586 37.6234H72.1211V35.2789H74.1586V37.6234Z" fill="white"/>
<path d="M77.7035 37.6234H75.666V35.2789H77.7035V37.6234Z" fill="white"/>
<path d="M81.2479 37.6234H79.2104V35.2789H81.2479V37.6234Z" fill="white"/>
<path d="M74.1586 41.2238H72.1211V38.8793H74.1586V41.2238Z" fill="white"/>
<path d="M77.7035 41.2238H75.666V38.8793H77.7035V41.2238Z" fill="white"/>
<path d="M81.2479 41.2238H79.2104V38.8793H81.2479V41.2238Z" fill="white"/>
<path d="M74.1586 44.8243H72.1211V42.5077H74.1586V44.8243Z" fill="white"/>
<path d="M77.7035 44.8243H75.666V42.5077H77.7035V44.8243Z" fill="white"/>
<path d="M81.2479 44.8243H79.2104V42.5077H81.2479V44.8243Z" fill="white"/>
<path d="M74.1586 48.4247H72.1211V46.1082H74.1586V48.4247Z" fill="white"/>
<path d="M77.7035 48.4247H75.666V46.1082H77.7035V48.4247Z" fill="white"/>
<path d="M81.2479 48.4247H79.2104V46.1082H81.2479V48.4247Z" fill="white"/>
<path d="M28.6644 24.31H16.9141V22.5796H28.6644V24.31Z" fill="white"/>
<path d="M28.6644 27.7151H16.9141V25.9568H28.6644V27.7151Z" fill="white"/>
<path d="M28.6644 31.1202H16.9141V29.3618H28.6644V31.1202Z" fill="white"/>
<path d="M28.6644 34.4974H16.9141V32.767H28.6644V34.4974Z" fill="white"/>
<path d="M28.6644 37.9025H16.9141V36.1442H28.6644V37.9025Z" fill="white"/>
<path d="M28.6644 41.3074H16.9141V39.5491H28.6644V41.3074Z" fill="white"/>
<path d="M28.6644 44.7126H16.9141V42.9542H28.6644V44.7126Z" fill="white"/>
<path d="M28.6644 48.0898H16.9141V46.3594H28.6644V48.0898Z" fill="white"/>
<path d="M61.934 18.7279H58.3057V17.0254H61.934V18.7279Z" fill="white"/>
<path d="M61.934 22.0214H58.3057V20.3188H61.934V22.0214Z" fill="white"/>
<path d="M61.934 25.2868H58.3057V23.6122H61.934V25.2868Z" fill="white"/>
<path d="M61.934 28.5804H58.3057V26.8778H61.934V28.5804Z" fill="white"/>
<path d="M61.934 31.8459H58.3057V30.1713H61.934V31.8459Z" fill="white"/>
<path d="M61.934 35.1393H58.3057V33.4368H61.934V35.1393Z" fill="white"/>
<path d="M61.934 38.4049H58.3057V36.7302H61.934V38.4049Z" fill="white"/>
<path d="M61.934 41.6983H58.3057V39.9957H61.934V41.6983Z" fill="white"/>
<path d="M66.874 18.7279H63.2456V17.0254H66.874V18.7279Z" fill="white"/>
<path d="M66.874 22.0214H63.2456V20.3188H66.874V22.0214Z" fill="white"/>
<path d="M66.874 25.2868H63.2456V23.6122H66.874V25.2868Z" fill="white"/>
<path d="M66.874 28.5804H63.2456V26.8778H66.874V28.5804Z" fill="white"/>
<path d="M66.874 31.8459H63.2456V30.1713H66.874V31.8459Z" fill="white"/>
<path d="M66.874 35.1393H63.2456V33.4368H66.874V35.1393Z" fill="white"/>
<path d="M66.874 38.4049H63.2456V36.7302H66.874V38.4049Z" fill="white"/>
<path d="M66.874 41.6983H63.2456V39.9957H66.874V41.6983Z" fill="white"/>
<path d="M38.3495 7.53585H34.5537V4.85645H38.3495V7.53585Z" fill="white"/>
<path d="M43.9593 7.53585H40.1914V4.85645H43.9593V7.53585Z" fill="white"/>
<path d="M38.3495 11.4434H34.5537V8.79187H38.3495V11.4434Z" fill="white"/>
<path d="M43.9593 11.4434H40.1914V8.79187H43.9593V11.4434Z" fill="white"/>
<path d="M38.3495 15.3786H34.5537V12.6992H38.3495V15.3786Z" fill="white"/>
<path d="M43.9593 15.3786H40.1914V12.6992H43.9593V15.3786Z" fill="white"/>
<path d="M38.3495 19.2861H34.5537V16.6067H38.3495V19.2861Z" fill="white"/>
<path d="M43.9593 19.2861H40.1914V16.6067H43.9593V19.2861Z" fill="white"/>
<path d="M38.3495 23.1936H34.5537V20.5421H38.3495V23.1936Z" fill="white"/>
<path d="M43.9593 23.1936H40.1914V20.5421H43.9593V23.1936Z" fill="white"/>
<path d="M38.3495 27.129H34.5537V24.4496H38.3495V27.129Z" fill="white"/>
<path d="M43.9593 27.129H40.1914V24.4496H43.9593V27.129Z" fill="white"/>
<path d="M38.3495 31.0365H34.5537V28.3571H38.3495V31.0365Z" fill="white"/>
<path d="M43.9593 31.0365H40.1914V28.3571H43.9593V31.0365Z" fill="white"/>
<path d="M38.3495 34.944H34.5537V32.2925H38.3495V34.944Z" fill="white"/>
<path d="M43.9593 34.944H40.1914V32.2925H43.9593V34.944Z" fill="white"/>
<path d="M50.9653 15.3786H47.1694V12.6992H50.9653V15.3786Z" fill="white"/>
<path d="M50.9653 19.2861H47.1694V16.6067H50.9653V19.2861Z" fill="white"/>
<path d="M50.9653 23.1936H47.1694V20.5421H50.9653V23.1936Z" fill="white"/>
<path d="M50.9653 27.129H47.1694V24.4496H50.9653V27.129Z" fill="white"/>
<path d="M50.9653 31.0365H47.1694V28.3571H50.9653V31.0365Z" fill="white"/>
<path d="M50.9653 34.944H47.1694V32.2925H50.9653V34.944Z" fill="white"/>
<path d="M38.3495 38.8236H34.5537V36.1442H38.3495V38.8236Z" fill="white"/>
<path d="M43.9593 38.8236H40.1914V36.1442H43.9593V38.8236Z" fill="white"/>
<path d="M50.9653 38.8236H47.1694V36.1442H50.9653V38.8236Z" fill="white"/>
<path d="M38.3495 42.7031H34.5537V40.0237H38.3495V42.7031Z" fill="white"/>
<path d="M43.9593 42.7031H40.1914V40.0237H43.9593V42.7031Z" fill="white"/>
<path d="M50.9653 42.7031H47.1694V40.0237H50.9653V42.7031Z" fill="white"/>
<path d="M38.3495 46.5547H34.5537V43.9032H38.3495V46.5547Z" fill="white"/>
<path d="M43.9593 46.5547H40.1914V43.9032H43.9593V46.5547Z" fill="white"/>
<path d="M50.9653 46.5547H47.1694V43.9032H50.9653V46.5547Z" fill="white"/>
<path d="M38.3495 50.4343H34.5537V47.7828H38.3495V50.4343Z" fill="white"/>
<path d="M43.9593 50.4343H40.1914V47.7828H43.9593V50.4343Z" fill="white"/>
<path d="M50.9653 50.4343H47.1694V47.7828H50.9653V50.4343Z" fill="white"/>
<path d="M38.3495 54.3138H34.5537V51.6344H38.3495V54.3138Z" fill="white"/>
<path d="M43.9593 54.3138H40.1914V51.6344H43.9593V54.3138Z" fill="white"/>
<path d="M50.9653 54.3138H47.1694V51.6344H50.9653V54.3138Z" fill="white"/>
<path d="M85.0716 10.9966H83.0342V8.68005H85.0716V10.9966Z" fill="white"/>
<path d="M88.6166 10.9966H86.5791V8.68005H88.6166V10.9966Z" fill="white"/>
<path d="M85.0716 14.5135H83.0342V12.1969H85.0716V14.5135Z" fill="white"/>
<path d="M88.6166 14.5135H86.5791V12.1969H88.6166V14.5135Z" fill="white"/>
<path d="M85.0716 18.0301H83.0342V15.7135H85.0716V18.0301Z" fill="white"/>
<path d="M88.6166 18.0301H86.5791V15.7135H88.6166V18.0301Z" fill="white"/>
<path d="M85.0716 21.5469H83.0342V19.2024H85.0716V21.5469Z" fill="white"/>
<path d="M88.6166 21.5469H86.5791V19.2024H88.6166V21.5469Z" fill="white"/>
<path d="M85.0716 25.1473H83.0342V22.8029H85.0716V25.1473Z" fill="white"/>
<path d="M88.6166 25.1473H86.5791V22.8029H88.6166V25.1473Z" fill="white"/>
<path d="M85.0716 28.7477H83.0342V26.4312H85.0716V28.7477Z" fill="white"/>
<path d="M88.6166 28.7477H86.5791V26.4312H88.6166V28.7477Z" fill="white"/>
<path d="M85.0716 32.3483H83.0342V30.0317H85.0716V32.3483Z" fill="white"/>
<path d="M88.6166 32.3483H86.5791V30.0317H88.6166V32.3483Z" fill="white"/>
<path d="M85.0716 35.9488H83.0342V33.6322H85.0716V35.9488Z" fill="white"/>
<path d="M88.6166 35.9488H86.5791V33.6322H88.6166V35.9488Z" fill="white"/>
<path d="M85.0716 39.605H83.0342V37.2605H85.0716V39.605Z" fill="white"/>
<path d="M88.6166 39.605H86.5791V37.2605H88.6166V39.605Z" fill="white"/>
<path d="M85.0716 43.2334H83.0342V40.8889H85.0716V43.2334Z" fill="white"/>
<path d="M88.6166 43.2334H86.5791V40.8889H88.6166V43.2334Z" fill="white"/>
<path d="M85.0716 46.8896H83.0342V44.5452H85.0716V46.8896Z" fill="white"/>
<path d="M88.6166 46.8896H86.5791V44.5452H88.6166V46.8896Z" fill="white"/>
<path d="M85.0716 50.5181H83.0342V48.1736H85.0716V50.5181Z" fill="white"/>
<path d="M88.6166 50.5181H86.5791V48.1736H88.6166V50.5181Z" fill="white"/>
<path d="M92.6356 10.9966H90.5981V8.68005H92.6356V10.9966Z" fill="white"/>
<path d="M96.1801 10.9966H94.1426V8.68005H96.1801V10.9966Z" fill="white"/>
<path d="M92.6356 14.5135H90.5981V12.1969H92.6356V14.5135Z" fill="white"/>
<path d="M96.1801 14.5135H94.1426V12.1969H96.1801V14.5135Z" fill="white"/>
<path d="M92.6356 18.0301H90.5981V15.7135H92.6356V18.0301Z" fill="white"/>
<path d="M96.1801 18.0301H94.1426V15.7135H96.1801V18.0301Z" fill="white"/>
<path d="M92.6356 21.5469H90.5981V19.2024H92.6356V21.5469Z" fill="white"/>
<path d="M96.1801 21.5469H94.1426V19.2024H96.1801V21.5469Z" fill="white"/>
<path d="M92.6356 25.1473H90.5981V22.8029H92.6356V25.1473Z" fill="white"/>
<path d="M96.1801 25.1473H94.1426V22.8029H96.1801V25.1473Z" fill="white"/>
<path d="M92.6356 28.7477H90.5981V26.4312H92.6356V28.7477Z" fill="white"/>
<path d="M96.1801 28.7477H94.1426V26.4312H96.1801V28.7477Z" fill="white"/>
<path d="M92.6356 32.3483H90.5981V30.0317H92.6356V32.3483Z" fill="white"/>
<path d="M96.1801 32.3483H94.1426V30.0317H96.1801V32.3483Z" fill="white"/>
<path d="M92.6356 35.9488H90.5981V33.6322H92.6356V35.9488Z" fill="white"/>
<path d="M96.1801 35.9488H94.1426V33.6322H96.1801V35.9488Z" fill="white"/>
<path d="M92.6356 39.605H90.5981V37.2605H92.6356V39.605Z" fill="white"/>
<path d="M96.1801 39.605H94.1426V37.2605H96.1801V39.605Z" fill="white"/>
<path d="M92.6356 43.2334H90.5981V40.8889H92.6356V43.2334Z" fill="white"/>
<path d="M96.1801 43.2334H94.1426V40.8889H96.1801V43.2334Z" fill="white"/>
<path d="M92.6356 46.8896H90.5981V44.5452H92.6356V46.8896Z" fill="white"/>
<path d="M96.1801 46.8896H94.1426V44.5452H96.1801V46.8896Z" fill="white"/>
<path d="M92.6356 50.5181H90.5981V48.1736H92.6356V50.5181Z" fill="white"/>
<path d="M96.1801 50.5181H94.1426V48.1736H96.1801V50.5181Z" fill="white"/>
</g>
</svg>
