<svg height="512" viewBox="0 0 64 64" width="512" xmlns="http://www.w3.org/2000/svg"><g id="Layer_20" data-name="Layer 20"><g fill="#fddfb1"><path d="m6 20 5-2 2 4z"/><path d="m5 31 5 2 2-4z"/><path d="m8 37h2v2h-2z"/><path d="m5 24h2v2h-2z"/><path d="m15 27h2v2h-2z"/></g><path d="m36 2c-7.709 0-14.528 8.634-18.7 19.124l4.7 5.876h7l10 12-11-4-10 2-4.267-3.2a49.556 49.556 0 0 0 -.733 8.2c0 16.569 10.3 20 23 20s23-3.431 23-20-10.3-40-23-40z" fill="#fdd089"/><path d="m51 27a1 1 0 0 0 -.293-.707l-4.293-4.293h8.633c-.256-.675-.527-1.34-.8-2h-10.247a1 1 0 0 0 -.707.293l-5.707 5.707h-8.586a1 1 0 0 0 -.707.293l-.707.707h1.414l.833 1h8.167a1 1 0 0 0 .707-.293l5.293-5.293 5 5v4.586a1 1 0 0 0 .293.707l9.7 9.7c0-.137.008-.267.008-.406 0-.815-.032-1.65-.081-2.495l-7.92-7.92z" fill="#fddfb1"/></g></svg>