<svg width="32" height="32" viewBox="0 0 32 32" fill="none" xmlns="http://www.w3.org/2000/svg">
<g clip-path="url(#clip0_143_52630)">
<path d="M16 31.5C12.9344 31.5 9.93763 30.5909 7.38867 28.8878C4.83971 27.1846 2.85303 24.7638 1.67987 21.9316C0.506716 19.0993 0.199764 15.9828 0.797835 12.9761C1.39591 9.96939 2.87214 7.20756 5.03985 5.03984C7.20757 2.87213 9.9694 1.3959 12.9761 0.797829C15.9828 0.199759 19.0993 0.506708 21.9316 1.67987C24.7639 2.85303 27.1846 4.8397 28.8878 7.38866C30.5909 9.93762 31.5 12.9344 31.5 16C31.4954 20.1094 29.8609 24.0492 26.955 26.955C24.0492 29.8608 20.1094 31.4954 16 31.5ZM16 1.5C13.1322 1.5 10.3288 2.35041 7.94424 3.94369C5.55973 5.53697 3.70122 7.80156 2.60375 10.4511C1.50628 13.1006 1.21913 16.0161 1.77862 18.8288C2.33811 21.6415 3.7191 24.2252 5.74696 26.253C7.77482 28.2809 10.3585 29.6619 13.1712 30.2214C15.9839 30.7809 18.8994 30.4937 21.5489 29.3963C24.1984 28.2988 26.463 26.4403 28.0563 24.0558C29.6496 21.6713 30.5 18.8678 30.5 16C30.4955 12.1557 28.9664 8.47022 26.2481 5.75192C23.5298 3.03362 19.8443 1.5045 16 1.5Z" fill="#5CAB56"/>
<path d="M14 17C14 16.2089 14.2346 15.4355 14.6741 14.7777C15.1136 14.1199 15.7384 13.6072 16.4693 13.3045C17.2002 13.0017 18.0044 12.9225 18.7804 13.0769C19.5563 13.2312 20.269 13.6122 20.8284 14.1716C21.3878 14.731 21.7688 15.4437 21.9231 16.2196C22.0775 16.9956 21.9983 17.7998 21.6955 18.5307C21.3928 19.2616 20.8801 19.8864 20.2223 20.3259C19.5645 20.7654 18.7911 21 18 21C16.9395 20.9988 15.9228 20.577 15.1729 19.8271C14.423 19.0772 14.0012 18.0605 14 17ZM18 20C18.5933 20 19.1734 19.8241 19.6667 19.4944C20.1601 19.1648 20.5446 18.6962 20.7716 18.1481C20.9987 17.5999 21.0581 16.9967 20.9424 16.4147C20.8266 15.8328 20.5409 15.2982 20.1213 14.8787C19.7018 14.4591 19.1672 14.1734 18.5853 14.0576C18.0033 13.9419 17.4001 14.0013 16.8519 14.2284C16.3038 14.4554 15.8352 14.8399 15.5056 15.3333C15.1759 15.8266 15 16.4067 15 17C15.0008 17.7954 15.3171 18.558 15.8796 19.1204C16.442 19.6829 17.2046 19.9992 18 20Z" fill="#5CAB56"/>
<path d="M23.745 23.704C23.4741 23.7723 23.2231 23.9036 23.0126 24.0874C22.8021 24.2712 22.6381 24.5022 22.534 24.7615C22.3302 25.2757 21.9762 25.7166 21.5181 26.0268C21.06 26.3369 20.5192 26.5018 19.966 26.5C19.0621 26.5008 18.1735 26.2665 17.3875 25.82L17.0605 26.1465L15.5605 27.6465C15.014 28.193 14.2729 28.5 13.5 28.5C12.7272 28.5 11.986 28.193 11.4395 27.6465L7.85352 24.0605C7.3947 23.6027 7.10208 23.0046 7.02218 22.3614C6.94227 21.7182 7.07967 21.0667 7.41252 20.5105C7.39911 20.5061 7.38541 20.5026 7.37152 20.5C7.00781 20.4996 6.65912 20.3549 6.40199 20.0977C6.14485 19.8405 6.00029 19.4917 6.00002 19.128V18.8085C5.69733 18.649 5.4441 18.4096 5.26781 18.1164C5.09152 17.8231 4.99891 17.4872 5.00002 17.145C5.0005 16.6433 5.1174 16.1484 5.34152 15.6995C5.44571 15.4906 5.49997 15.2604 5.50002 15.027C5.50229 14.8688 5.52945 14.7118 5.58052 14.562L5.32052 14.367C5.06429 14.1735 4.85671 13.9228 4.71428 13.635C4.57185 13.3472 4.49849 13.0301 4.50002 12.709C4.49864 12.2468 4.64317 11.7958 4.91302 11.4205C4.64132 10.7752 4.50092 10.0822 4.50002 9.38202V9.00002C4.5006 8.53424 4.66345 8.08321 4.96057 7.7245C5.25768 7.36579 5.6705 7.12181 6.12802 7.03452L6.22802 6.73452C6.34714 6.37455 6.57689 6.06139 6.8845 5.83971C7.19211 5.61803 7.56186 5.49915 7.94102 5.50002C8.23124 5.49886 8.51724 5.4304 8.77652 5.30002C9.17518 5.1025 9.61411 4.99982 10.059 5.00002C10.7555 5.00069 11.4423 5.16276 12.0655 5.47352C12.1495 5.51563 12.2364 5.55172 12.3255 5.58152L12.5555 5.65802C12.971 5.79771 13.3485 6.03169 13.6584 6.34163C13.9684 6.65157 14.2023 7.02905 14.342 7.44452C14.3474 7.46069 14.3577 7.47476 14.3715 7.48473C14.3854 7.49469 14.402 7.50004 14.419 7.50002C14.6834 7.50059 14.9384 7.59828 15.1355 7.77452C15.0491 7.52529 15.0033 7.26378 15 7.00002C15.0008 6.33722 15.2645 5.7018 15.7331 5.23313C16.2018 4.76446 16.8372 4.50081 17.5 4.50002C20.549 4.50332 23.4721 5.71599 25.6281 7.87194C27.784 10.0279 28.9967 12.951 29 16C28.9991 16.5827 28.7946 17.1468 28.422 17.5948C28.0493 18.0428 27.5318 18.3465 26.959 18.4535C26.983 18.814 27 19.1755 27 19.5355C27.001 20.4941 26.681 21.4254 26.0911 22.1809C25.5011 22.9364 24.6752 23.4726 23.745 23.704ZM21.6055 24.39C21.7688 23.9835 22.0261 23.6214 22.3564 23.3335C22.6867 23.0457 23.0805 22.8402 23.5055 22.734C24.2187 22.5559 24.8517 22.1442 25.3038 21.5645C25.7559 20.9849 26.001 20.2706 26 19.5355C26 19.1695 25.982 18.802 25.955 18.4355C25.4011 18.3118 24.9057 18.0032 24.5504 17.5606C24.1951 17.118 24.001 16.5676 24 16C23.998 14.2767 23.3126 12.6246 22.094 11.406C20.8755 10.1875 19.2233 9.502 17.5 9.50002C17.0664 9.49743 16.6412 9.38068 16.267 9.16152C15.8675 9.05501 15.456 9.00072 15.0425 9.00002C14.501 9.00055 13.9818 9.21591 13.5988 9.59884C13.2159 9.98177 13.0006 10.501 13 11.0425C12.9987 12.7474 12.401 14.398 11.3105 15.7085C10.7872 16.3373 10.5004 17.1294 10.5 17.9475C10.4956 18.8679 10.7904 19.7647 11.3398 20.5031C11.8893 21.2415 12.6637 21.7814 13.5465 22.0415C14.6736 22.3812 15.6993 22.994 16.5325 23.8255L16.9635 24.2565C17.3569 24.6521 17.8248 24.9656 18.3402 25.1791C18.8556 25.3925 19.4082 25.5016 19.966 25.5C20.3192 25.5011 20.6645 25.3959 20.957 25.1979C21.2494 24.9999 21.4754 24.7183 21.6055 24.39ZM16.5555 25.236C16.4555 25.1485 16.351 25.06 16.2555 24.9635L15.8245 24.5325C15.1089 23.8181 14.2278 23.2916 13.2595 23C12.4385 22.758 11.6894 22.3185 11.0776 21.7199C10.4658 21.1214 10.01 20.382 9.75002 19.5665C9.54181 19.9283 9.45916 20.3488 9.51496 20.7625C9.57077 21.1762 9.76189 21.5598 10.0585 21.8535L13.6445 25.4395C14.0035 25.7984 14.4904 26 14.998 26C15.5057 26 15.9925 25.7984 16.3515 25.4395L16.5555 25.236ZM8.56052 23.3535L12.1465 26.9395C12.4948 27.2895 12.9655 27.4904 13.4592 27.4997C13.9528 27.5091 14.4308 27.3261 14.792 26.9895C14.0946 26.9381 13.4385 26.6391 12.942 26.1465L9.35602 22.5605C8.86028 22.0662 8.56059 21.4089 8.51252 20.7105C8.17617 21.0719 7.99337 21.5498 8.0027 22.0434C8.01203 22.537 8.21276 23.0076 8.56252 23.356L8.56052 23.3535ZM6.48902 17.9355C6.643 18.0119 6.77249 18.13 6.86281 18.2762C6.95313 18.4225 7.00066 18.5911 7.00002 18.763V19.128C7.00002 19.2266 7.03915 19.3211 7.1088 19.3909C7.17846 19.4606 7.27295 19.4999 7.37152 19.5C7.62412 19.5014 7.87134 19.5731 8.08552 19.707L9.35352 18.4395L9.51352 18.2795C9.50652 18.1695 9.50002 18.059 9.50002 17.9475C9.50153 17.4717 9.57849 16.9992 9.72802 16.5475L8.25752 17.43L7.74252 16.573L10.7925 14.744C11.3351 13.9988 11.7074 13.1435 11.883 12.2385C11.849 12.223 11.8115 12.2155 11.7785 12.199C11.4396 12.0314 11.0572 11.9723 10.6835 12.0299C10.3098 12.0874 9.96286 12.2587 9.69002 12.5205C9.38064 12.8273 8.96271 12.9996 8.52702 13C8.3873 13.0001 8.25333 13.0557 8.15452 13.1545C8.05572 13.2533 8.00016 13.3873 8.00002 13.527C7.99976 13.785 7.89716 14.0323 7.71475 14.2147C7.53233 14.3972 7.285 14.4998 7.02702 14.5C6.8873 14.5001 6.75333 14.5557 6.65452 14.6545C6.55572 14.7533 6.50016 14.8873 6.50002 15.027C6.49954 15.4157 6.40919 15.799 6.23602 16.147C6.08082 16.4575 6.00002 16.7999 6.00002 17.147C6 17.311 6.04576 17.4716 6.13216 17.6109C6.21856 17.7503 6.34216 17.8627 6.48902 17.9355ZM13.3935 7.76052C13.3032 7.49227 13.152 7.24856 12.9518 7.04845C12.7516 6.84834 12.5078 6.69726 12.2395 6.60702L12.009 6.53052C11.8752 6.4852 11.7446 6.43091 11.618 6.36802C11.1337 6.12672 10.6001 6.00077 10.059 6.00002C9.7688 6.00118 9.48281 6.06964 9.22352 6.20002C8.82486 6.39754 8.38593 6.50021 7.94102 6.50002C7.77201 6.49969 7.60721 6.55267 7.47004 6.65141C7.33288 6.75016 7.23034 6.88964 7.17702 7.05002L6.97402 7.65702C6.94105 7.75673 6.87751 7.84352 6.79243 7.90509C6.70735 7.96665 6.60504 7.99987 6.50002 8.00002C6.23481 8.00002 5.98045 8.10537 5.79292 8.29291C5.60538 8.48045 5.50002 8.7348 5.50002 9.00002V9.38202C5.50106 10.0396 5.65422 10.688 5.94752 11.2765C5.99438 11.3704 6.01051 11.4766 5.99364 11.5802C5.97677 11.6837 5.92775 11.7794 5.85352 11.8535C5.73927 11.9682 5.64914 12.1047 5.58843 12.2548C5.52772 12.4049 5.49766 12.5656 5.50002 12.7275C5.50018 12.8904 5.53821 13.0509 5.6111 13.1965C5.68399 13.3422 5.78975 13.4688 5.92002 13.5665L6.18202 13.7625C6.42364 13.601 6.70952 13.5187 7.00002 13.527C7.00042 13.1222 7.16143 12.734 7.44771 12.4477C7.73399 12.1614 8.12216 12.0004 8.52702 12C8.6972 11.9995 8.86033 11.932 8.98102 11.812C9.20937 11.5874 9.47498 11.4042 9.76602 11.2705L7.92602 10.9945L8.07602 10.0055L9.44802 10.211L9.03752 9.18552L9.96652 8.81452L10.594 10.383L12.038 10.5995C12.0697 10.3816 12.1254 10.1678 12.204 9.96202L11.5335 8.17602L12.4705 7.82602L12.8775 8.91202C13.1361 8.65033 13.4398 8.43743 13.774 8.28352C13.5964 8.15247 13.4635 7.96984 13.3935 7.76052ZM28 16C27.9968 13.2162 26.8896 10.5473 24.9211 8.5789C22.9527 6.61046 20.2838 5.50319 17.5 5.50002C17.1022 5.50002 16.7207 5.65805 16.4394 5.93936C16.1581 6.22066 16 6.60219 16 7.00002C16 7.39784 16.1581 7.77937 16.4394 8.06068C16.7207 8.34198 17.1022 8.50002 17.5 8.50002C17.54 8.50002 17.579 8.50552 17.619 8.50602C17.7836 7.80334 18.1392 7.15981 18.6465 6.64652L19.3535 7.35352C19.0093 7.69908 18.7568 8.12514 18.619 8.59302C19.3366 8.70048 20.0345 8.91257 20.6905 9.22252C20.8797 8.62879 21.2074 8.08858 21.6465 7.64652L22.3535 8.35352C21.98 8.73226 21.7168 9.20577 21.5925 9.72302C22.1867 10.1123 22.7228 10.5837 23.185 11.123C23.461 10.7136 23.8133 10.3612 24.2225 10.085L24.7775 10.917C24.3746 11.1881 24.0476 11.5576 23.8275 11.9905C24.2249 12.6153 24.5268 13.2957 24.7235 14.0095C25.1416 13.4552 25.6484 12.9739 26.2235 12.585L26.7785 13.417C26.0073 13.9334 25.3852 14.6432 24.9745 15.4755C24.9865 15.65 25.001 15.8255 25.001 16.001C25.001 16.3988 25.1591 16.7804 25.4404 17.0617C25.7217 17.343 26.1032 17.501 26.501 17.501C26.8988 17.501 27.2804 17.343 27.5617 17.0617C27.843 16.7804 28.001 16.3988 28.001 16.001L28 16Z" fill="#5CAB56"/>
</g>
<defs>
<clipPath id="clip0_143_52630">
<rect width="32" height="32" fill="white" transform="matrix(1 0 0 -1 0 32)"/>
</clipPath>
</defs>
</svg>
