<svg width="15" height="23" viewBox="0 0 15 23" fill="none" xmlns="http://www.w3.org/2000/svg">
<path d="M12.8058 12.8018C15.7314 9.87708 15.7314 5.11824 12.8058 2.19355C9.88017 -0.731184 5.11988 -0.731184 2.19421 2.19355C-0.731404 5.11824 -0.731404 9.87708 2.19421 12.8018C3.4326 14.0398 4.9997 14.7535 6.61718 14.9435V17.4548H4.85168C4.36414 17.4548 3.96893 17.8499 3.96893 18.3373C3.96893 18.8247 4.36414 19.2198 4.85168 19.2198H6.61718V21.7057C6.61723 22.1931 7.01243 22.5882 7.50002 22.5882C7.98757 22.5882 8.38277 22.1931 8.38277 21.7057V19.2198H10.1483C10.6359 19.2198 11.0311 18.8247 11.0311 18.3373C11.0311 17.8499 10.6359 17.4548 10.1483 17.4548H8.38277V14.9436C10.0003 14.7535 11.5674 14.0398 12.8058 12.8018ZM3.44265 11.5537C1.2054 9.31718 1.2054 5.6781 3.44265 3.44155C5.67986 1.2051 9.32005 1.20496 11.5574 3.44155C13.7946 5.6781 13.7946 9.31718 11.5574 11.5537C9.32014 13.7902 5.6799 13.7902 3.44265 11.5537Z" fill="#5CAB56"/>
</svg>
