<svg width="81" height="100" viewBox="0 0 81 100" fill="none" xmlns="http://www.w3.org/2000/svg">
<path d="M33.7974 26.4276C34.23 23.7609 34.6356 21.2403 33.9525 17.2462C32.0733 6.27513 26.2089 -1.66833 15.4258 0.300381C5.75223 2.05731 -1.71695 15.5788 0.344232 27.6028C1.08697 31.928 2.49192 34.2279 3.8551 36.4501C8.52931 44.0893 7.74779 49.038 9.42417 56.1402C10.4861 62.3298 16.264 66.5774 22.4565 65.4618L26.5192 64.725C32.6013 63.6184 36.6849 57.6615 35.62 51.4452C35.086 46.6009 32.0256 37.3957 33.7974 26.4276ZM6.22352 26.5946C4.72313 17.8458 9.99988 7.34897 16.4877 6.17072C23.8465 4.83737 26.8085 10.8927 28.0703 18.2544C28.5863 21.2702 28.3029 23.033 27.9092 25.4731C27.3753 28.7751 26.7339 32.805 27.8167 40.8499L13.1767 43.4301C11.9298 38.2548 10.2982 35.5493 8.94095 33.33C7.72989 31.3553 6.76939 29.7893 6.22352 26.5946ZM25.4543 58.8517L21.3886 59.5885C18.6055 60.0985 15.8255 58.1895 15.3005 55.132L14.3012 49.2945L28.7593 46.7471L29.7377 52.4504C30.2567 55.4572 28.3328 58.3297 25.4543 58.8517Z" fill="#5CAB56"/>
<path d="M65.4495 34.6669C54.7144 32.7251 48.8175 40.54 46.9204 51.6121C46.2374 55.606 46.643 58.1265 47.0755 60.7931C48.725 71.0032 45.6945 81.8068 45.253 85.8068C44.1912 92.0229 48.2716 97.9795 54.3535 99.0861L58.4161 99.8229C64.5308 100.924 70.3711 96.7834 71.4509 90.5017C73.0974 83.5219 72.3606 78.4273 77.0197 70.8123C78.3829 68.5901 79.7878 66.2874 80.5305 61.9623C82.5886 49.9387 75.1197 36.4207 65.4495 34.6669ZM59.4809 93.9498L55.4184 93.213C52.54 92.691 50.6191 89.8186 51.1321 86.812L52.1105 81.1059L66.568 83.6562L65.5688 89.4935C65.0528 92.5121 62.3116 94.4628 59.4809 93.9498ZM74.6484 60.9571C74.1026 64.1547 73.1451 65.7177 71.9311 67.7012C70.5739 69.9174 68.9453 72.6258 67.6985 77.798L53.059 75.2179C54.1418 67.1733 53.5005 63.1405 52.9665 59.8386C52.5728 57.3987 52.2865 55.6329 52.8055 52.6203C54.0732 45.208 57.05 39.2126 64.3876 40.537C70.8722 41.7122 76.1488 52.2086 74.6484 60.9571Z" fill="#5CAB56"/>
</svg>
