<svg width="137" height="68" viewBox="0 0 137 68" fill="none" xmlns="http://www.w3.org/2000/svg">
<path d="M122.866 36.3062C121.341 36.0001 119.776 35.7349 118.133 35.4583C107.478 33.6446 94.2038 31.4138 67.2483 14.1297C66.1769 12.9537 64.9469 11.9328 63.5938 11.0963L55.192 2.15951C54.4281 1.34825 53.4783 0.735063 52.4245 0.372875C51.3707 0.010686 50.2446 -0.0896222 49.1434 0.0806043C48.082 0.231333 47.0741 0.641101 46.2085 1.27372C45.343 1.90635 44.6466 2.74235 44.1808 3.70792C42.9756 5.91428 42.4083 8.41254 42.5424 10.923C42.6766 13.4335 43.5068 15.8571 44.9403 17.9225C43.551 20.1027 41.648 21.9088 39.3982 23.1824C37.1484 24.4559 34.6204 25.158 32.0361 25.227C29.3737 25.0423 26.8012 24.1875 24.5577 22.742C22.3143 21.2964 20.4728 19.3071 19.2044 16.959C16.9011 13.1231 14.3733 9.70434 11.4238 10.5023C8.191 11.3978 8.191 16.17 8.191 20.3936C8.41524 26.2257 7.70577 32.0561 6.08942 37.6642L0.963562 47.9181C0.154505 49.5248 -0.156859 51.3364 0.0692999 53.121C0.295459 54.9056 1.04886 56.5823 2.23312 57.9364C5.65867 61.7496 12.9836 66.5898 28.5947 67.9999H98.3004C102.894 68.01 107.461 67.3126 111.842 65.9323C118.974 63.6698 136.015 57.3582 136.015 49.8633C136.015 46.0841 133.266 38.3874 122.866 36.3062ZM48.257 5.69161C48.4044 5.38727 48.6252 5.12435 48.8994 4.92649C49.1737 4.72863 49.4928 4.60203 49.8281 4.55808C50.2028 4.49959 50.5861 4.533 50.9451 4.65542C51.3041 4.77784 51.6279 4.98561 51.8889 5.26087L55.6998 9.31213C52.6239 9.9243 49.8615 11.5992 47.8965 14.0435C47.2915 12.7222 47.0087 11.2761 47.0714 9.82417C47.1341 8.37225 47.5404 6.95592 48.257 5.69161ZM12.7251 20.3913C12.7021 18.8572 12.7649 17.323 12.9133 15.796C13.8056 16.8958 14.6091 18.0648 15.3164 19.2918C16.9762 22.2973 19.3704 24.8334 22.2755 26.6634C25.1806 28.4934 28.5019 29.5575 31.9295 29.7566H32.3512C38.9439 29.7566 45.0128 26.0839 49.4858 19.3757C51.9161 15.7302 54.4597 13.8191 57.051 13.708C59.3371 13.7649 61.508 14.7232 63.0905 16.3741L59.3883 21.2982C59.0276 21.7792 58.8727 22.3838 58.9577 22.979C59.0427 23.5742 59.3607 24.1113 59.8418 24.4721C60.3228 24.8328 60.9274 24.9877 61.5226 24.9027C62.1178 24.8177 62.6549 24.4997 63.0157 24.0186L66.6861 19.1286C68.2821 20.1336 69.8343 21.0888 71.3426 21.9941L68.4566 25.8323C68.278 26.0705 68.148 26.3415 68.0742 26.6299C68.0003 26.9183 67.9839 27.2184 68.026 27.5132C68.0681 27.8079 68.1679 28.0914 68.3195 28.3476C68.4712 28.6038 68.6719 28.8276 68.91 29.0062C69.1482 29.1848 69.4193 29.3148 69.7077 29.3887C69.9961 29.4626 70.2962 29.4789 70.5909 29.4368C70.8856 29.3947 71.1692 29.295 71.4254 29.1433C71.6815 28.9916 71.9053 28.791 72.084 28.5528L75.2783 24.3066C76.9332 25.2542 78.527 26.1361 80.0731 26.9636L77.5249 30.3665C77.3463 30.6046 77.2163 30.8757 77.1425 31.1641C77.0686 31.4525 77.0522 31.7526 77.0943 32.0473C77.1364 32.342 77.2362 32.6256 77.3878 32.8818C77.5395 33.1379 77.7402 33.3617 77.9784 33.5404C78.2165 33.719 78.4875 33.849 78.776 33.9228C79.0644 33.9967 79.3645 34.0131 79.6592 33.971C79.9539 33.9289 80.2375 33.8291 80.4937 33.6775C80.7498 33.5258 80.9736 33.3251 81.1523 33.0869L84.1493 29.0833C85.8927 29.9584 87.5613 30.7519 89.1641 31.4819L86.5932 34.9006C86.2325 35.3816 86.0776 35.9862 86.1626 36.5815C86.2476 37.1767 86.5656 37.7137 87.0467 38.0745C87.5277 38.4353 88.1323 38.5902 88.7275 38.5051C89.3227 38.4201 89.8598 38.1021 90.2206 37.6211L93.4443 33.3341C101.119 36.505 109.155 38.7192 117.371 39.9267C118.958 40.1965 120.488 40.4527 121.971 40.7474C123.633 40.9645 125.228 41.5372 126.649 42.4265C128.069 43.3157 129.281 44.5006 130.203 45.9004C121.862 50.7679 108.754 54.9438 91.2974 49.9494C65.1218 42.4681 56.7971 44.114 46.2484 46.1929C43.7659 46.6849 41.1996 47.1904 38.2139 47.6166C27.3954 49.1673 15.1033 43.8057 9.5127 40.956C9.70087 40.0265 12.7251 37.7821 12.7251 20.3913ZM110.468 61.6113C106.531 62.851 102.427 63.4765 98.3004 63.4657H28.801C14.8607 62.1984 8.49252 58.1064 5.6088 54.8962C5.02774 54.2221 4.66122 53.3898 4.5562 52.5061C4.45119 51.6223 4.61246 50.7274 5.01936 49.9358L7.48367 45.005C14.0809 48.3829 26.9238 53.7989 38.8532 52.0986C41.9568 51.6452 44.5843 51.1351 47.1235 50.6364C57.4659 48.596 64.9291 47.1247 90.0505 54.3C95.4637 55.8873 101.073 56.7084 106.714 56.7393C115.169 56.7724 123.498 54.6842 130.937 50.6658C128.736 54.1707 121.334 58.1631 110.468 61.6113Z" fill="#5CAB56"/>
</svg>
