<svg width="11" height="11" viewBox="0 0 11 11" fill="none" xmlns="http://www.w3.org/2000/svg">
<g clip-path="url(#clip0_125_13317)">
<path d="M10.45 6.05H6.05003V10.45C6.05003 10.7536 5.8036 11 5.49997 11C5.19643 11 4.95 10.7536 4.95 10.45V6.05H0.549966C0.246433 6.05 0 5.80357 0 5.50003C0 5.1964 0.246433 4.94997 0.549966 4.94997H4.95V0.550034C4.95 0.246399 5.19643 -3.33786e-05 5.49997 -3.33786e-05C5.8036 -3.33786e-05 6.05003 0.246399 6.05003 0.550034V4.94997H10.45C10.7536 4.94997 11 5.1964 11 5.50003C11 5.80357 10.7536 6.05 10.45 6.05Z" fill="white"/>
</g>
<defs>
<clipPath id="clip0_125_13317">
<rect width="11" height="11" fill="white" transform="matrix(1 0 0 -1 0 11)"/>
</clipPath>
</defs>
</svg>
