<svg width="30" height="30" viewBox="0 0 30 30" fill="none" xmlns="http://www.w3.org/2000/svg">
<mask id="path-1-inside-1_200_43" fill="white">
<path d="M29.1211 14.1798H28.6407L29.942 10.779C30.0726 10.4376 29.9782 10.051 29.7051 9.80804C29.4319 9.56511 29.0369 9.51671 28.7131 9.6864L26.447 10.8739C26.4626 10.3225 26.3745 9.79849 26.1821 9.29792C26.1747 9.27876 26.1669 9.25972 26.1592 9.24068L28.1397 8.49871C28.9297 8.20275 29.5462 7.57756 29.8311 6.78344C30.1158 5.98932 30.0373 5.11481 29.6154 4.38421C29.181 3.63158 28.4429 3.13687 27.6125 3.00076C27.4028 2.30813 26.9386 1.71815 26.304 1.35176C25.6695 0.985436 24.9264 0.878327 24.2216 1.04309C23.6886 0.391942 22.8912 0.000244141 22.0221 0.000244141C21.1784 0.000244141 20.3819 0.369442 19.8365 1.01315C19.2912 1.65686 19.058 2.50336 19.1967 3.3355L19.5445 5.42255C19.5242 5.42542 19.5036 5.42729 19.4833 5.43052C18.7926 5.53968 18.1558 5.82169 17.5653 6.28176C16.8973 5.47493 15.9575 4.92708 14.916 4.74983C14.7064 3.94335 14.2698 3.2097 13.6477 2.63379C12.8336 1.8801 11.774 1.46502 10.6641 1.46502C9.55413 1.46502 8.49453 1.8801 7.68043 2.63379C7.05852 3.20953 6.62194 3.94312 6.41217 4.74937C4.52769 5.06858 3.04767 6.59166 2.79302 8.49707C1.7394 8.28185 0.900747 8.32205 0.834419 8.32574C0.387116 8.35041 0.0299888 8.70759 0.00526231 9.15484C-0.00176891 9.28333 -0.145792 12.3051 1.69158 14.1798H0.879009C0.39362 14.1798 0.000106084 14.5733 0.000106084 15.0587V19.7462C0.000106084 23.1638 2.55777 25.9951 5.85946 26.4272V29.1212C5.85946 29.6066 6.25297 30.0001 6.73836 30.0001H23.2617C23.7471 30.0001 24.1406 29.6066 24.1406 29.1212V26.4272C27.4423 25.9951 30 23.1638 30 19.7462V15.0587C30 14.5733 29.6065 14.1798 29.1211 14.1798ZM27.4691 12.3229L26.7585 14.1798H25.3235C25.3535 14.1295 25.3833 14.0793 25.4118 14.0299C25.5819 13.7353 25.7307 13.4478 25.8588 13.1667L27.4691 12.3229ZM27.0833 5.65288C27.2945 5.3963 27.456 5.10872 27.566 4.80392C27.7842 4.89339 27.9709 5.0513 28.0932 5.26306C28.2561 5.5453 28.2865 5.88315 28.1764 6.18989C28.0664 6.49662 27.8283 6.73821 27.5231 6.85258L25.4591 7.62584L27.0833 5.65288ZM25.4251 2.87402C25.7074 3.03703 25.9026 3.31441 25.9607 3.63509C26.0189 3.95578 25.9333 4.28402 25.7262 4.53562L23.9033 6.74998C23.736 6.64106 23.5599 6.53319 23.3744 6.42608C23.1888 6.31897 23.0073 6.22036 22.8294 6.13001L23.8357 3.44414C23.95 3.13892 24.1915 2.9008 24.4983 2.79076C24.8051 2.68078 25.1429 2.71113 25.4251 2.87402ZM21.1779 2.14928C21.3886 1.90061 21.6963 1.75799 22.0222 1.75799C22.2668 1.75799 22.4969 1.84073 22.6834 1.98498C22.4745 2.23266 22.3062 2.51631 22.1896 2.82744L21.2931 5.22052L20.9308 3.04646C20.8772 2.72496 20.9672 2.39795 21.1779 2.14928ZM22.4954 7.9484C23.6221 8.59884 24.2721 9.22796 24.5412 9.92839C24.6894 10.3139 24.7244 10.7432 24.6478 11.2208L23.6463 10.6426C23.2258 10.3999 22.6884 10.544 22.4457 10.9643C22.203 11.3847 22.347 11.9222 22.7674 12.1649L24.032 12.895C23.9868 12.9793 23.9394 13.0645 23.8895 13.151C23.8895 13.151 23.8894 13.151 23.8894 13.1511C23.7056 13.4695 23.483 13.8143 23.2254 14.1798H15.379C15.6106 13.3481 15.8855 12.5174 16.1818 11.7456L17.2431 12.3584C17.3815 12.4383 17.5326 12.4763 17.6817 12.4763C17.9854 12.4763 18.2809 12.3187 18.4436 12.0367C18.6864 11.6164 18.5424 11.0788 18.122 10.8361L16.8821 10.1203C17.0186 9.84038 17.1561 9.57935 17.2928 9.34251C17.5371 8.91947 17.7812 8.56603 18.0269 8.27464C18.0515 8.24927 18.0745 8.22267 18.0957 8.19478C19.4239 6.68412 20.8022 6.97076 22.4954 7.9484ZM7.13727 6.44547C7.14541 6.44565 7.15367 6.44582 7.1617 6.44577C7.61867 6.44577 7.99988 6.09526 8.0375 5.63911C8.14929 4.28413 9.30306 3.22277 10.6641 3.22277C12.0252 3.22277 13.179 4.28413 13.2908 5.63911C13.3284 6.09526 13.7095 6.44577 14.1666 6.44577C14.1748 6.44582 14.1828 6.44565 14.1909 6.44547C15.0588 6.44916 15.8586 6.88012 16.3437 7.5768C16.1471 7.84697 15.9561 8.14205 15.7706 8.46349C14.935 9.91058 14.1102 12.0512 13.5585 14.1798H11.7851C13.6225 12.305 13.4785 9.28327 13.4714 9.15484C13.4467 8.70753 13.0895 8.35041 12.6422 8.32574C12.5132 8.31859 9.45563 8.17269 7.58369 10.0447C7.23734 10.391 6.96025 10.778 6.73836 11.1794C6.51653 10.778 6.23938 10.391 5.89303 10.0448C5.47631 9.62804 5.00089 9.31152 4.5121 9.07099C4.51819 7.62596 5.69229 6.45151 7.13727 6.44547ZM7.6584 14.1387C7.74623 13.3187 8.01634 12.0979 8.82663 11.2876C9.63704 10.4772 10.8581 10.2072 11.6777 10.1194C11.5898 10.9395 11.3197 12.1603 10.5094 12.9705C9.69903 13.7809 8.478 14.0509 7.6584 14.1387ZM3.36554 10.4843C3.37275 10.4871 3.3799 10.4899 3.38716 10.4925C3.84191 10.6708 4.28722 10.9248 4.65015 11.2876C5.46055 12.098 5.73061 13.3191 5.81838 14.1386C4.99831 14.0508 3.77751 13.7807 2.96728 12.9704C2.15687 12.16 1.88676 10.939 1.79899 10.1195C2.24594 10.1673 2.81183 10.2702 3.36554 10.4843ZM22.3828 28.2423H7.61726V26.4845H22.3828V28.2423ZM28.2422 19.7462C28.2422 22.4924 26.008 24.7267 23.2617 24.7267H6.73836C3.99214 24.7267 1.75791 22.4924 1.75791 19.7462V15.9376H28.2422V19.7462Z"/>
</mask>
<path d="M29.1211 14.1798H28.6407L29.942 10.779C30.0726 10.4376 29.9782 10.051 29.7051 9.80804C29.4319 9.56511 29.0369 9.51671 28.7131 9.6864L26.447 10.8739C26.4626 10.3225 26.3745 9.79849 26.1821 9.29792C26.1747 9.27876 26.1669 9.25972 26.1592 9.24068L28.1397 8.49871C28.9297 8.20275 29.5462 7.57756 29.8311 6.78344C30.1158 5.98932 30.0373 5.11481 29.6154 4.38421C29.181 3.63158 28.4429 3.13687 27.6125 3.00076C27.4028 2.30813 26.9386 1.71815 26.304 1.35176C25.6695 0.985436 24.9264 0.878327 24.2216 1.04309C23.6886 0.391942 22.8912 0.000244141 22.0221 0.000244141C21.1784 0.000244141 20.3819 0.369442 19.8365 1.01315C19.2912 1.65686 19.058 2.50336 19.1967 3.3355L19.5445 5.42255C19.5242 5.42542 19.5036 5.42729 19.4833 5.43052C18.7926 5.53968 18.1558 5.82169 17.5653 6.28176C16.8973 5.47493 15.9575 4.92708 14.916 4.74983C14.7064 3.94335 14.2698 3.2097 13.6477 2.63379C12.8336 1.8801 11.774 1.46502 10.6641 1.46502C9.55413 1.46502 8.49453 1.8801 7.68043 2.63379C7.05852 3.20953 6.62194 3.94312 6.41217 4.74937C4.52769 5.06858 3.04767 6.59166 2.79302 8.49707C1.7394 8.28185 0.900747 8.32205 0.834419 8.32574C0.387116 8.35041 0.0299888 8.70759 0.00526231 9.15484C-0.00176891 9.28333 -0.145792 12.3051 1.69158 14.1798H0.879009C0.39362 14.1798 0.000106084 14.5733 0.000106084 15.0587V19.7462C0.000106084 23.1638 2.55777 25.9951 5.85946 26.4272V29.1212C5.85946 29.6066 6.25297 30.0001 6.73836 30.0001H23.2617C23.7471 30.0001 24.1406 29.6066 24.1406 29.1212V26.4272C27.4423 25.9951 30 23.1638 30 19.7462V15.0587C30 14.5733 29.6065 14.1798 29.1211 14.1798ZM27.4691 12.3229L26.7585 14.1798H25.3235C25.3535 14.1295 25.3833 14.0793 25.4118 14.0299C25.5819 13.7353 25.7307 13.4478 25.8588 13.1667L27.4691 12.3229ZM27.0833 5.65288C27.2945 5.3963 27.456 5.10872 27.566 4.80392C27.7842 4.89339 27.9709 5.0513 28.0932 5.26306C28.2561 5.5453 28.2865 5.88315 28.1764 6.18989C28.0664 6.49662 27.8283 6.73821 27.5231 6.85258L25.4591 7.62584L27.0833 5.65288ZM25.4251 2.87402C25.7074 3.03703 25.9026 3.31441 25.9607 3.63509C26.0189 3.95578 25.9333 4.28402 25.7262 4.53562L23.9033 6.74998C23.736 6.64106 23.5599 6.53319 23.3744 6.42608C23.1888 6.31897 23.0073 6.22036 22.8294 6.13001L23.8357 3.44414C23.95 3.13892 24.1915 2.9008 24.4983 2.79076C24.8051 2.68078 25.1429 2.71113 25.4251 2.87402ZM21.1779 2.14928C21.3886 1.90061 21.6963 1.75799 22.0222 1.75799C22.2668 1.75799 22.4969 1.84073 22.6834 1.98498C22.4745 2.23266 22.3062 2.51631 22.1896 2.82744L21.2931 5.22052L20.9308 3.04646C20.8772 2.72496 20.9672 2.39795 21.1779 2.14928ZM22.4954 7.9484C23.6221 8.59884 24.2721 9.22796 24.5412 9.92839C24.6894 10.3139 24.7244 10.7432 24.6478 11.2208L23.6463 10.6426C23.2258 10.3999 22.6884 10.544 22.4457 10.9643C22.203 11.3847 22.347 11.9222 22.7674 12.1649L24.032 12.895C23.9868 12.9793 23.9394 13.0645 23.8895 13.151C23.8895 13.151 23.8894 13.151 23.8894 13.1511C23.7056 13.4695 23.483 13.8143 23.2254 14.1798H15.379C15.6106 13.3481 15.8855 12.5174 16.1818 11.7456L17.2431 12.3584C17.3815 12.4383 17.5326 12.4763 17.6817 12.4763C17.9854 12.4763 18.2809 12.3187 18.4436 12.0367C18.6864 11.6164 18.5424 11.0788 18.122 10.8361L16.8821 10.1203C17.0186 9.84038 17.1561 9.57935 17.2928 9.34251C17.5371 8.91947 17.7812 8.56603 18.0269 8.27464C18.0515 8.24927 18.0745 8.22267 18.0957 8.19478C19.4239 6.68412 20.8022 6.97076 22.4954 7.9484ZM7.13727 6.44547C7.14541 6.44565 7.15367 6.44582 7.1617 6.44577C7.61867 6.44577 7.99988 6.09526 8.0375 5.63911C8.14929 4.28413 9.30306 3.22277 10.6641 3.22277C12.0252 3.22277 13.179 4.28413 13.2908 5.63911C13.3284 6.09526 13.7095 6.44577 14.1666 6.44577C14.1748 6.44582 14.1828 6.44565 14.1909 6.44547C15.0588 6.44916 15.8586 6.88012 16.3437 7.5768C16.1471 7.84697 15.9561 8.14205 15.7706 8.46349C14.935 9.91058 14.1102 12.0512 13.5585 14.1798H11.7851C13.6225 12.305 13.4785 9.28327 13.4714 9.15484C13.4467 8.70753 13.0895 8.35041 12.6422 8.32574C12.5132 8.31859 9.45563 8.17269 7.58369 10.0447C7.23734 10.391 6.96025 10.778 6.73836 11.1794C6.51653 10.778 6.23938 10.391 5.89303 10.0448C5.47631 9.62804 5.00089 9.31152 4.5121 9.07099C4.51819 7.62596 5.69229 6.45151 7.13727 6.44547ZM7.6584 14.1387C7.74623 13.3187 8.01634 12.0979 8.82663 11.2876C9.63704 10.4772 10.8581 10.2072 11.6777 10.1194C11.5898 10.9395 11.3197 12.1603 10.5094 12.9705C9.69903 13.7809 8.478 14.0509 7.6584 14.1387ZM3.36554 10.4843C3.37275 10.4871 3.3799 10.4899 3.38716 10.4925C3.84191 10.6708 4.28722 10.9248 4.65015 11.2876C5.46055 12.098 5.73061 13.3191 5.81838 14.1386C4.99831 14.0508 3.77751 13.7807 2.96728 12.9704C2.15687 12.16 1.88676 10.939 1.79899 10.1195C2.24594 10.1673 2.81183 10.2702 3.36554 10.4843ZM22.3828 28.2423H7.61726V26.4845H22.3828V28.2423ZM28.2422 19.7462C28.2422 22.4924 26.008 24.7267 23.2617 24.7267H6.73836C3.99214 24.7267 1.75791 22.4924 1.75791 19.7462V15.9376H28.2422V19.7462Z" fill="#5CAB56" stroke="white" stroke-width="0.6" mask="url(#path-1-inside-1_200_43)"/>
</svg>
