<svg width="100" height="100" viewBox="0 0 100 100" fill="none" xmlns="http://www.w3.org/2000/svg">
<g clip-path="url(#clip0_326_18)">
<path d="M88.6719 41.7969H81.6406C80.0224 41.7969 78.7109 43.1084 78.7109 44.7266V50.2457C77.3956 49.6086 75.9254 49.2455 74.3736 49.2226C75.4997 47.3206 75.9483 45.1782 75.6775 42.9031L72.0299 12.265C71.1975 5.27267 64.6858 0 56.8825 0H43.1175C35.3142 0 28.8025 5.27267 27.9694 12.265L24.3217 42.9031C24.0517 45.1782 24.5003 47.3206 25.6256 49.2226C24.0746 49.2455 22.6044 49.6086 21.2891 50.2457V44.7266C21.2891 43.1084 19.9768 41.7969 18.3594 41.7969H11.3281C9.70993 41.7969 8.39844 43.1084 8.39844 44.7266C8.39844 46.3448 9.70993 47.6562 11.3281 47.6562H15.4297V58.1062C15.4297 58.2787 15.4472 58.4457 15.4762 58.6098C15.4465 58.9264 15.4297 59.2461 15.4297 59.5703C15.4297 65.2786 20.0729 69.9219 25.7812 69.9219H47.0703V84.5688H29.493C24.9695 84.5688 21.2891 88.2492 21.2891 92.7727V97.0688C21.2891 98.687 22.6006 99.9985 24.2188 99.9985C25.8369 99.9985 27.1484 98.687 27.1484 97.0688V92.7727C27.1484 91.4803 28.1998 90.4282 29.493 90.4282H47.0703V97.0703C47.0703 98.6885 48.3818 100 50 100C51.6182 100 52.9297 98.6885 52.9297 97.0703V90.4282H70.507C71.7995 90.4282 72.8516 91.4803 72.8516 92.7727V97.0703C72.8516 98.6885 74.1631 100 75.7812 100C77.3994 100 78.7109 98.6885 78.7109 97.0703V92.7727C78.7109 88.2492 75.0305 84.5688 70.507 84.5688H52.9297V69.9219H74.2188C79.9263 69.9219 84.5703 65.2779 84.5703 59.5703C84.5703 59.2461 84.5535 58.9256 84.5238 58.6098C84.5528 58.4457 84.5703 58.2787 84.5703 58.1062V47.6562H88.6719C90.2901 47.6562 91.6016 46.3448 91.6016 44.7266C91.6016 43.1084 90.2901 41.7969 88.6719 41.7969ZM30.1399 43.5959L33.7875 12.9578C34.2697 8.91113 38.2805 5.85938 43.1175 5.85938H56.8825C61.7195 5.85938 65.7303 8.91037 66.2125 12.9578L69.8601 43.5959C70.0333 45.0508 69.5732 46.2547 68.4143 47.3846C67.1654 48.6015 65.5586 49.2188 63.6383 49.2188H36.3617C34.4414 49.2188 32.8346 48.6015 31.5865 47.3846C30.4268 46.2547 29.9675 45.0508 30.1399 43.5959ZM74.2188 64.0625H25.7812C23.304 64.0625 21.2891 62.0476 21.2891 59.5703C21.2891 57.093 23.304 55.0781 25.7812 55.0781H74.2188C76.696 55.0781 78.7109 57.093 78.7109 59.5703C78.7109 62.0476 76.696 64.0625 74.2188 64.0625Z" fill="#5CAB56"/>
</g>
<defs>
<clipPath id="clip0_326_18">
<rect width="100" height="100" fill="white"/>
</clipPath>
</defs>
</svg>
