<svg width="150" height="150" viewBox="0 0 150 150" fill="none" xmlns="http://www.w3.org/2000/svg">
<path d="M40.3506 132.098C38.8057 134.603 35.5093 135.396 33.1259 133.67C21.916 125.554 13.25 114.351 8.2207 101.377C2.54759 86.7412 1.81252 70.6529 6.12741 55.5612C10.4423 40.4695 19.5707 27.2013 32.1228 17.7768C44.6749 8.35227 59.963 3.28776 75.6592 3.3544C91.3555 3.42104 106.6 8.61518 119.072 18.146C131.543 27.6767 140.559 41.022 144.745 56.1497C148.932 71.2775 148.06 87.359 142.263 101.946C137.124 114.877 128.363 126.005 117.084 134.027C114.686 135.732 111.397 134.911 109.873 132.393V132.393C108.35 129.876 109.172 126.618 111.548 124.882C120.849 118.085 128.079 108.782 132.36 98.01C137.299 85.5822 138.042 71.8808 134.475 58.992C130.908 46.1031 123.227 34.733 112.601 26.6128C101.975 18.4926 88.9871 14.0672 75.614 14.0104C62.2408 13.9537 49.2154 18.2686 38.521 26.2983C27.8267 34.328 20.0493 45.6325 16.373 58.4905C12.6967 71.3486 13.323 85.0558 18.1565 97.5251C22.3459 108.333 29.4971 117.697 38.74 124.573C41.101 126.329 41.8955 129.594 40.3506 132.098V132.098Z" fill="#D8EDD6"/>
<path d="M102.521 123.528C113.126 117.405 121.414 107.955 126.1 96.6413C130.787 85.328 131.609 72.7847 128.439 60.9565C125.27 49.1284 118.286 38.6766 108.571 31.2221C98.8565 23.7676 86.9533 19.727 74.7079 19.727C62.4625 19.727 50.5594 23.7676 40.8444 31.2221C31.1295 38.6766 24.1458 49.1284 20.9765 60.9565C17.8072 72.7847 18.6293 85.328 23.3154 96.6413C28.0015 107.955 36.2897 117.405 46.8945 123.528" stroke="#D8EDD6" stroke-width="2" stroke-dasharray="2 2"/>
</svg>
