<svg width="100" height="100" viewBox="0 0 100 100" fill="none" xmlns="http://www.w3.org/2000/svg">
<path d="M92.9583 40.6666L88.7917 37.5C89.3333 35.5833 89.7917 33.9583 90.2083 32.5416C91.875 26.9583 92.7917 23.875 90.5 20.7083C88.2083 17.5416 85.0833 17.4166 79.1667 17.25H74C73.2917 15.4166 72.75 13.7916 72.25 12.4166C70.3333 6.91665 69.25 4.08331 65.5 2.66665C61.75 1.24998 59.125 3.24998 54.2917 6.58331L50.125 9.45831L45.9583 6.66665C41.6667 3.29165 38.5 1.20831 34.7083 2.45831C30.9167 3.70831 29.9167 6.62498 27.9583 12.1666C27.4583 13.5416 26.875 15.1666 26.2083 17.0416L20.8333 17.2083C15 17.2083 11.7917 17.4166 9.5 20.5833C7.20833 23.75 8.33333 26.8333 9.91667 32.4583C10.3333 33.875 10.8333 35.5 11.3333 37.4166L7.16667 40.5833C2.625 44.0833 0 46.0416 0 50C0 53.9583 2.54167 55.875 7.16667 59.4166L11.3333 62.5833C10.8333 64.5 10.3333 66.125 9.91667 67.5416C8.25 73.125 7.33333 76.2083 9.625 79.375C11.9167 82.5416 15.1667 82.625 20.9583 82.7916H26.0833C26.7917 84.625 27.3333 86.25 27.8333 87.625C29.7917 93.125 30.8333 95.9583 34.5833 97.375C38.3333 98.7916 40.9583 96.7916 45.7917 93.4583L49.9583 90.5833L54.125 93.375C56.6949 95.6246 59.8669 97.073 63.25 97.5416C64.0013 97.5339 64.7466 97.4073 65.4583 97.1666C69.2083 95.9583 70.25 93 72.2083 87.4583C72.7083 86.0833 73.25 84.4583 73.9583 82.625H79.125C84.9583 82.625 88.1667 82.4166 90.4583 79.2083C92.75 76 91.875 72.9583 90.2083 67.375C89.7917 65.9583 89.2917 64.3333 88.7917 62.4166L92.9583 59.25C97.5417 55.9583 100 54.1666 100 50C100 45.8333 97.5417 44.2083 92.9583 40.6666Z" fill="#8DC63F"/>
<path d="M43.2087 71.9167C42.6454 71.893 42.0928 71.7552 41.5843 71.5117C41.0758 71.2682 40.622 70.924 40.2504 70.5L27.9587 56.7917C27.2239 55.9629 26.8483 54.8761 26.9147 53.7704C26.9812 52.6647 27.4841 51.6307 28.3129 50.8959C29.1417 50.161 30.2285 49.7855 31.3342 49.8519C32.4398 49.9183 33.4739 50.4212 34.2087 51.25L43.4587 61.7084L69.8337 36.0417C70.2137 35.6117 70.6783 35.2648 71.1986 35.0228C71.7188 34.7808 72.2835 34.6488 72.8571 34.6351C73.4307 34.6215 74.001 34.7265 74.5322 34.9435C75.0633 35.1606 75.5439 35.485 75.9439 35.8964C76.3438 36.3079 76.6545 36.7975 76.8564 37.3346C77.0583 37.8717 77.147 38.4447 77.1171 39.0178C77.0872 39.5908 76.9393 40.1514 76.6826 40.6646C76.4259 41.1778 76.066 41.6324 75.6254 42L46.1254 70.8334C45.3295 71.5575 44.2844 71.9457 43.2087 71.9167Z" fill="white"/>
</svg>
