<svg id="Layer_1" enable-background="new 0 0 53 53" height="512" viewBox="0 0 53 53" width="512" xmlns="http://www.w3.org/2000/svg"><g id="_x36_"><g><g><g><g><path d="m41.3396149 5.9920564v41.0158844c0 1.9286118-1.563446 3.4920578-3.4920578 3.4920578h-22.7844506c-1.9286098 0-3.4920559-1.563446-3.4920559-3.4920578v-41.0158844c0-1.9286094 1.5634461-3.4920564 3.4920559-3.4920564h22.7844505c1.9286118 0 3.4920579 1.563447 3.4920579 3.4920564z" fill="#474646"/></g></g><g><g><path d="m41.3388786 5.9899902v41.0200195c0 1.9300537-1.5599976 3.4899902-3.4899902 3.4899902h-22.79004c-1.1499634 0-2.1699829-.5599365-2.7999878-1.4199219.5800171.419922 1.289978.669922 2.0499878.669922h22.7900391c1.9299927 0 3.4899902-1.5599365 3.4899902-3.4899902v-41.0200196c0-.7700195-.25-1.4799805-.6799927-2.0599365.8699961.6199951 1.4299936 1.6500244 1.4299936 2.8099365z" fill="#2d2c2c"/></g></g><g><g><path d="m39.3388786 6.3590288v36.2820663c0 1.0266457-.8322601 1.8589058-1.8589096 1.8589058h-22.052082c-1.0267134 0-1.8590288-.8323174-1.8590288-1.8590279v-36.2819442c-.0000001-1.0267134.8323154-1.8590288 1.8590288-1.8590288h4.6003304c.4201069 0 .7606716.3405652.7606716.760673v.7593465c0 .7600098.6099854 1.3699951 1.3599854 1.3699951h8.6099854c.75 0 1.3599873-.6099854 1.3599873-1.3699951v-.7593465c0-.4201078.3405647-.760673.7606735-.760673h4.6003265c1.0267142 0 1.8590315.8323154 1.8590315 1.8590288z" fill="#fff"/></g></g><g><g><path d="m39.3408661 6.3601732v36.2799683c0 1.0300293-.8300781 1.8600464-1.8601074 1.8600464h-22.0500498c-.8498535 0-1.5698242-.5700073-1.7800293-1.3500366h22.0600586c1.0300293 0 1.8601074-.8299561 1.8601074-1.8599854v-36.2799683c0-.1800537-.0200195-.3500366-.0800781-.5100098 1.0300302.0100098 1.8500986.8299561 1.8500986 1.8599854z" fill="#e3e2ff"/></g></g><g opacity=".3"><g><g><g><path d="m29.0378513 5.5200195h-2.6542969c-.2763672 0-.5-.2236328-.5-.5s.2236328-.5.5-.5h2.6542969c.2763672 0 .5.2236328.5.5s-.2236328.5-.5.5z" fill="#fff"/></g></g></g><g><g><g><path d="m24.1833591 5.5200195h-.3105469c-.2763672 0-.5-.2236328-.5-.5s.2236328-.5.5-.5h.3105469c.2763672 0 .5.2236328.5.5s-.2236328.5-.5.5z" fill="#fff"/></g></g></g></g><g><g><path d="m42.6288567 7.6011147v5.4178872c0 .4203043-.3407249.7610273-.7610283.7610273h-.5289497v-6.9399413h.5289497c.4203033 0 .7610283.3407235.7610283.7610268z" fill="#474646"/></g></g><g><g><path d="m41.339 6.84h.504v6.94h-.504z" fill="#1b1b1b"/></g></g><g><g><g><path d="m10.3711443 9.3765984v2.4178877c0 .4203033.340723.7610273.7610273.7610273h.5289507v-3.9399414h-.5289507c-.4203043 0-.7610273.340723-.7610273.7610264z" fill="#474646"/></g></g><g><g><path d="m11.157 8.616h.504v3.94h-.504z" fill="#2d2c2c"/></g></g></g><g><g><g><path d="m10.3711443 15.1119118v2.4178886c0 .4203033.340723.7610264.7610273.7610264h.5289507v-3.9399414h-.5289507c-.4203043 0-.7610273.340723-.7610273.7610264z" fill="#474646"/></g></g><g><g><path d="m11.157 14.351h.504v3.94h-.504z" fill="#2d2c2c"/></g></g></g><g><g><path d="m30.0601997 47.3726349c0 .4510345-.3656368.8166733-.8166714.8166733h-5.5763912c-.4510345 0-.8166714-.3656387-.8166714-.8166733 0-.4510345.3656368-.8166695.8166714-.8166695h5.5763912c.4510346 0 .8166714.3656349.8166714.8166695z" fill="#2d2c2c"/></g></g></g></g><g><g><g><path d="m28.1748753 24.0882397-3.5701847-1.4298248c-.6381588-.2555351-1.3135262.2754574-1.2158298.9558353l.1422081.9893074c-2.2637959-.9320068-3.802784-3.1451302-3.802784-5.6885014 0-1.2171898.3567982-2.3949623 1.0316563-3.406229.213398-.3197584.1270866-.7519932-.1930103-.9653931-.3194199-.2140779-.7516537-.1264076-.9650536.1926708-.8277702 1.2409763-1.2654419 2.6858368-1.2654419 4.1789513 0 3.3934002 2.2333832 6.3092022 5.4175472 7.2397213l.181797 1.2667599c.0978642.680378.8953934.9997559 1.4358559.5748692l3.0232658-2.3774204c.5402927-.4248429.4181328-1.2752114-.220026-1.5307465z" fill="#ecb021"/></g><g><path d="m24.8232975 28.5639572c-.1591797 0-.3203125-.0302734-.4755859-.0917969-.4248047-.1708984-.7177734-.5439453-.7832031-.9970703l-.1484375-1.0322266c-3.2724609-1.0625-5.4550781-4.0576172-5.4550781-7.5273438 0-1.5664063.4589844-3.0830088 1.328125-4.3876963.3310547-.4902344 1-.6220703 1.4863281-.2958984.4912109.328125.6240234.9941406.2958984 1.4853516-.6328125.9492197-.9677734 2.0546885-.9677734 3.1982431 0 2.1210938 1.140625 4.0351563 2.9560547 5.0458984l-.0419922-.2929688c-.0654297-.4541016.1113281-.8945313.4716797-1.1777344.3613281-.2832031.8291016-.3515625 1.2548828-.1796875l3.5703125 1.4296875c.4257813.1708984.71875.5429688.7832031.9970703.0654297.453125-.1113281.8925781-.4716797 1.1757813l-3.0234375 2.3779297c-.2285156.1796877-.5019531.2724611-.7792969.2724611zm-4.6416016-13.7626963c-.1044922 0-.2060547.0507813-.2685547.1435547-.7861328 1.1796885-1.2021484 2.5527353-1.2021484 3.9707041 0 3.2148438 2.0693359 5.9794922 5.1484375 6.8789063l.2314453.0683594.2158203 1.5048828c.0263672.1855469.1464844.3378906.3203125.4082031.1728516.0693359.3652344.0419922.5126953-.0742188l3.0234375-2.3779297c.1494141-.1171875.2197266-.2919922.1923828-.4794922-.0263672-.1855469-.1464844-.3378906-.3203125-.4082031l-3.5703124-1.4296875c-.1728516-.0693359-.3652344-.0429688-.5117188.0742188-.1474609.1152344-.2197266.2949219-.1933594.4804688l.2363281 1.6396484-.6074219-.25c-2.4511719-1.0097656-4.0351563-3.3789063-4.0351563-6.0351563 0-1.2919922.3789063-2.5419922 1.0947266-3.6142588.046875-.0712891.0644531-.1572266.0478516-.2412109-.0175781-.0839844-.0664063-.1572266-.1376953-.2050781-.0546874-.0361328-.1162109-.053711-.1767578-.053711z" fill="#ecb021"/></g></g><g><g><path d="m28.0226421 11.6831493-.1804371-1.2670993c-.0968456-.6805067-.8940334-1.0009022-1.4350071-.5767374l-3.0263233 2.3735533c-.5409737.4241228-.4198322 1.2746601.2178154 1.531002l3.5686569 1.434454c.6376495.2563848 1.3136959-.273757 1.2168503-.9542637l-.1410198-.9901982c2.2597179.9311991 3.7956486 3.1413059 3.7956486 5.6811962 0 1.2171898-.3567982 2.3953018-1.0309772 3.406908-.213398.3197575-.1270866.7519932.1930103.9650517.1189327.0791759.2528172.1168938.3853416.1168938.2249527 0 .4458275-.1087379.5797119-.3099041.8270912-1.2409763 1.2647629-2.6861763 1.2647629-4.1789494 0-3.3889417-2.229475-6.30126-5.4080334-7.2319069z" fill="#ecb021"/></g><g><path d="m31.5859928 23.778801c-.2119141 0-.4169922-.0625-.59375-.1806641-.2373047-.1582031-.3994141-.3994141-.4560547-.6806641-.0556641-.2802734.0009766-.5654297.1601563-.8037109.6328125-.9511719.9677734-2.0566406.9677734-3.1982422 0-2.1181641-1.1386719-4.0302744-2.9511719-5.0390635l.0419922.2949219c.0654297.453125-.1113281.8935547-.4716797 1.1757813-.3613281.2832031-.8310547.3496094-1.2558594.1787109l-3.5683593-1.4345703c-.4248047-.1699219-.7177734-.5429688-.7822266-.9960938-.0654297-.4541016.1113281-.8945313.4726563-1.1777344l3.0263672-2.3730469c.3613281-.2832031.8291016-.3486328 1.2558594-.1787109.4248047.1708984.7167969.5439453.78125.9980469l.1474609 1.03125c3.2675781 1.0625 5.4453144 4.0546875 5.4453144 7.5205088 0 1.5664063-.4589844 3.0830078-1.3271484 4.3867188-.1992188.2978515-.5322285.4765625-.8925801.4765625zm-3.8066406-11.1416026.6064453.25c2.4472656 1.0087891 4.0283222 3.375001 4.0283222 6.0283213 0 1.2900391-.3779297 2.5390625-1.0937519 3.6142578-.0478516.0712891-.0654297.1572266-.0488281.2412109.0175781.0830078.0654297.15625.1376953.203125.1445313.0996094.3515625.0537109.4443359-.0878906.7861347-1.1796875 1.2021503-2.5527344 1.2021503-3.9707031 0-3.2109385-2.0654316-5.9726572-5.1386738-6.8720713l-.2314453-.0683594-.2148438-1.5058594c-.0263672-.1855469-.1455078-.3378906-.3193359-.4072266-.171875-.0712891-.3642578-.0429688-.5126953.0722656l-3.0263671 2.373047c-.1474609.1162109-.2197266.2958984-.1933594.4814453s.1455078.3369141.3193359.4072266l3.5683594 1.4345703c.1728516.0693359.3662109.0429688.5136719-.0732422.1464844-.1152344.21875-.2949219.1923828-.4794922z" fill="#ecb021"/></g></g></g><g><g><path d="m36.5207977 35.8101845c0 1.5013008-1.2245026 2.6799927-2.6899414 2.6799927h-14.7500019c-1.4899902 0-2.6901855-1.2000122-2.6901855-2.6799927 0-1.469738 1.1866608-2.6900024 2.6901855-2.6900024h14.7500019c1.4799805-.0000001 2.6899414 1.2000121 2.6899414 2.6900024z" fill="#e3e2ff"/></g></g><g><g><path d="m29.2407665 34.120182h-10.1601562c-.938694 0-1.6894531.7637482-1.6894531 1.6899414 0 .9262695.7578125 1.6801758 1.6894531 1.6801758h10.1601563v-3.3701172z" fill="#7979f6"/></g></g><g><g opacity=".3"><g><path d="m12.1952953 35.9854965v-.523243c0-.1893768.1536455-.3430214.3430214-.3430214s.3430214.1536446.3430214.3430214v.523243c0 .189373-.1536455.3430214-.3430214.3430214s-.3430214-.1536484-.3430214-.3430214z" fill="#fff"/></g></g><g opacity=".3"><g><path d="m12.1952953 34.1420937v-2.569149c0-.1893749.1536455-.3430195.3430214-.3430195s.3430214.1536446.3430214.3430195v2.569149c0 .189373-.1536455.3430176-.3430214.3430176s-.3430214-.1536446-.3430214-.3430176z" fill="#fff"/></g></g></g><g><g opacity=".3"><g><path d="m18.3244286 47.2420044h-.523241c-.1893749 0-.3430214-.1536446-.3430214-.3430214 0-.189373.1536465-.3430176.3430214-.3430176h.523241c.1893768 0 .3430214.1536446.3430214.3430176 0 .1893768-.1536446.3430214-.3430214.3430214z" fill="#fff"/></g></g><g opacity=".3"><g><path d="m16.4810257 47.2420044h-2.5691471c-.1893759 0-.3430204-.1536446-.3430204-.3430214 0-.189373.1536446-.3430176.3430204-.3430176h2.5691471c.1893768 0 .3430214.1536446.3430214.3430176 0 .1893768-.1536446.3430214-.3430214.3430214z" fill="#fff"/></g></g></g></g></svg>