<svg width="100" height="100" viewBox="0 0 100 100" fill="none" xmlns="http://www.w3.org/2000/svg">
<path d="M81.8127 21.3125C82.6252 21.3125 83.4377 21 84.0627 20.375L90.4064 13.8437C91.5939 12.5937 91.5939 10.625 90.3439 9.4375C89.0939 8.25 87.1252 8.25 85.9377 9.5L79.5939 16.0312C78.4064 17.2812 78.4064 19.25 79.6564 20.4375C80.2502 21.0312 81.0627 21.3125 81.8439 21.3125H81.8127Z" fill="#5CAB56"/>
<path d="M86.2188 30.625C86.2188 32.3437 87.625 33.7187 89.3438 33.7187H89.375L93.7813 33.6562C95.5 33.6562 96.875 32.2187 96.875 30.5C96.875 28.7812 95.4688 27.4062 93.75 27.4062H93.7187L89.3125 27.4687C87.5937 27.4687 86.2188 28.9062 86.2188 30.625Z" fill="#5CAB56"/>
<path d="M69.375 13.7812H69.4062C71.125 13.7812 72.5 12.4063 72.5312 10.6875L72.5938 6.28125C72.5938 4.5625 71.25 3.125 69.5 3.125C67.7188 3.125 66.3438 4.46875 66.3438 6.21875L66.2812 10.625C66.2812 12.3438 67.625 13.7812 69.375 13.7812Z" fill="#5CAB56"/>
<path d="M15.9377 20.375C16.5627 21 17.3752 21.3125 18.1877 21.3125C19.0002 21.3125 19.7502 21.0312 20.3752 20.4375C21.6252 19.2187 21.6252 17.25 20.4377 16.0312L14.0939 9.5C12.9064 8.25 10.9064 8.21875 9.68765 9.4375C8.43765 10.6562 8.43765 12.625 9.62515 13.8437L15.9689 20.375H15.9377Z" fill="#5CAB56"/>
<path d="M6.21875 33.6562L10.625 33.7187H10.6563C12.375 33.7187 13.75 32.3437 13.7812 30.625C13.7812 28.9062 12.4375 27.4687 10.6875 27.4687L6.28125 27.4062H6.25C4.53125 27.4062 3.15625 28.7812 3.125 30.5C3.125 32.2187 4.46875 33.6562 6.21875 33.6562Z" fill="#5CAB56"/>
<path d="M30.5937 13.7812H30.625C32.3437 13.7812 33.7187 12.3438 33.7187 10.625L33.6562 6.21875C33.6562 4.5 32.125 3.125 30.5 3.125C28.7812 3.125 27.4062 4.5625 27.4062 6.28125L27.4687 10.6875C27.4687 12.4063 28.875 13.7812 30.5937 13.7812Z" fill="#5CAB56"/>
<path d="M93.75 71.875H92.1875V62.5C92.1875 44.8438 79.1875 30.4688 62 28.4062L62.0938 27.1562C62.25 25 61.5 22.8438 60.0312 21.25C58.5625 19.6563 56.4687 18.75 54.3125 18.75H45.6875C43.5312 18.75 41.4375 19.6563 39.9688 21.25C38.5 22.8438 37.75 25 37.9062 27.1562L38 28.4062C20.8438 30.4688 7.8125 44.8438 7.8125 62.5V71.875H6.25C4.53125 71.875 3.125 73.2812 3.125 75V82.0938C3.125 86.7188 6.59375 90.7188 11.1875 91.375L49.5625 96.8438C49.5625 96.8438 49.8438 96.875 50 96.875C50.1562 96.875 50.2812 96.875 50.4375 96.8438L88.8125 91.375C93.4062 90.7188 96.875 86.7188 96.875 82.0938V75C96.875 73.2812 95.4688 71.875 93.75 71.875ZM44.5312 25.5C44.7188 25.3125 45.0938 25 45.6875 25H54.3125C54.9062 25 55.2812 25.3125 55.4688 25.5C55.6562 25.6875 55.9375 26.0938 55.875 26.6875L53.375 59.375H46.6562L44.1562 26.6875C44.125 26.0938 44.4062 25.6875 44.5625 25.5H44.5312ZM14.0625 62.5C14.0625 52.75 18.9375 44.2188 26.4062 39.1875L28.125 56.5625C28.2812 58.1875 29.6562 59.375 31.2188 59.375H31.5312C33.25 59.2188 34.5 57.6875 34.3438 55.9688L32.375 36.1875C34.3125 35.4688 36.3438 34.9688 38.4375 34.6875L40.5938 62.7812C40.7188 64.4062 42.0625 65.6562 43.7188 65.6562H56.2188C57.8438 65.6562 59.2188 64.4062 59.3438 62.7812L61.5 34.6875C63.625 34.9688 65.6563 35.5 67.5625 36.1875L65.5938 55.9688C65.4375 57.6875 66.6875 59.2188 68.4062 59.375H68.7188C70.3125 59.375 71.6562 58.1562 71.8125 56.5625L73.5312 39.1875C81.0312 44.2188 85.875 52.75 85.875 62.5V71.875H14.0625V62.5ZM90.625 82.0938C90.625 83.625 89.4688 84.9688 87.9375 85.1875L50 90.5938L12.0625 85.1875C10.5312 84.9688 9.375 83.625 9.375 82.0938V78.125H90.625V82.0938Z" fill="#5CAB56"/>
</svg>
