<svg width="35" height="35" viewBox="0 0 35 35" fill="none" xmlns="http://www.w3.org/2000/svg">
<g clip-path="url(#clip0_1_6172)">
<path d="M30.6649 8.66149C30.6509 8.66135 30.6365 8.66129 30.6225 8.66129C28.621 8.66129 26.9875 10.272 26.9646 12.2786C26.9551 13.1166 26.8662 14.1139 26.6845 15.1749C26.6044 15.6425 25.9922 15.7693 25.7295 15.3743C24.8801 14.0971 24.1062 12.6636 23.4709 11.1908C22.8355 9.71814 22.3387 8.20627 22.0435 6.77243C21.6709 4.96279 19.9021 3.79769 18.0924 4.1705C17.1709 4.36029 16.4172 4.91259 15.948 5.64757C15.2653 4.38041 13.811 3.65379 12.3287 3.95886C10.9431 4.24421 9.93635 5.34854 9.70758 6.66266C9.05932 6.3378 8.30176 6.21953 7.53656 6.37711C5.90071 6.71399 4.79193 8.19199 4.86936 9.80965C4.28139 9.57397 3.62025 9.50192 2.95353 9.63925C1.14403 10.0119 -0.0209344 11.7808 0.351605 13.5904C0.565366 14.8191 1.25705 17.6353 2.58857 20.8009C3.52131 23.0183 4.76795 25.4072 6.38421 27.5419C7.72735 29.3158 9.32561 30.9143 11.2111 32.093C13.2299 33.3551 15.5779 34.1361 18.2943 34.1361C21.4838 34.1361 24.0578 33.3755 26.1293 32.1072C28.0983 30.9017 29.6133 29.2375 30.7712 27.3317C32.1206 25.1112 32.9852 22.5626 33.5187 20.0298C34.0906 17.3147 34.2819 14.6175 34.2819 12.3616C34.305 10.3412 32.6855 8.68446 30.6649 8.66149Z" fill="#FED2A4"/>
<path d="M3.83614 9.57663C3.54701 9.55863 3.25084 9.57802 2.95353 9.63925C1.14403 10.0119 -0.0209344 11.7807 0.351605 13.5904C0.565366 14.8191 1.25705 17.6353 2.58857 20.8009C3.52131 23.0183 4.76795 25.4072 6.38421 27.5419C7.72735 29.3159 9.32561 30.9143 11.2111 32.093C13.2299 33.3551 15.5779 34.136 18.2943 34.136C21.4838 34.136 24.0578 33.3755 26.1293 32.1072C26.6312 31.7999 27.1032 31.4625 27.5478 31.0992C5.24867 33.3749 3.27069 15.6406 3.83614 9.57663Z" fill="#FFBD86"/>
<path d="M10.0721 20.5278C9.90405 20.5278 9.74016 20.4429 9.64633 20.2889C8.93027 19.1144 8.29377 17.8648 7.75448 16.5748C7.14501 15.117 6.6949 13.6927 6.41673 12.3416C6.22342 11.4029 5.57569 10.6292 4.68399 10.2719C4.42866 10.1696 4.30468 9.87963 4.40694 9.6243C4.50928 9.36897 4.79914 9.24499 5.05454 9.34725C6.25742 9.82936 7.13133 10.8735 7.39237 12.1406C7.65766 13.4291 8.08864 14.7918 8.67341 16.1905C9.19337 17.4343 9.80683 18.6386 10.4968 19.7703C10.64 20.0052 10.5657 20.3117 10.3308 20.4548C10.2499 20.5043 10.1604 20.5278 10.0721 20.5278Z" fill="#FFBD86"/>
<path d="M15.0564 17.902C14.8937 17.902 14.7342 17.8224 14.6388 17.676C13.8044 16.3965 13.0348 14.9494 12.4129 13.4911C11.7654 11.9723 11.2899 10.488 11 9.07955C10.823 8.22059 10.2707 7.50201 9.4845 7.10802C9.23859 6.98483 9.13912 6.68554 9.26237 6.43964C9.38562 6.19374 9.68478 6.09439 9.93075 6.21751C10.9915 6.74909 11.7367 7.71902 11.9755 8.87867C12.2483 10.2033 12.7163 11.6632 13.3292 13.1004C13.9285 14.5061 14.6699 15.9002 15.473 17.1318C15.6233 17.3623 15.5583 17.6708 15.3278 17.8211C15.244 17.8758 15.1496 17.902 15.0564 17.902Z" fill="#FFBD86"/>
<path d="M20.2913 16.1388C20.1345 16.1388 19.9801 16.0649 19.8833 15.9268C18.9727 14.6296 18.1233 13.1263 17.427 11.5795C16.6766 9.91279 16.1112 8.21213 15.7919 6.66128C15.736 6.38954 15.6409 6.12797 15.5094 5.88386C15.3789 5.64174 15.4694 5.33966 15.7116 5.20917C15.9537 5.07881 16.2559 5.16926 16.3863 5.41138C16.5638 5.74082 16.692 6.09377 16.7675 6.4604C17.0723 7.94079 17.6144 9.56947 18.3353 11.1706C19.0063 12.661 19.8235 14.1078 20.6986 15.3546C20.8566 15.5797 20.8023 15.8903 20.5771 16.0483C20.49 16.1094 20.3902 16.1388 20.2913 16.1388Z" fill="#FFBD86"/>
<path d="M25.7802 5.60822C25.5855 5.60822 25.4005 5.49327 25.3206 5.30242C25.0159 4.5746 24.586 3.91313 24.0063 3.28021C23.4315 2.65247 22.7917 2.1523 22.3605 1.83063C22.14 1.66614 22.0946 1.3541 22.259 1.13363C22.4234 0.913161 22.7354 0.867739 22.956 1.03223C23.4196 1.378 24.1091 1.91756 24.7409 2.60752C25.3995 3.32656 25.8896 4.08227 26.2394 4.91779C26.3456 5.17146 26.226 5.46332 25.9723 5.5695C25.9095 5.59573 25.8444 5.60822 25.7802 5.60822Z" fill="#59D5FF"/>
<path d="M29.4723 5.60828C29.2406 5.60828 29.0331 5.44571 28.9849 5.20984C28.8879 4.7353 28.6864 4.19176 28.4176 3.67937C28.1687 3.20503 27.8698 2.7714 27.5533 2.42542C27.3677 2.22242 27.3818 1.90739 27.5848 1.72178C27.7877 1.53605 28.1027 1.55012 28.2884 1.75319C28.6617 2.16139 29.0114 2.66741 29.2996 3.21652C29.6153 3.81816 29.8439 4.43833 29.9608 5.01035C30.0158 5.2799 29.842 5.543 29.5726 5.59805C29.5389 5.60489 29.5053 5.60828 29.4723 5.60828Z" fill="#59D5FF"/>
<path d="M15.2322 25.8185C15.2322 26.7027 14.3321 27.4195 13.2218 27.4195C12.1115 27.4195 11.2114 26.7027 11.2114 25.8185C11.2114 24.9343 12.1115 24.2175 13.2218 24.2175C14.3321 24.2175 15.2322 24.9343 15.2322 25.8185Z" fill="#FFA1AC"/>
<path d="M22.1084 25.8185C22.1084 26.7027 23.0085 27.4195 24.1188 27.4195C25.2291 27.4195 26.1292 26.7027 26.1292 25.8185C26.1292 24.9343 25.2291 24.2175 24.1188 24.2175C23.0085 24.2175 22.1084 24.9343 22.1084 25.8185Z" fill="#FFA1AC"/>
<path d="M20.2911 24.5884C20.2911 23.5867 19.5654 23.4926 18.6702 23.4926C17.7751 23.4926 17.0493 23.5867 17.0493 24.5884C17.0493 25.5901 17.775 26.4021 18.6702 26.4021C19.5654 26.4021 20.2911 25.5901 20.2911 24.5884Z" fill="#425460"/>
<path d="M13.5581 24.4051C13.2831 24.4051 13.0601 24.1822 13.0601 23.9071V23.0862C13.0601 22.8111 13.2831 22.5881 13.5581 22.5881C13.8332 22.5881 14.0562 22.8111 14.0562 23.0862V23.9071C14.0562 24.1822 13.8332 24.4051 13.5581 24.4051Z" fill="#425460"/>
<path d="M23.7832 24.4051C23.5081 24.4051 23.2852 24.1822 23.2852 23.9071V23.0862C23.2852 22.8111 23.5081 22.5881 23.7832 22.5881C24.0583 22.5881 24.2812 22.8111 24.2812 23.0862V23.9071C24.2812 24.1822 24.0583 24.4051 23.7832 24.4051Z" fill="#425460"/>
</g>
<defs>
<clipPath id="clip0_1_6172">
<rect width="34" height="34" fill="white" transform="translate(0.282227 0.534668)"/>
</clipPath>
</defs>
</svg>
