<svg width="130" height="136" viewBox="0 0 130 136" fill="none" xmlns="http://www.w3.org/2000/svg">
<path d="M0.434689 135.93C-0.303027 133.215 -0.0263837 130.52 0.701087 127.856C2.58636 120.97 4.97369 114.259 7.57619 107.61C9.82008 101.882 12.1972 96.2058 14.9841 90.7139C16.9513 86.8409 19.0415 83.0293 21.9002 79.7096C24.4924 76.7075 27.6072 74.4021 31.2036 72.7218C35.3738 70.775 39.7796 69.484 44.1444 68.0701C45.3227 67.6807 46.5112 67.3324 47.6998 66.9635C48.8371 68.4799 50.0769 69.8836 51.6855 70.939C53.5093 72.148 55.4765 73.0394 57.5462 73.7259C60.702 74.771 63.9705 75.0272 67.239 74.73C71.4911 74.3509 75.5178 73.1214 78.9913 70.5291C80.1388 69.6787 81.1737 68.6643 81.9011 67.4041C81.9933 67.2504 82.0856 67.0967 82.2495 67.0147C87.2906 68.5619 92.3521 70.0578 97.26 71.9841C103.807 74.5558 108.674 79.0231 112.127 85.0888C116.318 92.425 119.545 100.202 122.619 108.05C125.017 114.167 127.168 120.366 129.002 126.678C129.607 128.747 130.119 130.858 129.976 133.051C129.914 134.014 129.791 134.967 129.689 135.93C126.417 135.93 123.145 135.93 119.873 135.93C119.812 135.704 119.996 135.612 120.129 135.51C121.625 134.311 122.855 132.866 123.746 131.176C124.719 129.342 125.273 127.385 125.017 125.274C124.945 124.741 124.842 124.208 124.422 123.819C123.93 123.225 123.193 122.815 123.049 121.964C123.459 121.503 123.797 121.872 124.115 122.077C124.965 122.651 125.672 123.389 126.451 124.055C126.584 124.167 126.687 124.321 126.922 124.444C126.953 124.044 126.738 123.788 126.564 123.552C125.232 121.893 123.859 120.284 121.943 119.27C120.846 118.686 119.648 118.429 118.449 118.173C118.152 118.112 117.834 118.112 117.568 118.327C117.322 118.419 117.066 118.399 116.82 118.348C115.857 117.733 115.15 116.841 114.309 116.104C111.533 113.686 108.879 111.145 106.481 108.337C104.279 105.765 102.526 102.999 102.055 99.5665C101.553 95.8984 100.098 92.5889 98.1616 89.4741C97.3829 88.2343 97.0038 86.8716 96.7989 85.4371C96.7784 85.263 96.7579 85.0785 96.7272 84.9044C96.4301 83.4187 95.1903 82.9576 93.9915 83.9207C92.7312 84.9248 92.3931 86.3183 92.557 87.845C92.7722 89.8225 93.4587 91.6668 94.2066 93.5008C94.4116 94.0234 94.6267 94.5459 94.7599 95.0889C94.9034 95.6832 94.7292 95.8676 94.1349 95.7652C93.5816 95.6627 93.0591 95.4578 92.5263 95.2631C90.5488 94.5766 88.5611 93.9004 86.5528 93.2856C86.4094 93.2447 86.2557 93.2139 86.1123 93.1729C83.5303 92.4659 82.6286 94.0234 82.9667 96.3082C82.9872 96.4517 83.0282 96.6054 83.0385 96.759C83.0385 96.882 83.0145 96.9981 82.9667 97.1074C81.8192 98.3574 81.6347 99.7919 82.188 101.36C82.2085 101.564 82.1573 101.749 82.0958 101.944C81.4606 103.276 81.2966 104.618 82.0651 105.97C82.1061 106.124 82.1163 106.288 82.0856 106.452C81.9934 106.923 81.8704 107.394 81.7372 107.866C81.4196 109.054 81.7987 110.058 82.8643 110.683C84.9647 111.903 87.1983 112.856 89.4935 113.655C91.6451 114.403 93.8685 114.905 96.0714 115.468C97.3624 115.796 98.3051 116.442 98.7662 117.702C99.1965 118.839 99.9957 119.833 100.129 121.093C100.242 123.286 99.965 125.469 99.9035 127.661C99.842 129.997 99.6268 132.344 99.6986 134.69C99.7088 135.11 99.7703 135.561 99.4526 135.93C76.5766 135.93 53.704 135.93 30.8348 135.93C30.6708 135.745 30.5889 135.53 30.5991 135.294C30.6503 134.096 30.4352 132.907 30.4249 131.708C30.4249 129.26 30.138 126.821 30.0151 124.382C29.9843 123.891 29.9741 123.409 29.9741 122.927C30.0253 122.466 30.0151 122.005 30.0151 121.555C30.0151 121.268 29.9946 120.97 30.097 120.714C30.7221 119.229 31.4803 117.815 32.3102 116.431C32.5254 116.052 32.9557 115.95 33.3348 115.806C35.1483 115.151 37.0336 114.772 38.8882 114.3C41.88 113.522 44.6874 112.323 47.4436 110.96C49.2572 110.048 49.5748 109.239 48.9498 107.292C48.8576 107.026 48.7756 106.759 48.6732 106.493C48.639 106.377 48.6253 106.257 48.6322 106.134C48.6424 106.042 48.6424 105.919 48.7039 105.847C49.749 104.597 49.3904 103.347 48.7141 102.097C48.6527 101.985 48.5912 101.872 48.5502 101.759C48.5297 101.684 48.5195 101.605 48.5195 101.523C48.6629 100.786 49.0728 100.13 48.9703 99.3103C48.8576 98.4496 48.3555 97.8349 47.874 97.1791C47.8022 97.0357 47.751 96.882 47.751 96.7181C47.8535 96.0418 48.0379 95.3861 47.8227 94.6791C47.4539 93.3881 46.4907 92.7426 45.1485 93.0192C44.3288 93.1832 43.5091 93.4291 42.7202 93.7057C40.8554 94.3615 38.9701 94.925 37.1156 95.591C36.9004 95.673 36.6853 95.7549 36.4598 95.7959C35.8861 95.8881 35.6709 95.6832 35.8246 95.1094C36.05 94.2488 36.3881 93.4188 36.7365 92.5889C37.3513 91.1442 37.8328 89.6688 38.0582 88.1114C38.2734 86.6974 38.0685 85.3654 37.0234 84.2588C36.757 83.972 36.4496 83.7568 36.091 83.6134C34.9537 83.1523 34.1647 83.5314 33.9188 84.7404C33.6832 85.888 33.5909 87.0663 33.0991 88.1524C32.679 89.0847 32.2487 90.0171 31.6954 90.8778C30.3532 92.968 29.3696 95.2016 28.9495 97.6607C28.7446 98.8492 28.4474 100.017 28.14 101.175C28.0786 101.39 28.1298 101.8 27.6687 101.626C27.5663 101.441 27.5355 101.237 27.5355 101.032C27.5765 98.2345 26.9003 95.4988 26.6953 92.7221C26.6134 91.6565 26.4699 90.5909 26.2548 89.5356C26.3265 91.2569 26.5724 92.968 26.7671 94.6893C27.0232 96.923 27.3409 99.1464 27.5458 101.39C27.5663 101.595 27.6277 101.79 27.6892 101.985C27.8634 102.784 27.4331 103.429 27.0642 104.054C25.9371 105.96 24.5539 107.651 23.017 109.239C20.4452 111.903 17.6686 114.362 14.8816 116.8C13.7033 117.825 12.5455 118.901 12.3611 120.612C12.3099 121.114 12.2689 121.626 12.3509 122.128C12.3918 122.384 12.4533 122.63 12.3304 122.876C10.3426 124.423 8.55982 126.216 6.67454 127.876C6.36716 128.143 6.07002 128.563 5.56797 128.204C5.06591 126.903 5.06591 125.571 5.29132 124.218C5.00443 125.489 4.97369 126.78 5.2196 128.04C5.78313 130.899 7.27906 133.225 9.43073 135.161C9.66639 135.366 10.025 135.51 9.95328 135.93C6.777 135.93 3.60414 135.93 0.434689 135.93Z" fill="#537483"/>
<path d="M25.3328 131.944C24.8103 133.348 24.1341 134.669 23.3041 135.93C20.2371 135.93 17.1667 135.93 14.0929 135.93C13.9085 135.694 14.0724 135.499 14.1851 135.305C15.1483 133.676 16.347 132.19 17.177 130.469C17.2385 130.335 17.3614 130.223 17.5151 130.182C17.7917 130.171 17.9967 130.325 18.2221 130.448C19.8307 131.339 21.5213 131.975 23.3963 132.077C23.9189 132.108 24.4005 132.077 24.882 131.862C25.0152 131.801 25.2406 131.575 25.3328 131.944Z" fill="#577583"/>
<path d="M106.819 135.93C106 134.68 105.303 133.358 104.801 131.944C104.801 131.678 104.995 131.739 105.118 131.79C106.655 132.477 108.11 131.913 109.565 131.473C110.118 131.309 110.631 130.991 111.225 130.96C112.178 132.426 112.885 134.034 113.848 135.499C113.93 135.622 113.971 135.776 113.879 135.93C111.529 135.93 109.176 135.93 106.819 135.93Z" fill="#567684"/>
<path d="M13.3343 135.93C12.6171 135.93 11.8999 135.93 11.1827 135.93C10.865 135.766 10.4347 135.756 10.3015 135.315C10.2503 134.997 10.363 134.71 10.5372 134.454C11.9409 132.405 13.6315 130.561 15.0557 128.532C15.1171 128.44 15.2094 128.399 15.3016 128.358C16.152 128.717 16.7668 129.342 17.2586 130.1C16.7873 130.899 16.3364 131.719 15.7626 132.446C14.8917 133.573 14.2565 134.854 13.3343 135.93Z" fill="#5D7885"/>
<path d="M119.105 135.93C118.387 135.93 117.67 135.93 116.953 135.93C116.267 135.264 115.867 134.393 115.355 133.614C114.658 132.579 114.115 131.442 113.275 130.51C113.142 130.356 113.039 130.171 113.019 129.967C113.346 129.137 114.053 128.737 114.791 128.348C115.754 129.157 116.369 130.264 117.199 131.196C118.244 132.374 119.084 133.717 120.068 134.946C119.924 135.448 119.504 135.684 119.105 135.93Z" fill="#5C7A88"/>
<path d="M10.4144 135.315C10.6672 135.52 10.9233 135.725 11.1829 135.93C10.773 135.93 10.3632 135.93 9.95336 135.93C8.76481 134.854 7.6275 133.737 6.74634 132.364C5.21968 129.997 4.6459 127.425 4.8918 124.639C4.92254 124.29 5.08648 124.085 5.5373 123.829C5.28115 125.387 5.35287 126.821 5.66026 128.245C5.95739 128.409 5.99838 128.716 6.09059 129.003C6.38773 129.926 6.92052 130.755 7.33036 131.637C7.44307 131.852 7.61725 132.026 7.7607 132.221C8.32423 133.081 8.96973 133.87 9.73819 134.546C10.0046 134.772 10.2607 134.997 10.4144 135.315Z" fill="#2B4353"/>
<path d="M119.104 135.93C119.32 135.54 119.668 135.274 120.006 134.997C120.109 134.782 120.252 134.588 120.426 134.424C121.205 133.696 121.902 132.917 122.465 132.016C122.578 131.831 122.711 131.667 122.803 131.473C123.316 130.633 123.715 129.741 124.002 128.799C124.074 128.573 124.125 128.337 124.176 128.112C124.432 126.872 124.668 125.633 124.35 124.362C124.299 124.116 124.248 123.85 124.463 123.645C125.16 124.075 125.18 124.823 125.232 125.51C125.478 128.911 124.053 131.688 121.871 134.157C121.277 134.823 120.631 135.458 119.873 135.93C119.613 135.93 119.357 135.93 119.104 135.93Z" fill="#2E4655"/>
<path d="M116.184 135.93C115.672 135.93 115.16 135.93 114.648 135.93C114.053 135.151 113.428 134.403 112.998 133.512C112.557 132.6 112.106 131.688 111.533 130.848C111.748 130.376 112.127 130.161 112.639 130.182C113.162 130.54 113.479 131.063 113.756 131.596C114.402 132.846 115.273 133.942 115.939 135.171C116.061 135.397 116.297 135.612 116.184 135.93Z" fill="#5D7C8B"/>
<path d="M116.184 135.93C115.211 134.342 114.217 132.753 113.274 131.145C113.09 130.817 112.66 130.674 112.649 130.233C112.639 129.905 112.803 129.803 113.11 129.905C114.473 131.678 115.559 133.645 116.768 135.52C116.85 135.643 116.891 135.797 116.953 135.93C116.693 135.93 116.437 135.93 116.184 135.93Z" fill="#415969"/>
<path d="M13.3345 135.93C13.98 134.465 15.0251 133.245 15.896 131.913C16.3161 131.288 16.644 130.612 17.1767 130.059C17.3509 130.008 17.4944 129.997 17.4739 130.253C16.7157 132.016 15.4964 133.501 14.523 135.131C14.3693 135.387 14.1132 135.602 14.0927 135.93C13.8399 135.93 13.5872 135.93 13.3345 135.93Z" fill="#405E6D"/>
<path d="M111.584 130.858C111.768 130.868 111.912 130.95 112.004 131.135C112.752 132.487 113.285 133.962 114.32 135.161C114.494 135.356 114.545 135.674 114.647 135.93C114.395 135.93 114.139 135.93 113.879 135.93C113.1 134.608 112.322 133.297 111.553 131.965C111.389 131.688 111.266 131.38 111.276 131.042C111.317 130.878 111.41 130.796 111.584 130.858Z" fill="#445E6D"/>
<path d="M46.327 30.9384C43.6425 27.1986 42.8331 23.0796 43.8987 18.5611C43.3556 18.7046 42.8843 18.8685 42.4027 18.9402C41.3884 19.0837 40.8966 18.4997 41.1937 17.516C41.6138 16.1226 42.413 14.934 43.2634 13.7865C43.9499 12.8643 44.7593 12.0344 45.5688 11.225C45.8044 10.9893 45.8864 10.8458 45.5995 10.559C45.2204 10.1594 44.8925 9.68804 44.5647 9.23722C44.411 9.0323 44.2778 8.81713 44.1651 8.59172C43.3351 6.90112 43.8269 5.84577 45.6815 5.77405C48.4992 5.6511 50.907 4.606 53.2841 3.13056C59.7391 -0.84491 66.3171 -0.455559 72.7823 3.1613C74.9033 4.34984 76.2148 6.31709 76.85 8.67368C76.973 9.15525 77.1369 9.2782 77.6082 9.25771C79.8726 9.1655 81.973 9.66755 83.7559 11.1327C86.0305 13.0078 86.9526 15.5385 87.0551 18.4074C87.1985 22.7928 85.9383 26.7785 83.5919 30.4466C83.4997 30.6003 83.4177 30.7539 83.3255 30.9076C83.1616 31.2867 82.8132 31.1638 82.5263 31.2048C81.5017 31.379 81.3275 31.6351 81.3685 32.67C81.3993 33.5409 81.5222 34.3913 81.5632 35.2622C81.5734 35.8257 81.7476 36.379 81.7066 36.9426C81.7169 37.9672 81.9321 38.9713 81.9013 39.9959C81.8911 40.252 81.973 40.5082 81.8091 40.7439C81.8501 42.414 81.9833 44.0943 81.9218 45.7747C81.7989 49.0022 81.0509 52.0453 78.9709 54.6375C78.182 55.6109 77.1779 56.3589 76.2557 57.1888C76.1943 57.2913 76.143 57.3937 76.0816 57.5064C73.4893 59.5761 70.5692 60.8876 67.2802 61.3589C62.8641 61.9942 58.8169 60.9696 55.0669 58.6335C54.5853 58.3363 54.0525 58.0392 53.7554 57.4962C52.1263 56.1847 50.5381 54.8322 49.5135 52.9469C48.3967 50.9284 47.8229 48.746 47.7205 46.4612C47.6487 44.5554 47.7205 42.6496 47.7307 40.7336C47.5565 39.5553 47.5975 38.3873 47.7819 37.2192C47.8332 36.5225 47.9869 35.836 47.9561 35.1393C47.9151 34.3196 48.0688 33.5204 48.1098 32.7212C48.1508 31.7068 47.9254 31.4302 46.9213 31.1945C46.7061 31.1535 46.4602 31.174 46.327 30.9384Z" fill="#253643"/>
<path d="M53.7552 57.4961C55.62 58.7973 57.5565 59.9552 59.7594 60.5802C65.1488 62.1068 70.1694 61.2871 74.8313 58.1826C75.2514 57.9059 75.6818 57.6293 76.1019 57.3424C76.2965 58.7154 76.1531 60.0884 76.1736 61.4613C76.1838 61.7585 75.9789 61.9839 75.7637 62.1683C73.776 63.8487 71.5936 65.1602 69.0013 65.5802C66.8394 65.9389 64.7287 65.5393 62.6898 64.7401C59.7184 63.5618 57.0339 61.8917 54.4314 60.0781C54.1958 59.9142 53.9909 59.7297 53.8577 59.4736C53.7347 58.8247 53.7006 58.1655 53.7552 57.4961Z" fill="#D5776A"/>
<path d="M82.2494 67.0146C81.6757 68.6643 80.3744 69.7401 79.0629 70.7135C76.1633 72.8959 72.8333 74.0844 69.2574 74.6684C66.5012 75.1193 63.7553 75.1295 60.9889 74.7299C58.6528 74.3918 56.4396 73.6643 54.3084 72.6705C52.5871 71.8713 50.9784 70.8876 49.626 69.5557C48.8575 68.7974 48.0173 68.07 47.6997 66.9634C47.8022 66.7995 47.9866 66.8507 48.13 66.8097C48.5501 66.7482 48.7038 67.0864 48.8883 67.3425C49.544 68.2749 50.3534 69.0536 51.2448 69.7401C51.9313 70.2831 51.9621 70.2831 52.3822 69.5557C53.1609 68.2339 54.0625 66.9941 54.9437 65.7339C55.1281 65.4572 55.292 65.1498 55.7019 65.1908C55.777 65.2113 55.8419 65.2455 55.8966 65.2933C56.0298 65.9285 55.6199 66.3691 55.3023 66.8097C54.5133 67.8753 53.8883 69.0536 53.0891 70.1089C52.7818 70.5085 52.751 70.8467 53.2633 71.1028C53.6014 71.277 53.8781 71.5639 54.2265 71.7278C54.8412 72.025 55.0359 71.984 55.2716 71.3487C55.9375 69.5966 56.9929 68.0392 57.6589 66.2974C57.6999 66.1745 57.7716 66.072 57.8843 65.99C58.1404 65.8978 58.3454 65.9695 58.5196 66.1745C58.6835 66.4716 58.6015 66.7585 58.4683 67.0454C57.7511 68.6335 56.9621 70.1807 56.1732 71.7278C55.8863 72.3016 56.0503 72.4963 56.5523 72.6807C56.7914 72.7627 57.0339 72.8481 57.2798 72.9369C58.4171 73.3365 58.5708 73.2647 58.8372 72.0659C59.2573 70.2114 59.954 68.4593 60.5688 66.6765C60.6439 66.6287 60.7225 66.6048 60.8044 66.6048C61.5114 66.7482 61.4704 67.2708 61.286 67.7319C60.6917 69.2073 60.3536 70.7647 59.7696 72.2299C59.6671 72.4758 59.5749 72.7114 59.5032 72.9574C59.3905 73.316 59.5134 73.5516 59.8925 73.6336C59.9403 73.6473 59.9882 73.6609 60.036 73.6746C61.4807 74.0537 61.5012 74.0434 61.7163 72.5885C61.9622 70.8979 62.034 69.1868 62.3208 67.4962C62.3926 67.0659 62.495 66.7175 63.0483 66.9224C63.1234 66.9771 63.1781 67.0454 63.2122 67.1273C63.3864 68.2237 63.1815 69.3097 63.0381 70.3856C62.9151 71.2975 62.8536 72.2094 62.7204 73.111C62.6795 73.4287 62.6282 73.8078 63.0073 73.9922C63.4069 74.1766 63.8577 74.2074 64.2676 74.0229C64.5955 73.859 64.5135 73.4901 64.5135 73.193C64.5237 71.4922 64.5135 69.7811 64.5237 68.07C64.5237 67.7011 64.4725 67.3015 64.7184 66.9634C64.9336 66.8097 65.159 66.8097 65.3844 66.9429C65.6611 67.2708 65.5996 67.6601 65.5996 68.0392C65.6098 69.7196 65.5996 71.4102 65.6098 73.0905C65.6201 73.4287 65.4869 73.8795 65.9172 74.0332C66.368 74.2074 66.8803 74.2176 67.3414 74.0229C67.6693 73.8897 67.5361 73.5414 67.5053 73.275C67.2492 71.4819 67.116 69.6684 66.9316 67.8651C66.9111 67.6396 66.8598 67.4142 66.9111 67.1888C66.9384 67.1 66.9828 67.0249 67.0443 66.9634C67.7 66.8712 67.7922 67.363 67.8537 67.8138C68.0689 69.4532 68.325 71.0926 68.5197 72.7422C68.5607 73.1213 68.4787 73.6541 68.9808 73.7668C69.5136 73.8795 70.0566 73.6951 70.5279 73.4389C70.8046 73.2852 70.6304 72.9778 70.5587 72.7422C70.0361 71.1745 69.5546 69.5864 69.073 67.9983C68.9398 67.5679 68.6222 67.1068 69.0218 66.6355C69.1652 66.5433 69.3189 66.5433 69.4828 66.6048C69.9132 67.1376 70.0464 67.8036 70.2718 68.4183C70.7431 69.7708 71.1939 71.1335 71.5525 72.5168C71.7165 73.1315 72.0546 73.2135 72.5771 73.0291C74.6469 72.2504 74.4009 72.4758 73.5608 70.7749C73.0075 69.6786 72.5362 68.5515 71.9931 67.4552C71.7985 67.0659 71.5935 66.6765 71.5833 66.2257C71.6243 66.0515 71.7472 65.9798 71.9214 65.99C72.3825 66.1642 72.6591 66.5331 72.8333 66.9634C73.4686 68.5003 74.3292 69.9245 74.9133 71.4819C74.9645 71.6049 75.0157 71.7278 75.1182 71.7995C75.3743 71.984 76.4502 71.5844 76.9215 71.1438C77.3006 70.7852 77.0239 70.488 76.819 70.2114C75.89 68.9546 75.0225 67.6601 74.2165 66.3281C74.0423 66.0515 73.7862 65.7954 73.8682 65.4265C73.9399 65.2626 74.0628 65.2011 74.2165 65.1908C74.6469 65.2318 74.903 65.5392 75.0977 65.8671C75.9174 67.2196 76.9317 68.4491 77.6592 69.863C77.8949 70.3446 78.11 70.4163 78.5813 70.068C79.6469 69.2893 80.5281 68.3466 81.2351 67.24C81.3478 67.0659 81.4297 66.8712 81.6449 66.7995C81.8703 66.82 82.0752 66.8814 82.2494 67.0146Z" fill="#344F5F"/>
<path d="M55.8452 65.3241C55.8111 65.2968 55.7701 65.2797 55.7223 65.2729C54.0726 65.027 52.9661 63.8077 53.6935 62.0966C53.8575 61.8097 53.878 61.5126 53.796 61.2052C53.6321 60.6211 53.6935 60.0474 53.8575 59.4736C56.2755 61.072 58.6629 62.7216 61.3269 63.9204C63.4273 64.863 65.5687 65.6007 67.9356 65.4778C70.3229 65.3446 72.3004 64.2687 74.2881 63.0904C75.8763 62.1478 76.4193 60.867 76.1324 59.1047C76.0402 58.5309 76.1119 57.9367 76.1017 57.3424C76.1563 57.2878 76.2076 57.2331 76.2554 57.1785C76.2656 58.5514 76.2759 59.9142 76.2861 61.2769C76.2861 61.5535 76.2554 61.8302 76.4193 62.0761C76.655 64.0228 75.9582 65.0474 74.2574 65.2729C74.1549 65.3343 74.0559 65.3958 73.9602 65.4573C73.4172 66.0516 72.7205 66.1438 71.9725 66.0925C71.8393 66.0618 71.7369 66.113 71.6549 66.2155C70.9889 66.5741 70.2819 66.7893 69.5135 66.6971C69.3564 66.7039 69.2027 66.7107 69.0524 66.7175C68.4479 67.2811 67.7204 66.9532 67.0442 66.9737C66.4909 67.3528 65.9376 67.3118 65.3638 67.0147C65.1657 67.0147 64.9642 67.0181 64.7593 67.0249C64.1957 67.3221 63.6322 67.3528 63.0789 66.9839C63.0072 66.9532 62.9355 66.902 62.8638 66.9225C62.1363 67.1376 61.4396 66.9942 60.7633 66.7073C60.7155 66.7073 60.6677 66.7039 60.6199 66.6971C59.8412 66.8268 59.1205 66.6731 58.458 66.236C58.2735 66.1233 58.0788 66.0413 57.8432 66.0823C57.085 66.0925 56.4087 65.8569 55.8452 65.3241Z" fill="#F2C8BC"/>
<path d="M81.3478 35.2109C81.2453 34.1761 81.1531 33.131 81.0302 32.0961C80.9892 31.7273 81.1531 31.5429 81.4298 31.3584C82.0138 30.9793 82.6695 30.9691 83.3253 30.9076C83.7454 31.1945 84.186 31.4506 84.5651 31.7785C85.6102 32.7007 85.8458 33.9404 85.7741 35.2519C85.6819 36.7991 85.2618 38.2643 84.186 39.4426C83.5507 40.1393 82.854 40.7643 81.8089 40.7438C81.6142 39.4733 81.5117 38.1925 81.522 36.9118C82.065 36.4917 82.3417 35.9077 82.5363 35.2622C82.7515 34.504 83.1921 33.9404 83.9913 33.7355C84.1347 33.6945 84.2884 33.6433 84.3294 33.4691C83.6839 33.213 82.649 33.6945 82.0445 34.4835C81.8499 34.7499 81.7986 35.1802 81.3478 35.2109Z" fill="#F0C6B9"/>
<path d="M46.3267 30.9384C46.4975 30.952 46.6716 30.9623 46.8492 30.9691C47.9251 31.0203 48.4169 31.5736 48.3349 32.6392C48.2734 33.4521 48.212 34.2615 48.1505 35.0675C47.7611 35.2417 47.6792 34.8728 47.5357 34.6782C47.1054 34.1146 46.5828 33.6741 45.9271 33.4281C45.6607 33.3154 45.3636 33.1925 45.0869 33.4281C45.1791 33.6945 45.4148 33.6945 45.589 33.7663C46.2345 34.0429 46.7263 34.4937 46.921 35.1495C47.1566 35.9179 47.4743 36.6249 47.9968 37.2192C47.7304 38.377 48.0378 39.586 47.7304 40.7336C46.8902 40.877 46.2857 40.3545 45.7837 39.8729C44.0008 38.1721 43.5603 35.9692 43.9189 33.6433C44.1238 32.3318 45.0357 31.4097 46.3267 30.9384Z" fill="#F0C5BA"/>
<path d="M74.2573 65.2729C74.4964 65.1432 74.7355 65.0134 74.9745 64.8836C75.8352 64.4123 76.5012 63.8282 76.2758 62.6909C76.2348 62.4963 76.1733 62.2299 76.4192 62.0762C77.2594 62.2708 77.5668 62.8446 77.8537 63.6336C78.3967 65.0988 79.7185 65.857 81.0607 66.5025C81.2554 66.5947 81.491 66.6254 81.6447 66.7996C80.9378 68.3877 79.6775 69.4841 78.3455 70.5087C78.0894 70.7136 77.9049 70.7136 77.741 70.396C76.9828 68.9001 75.9274 67.5988 75.077 66.1541C74.8618 65.7955 74.5852 65.5086 74.2573 65.2729Z" fill="#597987"/>
<path d="M53.694 62.0966C53.7042 62.2707 53.7657 62.4552 53.7247 62.6191C53.4378 63.8179 54.0936 64.4531 55.067 64.904C55.2924 65.0167 55.5075 65.1499 55.7227 65.2728C55.0465 65.4675 54.8825 66.1438 54.5547 66.6151C53.7657 67.7216 52.9563 68.8385 52.3313 70.0577C52.0956 70.5188 51.8394 70.4471 51.5013 70.1909C50.4357 69.3918 49.4624 68.5003 48.7041 67.404C48.5402 67.1684 48.407 66.9327 48.1304 66.8097C49.3497 66.277 50.5382 65.7339 51.4194 64.6683C51.7677 64.238 52.1468 63.8486 52.3005 63.2749C52.4849 62.5884 52.9153 62.1068 53.694 62.0966Z" fill="#597783"/>
<path d="M17.474 130.253C17.3715 130.185 17.2725 130.12 17.1768 130.059C16.5621 129.505 15.9507 128.952 15.3428 128.399C15.0969 128.378 14.9842 128.184 14.851 128.02C14.2977 127.395 13.8674 126.678 13.3858 125.991C13.2936 125.848 13.2219 125.684 13.1399 125.52C12.7506 124.772 12.4022 124.014 12.1563 123.204C12.1358 123.088 12.1597 122.982 12.228 122.886C12.187 122.149 12.0641 121.421 12.1358 120.673C12.3202 118.747 13.6727 117.63 14.9637 116.472C18.6933 113.163 22.4843 109.925 25.5376 105.95C26.4188 104.802 27.3102 103.634 27.6073 102.159C27.6176 101.985 27.5971 101.81 27.761 101.687C28.2733 100.15 28.5397 98.5418 28.8676 96.9537C29.3287 94.761 30.2508 92.7528 31.4394 90.8573C32.5664 89.0745 33.4476 87.1994 33.632 85.0478C33.7037 84.31 33.8369 83.4801 34.7898 83.2649C35.7632 83.0395 36.5214 83.4186 37.1772 84.1051C38.3145 85.2834 38.4682 86.7076 38.253 88.2343C37.9559 90.4167 37.0235 92.3839 36.255 94.4024C36.1833 94.5971 36.0911 94.7815 36.0706 94.9864C36.0399 95.2016 35.7837 95.427 36.0091 95.6217C36.1833 95.7754 36.3985 95.591 36.5829 95.5397C38.4989 94.9045 40.3944 94.2487 42.3104 93.6237C43.0789 93.3676 43.8781 93.1729 44.6465 92.9167C47.1363 92.0765 48.5708 94.1155 48.038 96.2672C47.9868 96.4414 47.9253 96.6053 47.8741 96.7795C46.8904 97.2201 45.8453 97.466 44.8822 97.9373C44.749 97.9988 44.5953 98.0295 44.3801 98.2652C45.2818 97.968 46.0195 97.7016 46.7572 97.4148C47.1568 97.2713 47.5462 97.0561 47.997 97.0971C49.3802 98.4599 49.5749 99.8841 48.6015 101.503C47.6281 101.995 46.5113 102.138 45.5789 102.743C46.6548 102.558 47.6179 102.036 48.6425 101.708C49.4315 102.702 49.7388 103.788 49.4417 105.058C49.3392 105.519 48.8372 105.683 48.7757 106.134C48.0482 106.401 47.29 106.616 46.4806 107.118C47.4027 107.026 48.0175 106.442 48.7962 106.431C49.2265 107.138 49.4519 107.927 49.4827 108.737C49.5134 109.546 49.1446 110.212 48.4068 110.632C46.1425 111.923 43.7654 112.968 41.2961 113.798C38.7448 114.669 36.0808 115.13 33.5193 115.95C32.8328 116.165 32.3718 116.513 32.0746 117.169C31.6443 118.091 31.1935 119.024 30.6504 119.874C30.0869 120.776 30.2406 121.749 30.1689 122.702C29.9127 122.261 30.1996 121.739 29.923 121.206C28.3553 124.823 26.5315 128.245 25.3327 131.944C22.6482 132.897 20.3634 131.749 18.0683 130.602C17.8633 130.489 17.6789 130.366 17.474 130.253Z" fill="#F1C8BD"/>
<path d="M111.584 130.858C111.482 130.919 111.379 130.981 111.277 131.042C109.873 131.606 108.459 132.118 106.932 132.323C106.144 132.415 105.508 132.108 104.801 131.944C104.217 129.915 103.326 128.02 102.455 126.104C101.768 124.587 101.113 123.04 100.457 121.493C100.344 121.227 100.242 120.981 99.9344 120.899C99.4016 119.321 98.6434 117.856 97.8032 116.421C97.6393 116.134 97.2499 116.063 96.9323 115.981C94.7601 115.366 92.5675 114.772 90.3953 114.157C87.8031 113.419 85.4055 112.241 83.0079 111.032C81.7784 110.407 80.9894 109.064 81.6042 107.671C81.7681 107.271 81.6964 106.821 81.9526 106.452C82.4751 106.288 82.8747 106.646 83.3153 106.81C83.7149 106.954 84.0735 107.2 84.6473 107.23C83.7251 106.677 82.7518 106.523 81.9423 106.001C80.9177 104.618 81.2661 103.234 81.9628 101.851C82.2497 101.626 82.4854 101.851 82.7415 101.943C83.4997 102.22 84.2477 102.568 85.0674 102.691C84.4833 102.312 83.8173 102.159 83.1821 101.923C82.803 101.78 82.3727 101.739 82.096 101.39C81.3276 99.7406 81.6349 98.05 82.8747 97.0868C83.6944 97.0868 84.3501 97.5991 85.1084 97.7836C85.4772 97.8758 85.8358 98.0192 86.2149 98.091C85.2928 97.6914 84.3706 97.2815 83.3973 97.0254C83.2026 96.9741 82.9772 97.0151 82.885 96.7692C82.5776 96.1135 82.6186 95.427 82.7108 94.7405C82.9259 93.2856 84.0633 92.5171 85.5489 92.845C87.4957 93.2753 89.3502 93.9823 91.2253 94.6073C92.1679 94.9249 93.1105 95.2426 94.0634 95.5397C94.2376 95.5909 94.4528 95.7856 94.6167 95.5807C94.7704 95.3962 94.5962 95.1913 94.5347 95.0069C93.8892 93.1524 93.0798 91.3593 92.6187 89.4433C92.2806 88.0088 92.1167 86.5846 92.7314 85.1912C93.213 84.0846 93.9814 83.3264 95.252 83.2444C96.2151 83.1727 96.7171 83.5211 96.8401 84.4944C97.1065 86.4617 97.6086 88.3367 98.6741 90.0375C99.1045 90.7343 99.5041 91.4515 99.9037 92.1585C101.297 94.5868 101.881 97.2918 102.342 99.9967C102.865 103.06 104.402 105.571 106.359 107.876C109.012 111.021 112.004 113.839 115.109 116.544C115.744 117.097 116.328 117.702 116.943 118.276C117.773 118.89 117.926 119.823 118.06 120.735C118.152 121.35 118.131 121.995 118.039 122.62C117.783 123.614 117.558 124.608 116.984 125.489C116.83 125.694 116.717 125.919 116.594 126.145C116.123 126.749 115.836 127.487 115.242 127.999C115.088 128.132 114.986 128.327 114.771 128.378C114.217 128.891 113.664 129.4 113.111 129.905C112.896 129.936 112.752 130.059 112.65 130.233C112.295 130.445 111.939 130.653 111.584 130.858Z" fill="#F1C8BD"/>
<path d="M117.855 122.702C117.998 121.145 117.834 119.638 116.943 118.276C117.148 118.122 117.363 118.265 117.568 118.265C117.742 118.122 117.906 118.204 118.06 118.286C119.689 119.198 121.297 120.12 122.691 121.37C122.865 121.524 123.152 121.636 123.091 121.964C123.439 122.61 124.023 123.061 124.463 123.645C124.668 124.68 124.822 125.714 124.648 126.79C124.576 127.282 124.556 127.784 124.32 128.245C124.146 128.337 124.013 128.245 123.9 128.132C121.994 126.257 119.822 124.669 117.896 122.805C117.882 122.77 117.868 122.736 117.855 122.702Z" fill="#5B7888"/>
<path d="M123.09 121.964C121.441 120.448 119.566 119.27 117.568 118.266C117.414 117.794 117.793 117.968 117.957 117.979C119.576 118.081 121.113 118.522 122.496 119.372C124.361 120.52 125.795 122.128 127.015 123.932C127.076 124.034 127.168 124.137 127.209 124.259C127.26 124.434 127.25 124.628 127.097 124.751C126.871 124.925 126.799 124.7 126.687 124.577C125.898 123.737 125.006 123.009 124.115 122.302C123.828 122.077 123.531 121.77 123.09 121.964Z" fill="#3A5464"/>
<path d="M12.5043 118.153C11.5822 118.665 10.6088 119.095 9.75839 119.71C8.93871 120.294 8.01656 120.643 7.15589 121.124C6.18251 121.667 5.29111 122.333 4.58413 123.204C4.16404 123.727 3.60051 124.106 3.26239 124.69C3.17017 124.843 3.00624 124.895 2.87304 124.741C2.66812 124.505 2.67836 124.208 2.8423 123.962C3.09845 123.552 3.37509 123.153 3.69272 122.784C4.86077 121.442 5.98784 120.038 7.535 119.106C9.04117 118.194 10.7113 117.866 12.5043 118.153Z" fill="#3B5665"/>
<path d="M27.7612 101.687C27.7612 101.862 27.7612 102.036 27.6075 102.159C27.1361 101.032 27.1771 99.8226 27.0029 98.6545C26.7263 96.7283 26.5931 94.7713 26.2857 92.8348C26.1013 91.6872 26.0398 90.5192 25.9271 89.3511C25.9066 89.1462 25.9374 88.89 26.1833 88.8593C26.4906 88.8285 26.5009 89.1052 26.5316 89.3409C26.962 92.5889 27.2284 95.8471 27.7304 99.0849C27.8636 99.9353 27.7612 100.827 27.7612 101.687Z" fill="#385563"/>
<path d="M104.197 89.3306C103.971 91.4208 103.726 93.3778 103.551 95.345C103.408 96.8409 103.203 98.3164 102.978 99.7918C102.947 99.9352 103.101 100.212 102.773 100.171C102.558 100.14 102.558 99.9557 102.568 99.7508C102.66 96.7692 103.254 93.8286 103.459 90.847C103.49 90.3757 103.623 89.9043 103.603 89.4125C103.592 89.1871 103.582 88.8797 103.89 88.8797C104.238 88.8695 104.187 89.2076 104.197 89.3306Z" fill="#385564"/>
<path d="M12.2279 122.886C12.2415 122.982 12.2552 123.078 12.2689 123.173C12.4123 123.604 12.1049 123.829 11.859 124.075C10.8549 125.11 9.7176 126.001 8.61102 126.934C7.8938 127.548 7.29953 128.286 6.53107 128.829C6.35689 128.952 6.23394 129.219 5.95729 129.024C5.71139 128.819 5.84459 128.471 5.66016 128.245C6.53107 128.071 6.99214 127.323 7.57617 126.8C8.97988 125.54 10.3221 124.218 11.8283 123.071C11.941 122.989 12.0947 122.948 12.2279 122.886Z" fill="#42606E"/>
<path d="M38.4987 126.001C38.4782 126.288 38.2323 126.534 38.0376 126.78C37.0847 127.968 36.1113 129.137 35.138 130.305C34.9535 130.52 34.7384 130.868 34.39 130.612C34.0212 130.325 34.3285 130.089 34.5232 129.844C35.5786 128.491 36.6339 127.139 37.6995 125.776C37.8224 125.622 37.9761 125.458 38.2118 125.53C38.4065 125.581 38.4884 125.735 38.4987 126.001Z" fill="#3B5B69"/>
<path d="M47.9969 97.0972C46.9211 97.6709 45.7223 97.9578 44.6055 98.4292C44.4518 98.5009 44.1854 98.5521 44.0829 98.296C44.0112 98.132 44.1137 97.9681 44.2674 97.9271C45.4866 97.6095 46.5522 96.8 47.874 96.7795C47.915 96.882 47.9559 96.9879 47.9969 97.0972Z" fill="#D6877B"/>
<path d="M48.6426 101.708C47.741 102.456 46.5934 102.64 45.5278 103.04C45.3946 103.091 45.2102 103.081 45.159 102.896C45.0975 102.702 45.2512 102.61 45.3844 102.558C46.4192 102.097 47.4438 101.585 48.6017 101.503C48.6153 101.571 48.629 101.64 48.6426 101.708Z" fill="#D5877D"/>
<path d="M82.8848 96.7693C84.145 96.8615 85.2209 97.5377 86.3889 97.8759C86.5733 97.9373 86.7168 98.0603 86.686 98.2755C86.6451 98.4804 86.4811 98.4804 86.3274 98.4189C85.1799 97.9681 83.9606 97.7017 82.8745 97.0869C82.8813 96.9776 82.8848 96.8717 82.8848 96.7693Z" fill="#D2897D"/>
<path d="M82.0956 101.39C83.1714 101.687 84.237 102.015 85.2411 102.507C85.3743 102.569 85.6407 102.589 85.5588 102.845C85.4768 103.081 85.2616 102.958 85.0977 102.937C84.2063 102.825 83.4276 102.374 82.5874 102.097C82.3825 102.026 82.1673 101.933 81.9624 101.851C82.0034 101.694 82.0478 101.541 82.0956 101.39Z" fill="#D48D7D"/>
<path d="M81.9424 106.001C82.9465 106.134 83.8072 106.646 84.7293 107.005C84.8932 107.067 85.0879 107.179 84.965 107.394C84.8625 107.589 84.6473 107.548 84.4834 107.476C83.633 107.138 82.7928 106.79 81.9526 106.452C81.9458 106.302 81.9424 106.151 81.9424 106.001Z" fill="#D48E82"/>
<path d="M48.7959 106.431C48.2017 106.882 47.4537 106.995 46.798 107.343C46.634 107.425 46.3062 107.497 46.2242 107.179C46.1525 106.892 46.4086 106.821 46.6443 106.759C47.3615 106.565 47.9455 105.96 48.7754 106.134C48.7823 106.23 48.7891 106.329 48.7959 106.431Z" fill="#D38B81"/>
<path d="M15.0047 127.958C15.114 128.102 15.2267 128.249 15.3428 128.399C14.1953 130.11 12.8428 131.678 11.603 133.317C11.1317 133.921 10.5272 134.485 10.4145 135.315C10.1617 135.11 9.90899 134.902 9.65625 134.69C10.1686 133.399 11.2649 132.548 12.0231 131.432C12.7915 130.294 13.8162 129.362 14.5744 128.214C14.6768 128.071 14.7793 127.907 15.0047 127.958Z" fill="#436171"/>
<path d="M114.771 128.378C114.801 128.173 114.934 128.04 115.119 127.948C115.488 127.907 115.672 128.194 115.836 128.419C117.312 130.469 118.951 132.374 120.426 134.413C120.457 134.454 120.467 134.506 120.488 134.547C120.375 134.751 120.221 134.915 120.006 134.997C119.238 134.557 118.982 133.717 118.469 133.081C117.23 131.514 116 129.946 114.771 128.378Z" fill="#435F6F"/>
<path d="M15.0047 127.958C13.4985 129.936 11.9616 131.883 10.3325 133.758C10.0763 134.055 10.189 134.608 9.65623 134.69C8.84679 133.993 8.09882 133.235 7.63775 132.251C7.58652 131.78 7.94513 131.524 8.19104 131.217C9.63573 129.423 11.3161 127.846 12.8428 126.134C13.0477 125.909 13.2321 125.817 13.5087 125.94C14.0074 126.616 14.506 127.289 15.0047 127.958Z" fill="#5B7887"/>
<path d="M5.95703 129.024C6.97139 128.419 7.65788 127.456 8.56978 126.739C9.70709 125.858 10.7419 124.833 11.8178 123.86C12.0227 123.665 12.2584 123.491 12.2686 123.173C12.6101 123.952 12.9517 124.727 13.2932 125.499C13.0371 126.083 12.4735 126.38 12.0432 126.8C10.5268 128.266 9.16405 129.874 7.71936 131.411C7.57591 131.565 7.50419 131.842 7.19681 131.77C6.76647 130.858 6.16195 130.028 5.95703 129.024Z" fill="#5B7887"/>
<path d="M7.19678 131.77C9.14353 129.598 10.9981 127.333 13.2932 125.499C13.3683 125.65 13.44 125.796 13.5084 125.94C13.0575 125.96 12.9756 126.401 12.7194 126.637C11.121 128.112 9.70706 129.772 8.27261 131.391C8.03695 131.657 7.85253 131.965 7.63736 132.251C7.44268 132.128 7.2685 131.995 7.19678 131.77Z" fill="#415E6C"/>
<path d="M120.488 134.547C119.504 133.809 118.972 132.692 118.193 131.79C117.117 130.551 116.246 129.147 115.119 127.948C115.57 127.333 116.017 126.715 116.461 126.094C116.779 125.796 117.066 125.776 117.384 126.124C119.013 127.917 120.734 129.628 122.261 131.514C122.404 131.698 122.558 131.862 122.629 132.098C122.035 133.02 121.349 133.86 120.488 134.547Z" fill="#5C7A89"/>
<path d="M116.789 125.479C117.312 124.618 117.527 123.645 117.855 122.702L117.896 122.753C118.849 124.003 120.109 124.925 121.236 125.991C122.23 126.934 123.357 127.733 124.156 128.87C123.91 129.864 123.449 130.755 122.937 131.626C122.691 131.811 122.568 131.626 122.445 131.462C121.359 130.069 120.058 128.87 118.93 127.528C118.295 126.77 117.404 126.268 116.789 125.479Z" fill="#5B7886"/>
<path d="M124.156 128.87C123.623 128.604 123.275 128.112 122.845 127.733C121.287 126.37 119.801 124.936 118.285 123.532C118.07 123.317 117.804 123.122 117.896 122.753C118.685 123.05 119.146 123.757 119.761 124.259C121.318 125.54 122.804 126.913 124.32 128.245C124.351 128.481 124.269 128.676 124.156 128.87Z" fill="#425F6D"/>
<path d="M116.789 125.479C117.731 126.083 118.602 126.801 119.32 127.661C120.447 129.003 121.748 130.192 122.793 131.596C122.813 131.626 122.885 131.616 122.936 131.626C122.834 131.784 122.732 131.941 122.629 132.098C121.461 130.827 120.252 129.587 119.125 128.266C118.5 127.528 117.701 126.954 117.168 126.135C116.973 125.827 116.697 126.145 116.461 126.094C116.522 125.868 116.594 125.643 116.789 125.479Z" fill="#415D6C"/>
<path d="M61.9828 38.5819C60.8421 38.5204 59.698 38.4589 58.5504 38.3975C58.0381 38.3667 57.536 38.4589 57.034 38.5204C55.4151 38.7253 54.6159 40.1188 55.2409 41.8401C53.5298 41.5328 52.2081 40.7438 51.2655 39.3401C50.374 38.0081 50.1589 36.4507 50.0359 34.9138C49.5851 29.2477 50.3023 23.7354 52.1671 18.3664C52.3618 17.8131 52.536 17.6697 53.1712 17.8644C59.2881 19.7291 65.2308 19.4423 70.8662 16.1738C71.7986 15.6307 72.6182 14.9237 73.2842 14.0733C73.6121 13.6532 73.7863 13.7249 74.1039 14.0221C75.6716 15.5078 76.6245 17.3623 77.3109 19.3603C79.0118 24.2784 79.6983 29.3604 79.4626 34.5552C79.4011 35.7745 79.227 36.9835 78.8683 38.1618C78.2536 40.1905 76.2863 41.7172 74.1859 41.7787C74.7289 40.9282 74.5855 40.1086 74.0322 39.3811C73.4072 38.5512 72.4748 38.3565 71.5014 38.377C70.1797 38.418 68.8579 38.5204 67.5362 38.5921C67.4645 38.4692 67.5055 38.3462 67.5157 38.2233C67.5874 37.588 67.4952 37.4958 66.8702 37.5983C65.6099 37.8032 64.3497 37.7827 63.0894 37.629C62.1058 37.5163 61.9931 37.588 61.9828 38.5819Z" fill="#F3C9BD"/>
<path d="M58.9399 42.5061C61.4912 42.7725 64.0015 42.9774 66.522 42.875C67.6491 42.8237 68.7659 42.6905 69.8725 42.5881C70.3336 42.5471 70.4975 42.5778 70.3336 43.1516C69.6061 45.6721 67.6696 47.25 65.2413 47.373C61.7576 47.5574 59.9031 45.5287 59.0936 43.1414C59.0322 42.9569 59.0014 42.7623 58.9399 42.5061Z" fill="#FAFAFC"/>
<path d="M61.9827 38.5819C61.7777 38.2847 61.5626 37.9978 61.788 37.6085C62.0134 37.2191 62.372 37.3318 62.6794 37.3728C64.1958 37.5573 65.702 37.6802 67.2184 37.2909C67.618 37.1884 67.8127 37.4036 67.8332 37.8339C67.8537 38.1515 67.6487 38.3462 67.536 38.5921C65.6815 39.0532 63.8372 38.9712 61.9827 38.5819Z" fill="#D67A72"/>
<path d="M47.9969 37.2191C47.3719 36.9219 47.085 36.3891 46.9313 35.7334C46.7059 34.7907 46.2141 34.0633 45.1895 33.8174C44.9948 33.7764 44.6567 33.7559 44.7387 33.4383C44.8206 33.1411 45.1075 33.0182 45.4149 33.0694C46.3985 33.2436 47.126 33.8071 47.71 34.5858C47.8432 34.76 47.8637 35.0367 48.1506 35.0674C48.2428 35.7949 48.0481 36.5018 47.9969 37.2191Z" fill="#CB776E"/>
<path d="M81.3477 35.2109C81.8907 34.2683 82.5567 33.4588 83.6735 33.1822C83.8682 33.131 84.0731 33.0797 84.2678 33.0797C84.5034 33.0592 84.6674 33.1822 84.7084 33.4178C84.7391 33.633 84.5854 33.7765 84.4112 33.7969C83.11 33.9814 82.7309 34.9752 82.4542 36.0408C82.321 36.5429 82.0137 36.8195 81.5218 36.9117C81.4672 36.3448 81.4091 35.7779 81.3477 35.2109Z" fill="#D5766A"/>
<path d="M58.458 66.236C59.1855 66.3692 59.913 66.4614 60.62 66.697C60.5995 67.5577 60.2511 68.3569 59.9437 69.1151C59.4417 70.3754 59.2163 71.6971 58.7859 72.9779C58.663 73.3467 58.4888 73.5209 58.1302 73.4082C57.3617 73.1623 56.6035 72.8754 55.8453 72.5885C55.5482 72.4861 55.6096 72.3221 55.7428 72.066C56.5318 70.5086 57.413 68.9819 58.038 67.3425C58.1814 66.9737 58.54 66.697 58.458 66.236Z" fill="#5A7785"/>
<path d="M69.5137 66.6971C70.2104 66.4512 70.9071 66.2463 71.6551 66.2156C72.5465 68.1521 73.4277 70.0886 74.3601 72.0149C74.5445 72.394 74.4113 72.5169 74.1346 72.6501C74.0629 72.6808 73.981 72.6808 73.9092 72.7116C73.2227 73.0497 72.4031 73.5722 71.778 73.3366C71.194 73.1214 71.2555 72.0763 71.0198 71.4103C70.569 70.0886 70.1284 68.7668 69.6879 67.4451C69.6059 67.1992 69.5649 66.943 69.5137 66.6971Z" fill="#5A7886"/>
<path d="M55.8455 65.3241C56.515 65.5768 57.1809 65.8296 57.8435 66.0823C57.6489 67.1274 57.1263 68.0291 56.6345 68.9307C56.1632 69.8119 55.7328 70.693 55.3845 71.6254C55.1796 72.1787 54.8619 72.3426 54.3394 71.9943C54.0627 71.8099 53.7656 71.6664 53.4992 71.4717C52.3721 70.6623 52.4336 70.693 53.2328 69.5147C54.1549 68.152 55.2205 66.8713 55.8455 65.3241Z" fill="#5B7887"/>
<path d="M65.3638 67.0146C65.9239 67.001 66.484 66.9873 67.0441 66.9736C67.3822 69.156 67.4027 71.3692 67.8126 73.5414C67.915 74.0639 67.8126 74.3815 67.1261 74.3815C65.3638 74.361 65.3638 74.402 65.3638 72.609C65.3638 70.7442 65.3638 68.8794 65.3638 67.0146Z" fill="#5A7684"/>
<path d="M71.9727 66.0925C72.6352 65.8808 73.2978 65.669 73.9604 65.4573C74.8108 67.0557 75.8354 68.5311 76.901 69.986C77.6182 70.9697 77.6285 70.9697 76.5936 71.5332C76.4604 71.6049 76.3375 71.7074 76.2043 71.7791C75.0772 72.3836 75.1182 72.3221 74.5956 71.2156C73.776 69.484 73.1407 67.6499 71.9727 66.0925Z" fill="#597989"/>
<path d="M63.0791 66.984C63.6392 66.9977 64.1993 67.0113 64.7594 67.025C64.7594 69.1972 64.7492 71.3693 64.7799 73.5415C64.7799 74.146 64.657 74.3919 63.9807 74.3817C62.3721 74.3407 62.3209 74.2075 62.5258 72.5886C62.7614 70.7238 63.0688 68.8693 63.0791 66.984Z" fill="#5B7785"/>
<path d="M67.0444 66.9738C67.6899 66.7279 68.3969 66.9226 69.0527 66.7177C69.0424 67.8037 69.565 68.7464 69.8416 69.7607C70.1592 70.9083 70.5486 72.0354 70.9379 73.1727C71.0609 73.5313 70.9482 73.7055 70.5896 73.7464C70.5588 73.7464 70.5383 73.7464 70.5076 73.7464C68.3969 74.2075 68.4072 74.2075 68.1305 71.728C67.9871 70.396 67.8334 69.064 67.6694 67.732C67.6182 67.3734 67.4953 67.0353 67.0444 66.9738Z" fill="#5B7988"/>
<path d="M60.7635 66.7074C61.5319 66.8201 62.3209 66.7689 63.0791 66.984C62.8332 67.025 62.6283 66.9226 62.5565 67.3836C62.2492 69.4124 62.0955 71.4513 61.8496 73.4903C61.7881 74.0128 61.6446 74.2997 61.0299 74.0846C60.6098 73.9411 60.1385 73.9001 59.6876 73.8182C59.1651 73.7362 59.0217 73.4698 59.2471 72.9677C60.0155 71.2054 60.4049 69.2996 61.1221 67.5168C61.3065 67.066 61.1221 66.8713 60.7635 66.7074Z" fill="#597886"/>
<path d="M57.9664 26.051C58.4684 26.051 59.2984 26.1535 60.0668 26.5326C60.5689 26.7785 61.0914 27.0551 60.8865 27.7211C60.6816 28.3871 60.0771 28.3564 59.5443 28.2642C57.8844 27.9875 56.245 28.0183 54.6569 28.6228C54.3905 28.7252 54.1343 28.838 53.8884 28.9507C53.5401 29.1044 53.1712 29.2068 52.9048 28.8789C52.6077 28.5203 52.6999 28.1002 52.9765 27.7519C53.4376 27.1781 54.0729 26.84 54.7286 26.5736C55.661 26.2047 56.6139 25.9383 57.9664 26.051Z" fill="#2A3647"/>
<path d="M72.1162 26.0202C73.5711 26.1226 74.9236 26.4915 76.02 27.4956C76.3991 27.8337 76.8396 28.2436 76.44 28.7969C76.0507 29.3297 75.5999 29.0223 75.1593 28.8071C73.4584 27.9977 71.6654 28.0182 69.8621 28.2026C69.7596 28.2026 69.6674 28.2641 69.5649 28.2846C69.0834 28.3563 68.6735 28.2128 68.4788 27.762C68.2739 27.2907 68.5403 26.9321 68.9502 26.6862C69.8108 26.1636 70.774 26.1124 71.7371 26.0202C71.8703 26.0099 71.9932 26.0202 72.1162 26.0202Z" fill="#293847"/>
<path d="M75.3642 32.3318C75.395 32.547 75.3028 32.7622 75.0671 32.8646C74.77 32.9876 74.5036 32.9056 74.3191 32.6495C74.063 32.2909 73.7863 31.963 73.4277 31.7068C72.4953 31.0613 71.317 31.133 70.4666 31.8913C70.2207 32.1064 70.0055 32.3728 69.7801 32.6187C69.6059 32.8134 69.4318 32.9773 69.1244 32.8134C68.7863 32.6392 68.8272 32.3626 68.9092 32.0859C69.0219 31.7171 69.2473 31.4097 69.524 31.133C71.0506 29.5552 73.7556 29.7498 75.0261 31.5326C75.19 31.7581 75.354 31.9937 75.3642 32.3318Z" fill="#2D3B47"/>
<path d="M60.487 32.4343C60.5075 32.5777 60.3948 32.7519 60.1489 32.8543C59.9133 32.9671 59.7083 32.9056 59.5342 32.7109C59.2985 32.4445 59.0936 32.1474 58.8272 31.922C57.7513 30.9691 56.3271 31.0715 55.364 32.1371C55.3128 32.1986 55.2615 32.2601 55.2103 32.3113C54.9234 32.588 54.7185 33.1925 54.196 32.7929C53.6427 32.3728 54.073 31.9117 54.3394 31.5326C55.7021 29.6166 58.6427 29.5654 60.0669 31.4301C60.2616 31.6863 60.4563 31.9629 60.487 32.4343Z" fill="#2C3C49"/>
</svg>
