<svg width="304" height="245" viewBox="0 0 304 245" fill="none" xmlns="http://www.w3.org/2000/svg">
<path d="M15.1875 194.721C15.1875 193.736 15.5215 192.91 16.1895 192.242C16.8926 191.539 17.7363 191.188 18.7207 191.188H26.7891L25.418 187.285C24.8555 185.844 24.293 184.49 23.7305 183.225C23.2031 181.924 22.5879 180.746 21.8848 179.691C21.252 178.637 20.5312 178.074 19.7227 178.004C18.8789 178.074 18.123 178.637 17.4551 179.691C16.7871 180.746 16.1719 181.924 15.6094 183.225C15.082 184.49 14.5371 185.844 13.9746 187.285L8.96484 200.996C8.61328 201.734 8.15625 202.35 7.59375 202.842C7.06641 203.299 6.25781 203.527 5.16797 203.527C4.14844 203.527 3.30469 203.176 2.63672 202.473C2.00391 201.77 1.72266 200.926 1.79297 199.941C1.82812 199.484 1.93359 199.062 2.10938 198.676L7.91016 183.699C9.52734 179.762 11.1445 176.58 12.7617 174.154C14.3438 171.764 16.6641 170.551 19.7227 170.516C22.7461 170.551 25.0488 171.764 26.6309 174.154C28.248 176.51 29.8652 179.691 31.4824 183.699L37.2832 198.676C37.459 199.062 37.5645 199.484 37.5996 199.941C37.6699 200.926 37.3711 201.77 36.7031 202.473C36.0703 203.176 35.2441 203.527 34.2246 203.527C33.0645 203.527 32.2031 203.299 31.6406 202.842C31.1133 202.35 30.6738 201.734 30.3223 200.996L29.3203 198.254H18.7207C17.7363 198.254 16.9102 197.902 16.2422 197.199C15.5391 196.531 15.1875 195.705 15.1875 194.721ZM43.9805 185.598C44.6484 183.91 45.7734 182.398 47.3555 181.062C48.9727 179.691 51.0117 178.988 53.4727 178.953H73.3008C74.2852 178.953 75.1113 179.305 75.7793 180.008C76.4824 180.676 76.834 181.502 76.834 182.486C76.834 183.471 76.4824 184.314 75.7793 185.018C75.1113 185.686 74.2852 186.02 73.3008 186.02H53.2617C52.5938 186.02 52.0137 186.301 51.5215 186.863C51.0293 187.391 50.6426 188.023 50.3613 188.762C50.1152 189.5 49.9922 190.203 49.9922 190.871V200.1C49.7812 202.209 48.6211 203.352 46.5117 203.527C45.5273 203.527 44.666 203.211 43.9277 202.578C43.2246 201.91 42.873 201.084 42.873 200.1V190.924H42.9258C42.9258 189.096 43.2773 187.32 43.9805 185.598ZM92.9707 202.895C89.877 202.789 87.5391 202.068 85.957 200.732C84.375 199.361 83.2324 197.832 82.5293 196.145C81.8262 194.422 81.4746 192.682 81.4746 190.924C81.4746 189.096 81.8086 187.338 82.4766 185.65C83.1797 183.928 84.3223 182.398 85.9043 181.062C87.5215 179.691 89.5605 178.988 92.0215 178.953H109.107C111.568 178.988 113.59 179.691 115.172 181.062C116.789 182.398 117.932 183.928 118.6 185.65C119.303 187.338 119.654 189.096 119.654 190.924C119.654 192.682 119.303 194.422 118.6 196.145C117.896 197.832 116.754 199.361 115.172 200.732C113.59 202.068 111.252 202.789 108.158 202.895H92.9707ZM91.8105 186.02C91.1426 186.02 90.5625 186.301 90.0703 186.863C89.5781 187.391 89.209 188.023 88.9629 188.762C88.752 189.465 88.6465 190.168 88.6465 190.871C88.6465 191.609 88.752 192.348 88.9629 193.086C89.209 193.789 89.5781 194.422 90.0703 194.984C90.5625 195.512 91.1426 195.793 91.8105 195.828H109.318C109.986 195.793 110.566 195.512 111.059 194.984C111.551 194.422 111.902 193.789 112.113 193.086C112.359 192.348 112.482 191.609 112.482 190.871C112.482 190.168 112.359 189.465 112.113 188.762C111.902 188.023 111.551 187.391 111.059 186.863C110.566 186.301 109.986 186.02 109.318 186.02H91.8105ZM155.303 187.391C155.303 186.512 154.846 186.055 153.932 186.02H135.475C134.807 186.055 134.227 186.354 133.734 186.916C133.242 187.443 132.873 188.076 132.627 188.814C132.416 189.518 132.311 190.238 132.311 190.977C132.311 191.68 132.416 192.4 132.627 193.139C132.873 193.842 133.242 194.475 133.734 195.037C134.227 195.564 134.807 195.828 135.475 195.828H148.975C149.959 195.828 150.785 196.18 151.453 196.883C152.156 197.551 152.508 198.377 152.508 199.361C152.508 200.346 152.156 201.172 151.453 201.84C150.785 202.543 149.959 202.895 148.975 202.895H135.686C133.225 202.859 131.186 202.174 129.568 200.838C127.986 199.467 126.844 197.938 126.141 196.25C125.473 194.527 125.139 192.752 125.139 190.924C125.139 189.166 125.49 187.443 126.193 185.756C126.896 184.033 128.039 182.504 129.621 181.168C131.203 179.797 133.541 179.059 136.635 178.953H158.783C159.768 178.953 160.611 179.287 161.314 179.955C162.018 180.588 162.387 181.396 162.422 182.381V199.045C162.422 201.857 162.035 204.512 161.262 207.008C160.559 209.223 159.398 211.086 157.781 212.598C156.199 214.145 154.178 214.988 151.717 215.129H133.471C132.521 215.094 131.713 214.742 131.045 214.074C130.412 213.441 130.078 212.65 130.043 211.701C130.043 210.717 130.359 209.873 130.992 209.17C131.66 208.467 132.486 208.098 133.471 208.062H149.924C151.26 207.992 152.367 207.482 153.246 206.533C154.125 205.584 154.688 204.477 154.934 203.211C155.18 201.945 155.303 200.311 155.303 198.307V187.391ZM173.074 178.32C174.059 178.32 174.902 178.654 175.605 179.322C176.309 179.955 176.678 180.764 176.713 181.748V187.074C176.678 188.516 176.766 189.852 176.977 191.082C177.223 192.277 177.785 193.35 178.664 194.299C179.543 195.248 180.65 195.758 181.986 195.828H196.066V181.854C196.066 180.869 196.418 180.061 197.121 179.428C197.859 178.76 198.721 178.426 199.705 178.426C201.814 178.602 202.975 179.744 203.186 181.854V199.045C203.186 201.857 202.799 204.512 202.025 207.008C201.322 209.223 200.162 211.086 198.545 212.598C196.963 214.145 194.941 214.988 192.48 215.129H174.234C173.285 215.094 172.477 214.742 171.809 214.074C171.176 213.441 170.842 212.65 170.807 211.701C170.807 210.717 171.123 209.873 171.756 209.17C172.424 208.467 173.25 208.098 174.234 208.062H190.688C192.023 207.992 193.131 207.482 194.01 206.533C194.889 205.584 195.451 204.477 195.697 203.211C195.732 203.105 195.75 203 195.75 202.895H180.193C177.732 202.754 175.693 201.928 174.076 200.416C172.494 198.869 171.352 196.988 170.648 194.773C169.98 192.559 169.629 190.203 169.594 187.707V181.748C169.629 180.799 169.98 180.008 170.648 179.375C171.316 178.707 172.125 178.355 173.074 178.32ZM239.572 200.1V187.391C239.572 186.512 239.115 186.055 238.201 186.02H219.744C219.076 186.055 218.496 186.354 218.004 186.916C217.512 187.443 217.143 188.076 216.896 188.814C216.686 189.518 216.58 190.238 216.58 190.977C216.58 191.68 216.686 192.4 216.896 193.139C217.143 193.842 217.512 194.475 218.004 195.037C218.496 195.564 219.076 195.828 219.744 195.828H233.244C234.229 195.828 235.055 196.18 235.723 196.883C236.426 197.551 236.777 198.377 236.777 199.361C236.777 200.346 236.426 201.172 235.723 201.84C235.055 202.543 234.229 202.895 233.244 202.895H219.955C217.494 202.859 215.455 202.174 213.838 200.838C212.256 199.467 211.113 197.938 210.41 196.25C209.742 194.527 209.408 192.752 209.408 190.924C209.408 189.166 209.76 187.443 210.463 185.756C211.166 184.033 212.309 182.504 213.891 181.168C215.473 179.797 217.811 179.059 220.904 178.953H243.053C244.037 178.953 244.881 179.287 245.584 179.955C246.287 180.588 246.656 181.396 246.691 182.381V200.1C246.691 201.084 246.322 201.91 245.584 202.578C244.881 203.211 244.037 203.527 243.053 203.527C240.943 203.352 239.783 202.209 239.572 200.1Z" fill="#2B2B2B"/>
<path d="M265.359 194.721C265.359 193.736 265.693 192.91 266.361 192.242C267.064 191.539 267.908 191.188 268.893 191.188H276.961L275.59 187.285C275.027 185.844 274.465 184.49 273.902 183.225C273.375 181.924 272.76 180.746 272.057 179.691C271.424 178.637 270.703 178.074 269.895 178.004C269.051 178.074 268.295 178.637 267.627 179.691C266.959 180.746 266.344 181.924 265.781 183.225C265.254 184.49 264.709 185.844 264.146 187.285L259.137 200.996C258.785 201.734 258.328 202.35 257.766 202.842C257.238 203.299 256.43 203.527 255.34 203.527C254.32 203.527 253.477 203.176 252.809 202.473C252.176 201.77 251.895 200.926 251.965 199.941C252 199.484 252.105 199.062 252.281 198.676L258.082 183.699C259.699 179.762 261.316 176.58 262.934 174.154C264.516 171.764 266.836 170.551 269.895 170.516C272.918 170.551 275.221 171.764 276.803 174.154C278.42 176.51 280.037 179.691 281.654 183.699L287.455 198.676C287.631 199.062 287.736 199.484 287.771 199.941C287.842 200.926 287.543 201.77 286.875 202.473C286.242 203.176 285.416 203.527 284.396 203.527C283.236 203.527 282.375 203.299 281.812 202.842C281.285 202.35 280.846 201.734 280.494 200.996L279.492 198.254H268.893C267.908 198.254 267.082 197.902 266.414 197.199C265.711 196.531 265.359 195.705 265.359 194.721ZM296.684 178.426C297.633 178.461 298.441 178.812 299.109 179.48C299.777 180.113 300.129 180.904 300.164 181.854V200.1C299.953 202.209 298.793 203.352 296.684 203.527C295.699 203.527 294.838 203.211 294.1 202.578C293.396 201.91 293.045 201.084 293.045 200.1V181.854C293.08 180.869 293.449 180.061 294.152 179.428C294.855 178.76 295.699 178.426 296.684 178.426ZM292.254 171.57C292.254 170.586 292.676 169.742 293.52 169.039C294.363 168.336 295.383 167.984 296.578 167.984C297.773 167.984 298.793 168.336 299.637 169.039C300.48 169.742 300.902 170.586 300.902 171.57C300.902 172.59 300.48 173.451 299.637 174.154C298.793 174.857 297.773 175.209 296.578 175.209C295.383 175.209 294.363 174.857 293.52 174.154C292.676 173.451 292.254 172.59 292.254 171.57Z" fill="#5CAB56"/>
<path d="M58.5992 234.4L53.1392 226H55.7992L60.0592 232.7H58.8192L63.0792 226H65.6992L60.1992 234.4H58.5992ZM58.2792 240V232.96H60.5792V240H58.2792ZM68.827 240.2C67.8937 240.2 67.047 239.98 66.287 239.54C65.527 239.087 64.9204 238.48 64.467 237.72C64.027 236.96 63.807 236.113 63.807 235.18C63.807 234.247 64.027 233.407 64.467 232.66C64.9204 231.913 65.527 231.32 66.287 230.88C67.047 230.427 67.8937 230.2 68.827 230.2C69.7737 230.2 70.627 230.42 71.387 230.86C72.147 231.3 72.747 231.9 73.187 232.66C73.6404 233.407 73.867 234.247 73.867 235.18C73.867 236.113 73.6404 236.96 73.187 237.72C72.747 238.48 72.147 239.087 71.387 239.54C70.627 239.98 69.7737 240.2 68.827 240.2ZM68.827 238.08C69.3737 238.08 69.8537 237.96 70.267 237.72C70.6937 237.467 71.0204 237.12 71.247 236.68C71.487 236.24 71.607 235.74 71.607 235.18C71.607 234.62 71.487 234.127 71.247 233.7C71.007 233.273 70.6804 232.94 70.267 232.7C69.8537 232.447 69.3737 232.32 68.827 232.32C68.2937 232.32 67.8137 232.447 67.387 232.7C66.9737 232.94 66.647 233.273 66.407 233.7C66.1804 234.127 66.067 234.62 66.067 235.18C66.067 235.74 66.1804 236.24 66.407 236.68C66.647 237.12 66.9737 237.467 67.387 237.72C67.8137 237.96 68.2937 238.08 68.827 238.08ZM79.6366 240.2C78.8232 240.2 78.0966 240.02 77.4566 239.66C76.8299 239.3 76.3366 238.807 75.9766 238.18C75.6299 237.54 75.4566 236.807 75.4566 235.98V230.4H77.6566V235.88C77.6566 236.347 77.7299 236.747 77.8766 237.08C78.0366 237.4 78.2632 237.647 78.5566 237.82C78.8632 237.993 79.2232 238.08 79.6366 238.08C80.2766 238.08 80.7632 237.893 81.0966 237.52C81.4432 237.133 81.6166 236.587 81.6166 235.88V230.4H83.8166V235.98C83.8166 236.82 83.6366 237.56 83.2766 238.2C82.9299 238.827 82.4432 239.32 81.8166 239.68C81.1899 240.027 80.4632 240.2 79.6366 240.2ZM86.0286 240V230.4H88.2286V240H86.0286ZM88.2286 234.66L87.4686 234.28C87.4686 233.067 87.7353 232.087 88.2686 231.34C88.8153 230.58 89.6353 230.2 90.7286 230.2C91.2086 230.2 91.6419 230.287 92.0286 230.46C92.4153 230.633 92.7753 230.913 93.1086 231.3L91.6686 232.78C91.4953 232.593 91.3019 232.46 91.0886 232.38C90.8753 232.3 90.6286 232.26 90.3486 232.26C89.7353 232.26 89.2286 232.453 88.8286 232.84C88.4286 233.227 88.2286 233.833 88.2286 234.66ZM100.409 234.72V232.72H103.909C104.389 232.72 104.809 232.627 105.169 232.44C105.542 232.24 105.835 231.967 106.049 231.62C106.262 231.26 106.369 230.84 106.369 230.36C106.369 229.88 106.262 229.467 106.049 229.12C105.835 228.76 105.542 228.487 105.169 228.3C104.809 228.1 104.389 228 103.909 228H100.409V226H104.029C104.909 226 105.695 226.18 106.389 226.54C107.095 226.9 107.649 227.407 108.049 228.06C108.462 228.713 108.669 229.48 108.669 230.36C108.669 231.24 108.462 232.007 108.049 232.66C107.649 233.313 107.095 233.82 106.389 234.18C105.695 234.54 104.909 234.72 104.029 234.72H100.409ZM98.8286 240V226H101.129V240H98.8286ZM114.131 240.2C113.264 240.2 112.477 239.98 111.771 239.54C111.077 239.1 110.524 238.507 110.111 237.76C109.711 237 109.511 236.153 109.511 235.22C109.511 234.273 109.711 233.427 110.111 232.68C110.524 231.92 111.077 231.32 111.771 230.88C112.477 230.427 113.264 230.2 114.131 230.2C114.864 230.2 115.511 230.36 116.071 230.68C116.644 230.987 117.097 231.413 117.431 231.96C117.764 232.507 117.931 233.127 117.931 233.82V236.58C117.931 237.273 117.764 237.893 117.431 238.44C117.111 238.987 116.664 239.42 116.091 239.74C115.517 240.047 114.864 240.2 114.131 240.2ZM114.491 238.12C115.304 238.12 115.957 237.847 116.451 237.3C116.957 236.753 117.211 236.053 117.211 235.2C117.211 234.627 117.097 234.12 116.871 233.68C116.644 233.24 116.324 232.9 115.911 232.66C115.511 232.407 115.037 232.28 114.491 232.28C113.957 232.28 113.484 232.407 113.071 232.66C112.671 232.9 112.351 233.24 112.111 233.68C111.884 234.12 111.771 234.627 111.771 235.2C111.771 235.773 111.884 236.28 112.111 236.72C112.351 237.16 112.671 237.507 113.071 237.76C113.484 238 113.957 238.12 114.491 238.12ZM117.071 240V237.42L117.451 235.08L117.071 232.76V230.4H119.271V240H117.071ZM123.172 240V226.4H125.372V240H123.172ZM120.872 232.4V230.4H127.672V232.4H120.872ZM135.851 240V234.46C135.851 233.82 135.644 233.293 135.231 232.88C134.831 232.467 134.311 232.26 133.671 232.26C133.244 232.26 132.864 232.353 132.531 232.54C132.197 232.727 131.937 232.987 131.751 233.32C131.564 233.653 131.471 234.033 131.471 234.46L130.611 233.98C130.611 233.247 130.771 232.6 131.091 232.04C131.411 231.467 131.851 231.02 132.411 230.7C132.984 230.367 133.624 230.2 134.331 230.2C135.051 230.2 135.691 230.36 136.251 230.68C136.811 231 137.251 231.447 137.571 232.02C137.891 232.58 138.051 233.233 138.051 233.98V240H135.851ZM129.271 240V225.6H131.471V240H129.271ZM145.75 240V226.4H147.95V240H145.75ZM143.45 232.4V230.4H150.25V232.4H143.45ZM155.975 240.2C155.042 240.2 154.195 239.98 153.435 239.54C152.675 239.087 152.069 238.48 151.615 237.72C151.175 236.96 150.955 236.113 150.955 235.18C150.955 234.247 151.175 233.407 151.615 232.66C152.069 231.913 152.675 231.32 153.435 230.88C154.195 230.427 155.042 230.2 155.975 230.2C156.922 230.2 157.775 230.42 158.535 230.86C159.295 231.3 159.895 231.9 160.335 232.66C160.789 233.407 161.015 234.247 161.015 235.18C161.015 236.113 160.789 236.96 160.335 237.72C159.895 238.48 159.295 239.087 158.535 239.54C157.775 239.98 156.922 240.2 155.975 240.2ZM155.975 238.08C156.522 238.08 157.002 237.96 157.415 237.72C157.842 237.467 158.169 237.12 158.395 236.68C158.635 236.24 158.755 235.74 158.755 235.18C158.755 234.62 158.635 234.127 158.395 233.7C158.155 233.273 157.829 232.94 157.415 232.7C157.002 232.447 156.522 232.32 155.975 232.32C155.442 232.32 154.962 232.447 154.535 232.7C154.122 232.94 153.795 233.273 153.555 233.7C153.329 234.127 153.215 234.62 153.215 235.18C153.215 235.74 153.329 236.24 153.555 236.68C153.795 237.12 154.122 237.467 154.535 237.72C154.962 237.96 155.442 238.08 155.975 238.08ZM170.749 240L166.149 226H168.409L171.869 236.78H171.269L174.649 226H176.249L179.629 236.78H179.029L182.489 226H184.749L180.149 240H178.549L175.149 229.24H175.749L172.349 240H170.749ZM189.551 240.2C188.591 240.2 187.724 239.987 186.951 239.56C186.191 239.12 185.584 238.52 185.131 237.76C184.691 237 184.471 236.147 184.471 235.2C184.471 234.253 184.691 233.407 185.131 232.66C185.571 231.9 186.164 231.3 186.911 230.86C187.671 230.42 188.511 230.2 189.431 230.2C190.324 230.2 191.111 230.407 191.791 230.82C192.484 231.233 193.024 231.8 193.411 232.52C193.811 233.24 194.011 234.06 194.011 234.98C194.011 235.14 193.998 235.307 193.971 235.48C193.958 235.64 193.931 235.82 193.891 236.02H186.011V234.22H192.751L191.931 234.94C191.904 234.353 191.791 233.86 191.591 233.46C191.391 233.06 191.104 232.753 190.731 232.54C190.371 232.327 189.924 232.22 189.391 232.22C188.831 232.22 188.344 232.34 187.931 232.58C187.518 232.82 187.198 233.16 186.971 233.6C186.744 234.027 186.631 234.54 186.631 235.14C186.631 235.74 186.751 236.267 186.991 236.72C187.231 237.173 187.571 237.527 188.011 237.78C188.451 238.02 188.958 238.14 189.531 238.14C190.024 238.14 190.478 238.053 190.891 237.88C191.318 237.707 191.678 237.453 191.971 237.12L193.371 238.54C192.904 239.087 192.338 239.5 191.671 239.78C191.004 240.06 190.298 240.2 189.551 240.2ZM195.775 240V225.6H197.975V240H195.775ZM200.423 240V225.6H202.623V240H200.423ZM211.652 240V234.46C211.652 233.82 211.445 233.293 211.032 232.88C210.632 232.467 210.112 232.26 209.472 232.26C209.045 232.26 208.665 232.353 208.332 232.54C207.998 232.727 207.738 232.987 207.552 233.32C207.365 233.653 207.272 234.033 207.272 234.46L206.412 233.98C206.412 233.247 206.572 232.6 206.892 232.04C207.212 231.467 207.652 231.02 208.212 230.7C208.785 230.367 209.425 230.2 210.132 230.2C210.852 230.2 211.492 230.387 212.052 230.76C212.612 231.12 213.052 231.593 213.372 232.18C213.692 232.753 213.852 233.353 213.852 233.98V240H211.652ZM205.072 240V230.4H207.272V240H205.072ZM220.547 240.2C219.587 240.2 218.721 239.987 217.947 239.56C217.187 239.12 216.581 238.52 216.127 237.76C215.687 237 215.467 236.147 215.467 235.2C215.467 234.253 215.687 233.407 216.127 232.66C216.567 231.9 217.161 231.3 217.907 230.86C218.667 230.42 219.507 230.2 220.427 230.2C221.321 230.2 222.107 230.407 222.787 230.82C223.481 231.233 224.021 231.8 224.407 232.52C224.807 233.24 225.007 234.06 225.007 234.98C225.007 235.14 224.994 235.307 224.967 235.48C224.954 235.64 224.927 235.82 224.887 236.02H217.007V234.22H223.747L222.927 234.94C222.901 234.353 222.787 233.86 222.587 233.46C222.387 233.06 222.101 232.753 221.727 232.54C221.367 232.327 220.921 232.22 220.387 232.22C219.827 232.22 219.341 232.34 218.927 232.58C218.514 232.82 218.194 233.16 217.967 233.6C217.741 234.027 217.627 234.54 217.627 235.14C217.627 235.74 217.747 236.267 217.987 236.72C218.227 237.173 218.567 237.527 219.007 237.78C219.447 238.02 219.954 238.14 220.527 238.14C221.021 238.14 221.474 238.053 221.887 237.88C222.314 237.707 222.674 237.453 222.967 237.12L224.367 238.54C223.901 239.087 223.334 239.5 222.667 239.78C222.001 240.06 221.294 240.2 220.547 240.2ZM229.911 240.2C229.377 240.2 228.864 240.133 228.371 240C227.877 239.853 227.424 239.653 227.011 239.4C226.597 239.133 226.237 238.813 225.931 238.44L227.331 237.04C227.664 237.427 228.044 237.72 228.471 237.92C228.911 238.107 229.404 238.2 229.951 238.2C230.444 238.2 230.817 238.127 231.071 237.98C231.324 237.833 231.451 237.62 231.451 237.34C231.451 237.047 231.331 236.82 231.091 236.66C230.851 236.5 230.537 236.367 230.151 236.26C229.777 236.14 229.377 236.02 228.951 235.9C228.537 235.78 228.137 235.62 227.751 235.42C227.377 235.207 227.071 234.92 226.831 234.56C226.591 234.2 226.471 233.733 226.471 233.16C226.471 232.547 226.611 232.02 226.891 231.58C227.184 231.14 227.591 230.8 228.111 230.56C228.644 230.32 229.277 230.2 230.011 230.2C230.784 230.2 231.464 230.34 232.051 230.62C232.651 230.887 233.151 231.293 233.551 231.84L232.151 233.24C231.871 232.893 231.551 232.633 231.191 232.46C230.831 232.287 230.417 232.2 229.951 232.2C229.511 232.2 229.171 232.267 228.931 232.4C228.691 232.533 228.571 232.727 228.571 232.98C228.571 233.247 228.691 233.453 228.931 233.6C229.171 233.747 229.477 233.873 229.851 233.98C230.237 234.087 230.637 234.207 231.051 234.34C231.477 234.46 231.877 234.633 232.251 234.86C232.637 235.073 232.951 235.367 233.191 235.74C233.431 236.1 233.551 236.573 233.551 237.16C233.551 238.093 233.224 238.833 232.571 239.38C231.917 239.927 231.031 240.2 229.911 240.2ZM238.505 240.2C237.971 240.2 237.458 240.133 236.965 240C236.471 239.853 236.018 239.653 235.605 239.4C235.191 239.133 234.831 238.813 234.525 238.44L235.925 237.04C236.258 237.427 236.638 237.72 237.065 237.92C237.505 238.107 237.998 238.2 238.545 238.2C239.038 238.2 239.411 238.127 239.665 237.98C239.918 237.833 240.045 237.62 240.045 237.34C240.045 237.047 239.925 236.82 239.685 236.66C239.445 236.5 239.131 236.367 238.745 236.26C238.371 236.14 237.971 236.02 237.545 235.9C237.131 235.78 236.731 235.62 236.345 235.42C235.971 235.207 235.665 234.92 235.425 234.56C235.185 234.2 235.065 233.733 235.065 233.16C235.065 232.547 235.205 232.02 235.485 231.58C235.778 231.14 236.185 230.8 236.705 230.56C237.238 230.32 237.871 230.2 238.605 230.2C239.378 230.2 240.058 230.34 240.645 230.62C241.245 230.887 241.745 231.293 242.145 231.84L240.745 233.24C240.465 232.893 240.145 232.633 239.785 232.46C239.425 232.287 239.011 232.2 238.545 232.2C238.105 232.2 237.765 232.267 237.525 232.4C237.285 232.533 237.165 232.727 237.165 232.98C237.165 233.247 237.285 233.453 237.525 233.6C237.765 233.747 238.071 233.873 238.445 233.98C238.831 234.087 239.231 234.207 239.645 234.34C240.071 234.46 240.471 234.633 240.845 234.86C241.231 235.073 241.545 235.367 241.785 235.74C242.025 236.1 242.145 236.573 242.145 237.16C242.145 238.093 241.818 238.833 241.165 239.38C240.511 239.927 239.625 240.2 238.505 240.2Z" fill="#5CAB56"/>
<g style="mix-blend-mode:multiply">
<path d="M237.077 65.5288C191.906 65.7865 173.72 98.9558 171.364 103.631C171.143 104.122 170.898 104.601 170.628 105.067C166.799 112.282 164.406 119.792 162.97 126.934C166.873 123.143 171.659 118.762 176.849 114.454L177.033 114.27L177.991 113.497C178.604 112.982 179.23 112.467 179.868 111.951C180.163 111.693 180.457 111.436 180.788 111.178C181.107 110.933 181.427 110.687 181.746 110.442C182.384 109.951 183.022 109.46 183.66 108.969C184.543 108.331 185.415 107.705 186.274 107.092C190.949 103.705 195.772 100.649 200.521 98.2195C201.134 97.8759 201.736 97.5446 202.325 97.2256C202.914 96.8942 203.466 96.5997 204.018 96.342C204.582 96.0475 205.135 95.7653 205.675 95.4953C206.215 95.2253 206.742 94.9554 207.258 94.6854C207.773 94.4277 208.252 94.17 208.767 93.9491C209.749 93.4828 210.681 93.041 211.565 92.6238C212.448 92.2066 213.283 91.8262 214.068 91.4826C214.829 91.139 215.541 90.8322 216.203 90.5622C218.744 89.4578 220.216 88.832 220.216 88.832C220.216 88.832 218.817 89.6051 216.351 90.9304C215.737 91.274 215.062 91.6421 214.326 92.0348C213.614 92.452 212.829 92.9061 211.97 93.3969C211.135 93.8878 210.252 94.4032 209.319 94.9431C208.841 95.2376 208.362 95.5321 207.883 95.8266C207.393 96.1457 206.902 96.4647 206.411 96.7838C205.896 97.1028 205.38 97.4219 204.865 97.741C204.349 98.0723 203.797 98.4036 203.282 98.7717C202.202 99.508 201.097 100.257 199.968 101.017C199.699 101.214 199.416 101.41 199.122 101.606C198.852 101.803 198.57 101.999 198.275 102.195C197.711 102.613 197.146 103.03 196.582 103.447C195.993 103.864 195.404 104.294 194.815 104.736C194.226 105.177 193.673 105.656 193.084 106.098C190.728 107.902 188.409 109.89 186.09 111.951C185.525 112.467 184.961 112.994 184.396 113.534C184.102 113.804 183.807 114.062 183.513 114.307C183.218 114.565 182.96 114.859 182.666 115.154C182.126 115.694 181.574 116.234 181.009 116.774L180.199 117.62L179.39 118.467C178.322 119.645 177.217 120.75 176.224 121.928C175.733 122.517 175.23 123.106 174.714 123.695C174.248 124.308 173.769 124.91 173.278 125.499C172.321 126.677 171.438 127.928 170.554 129.143C170.112 129.732 169.707 130.358 169.302 130.947C169.106 131.266 168.91 131.573 168.713 131.867C168.493 132.162 168.272 132.456 168.088 132.788C167.351 134.003 166.578 135.181 165.916 136.396C165.744 136.715 165.572 137.021 165.4 137.316C165.351 137.414 165.302 137.512 165.253 137.61C160.173 147.661 161.167 157.858 161.608 160.693C161.682 161.208 161.719 161.466 161.719 161.466C161.743 161.196 161.78 160.926 161.829 160.656C163.707 142.875 178.469 129.217 196.361 128.628C225.26 127.634 235.494 111.288 241.715 94.4277C248.968 74.7323 262 67.9585 262 67.9585C252.87 65.9706 244.587 65.2711 237.077 65.5288Z" fill="#A4CD38"/>
</g>
<g style="mix-blend-mode:multiply">
<path d="M66.923 65.5288C112.094 65.7865 130.28 98.9558 132.636 103.631C132.857 104.122 133.102 104.601 133.372 105.067C137.201 112.282 139.594 119.792 141.029 126.934C137.127 123.143 132.341 118.762 127.151 114.454L126.966 114.27L126.009 113.497C125.396 112.982 124.77 112.467 124.132 111.951C123.837 111.693 123.543 111.436 123.211 111.178C122.892 110.933 122.573 110.687 122.254 110.442C121.616 109.951 120.978 109.46 120.34 108.969C119.456 108.331 118.585 107.705 117.726 107.092C113.051 103.705 108.228 100.649 103.479 98.2195C102.866 97.8759 102.264 97.5446 101.675 97.2256C101.086 96.8942 100.534 96.5997 99.9819 96.342C99.4174 96.0475 98.8652 95.7653 98.3253 95.4953C97.7853 95.2253 97.2577 94.9554 96.7423 94.6854C96.2269 94.4277 95.7483 94.17 95.2329 93.9491C94.2512 93.4828 93.3186 93.041 92.435 92.6238C91.5515 92.2066 90.7171 91.8262 89.9317 91.4826C89.1709 91.139 88.4591 90.8322 87.7965 90.5622C85.2563 89.4578 83.7838 88.832 83.7838 88.832C83.7838 88.832 85.1827 89.6051 87.6492 90.9304C88.2628 91.274 88.9377 91.6421 89.674 92.0348C90.3857 92.452 91.1711 92.9061 92.0301 93.3969C92.8645 93.8878 93.7481 94.4032 94.6807 94.9431C95.1593 95.2376 95.6379 95.5321 96.1164 95.8266C96.6073 96.1457 97.0981 96.4647 97.589 96.7838C98.1044 97.1028 98.6198 97.4219 99.1352 97.741C99.6506 98.0723 100.203 98.4036 100.718 98.7717C101.798 99.508 102.902 100.257 104.031 101.017C104.301 101.214 104.584 101.41 104.878 101.606C105.148 101.803 105.43 101.999 105.725 102.195C106.289 102.613 106.854 103.03 107.418 103.447C108.007 103.864 108.596 104.294 109.185 104.736C109.774 105.177 110.327 105.656 110.916 106.098C113.272 107.902 115.591 109.89 117.91 111.951C118.475 112.467 119.039 112.994 119.604 113.534C119.898 113.804 120.193 114.062 120.487 114.307C120.782 114.565 121.039 114.859 121.334 115.154C121.874 115.694 122.426 116.234 122.991 116.774L123.8 117.62L124.61 118.467C125.678 119.645 126.782 120.75 127.776 121.928C128.267 122.517 128.77 123.106 129.286 123.695C129.752 124.308 130.231 124.91 130.722 125.499C131.679 126.677 132.562 127.928 133.446 129.143C133.887 129.732 134.292 130.358 134.697 130.947C134.894 131.266 135.09 131.573 135.286 131.867C135.507 132.162 135.728 132.456 135.912 132.788C136.649 134.003 137.422 135.181 138.084 136.396C138.256 136.715 138.428 137.021 138.6 137.316C138.649 137.414 138.698 137.512 138.747 137.61C143.827 147.661 142.833 157.858 142.392 160.693C142.318 161.208 142.281 161.466 142.281 161.466C142.257 161.196 142.22 160.926 142.171 160.656C140.293 142.875 125.531 129.217 107.639 128.628C78.7403 127.634 68.506 111.288 62.2845 94.4277C55.0321 74.7323 42 67.9585 42 67.9585C51.1298 65.9706 59.413 65.2711 66.923 65.5288Z" fill="#A4CD38"/>
</g>
<g style="mix-blend-mode:multiply">
<path d="M186.347 73.6279C186.494 76.4012 186.494 79.15 186.347 81.8742C186.518 81.7024 186.69 81.5429 186.862 81.3956C193.01 76.168 199.894 72.0449 207.331 69.0629C208.509 68.6212 209.687 68.1917 210.865 67.7745C211.417 59.6386 210.57 49.9565 207.735 38.397C197.133 44.0663 189.329 50.0302 183.659 55.9204C185.156 61.9579 186.052 67.8604 186.347 73.6279Z" fill="#6DBD44"/>
</g>
<g style="mix-blend-mode:multiply">
<path d="M96.6676 69.0629C104.104 72.0449 110.988 76.168 117.136 81.3956C117.308 81.5429 117.48 81.7024 117.652 81.8742C117.504 79.15 117.504 76.4012 117.652 73.6279C117.946 67.5659 118.928 61.3566 120.597 55C115.001 49.4043 107.454 43.8086 97.4039 38.397C94.4956 50.1406 93.6857 59.9699 94.2747 68.1794C95.0846 68.4739 95.8822 68.7684 96.6676 69.0629Z" fill="#6DBD44"/>
</g>
<g style="mix-blend-mode:multiply">
<path fill-rule="evenodd" clip-rule="evenodd" d="M171.253 119.24C160.025 129.18 151.999 138.163 151.999 138.163C151.999 138.163 143.974 129.18 132.746 119.24C117.762 98.0722 106.387 58.7918 151.999 0C197.612 58.7918 186.236 98.0722 171.253 119.24ZM163.817 113.46C163.817 106.944 158.552 101.643 151.999 101.643C145.447 101.643 140.182 106.944 140.182 113.46C140.182 120.013 145.447 125.315 151.999 125.315C158.552 125.315 163.817 120.013 163.817 113.46Z" fill="#87C440"/>
</g>
</svg>
