<svg width="450" height="171" viewBox="0 0 450 171" fill="none" xmlns="http://www.w3.org/2000/svg">
<rect width="450" height="171" fill="#F3F6FC"/>
<path d="M189.688 60.112C189.688 61.04 189.368 61.8133 188.728 62.432C188.099 63.04 187.133 63.344 185.832 63.344H183.688V68H182.232V56.848H185.832C187.091 56.848 188.045 57.152 188.696 57.76C189.357 58.368 189.688 59.152 189.688 60.112ZM185.832 62.144C186.643 62.144 187.24 61.968 187.624 61.616C188.008 61.264 188.2 60.7627 188.2 60.112C188.2 58.736 187.411 58.048 185.832 58.048H183.688V62.144H185.832ZM192.954 60.656C193.21 60.1547 193.572 59.7653 194.042 59.488C194.522 59.2107 195.103 59.072 195.786 59.072V60.576H195.402C193.77 60.576 192.954 61.4613 192.954 63.232V68H191.498V59.232H192.954V60.656ZM196.922 63.584C196.922 62.688 197.104 61.904 197.466 61.232C197.829 60.5493 198.325 60.0213 198.954 59.648C199.594 59.2747 200.304 59.088 201.082 59.088C201.85 59.088 202.517 59.2533 203.082 59.584C203.648 59.9147 204.069 60.3307 204.346 60.832V59.232H205.818V68H204.346V66.368C204.058 66.88 203.626 67.3067 203.05 67.648C202.485 67.9787 201.824 68.144 201.066 68.144C200.288 68.144 199.584 67.952 198.954 67.568C198.325 67.184 197.829 66.6453 197.466 65.952C197.104 65.2587 196.922 64.4693 196.922 63.584ZM204.346 63.6C204.346 62.9387 204.213 62.3627 203.946 61.872C203.68 61.3813 203.317 61.008 202.858 60.752C202.41 60.4853 201.914 60.352 201.37 60.352C200.826 60.352 200.33 60.48 199.882 60.736C199.434 60.992 199.077 61.3653 198.81 61.856C198.544 62.3467 198.41 62.9227 198.41 63.584C198.41 64.256 198.544 64.8427 198.81 65.344C199.077 65.8347 199.434 66.2133 199.882 66.48C200.33 66.736 200.826 66.864 201.37 66.864C201.914 66.864 202.41 66.736 202.858 66.48C203.317 66.2133 203.68 65.8347 203.946 65.344C204.213 64.8427 204.346 64.2613 204.346 63.6ZM207.735 63.6C207.735 62.6933 207.916 61.904 208.279 61.232C208.642 60.5493 209.143 60.0213 209.783 59.648C210.434 59.2747 211.175 59.088 212.007 59.088C213.084 59.088 213.97 59.3493 214.663 59.872C215.367 60.3947 215.831 61.12 216.055 62.048H214.487C214.338 61.5147 214.044 61.0933 213.607 60.784C213.18 60.4747 212.647 60.32 212.007 60.32C211.175 60.32 210.503 60.608 209.991 61.184C209.479 61.7493 209.223 62.5547 209.223 63.6C209.223 64.656 209.479 65.472 209.991 66.048C210.503 66.624 211.175 66.912 212.007 66.912C212.647 66.912 213.18 66.7627 213.607 66.464C214.034 66.1653 214.327 65.7387 214.487 65.184H216.055C215.82 66.08 215.351 66.8 214.647 67.344C213.943 67.8773 213.063 68.144 212.007 68.144C211.175 68.144 210.434 67.9573 209.783 67.584C209.143 67.2107 208.642 66.6827 208.279 66C207.916 65.3173 207.735 64.5173 207.735 63.6ZM219.774 60.432V65.6C219.774 66.0267 219.864 66.3307 220.046 66.512C220.227 66.6827 220.542 66.768 220.99 66.768H222.062V68H220.75C219.939 68 219.331 67.8133 218.926 67.44C218.52 67.0667 218.318 66.4533 218.318 65.6V60.432H217.182V59.232H218.318V57.024H219.774V59.232H222.062V60.432H219.774ZM224.578 57.808C224.3 57.808 224.066 57.712 223.874 57.52C223.682 57.328 223.586 57.0933 223.586 56.816C223.586 56.5387 223.682 56.304 223.874 56.112C224.066 55.92 224.3 55.824 224.578 55.824C224.844 55.824 225.068 55.92 225.25 56.112C225.442 56.304 225.538 56.5387 225.538 56.816C225.538 57.0933 225.442 57.328 225.25 57.52C225.068 57.712 224.844 57.808 224.578 57.808ZM225.282 59.232V68H223.826V59.232H225.282ZM230.867 68.144C230.195 68.144 229.593 68.032 229.059 67.808C228.526 67.5733 228.105 67.2533 227.795 66.848C227.486 66.432 227.315 65.9573 227.283 65.424H228.787C228.83 65.8613 229.033 66.2187 229.395 66.496C229.769 66.7733 230.254 66.912 230.851 66.912C231.406 66.912 231.843 66.7893 232.163 66.544C232.483 66.2987 232.643 65.9893 232.643 65.616C232.643 65.232 232.473 64.9493 232.131 64.768C231.79 64.576 231.262 64.3893 230.547 64.208C229.897 64.0373 229.363 63.8667 228.947 63.696C228.542 63.5147 228.19 63.2533 227.891 62.912C227.603 62.56 227.459 62.1013 227.459 61.536C227.459 61.088 227.593 60.6773 227.859 60.304C228.126 59.9307 228.505 59.6373 228.995 59.424C229.486 59.2 230.046 59.088 230.675 59.088C231.646 59.088 232.43 59.3333 233.027 59.824C233.625 60.3147 233.945 60.9867 233.987 61.84H232.531C232.499 61.3813 232.313 61.0133 231.971 60.736C231.641 60.4587 231.193 60.32 230.627 60.32C230.105 60.32 229.689 60.432 229.379 60.656C229.07 60.88 228.915 61.1733 228.915 61.536C228.915 61.824 229.006 62.064 229.187 62.256C229.379 62.4373 229.614 62.5867 229.891 62.704C230.179 62.8107 230.574 62.9333 231.075 63.072C231.705 63.2427 232.217 63.4133 232.611 63.584C233.006 63.744 233.342 63.9893 233.619 64.32C233.907 64.6507 234.057 65.0827 234.067 65.616C234.067 66.096 233.934 66.528 233.667 66.912C233.401 67.296 233.022 67.6 232.531 67.824C232.051 68.0373 231.497 68.144 230.867 68.144ZM236.875 57.808C236.597 57.808 236.363 57.712 236.171 57.52C235.979 57.328 235.883 57.0933 235.883 56.816C235.883 56.5387 235.979 56.304 236.171 56.112C236.363 55.92 236.597 55.824 236.875 55.824C237.141 55.824 237.365 55.92 237.547 56.112C237.739 56.304 237.835 56.5387 237.835 56.816C237.835 57.0933 237.739 57.328 237.547 57.52C237.365 57.712 237.141 57.808 236.875 57.808ZM237.579 59.232V68H236.123V59.232H237.579ZM244.332 59.072C245.399 59.072 246.263 59.3973 246.924 60.048C247.585 60.688 247.916 61.616 247.916 62.832V68H246.476V63.04C246.476 62.1653 246.257 61.4987 245.82 61.04C245.383 60.5707 244.785 60.336 244.028 60.336C243.26 60.336 242.647 60.576 242.188 61.056C241.74 61.536 241.516 62.2347 241.516 63.152V68H240.06V59.232H241.516V60.48C241.804 60.032 242.193 59.6853 242.684 59.44C243.185 59.1947 243.735 59.072 244.332 59.072ZM253.911 59.088C254.668 59.088 255.329 59.2533 255.895 59.584C256.471 59.9147 256.897 60.3307 257.175 60.832V59.232H258.647V68.192C258.647 68.992 258.476 69.7013 258.135 70.32C257.793 70.9493 257.303 71.44 256.663 71.792C256.033 72.144 255.297 72.32 254.455 72.32C253.303 72.32 252.343 72.048 251.575 71.504C250.807 70.96 250.353 70.2187 250.215 69.28H251.655C251.815 69.8133 252.145 70.24 252.647 70.56C253.148 70.8907 253.751 71.056 254.455 71.056C255.255 71.056 255.905 70.8053 256.407 70.304C256.919 69.8027 257.175 69.0987 257.175 68.192V66.352C256.887 66.864 256.46 67.2907 255.895 67.632C255.329 67.9733 254.668 68.144 253.911 68.144C253.132 68.144 252.423 67.952 251.783 67.568C251.153 67.184 250.657 66.6453 250.295 65.952C249.932 65.2587 249.751 64.4693 249.751 63.584C249.751 62.688 249.932 61.904 250.295 61.232C250.657 60.5493 251.153 60.0213 251.783 59.648C252.423 59.2747 253.132 59.088 253.911 59.088ZM257.175 63.6C257.175 62.9387 257.041 62.3627 256.775 61.872C256.508 61.3813 256.145 61.008 255.687 60.752C255.239 60.4853 254.743 60.352 254.199 60.352C253.655 60.352 253.159 60.48 252.711 60.736C252.263 60.992 251.905 61.3653 251.639 61.856C251.372 62.3467 251.239 62.9227 251.239 63.584C251.239 64.256 251.372 64.8427 251.639 65.344C251.905 65.8347 252.263 66.2133 252.711 66.48C253.159 66.736 253.655 66.864 254.199 66.864C254.743 66.864 255.239 66.736 255.687 66.48C256.145 66.2133 256.508 65.8347 256.775 65.344C257.041 64.8427 257.175 64.2613 257.175 63.6ZM324.935 63.28C324.935 63.5573 324.919 63.8507 324.887 64.16H317.879C317.932 65.024 318.226 65.7013 318.759 66.192C319.303 66.672 319.959 66.912 320.727 66.912C321.356 66.912 321.879 66.768 322.295 66.48C322.722 66.1813 323.02 65.7867 323.191 65.296H324.759C324.524 66.1387 324.055 66.8267 323.351 67.36C322.647 67.8827 321.772 68.144 320.727 68.144C319.895 68.144 319.148 67.9573 318.487 67.584C317.836 67.2107 317.324 66.6827 316.951 66C316.578 65.3067 316.391 64.5067 316.391 63.6C316.391 62.6933 316.572 61.8987 316.935 61.216C317.298 60.5333 317.804 60.0107 318.455 59.648C319.116 59.2747 319.874 59.088 320.727 59.088C321.559 59.088 322.295 59.2693 322.935 59.632C323.575 59.9947 324.066 60.496 324.407 61.136C324.759 61.7653 324.935 62.48 324.935 63.28ZM323.431 62.976C323.431 62.4213 323.308 61.9467 323.063 61.552C322.818 61.1467 322.482 60.8427 322.055 60.64C321.639 60.4267 321.175 60.32 320.663 60.32C319.927 60.32 319.298 60.5547 318.775 61.024C318.263 61.4933 317.97 62.144 317.895 62.976H323.431ZM330.121 66.656L332.841 59.232H334.393L330.953 68H329.257L325.817 59.232H327.385L330.121 66.656ZM343.826 63.28C343.826 63.5573 343.81 63.8507 343.778 64.16H336.77C336.823 65.024 337.116 65.7013 337.65 66.192C338.194 66.672 338.85 66.912 339.618 66.912C340.247 66.912 340.77 66.768 341.186 66.48C341.612 66.1813 341.911 65.7867 342.082 65.296H343.65C343.415 66.1387 342.946 66.8267 342.242 67.36C341.538 67.8827 340.663 68.144 339.618 68.144C338.786 68.144 338.039 67.9573 337.378 67.584C336.727 67.2107 336.215 66.6827 335.842 66C335.468 65.3067 335.282 64.5067 335.282 63.6C335.282 62.6933 335.463 61.8987 335.826 61.216C336.188 60.5333 336.695 60.0107 337.346 59.648C338.007 59.2747 338.764 59.088 339.618 59.088C340.45 59.088 341.186 59.2693 341.826 59.632C342.466 59.9947 342.956 60.496 343.298 61.136C343.65 61.7653 343.826 62.48 343.826 63.28ZM342.322 62.976C342.322 62.4213 342.199 61.9467 341.954 61.552C341.708 61.1467 341.372 60.8427 340.946 60.64C340.53 60.4267 340.066 60.32 339.554 60.32C338.818 60.32 338.188 60.5547 337.666 61.024C337.154 61.4933 336.86 62.144 336.786 62.976H342.322ZM347.204 60.656C347.46 60.1547 347.822 59.7653 348.292 59.488C348.772 59.2107 349.353 59.072 350.036 59.072V60.576H349.652C348.02 60.576 347.204 61.4613 347.204 63.232V68H345.748V59.232H347.204V60.656ZM359.268 59.232L353.988 72.128H352.484L354.212 67.904L350.676 59.232H352.292L355.044 66.336L357.764 59.232H359.268ZM364.454 63.584C364.454 62.688 364.635 61.904 364.998 61.232C365.36 60.5493 365.856 60.0213 366.486 59.648C367.126 59.2747 367.84 59.088 368.63 59.088C369.312 59.088 369.947 59.248 370.534 59.568C371.12 59.8773 371.568 60.288 371.878 60.8V56.16H373.35V68H371.878V66.352C371.59 66.8747 371.163 67.3067 370.598 67.648C370.032 67.9787 369.371 68.144 368.614 68.144C367.835 68.144 367.126 67.952 366.486 67.568C365.856 67.184 365.36 66.6453 364.998 65.952C364.635 65.2587 364.454 64.4693 364.454 63.584ZM371.878 63.6C371.878 62.9387 371.744 62.3627 371.478 61.872C371.211 61.3813 370.848 61.008 370.39 60.752C369.942 60.4853 369.446 60.352 368.902 60.352C368.358 60.352 367.862 60.48 367.414 60.736C366.966 60.992 366.608 61.3653 366.342 61.856C366.075 62.3467 365.942 62.9227 365.942 63.584C365.942 64.256 366.075 64.8427 366.342 65.344C366.608 65.8347 366.966 66.2133 367.414 66.48C367.862 66.736 368.358 66.864 368.902 66.864C369.446 66.864 369.942 66.736 370.39 66.48C370.848 66.2133 371.211 65.8347 371.478 65.344C371.744 64.8427 371.878 64.2613 371.878 63.6ZM375.266 63.584C375.266 62.688 375.447 61.904 375.81 61.232C376.173 60.5493 376.669 60.0213 377.298 59.648C377.938 59.2747 378.647 59.088 379.426 59.088C380.194 59.088 380.861 59.2533 381.426 59.584C381.991 59.9147 382.413 60.3307 382.69 60.832V59.232H384.162V68H382.69V66.368C382.402 66.88 381.97 67.3067 381.394 67.648C380.829 67.9787 380.167 68.144 379.41 68.144C378.631 68.144 377.927 67.952 377.298 67.568C376.669 67.184 376.173 66.6453 375.81 65.952C375.447 65.2587 375.266 64.4693 375.266 63.584ZM382.69 63.6C382.69 62.9387 382.557 62.3627 382.29 61.872C382.023 61.3813 381.661 61.008 381.202 60.752C380.754 60.4853 380.258 60.352 379.714 60.352C379.17 60.352 378.674 60.48 378.226 60.736C377.778 60.992 377.421 61.3653 377.154 61.856C376.887 62.3467 376.754 62.9227 376.754 63.584C376.754 64.256 376.887 64.8427 377.154 65.344C377.421 65.8347 377.778 66.2133 378.226 66.48C378.674 66.736 379.17 66.864 379.714 66.864C380.258 66.864 380.754 66.736 381.202 66.48C381.661 66.2133 382.023 65.8347 382.29 65.344C382.557 64.8427 382.69 64.2613 382.69 63.6ZM394.175 59.232L388.895 72.128H387.391L389.119 67.904L385.583 59.232H387.199L389.951 66.336L392.671 59.232H394.175ZM181.688 87.6C181.688 86.6933 181.869 85.904 182.232 85.232C182.595 84.5493 183.096 84.0213 183.736 83.648C184.387 83.2747 185.128 83.088 185.96 83.088C187.037 83.088 187.923 83.3493 188.616 83.872C189.32 84.3947 189.784 85.12 190.008 86.048H188.44C188.291 85.5147 187.997 85.0933 187.56 84.784C187.133 84.4747 186.6 84.32 185.96 84.32C185.128 84.32 184.456 84.608 183.944 85.184C183.432 85.7493 183.176 86.5547 183.176 87.6C183.176 88.656 183.432 89.472 183.944 90.048C184.456 90.624 185.128 90.912 185.96 90.912C186.6 90.912 187.133 90.7627 187.56 90.464C187.987 90.1653 188.28 89.7387 188.44 89.184H190.008C189.773 90.08 189.304 90.8 188.6 91.344C187.896 91.8773 187.016 92.144 185.96 92.144C185.128 92.144 184.387 91.9573 183.736 91.584C183.096 91.2107 182.595 90.6827 182.232 90C181.869 89.3173 181.688 88.5173 181.688 87.6ZM191.407 87.584C191.407 86.688 191.588 85.904 191.951 85.232C192.313 84.5493 192.809 84.0213 193.439 83.648C194.079 83.2747 194.788 83.088 195.567 83.088C196.335 83.088 197.001 83.2533 197.567 83.584C198.132 83.9147 198.553 84.3307 198.831 84.832V83.232H200.303V92H198.831V90.368C198.543 90.88 198.111 91.3067 197.535 91.648C196.969 91.9787 196.308 92.144 195.551 92.144C194.772 92.144 194.068 91.952 193.439 91.568C192.809 91.184 192.313 90.6453 191.951 89.952C191.588 89.2587 191.407 88.4693 191.407 87.584ZM198.831 87.6C198.831 86.9387 198.697 86.3627 198.431 85.872C198.164 85.3813 197.801 85.008 197.343 84.752C196.895 84.4853 196.399 84.352 195.855 84.352C195.311 84.352 194.815 84.48 194.367 84.736C193.919 84.992 193.561 85.3653 193.295 85.856C193.028 86.3467 192.895 86.9227 192.895 87.584C192.895 88.256 193.028 88.8427 193.295 89.344C193.561 89.8347 193.919 90.2133 194.367 90.48C194.815 90.736 195.311 90.864 195.855 90.864C196.399 90.864 196.895 90.736 197.343 90.48C197.801 90.2133 198.164 89.8347 198.431 89.344C198.697 88.8427 198.831 88.2613 198.831 87.6ZM207.035 83.072C208.102 83.072 208.966 83.3973 209.627 84.048C210.289 84.688 210.619 85.616 210.619 86.832V92H209.179V87.04C209.179 86.1653 208.961 85.4987 208.523 85.04C208.086 84.5707 207.489 84.336 206.731 84.336C205.963 84.336 205.35 84.576 204.891 85.056C204.443 85.536 204.219 86.2347 204.219 87.152V92H202.763V83.232H204.219V84.48C204.507 84.032 204.897 83.6853 205.387 83.44C205.889 83.1947 206.438 83.072 207.035 83.072ZM300.141 87.584C300.141 86.688 300.322 85.904 300.685 85.232C301.048 84.5493 301.544 84.0213 302.173 83.648C302.813 83.2747 303.522 83.088 304.301 83.088C305.069 83.088 305.736 83.2533 306.301 83.584C306.866 83.9147 307.288 84.3307 307.565 84.832V83.232H309.037V92H307.565V90.368C307.277 90.88 306.845 91.3067 306.269 91.648C305.704 91.9787 305.042 92.144 304.285 92.144C303.506 92.144 302.802 91.952 302.173 91.568C301.544 91.184 301.048 90.6453 300.685 89.952C300.322 89.2587 300.141 88.4693 300.141 87.584ZM307.565 87.6C307.565 86.9387 307.432 86.3627 307.165 85.872C306.898 85.3813 306.536 85.008 306.077 84.752C305.629 84.4853 305.133 84.352 304.589 84.352C304.045 84.352 303.549 84.48 303.101 84.736C302.653 84.992 302.296 85.3653 302.029 85.856C301.762 86.3467 301.629 86.9227 301.629 87.584C301.629 88.256 301.762 88.8427 302.029 89.344C302.296 89.8347 302.653 90.2133 303.101 90.48C303.549 90.736 304.045 90.864 304.589 90.864C305.133 90.864 305.629 90.736 306.077 90.48C306.536 90.2133 306.898 89.8347 307.165 89.344C307.432 88.8427 307.565 88.2613 307.565 87.6ZM315.77 83.072C316.836 83.072 317.7 83.3973 318.362 84.048C319.023 84.688 319.354 85.616 319.354 86.832V92H317.914V87.04C317.914 86.1653 317.695 85.4987 317.258 85.04C316.82 84.5707 316.223 84.336 315.466 84.336C314.698 84.336 314.084 84.576 313.626 85.056C313.178 85.536 312.954 86.2347 312.954 87.152V92H311.498V83.232H312.954V84.48C313.242 84.032 313.631 83.6853 314.122 83.44C314.623 83.1947 315.172 83.072 315.77 83.072ZM321.188 87.584C321.188 86.688 321.369 85.904 321.732 85.232C322.095 84.5493 322.591 84.0213 323.22 83.648C323.86 83.2747 324.575 83.088 325.364 83.088C326.047 83.088 326.681 83.248 327.268 83.568C327.855 83.8773 328.303 84.288 328.612 84.8V80.16H330.084V92H328.612V90.352C328.324 90.8747 327.897 91.3067 327.332 91.648C326.767 91.9787 326.105 92.144 325.348 92.144C324.569 92.144 323.86 91.952 323.22 91.568C322.591 91.184 322.095 90.6453 321.732 89.952C321.369 89.2587 321.188 88.4693 321.188 87.584ZM328.612 87.6C328.612 86.9387 328.479 86.3627 328.212 85.872C327.945 85.3813 327.583 85.008 327.124 84.752C326.676 84.4853 326.18 84.352 325.636 84.352C325.092 84.352 324.596 84.48 324.148 84.736C323.7 84.992 323.343 85.3653 323.076 85.856C322.809 86.3467 322.676 86.9227 322.676 87.584C322.676 88.256 322.809 88.8427 323.076 89.344C323.343 89.8347 323.7 90.2133 324.148 90.48C324.596 90.736 325.092 90.864 325.636 90.864C326.18 90.864 326.676 90.736 327.124 90.48C327.583 90.2133 327.945 89.8347 328.212 89.344C328.479 88.8427 328.612 88.2613 328.612 87.6ZM182.984 105.808C182.707 105.808 182.472 105.712 182.28 105.52C182.088 105.328 181.992 105.093 181.992 104.816C181.992 104.539 182.088 104.304 182.28 104.112C182.472 103.92 182.707 103.824 182.984 103.824C183.251 103.824 183.475 103.92 183.656 104.112C183.848 104.304 183.944 104.539 183.944 104.816C183.944 105.093 183.848 105.328 183.656 105.52C183.475 105.712 183.251 105.808 182.984 105.808ZM183.688 107.232V116H182.232V107.232H183.688ZM196.714 107.072C197.396 107.072 198.004 107.216 198.538 107.504C199.071 107.781 199.492 108.203 199.802 108.768C200.111 109.333 200.266 110.021 200.266 110.832V116H198.826V111.04C198.826 110.165 198.607 109.499 198.17 109.04C197.743 108.571 197.162 108.336 196.426 108.336C195.668 108.336 195.066 108.581 194.618 109.072C194.17 109.552 193.946 110.251 193.946 111.168V116H192.506V111.04C192.506 110.165 192.287 109.499 191.85 109.04C191.423 108.571 190.842 108.336 190.106 108.336C189.348 108.336 188.746 108.581 188.298 109.072C187.85 109.552 187.626 110.251 187.626 111.168V116H186.17V107.232H187.626V108.496C187.914 108.037 188.298 107.685 188.778 107.44C189.268 107.195 189.807 107.072 190.394 107.072C191.13 107.072 191.78 107.237 192.346 107.568C192.911 107.899 193.332 108.384 193.61 109.024C193.855 108.405 194.26 107.925 194.826 107.584C195.391 107.243 196.02 107.072 196.714 107.072ZM204.11 108.848C204.398 108.347 204.825 107.931 205.39 107.6C205.966 107.259 206.633 107.088 207.39 107.088C208.169 107.088 208.873 107.275 209.502 107.648C210.142 108.021 210.643 108.549 211.006 109.232C211.369 109.904 211.55 110.688 211.55 111.584C211.55 112.469 211.369 113.259 211.006 113.952C210.643 114.645 210.142 115.184 209.502 115.568C208.873 115.952 208.169 116.144 207.39 116.144C206.643 116.144 205.982 115.979 205.406 115.648C204.841 115.307 204.409 114.885 204.11 114.384V120.16H202.654V107.232H204.11V108.848ZM210.062 111.584C210.062 110.923 209.929 110.347 209.662 109.856C209.395 109.365 209.033 108.992 208.574 108.736C208.126 108.48 207.63 108.352 207.086 108.352C206.553 108.352 206.057 108.485 205.598 108.752C205.15 109.008 204.787 109.387 204.51 109.888C204.243 110.379 204.11 110.949 204.11 111.6C204.11 112.261 204.243 112.843 204.51 113.344C204.787 113.835 205.15 114.213 205.598 114.48C206.057 114.736 206.553 114.864 207.086 114.864C207.63 114.864 208.126 114.736 208.574 114.48C209.033 114.213 209.395 113.835 209.662 113.344C209.929 112.843 210.062 112.256 210.062 111.584ZM214.922 108.656C215.178 108.155 215.541 107.765 216.01 107.488C216.49 107.211 217.072 107.072 217.754 107.072V108.576H217.37C215.738 108.576 214.922 109.461 214.922 111.232V116H213.466V107.232H214.922V108.656ZM223.259 116.144C222.438 116.144 221.691 115.957 221.019 115.584C220.358 115.211 219.835 114.683 219.451 114C219.078 113.307 218.891 112.507 218.891 111.6C218.891 110.704 219.083 109.915 219.467 109.232C219.862 108.539 220.395 108.011 221.067 107.648C221.739 107.275 222.491 107.088 223.323 107.088C224.155 107.088 224.907 107.275 225.579 107.648C226.251 108.011 226.779 108.533 227.163 109.216C227.558 109.899 227.755 110.693 227.755 111.6C227.755 112.507 227.552 113.307 227.147 114C226.752 114.683 226.214 115.211 225.531 115.584C224.848 115.957 224.091 116.144 223.259 116.144ZM223.259 114.864C223.782 114.864 224.272 114.741 224.731 114.496C225.19 114.251 225.558 113.883 225.835 113.392C226.123 112.901 226.267 112.304 226.267 111.6C226.267 110.896 226.128 110.299 225.851 109.808C225.574 109.317 225.211 108.955 224.763 108.72C224.315 108.475 223.83 108.352 223.307 108.352C222.774 108.352 222.283 108.475 221.835 108.72C221.398 108.955 221.046 109.317 220.779 109.808C220.512 110.299 220.379 110.896 220.379 111.6C220.379 112.315 220.507 112.917 220.763 113.408C221.03 113.899 221.382 114.267 221.819 114.512C222.256 114.747 222.736 114.864 223.259 114.864ZM232.934 114.656L235.654 107.232H237.206L233.766 116H232.07L228.63 107.232H230.198L232.934 114.656ZM246.638 111.28C246.638 111.557 246.622 111.851 246.59 112.16H239.582C239.636 113.024 239.929 113.701 240.462 114.192C241.006 114.672 241.662 114.912 242.43 114.912C243.06 114.912 243.582 114.768 243.998 114.48C244.425 114.181 244.724 113.787 244.894 113.296H246.462C246.228 114.139 245.758 114.827 245.054 115.36C244.35 115.883 243.476 116.144 242.43 116.144C241.598 116.144 240.852 115.957 240.19 115.584C239.54 115.211 239.028 114.683 238.654 114C238.281 113.307 238.094 112.507 238.094 111.6C238.094 110.693 238.276 109.899 238.638 109.216C239.001 108.533 239.508 108.011 240.158 107.648C240.82 107.275 241.577 107.088 242.43 107.088C243.262 107.088 243.998 107.269 244.638 107.632C245.278 107.995 245.769 108.496 246.11 109.136C246.462 109.765 246.638 110.48 246.638 111.28ZM245.134 110.976C245.134 110.421 245.012 109.947 244.766 109.552C244.521 109.147 244.185 108.843 243.758 108.64C243.342 108.427 242.878 108.32 242.366 108.32C241.63 108.32 241.001 108.555 240.478 109.024C239.966 109.493 239.673 110.144 239.598 110.976H245.134ZM260.378 107.232L255.098 120.128H253.594L255.322 115.904L251.786 107.232H253.402L256.154 114.336L258.874 107.232H260.378ZM265.665 116.144C264.844 116.144 264.097 115.957 263.425 115.584C262.764 115.211 262.241 114.683 261.857 114C261.484 113.307 261.297 112.507 261.297 111.6C261.297 110.704 261.489 109.915 261.873 109.232C262.268 108.539 262.801 108.011 263.473 107.648C264.145 107.275 264.897 107.088 265.729 107.088C266.561 107.088 267.313 107.275 267.985 107.648C268.657 108.011 269.185 108.533 269.569 109.216C269.964 109.899 270.161 110.693 270.161 111.6C270.161 112.507 269.959 113.307 269.553 114C269.159 114.683 268.62 115.211 267.937 115.584C267.255 115.957 266.497 116.144 265.665 116.144ZM265.665 114.864C266.188 114.864 266.679 114.741 267.137 114.496C267.596 114.251 267.964 113.883 268.241 113.392C268.529 112.901 268.673 112.304 268.673 111.6C268.673 110.896 268.535 110.299 268.257 109.808C267.98 109.317 267.617 108.955 267.169 108.72C266.721 108.475 266.236 108.352 265.713 108.352C265.18 108.352 264.689 108.475 264.241 108.72C263.804 108.955 263.452 109.317 263.185 109.808C262.919 110.299 262.785 110.896 262.785 111.6C262.785 112.315 262.913 112.917 263.169 113.408C263.436 113.899 263.788 114.267 264.225 114.512C264.663 114.747 265.143 114.864 265.665 114.864ZM279.852 107.232V116H278.396V114.704C278.118 115.152 277.729 115.504 277.228 115.76C276.737 116.005 276.193 116.128 275.596 116.128C274.913 116.128 274.3 115.989 273.756 115.712C273.212 115.424 272.78 114.997 272.46 114.432C272.15 113.867 271.996 113.179 271.996 112.368V107.232H273.436V112.176C273.436 113.04 273.654 113.707 274.092 114.176C274.529 114.635 275.126 114.864 275.884 114.864C276.662 114.864 277.276 114.624 277.724 114.144C278.172 113.664 278.396 112.965 278.396 112.048V107.232H279.852ZM283.766 108.656C284.022 108.155 284.385 107.765 284.854 107.488C285.334 107.211 285.915 107.072 286.598 107.072V108.576H286.214C284.582 108.576 283.766 109.461 283.766 111.232V116H282.31V107.232H283.766V108.656ZM343.977 116.096C343.7 116.096 343.465 116 343.273 115.808C343.081 115.616 342.985 115.381 342.985 115.104C342.985 114.827 343.081 114.592 343.273 114.4C343.465 114.208 343.7 114.112 343.977 114.112C344.244 114.112 344.468 114.208 344.649 114.4C344.841 114.592 344.937 114.827 344.937 115.104C344.937 115.381 344.841 115.616 344.649 115.808C344.468 116 344.244 116.096 343.977 116.096Z" fill="black"/>
<path d="M274.765 56.768L270.877 64.288V68H268.141V64.288L264.253 56.768H267.357L269.533 61.472L271.693 56.768H274.765ZM281.179 68.112C280.123 68.112 279.152 67.8667 278.267 67.376C277.392 66.8853 276.694 66.2027 276.171 65.328C275.659 64.4427 275.403 63.4507 275.403 62.352C275.403 61.2533 275.659 60.2667 276.171 59.392C276.694 58.5173 277.392 57.8347 278.267 57.344C279.152 56.8533 280.123 56.608 281.179 56.608C282.235 56.608 283.2 56.8533 284.075 57.344C284.96 57.8347 285.654 58.5173 286.155 59.392C286.667 60.2667 286.923 61.2533 286.923 62.352C286.923 63.4507 286.667 64.4427 286.155 65.328C285.643 66.2027 284.95 66.8853 284.075 67.376C283.2 67.8667 282.235 68.112 281.179 68.112ZM281.179 65.616C282.075 65.616 282.79 65.3173 283.323 64.72C283.867 64.1227 284.139 63.3333 284.139 62.352C284.139 61.36 283.867 60.5707 283.323 59.984C282.79 59.3867 282.075 59.088 281.179 59.088C280.272 59.088 279.547 59.3813 279.003 59.968C278.47 60.5547 278.203 61.3493 278.203 62.352C278.203 63.344 278.47 64.1387 279.003 64.736C279.547 65.3227 280.272 65.616 281.179 65.616ZM295.901 60.32C295.698 59.9467 295.405 59.664 295.021 59.472C294.648 59.2693 294.205 59.168 293.693 59.168C292.808 59.168 292.098 59.4613 291.565 60.048C291.032 60.624 290.765 61.3973 290.765 62.368C290.765 63.4027 291.042 64.2133 291.597 64.8C292.162 65.376 292.936 65.664 293.917 65.664C294.589 65.664 295.154 65.4933 295.613 65.152C296.082 64.8107 296.424 64.32 296.637 63.68H293.165V61.664H299.117V64.208C298.914 64.8907 298.568 65.5253 298.077 66.112C297.597 66.6987 296.984 67.1733 296.237 67.536C295.49 67.8987 294.648 68.08 293.709 68.08C292.6 68.08 291.608 67.84 290.733 67.36C289.869 66.8693 289.192 66.192 288.701 65.328C288.221 64.464 287.981 63.4773 287.981 62.368C287.981 61.2587 288.221 60.272 288.701 59.408C289.192 58.5333 289.869 57.856 290.733 57.376C291.597 56.8853 292.584 56.64 293.693 56.64C295.037 56.64 296.168 56.9653 297.085 57.616C298.013 58.2667 298.626 59.168 298.925 60.32H295.901ZM307.625 66.016H303.433L302.761 68H299.897L303.961 56.768H307.129L311.193 68H308.297L307.625 66.016ZM306.921 63.904L305.529 59.792L304.153 63.904H306.921ZM219.039 84.432V89.6C219.039 90.0267 219.13 90.3307 219.311 90.512C219.493 90.6827 219.807 90.768 220.255 90.768H221.327V92H220.015C219.205 92 218.597 91.8133 218.191 91.44C217.786 91.0667 217.583 90.4533 217.583 89.6V84.432H216.447V83.232H217.583V81.024H219.039V83.232H221.327V84.432H219.039ZM224.547 84.656C224.803 84.1547 225.166 83.7653 225.635 83.488C226.115 83.2107 226.697 83.072 227.379 83.072V84.576H226.995C225.363 84.576 224.547 85.4613 224.547 87.232V92H223.091V83.232H224.547V84.656ZM228.516 87.584C228.516 86.688 228.697 85.904 229.06 85.232C229.423 84.5493 229.919 84.0213 230.548 83.648C231.188 83.2747 231.897 83.088 232.676 83.088C233.444 83.088 234.111 83.2533 234.676 83.584C235.241 83.9147 235.663 84.3307 235.94 84.832V83.232H237.412V92H235.94V90.368C235.652 90.88 235.22 91.3067 234.644 91.648C234.079 91.9787 233.417 92.144 232.66 92.144C231.881 92.144 231.177 91.952 230.548 91.568C229.919 91.184 229.423 90.6453 229.06 89.952C228.697 89.2587 228.516 88.4693 228.516 87.584ZM235.94 87.6C235.94 86.9387 235.807 86.3627 235.54 85.872C235.273 85.3813 234.911 85.008 234.452 84.752C234.004 84.4853 233.508 84.352 232.964 84.352C232.42 84.352 231.924 84.48 231.476 84.736C231.028 84.992 230.671 85.3653 230.404 85.856C230.137 86.3467 230.004 86.9227 230.004 87.584C230.004 88.256 230.137 88.8427 230.404 89.344C230.671 89.8347 231.028 90.2133 231.476 90.48C231.924 90.736 232.42 90.864 232.964 90.864C233.508 90.864 234.004 90.736 234.452 90.48C234.911 90.2133 235.273 89.8347 235.54 89.344C235.807 88.8427 235.94 88.2613 235.94 87.6ZM244.145 83.072C245.211 83.072 246.075 83.3973 246.737 84.048C247.398 84.688 247.729 85.616 247.729 86.832V92H246.289V87.04C246.289 86.1653 246.07 85.4987 245.633 85.04C245.195 84.5707 244.598 84.336 243.841 84.336C243.073 84.336 242.459 84.576 242.001 85.056C241.553 85.536 241.329 86.2347 241.329 87.152V92H239.873V83.232H241.329V84.48C241.617 84.032 242.006 83.6853 242.497 83.44C242.998 83.1947 243.547 83.072 244.145 83.072ZM253.211 92.144C252.539 92.144 251.936 92.032 251.403 91.808C250.87 91.5733 250.448 91.2533 250.139 90.848C249.83 90.432 249.659 89.9573 249.627 89.424H251.131C251.174 89.8613 251.376 90.2187 251.739 90.496C252.112 90.7733 252.598 90.912 253.195 90.912C253.75 90.912 254.187 90.7893 254.507 90.544C254.827 90.2987 254.987 89.9893 254.987 89.616C254.987 89.232 254.816 88.9493 254.475 88.768C254.134 88.576 253.606 88.3893 252.891 88.208C252.24 88.0373 251.707 87.8667 251.291 87.696C250.886 87.5147 250.534 87.2533 250.235 86.912C249.947 86.56 249.803 86.1013 249.803 85.536C249.803 85.088 249.936 84.6773 250.203 84.304C250.47 83.9307 250.848 83.6373 251.339 83.424C251.83 83.2 252.39 83.088 253.019 83.088C253.99 83.088 254.774 83.3333 255.371 83.824C255.968 84.3147 256.288 84.9867 256.331 85.84H254.875C254.843 85.3813 254.656 85.0133 254.315 84.736C253.984 84.4587 253.536 84.32 252.971 84.32C252.448 84.32 252.032 84.432 251.723 84.656C251.414 84.88 251.259 85.1733 251.259 85.536C251.259 85.824 251.35 86.064 251.531 86.256C251.723 86.4373 251.958 86.5867 252.235 86.704C252.523 86.8107 252.918 86.9333 253.419 87.072C254.048 87.2427 254.56 87.4133 254.955 87.584C255.35 87.744 255.686 87.9893 255.963 88.32C256.251 88.6507 256.4 89.0827 256.411 89.616C256.411 90.096 256.278 90.528 256.011 90.912C255.744 91.296 255.366 91.6 254.875 91.824C254.395 92.0373 253.84 92.144 253.211 92.144ZM262.034 84.432H260.194V92H258.738V84.432H257.602V83.232H258.738V82.608C258.738 81.6267 258.989 80.912 259.49 80.464C260.002 80.0053 260.818 79.776 261.938 79.776V80.992C261.298 80.992 260.845 81.12 260.578 81.376C260.322 81.6213 260.194 82.032 260.194 82.608V83.232H262.034V84.432ZM267.556 92.144C266.735 92.144 265.988 91.9573 265.316 91.584C264.655 91.2107 264.132 90.6827 263.748 90C263.375 89.3067 263.188 88.5067 263.188 87.6C263.188 86.704 263.38 85.9147 263.764 85.232C264.159 84.5387 264.692 84.0107 265.364 83.648C266.036 83.2747 266.788 83.088 267.62 83.088C268.452 83.088 269.204 83.2747 269.876 83.648C270.548 84.0107 271.076 84.5333 271.46 85.216C271.855 85.8987 272.052 86.6933 272.052 87.6C272.052 88.5067 271.849 89.3067 271.444 90C271.049 90.6827 270.511 91.2107 269.828 91.584C269.145 91.9573 268.388 92.144 267.556 92.144ZM267.556 90.864C268.079 90.864 268.569 90.7413 269.028 90.496C269.487 90.2507 269.855 89.8827 270.132 89.392C270.42 88.9013 270.564 88.304 270.564 87.6C270.564 86.896 270.425 86.2987 270.148 85.808C269.871 85.3173 269.508 84.9547 269.06 84.72C268.612 84.4747 268.127 84.352 267.604 84.352C267.071 84.352 266.58 84.4747 266.132 84.72C265.695 84.9547 265.343 85.3173 265.076 85.808C264.809 86.2987 264.676 86.896 264.676 87.6C264.676 88.3147 264.804 88.9173 265.06 89.408C265.327 89.8987 265.679 90.2667 266.116 90.512C266.553 90.7467 267.033 90.864 267.556 90.864ZM275.422 84.656C275.678 84.1547 276.041 83.7653 276.51 83.488C276.99 83.2107 277.572 83.072 278.254 83.072V84.576H277.87C276.238 84.576 275.422 85.4613 275.422 87.232V92H273.966V83.232H275.422V84.656ZM290.479 83.072C291.162 83.072 291.77 83.216 292.303 83.504C292.836 83.7813 293.258 84.2027 293.567 84.768C293.876 85.3333 294.031 86.0213 294.031 86.832V92H292.591V87.04C292.591 86.1653 292.372 85.4987 291.935 85.04C291.508 84.5707 290.927 84.336 290.191 84.336C289.434 84.336 288.831 84.5813 288.383 85.072C287.935 85.552 287.711 86.2507 287.711 87.168V92H286.271V87.04C286.271 86.1653 286.052 85.4987 285.615 85.04C285.188 84.5707 284.607 84.336 283.871 84.336C283.114 84.336 282.511 84.5813 282.063 85.072C281.615 85.552 281.391 86.2507 281.391 87.168V92H279.935V83.232H281.391V84.496C281.679 84.0373 282.063 83.6853 282.543 83.44C283.034 83.1947 283.572 83.072 284.159 83.072C284.895 83.072 285.546 83.2373 286.111 83.568C286.676 83.8987 287.098 84.384 287.375 85.024C287.62 84.4053 288.026 83.9253 288.591 83.584C289.156 83.2427 289.786 83.072 290.479 83.072ZM296.897 107.072C297.558 107.072 298.155 107.216 298.689 107.504C299.222 107.781 299.638 108.203 299.937 108.768C300.246 109.333 300.401 110.021 300.401 110.832V116H298.961V111.04C298.961 110.165 298.742 109.499 298.305 109.04C297.867 108.571 297.27 108.336 296.513 108.336C295.745 108.336 295.131 108.576 294.673 109.056C294.225 109.536 294.001 110.235 294.001 111.152V116H292.545V104.16H294.001V108.48C294.289 108.032 294.683 107.685 295.185 107.44C295.697 107.195 296.267 107.072 296.897 107.072ZM310.779 111.28C310.779 111.557 310.763 111.851 310.731 112.16H303.723C303.776 113.024 304.07 113.701 304.603 114.192C305.147 114.672 305.803 114.912 306.571 114.912C307.2 114.912 307.723 114.768 308.139 114.48C308.566 114.181 308.864 113.787 309.035 113.296H310.603C310.368 114.139 309.899 114.827 309.195 115.36C308.491 115.883 307.616 116.144 306.571 116.144C305.739 116.144 304.992 115.957 304.331 115.584C303.68 115.211 303.168 114.683 302.795 114C302.422 113.307 302.235 112.507 302.235 111.6C302.235 110.693 302.416 109.899 302.779 109.216C303.142 108.533 303.648 108.011 304.299 107.648C304.96 107.275 305.718 107.088 306.571 107.088C307.403 107.088 308.139 107.269 308.779 107.632C309.419 107.995 309.91 108.496 310.251 109.136C310.603 109.765 310.779 110.48 310.779 111.28ZM309.275 110.976C309.275 110.421 309.152 109.947 308.907 109.552C308.662 109.147 308.326 108.843 307.899 108.64C307.483 108.427 307.019 108.32 306.507 108.32C305.771 108.32 305.142 108.555 304.619 109.024C304.107 109.493 303.814 110.144 303.739 110.976H309.275ZM312.157 111.584C312.157 110.688 312.338 109.904 312.701 109.232C313.063 108.549 313.559 108.021 314.189 107.648C314.829 107.275 315.538 107.088 316.317 107.088C317.085 107.088 317.751 107.253 318.317 107.584C318.882 107.915 319.303 108.331 319.581 108.832V107.232H321.053V116H319.581V114.368C319.293 114.88 318.861 115.307 318.285 115.648C317.719 115.979 317.058 116.144 316.301 116.144C315.522 116.144 314.818 115.952 314.189 115.568C313.559 115.184 313.063 114.645 312.701 113.952C312.338 113.259 312.157 112.469 312.157 111.584ZM319.581 111.6C319.581 110.939 319.447 110.363 319.181 109.872C318.914 109.381 318.551 109.008 318.093 108.752C317.645 108.485 317.149 108.352 316.605 108.352C316.061 108.352 315.565 108.48 315.117 108.736C314.669 108.992 314.311 109.365 314.045 109.856C313.778 110.347 313.645 110.923 313.645 111.584C313.645 112.256 313.778 112.843 314.045 113.344C314.311 113.835 314.669 114.213 315.117 114.48C315.565 114.736 316.061 114.864 316.605 114.864C317.149 114.864 317.645 114.736 318.093 114.48C318.551 114.213 318.914 113.835 319.181 113.344C319.447 112.843 319.581 112.261 319.581 111.6ZM324.969 104.16V116H323.513V104.16H324.969ZM329.227 108.432V113.6C329.227 114.027 329.317 114.331 329.499 114.512C329.68 114.683 329.995 114.768 330.443 114.768H331.515V116H330.203C329.392 116 328.784 115.813 328.379 115.44C327.973 115.067 327.771 114.453 327.771 113.6V108.432H326.635V107.232H327.771V105.024H329.227V107.232H331.515V108.432H329.227ZM337.631 107.072C338.292 107.072 338.89 107.216 339.423 107.504C339.956 107.781 340.372 108.203 340.671 108.768C340.98 109.333 341.135 110.021 341.135 110.832V116H339.695V111.04C339.695 110.165 339.476 109.499 339.039 109.04C338.602 108.571 338.004 108.336 337.247 108.336C336.479 108.336 335.866 108.576 335.407 109.056C334.959 109.536 334.735 110.235 334.735 111.152V116H333.279V104.16H334.735V108.48C335.023 108.032 335.418 107.685 335.919 107.44C336.431 107.195 337.002 107.072 337.631 107.072Z" fill="#5CAB56"/>
<path d="M30.4947 96.7101C28.7799 90.846 27.6155 85.0454 31.1933 78.9696C36.9727 69.1466 52.0034 69.4219 59.667 60.975C64.7266 55.4073 65.5523 47.0874 69.9345 40.9481C80.9217 25.5575 106.834 24.4566 118.626 39.1063C120.997 42.0701 122.754 45.4785 125.167 48.4C128.597 52.5917 133.296 55.7248 138.483 57.2702C143.437 58.731 149.597 59.3449 151.926 63.9812C152.752 65.6324 152.9 67.5589 152.836 69.4007C152.625 76.0693 149.957 82.8225 151.82 89.2159C153.916 96.3502 161.199 101.219 162.723 108.481C163.866 113.9 161.516 120.399 158.743 125.036C156.457 128.91 153.81 134.562 150.55 137.695C147.523 140.596 142.971 141.379 138.801 140.913C134.651 140.447 130.671 138.944 126.628 137.865C116.466 135.155 105.564 135.197 95.4232 138.013C91.0834 139.198 86.8705 140.892 82.4883 141.908C76.6666 143.221 70.125 142.628 64.2186 142.056C59.413 141.591 54.5862 140.701 49.9499 139.325C42.2017 137.039 30.7064 132.17 31.5743 122.284C31.9131 118.558 33.2468 114.959 33.395 111.212C33.5855 106.237 31.8707 101.452 30.4947 96.7101Z" fill="#F3F6FC"/>
<path d="M56.2372 54.7087C55.4327 55.5555 54.5012 56.3812 53.3369 56.5505C51.5586 56.8469 49.8015 55.365 49.3992 53.5867C48.9758 51.8296 49.6533 49.9455 50.7753 48.5271C51.8973 47.1087 53.4004 46.0502 54.9034 45.0129C55.2704 44.7588 55.6444 44.4977 56.0255 44.2296C58.46 42.5571 61.5508 44.0179 61.0428 47.1934C60.6617 49.7338 57.9519 52.9093 56.2372 54.7087Z" fill="#F3F6FC"/>
<path d="M155.228 83.1823C154.953 81.5734 154.953 79.8374 155.715 78.3979C156.477 76.9583 158.171 75.921 159.759 76.3232C160.711 76.5772 161.495 77.3182 162.066 78.1227C162.617 78.8424 163.019 79.6469 163.315 80.4937C164.099 82.8224 163.929 85.4263 164.945 87.6703C165.305 88.4536 165.813 89.1734 166.152 89.9779C166.491 90.7824 166.66 91.735 166.3 92.5395C164.903 95.6515 161.05 92.9205 159.653 91.5445C157.388 89.3004 155.779 86.3366 155.228 83.1823Z" fill="#F3F6FC"/>
<path d="M28.7163 111.423C28.4199 112.249 28.0177 113.032 27.3826 113.604C26.7475 114.175 25.8372 114.514 25.0115 114.281C24.1436 114.027 23.5296 113.244 23.2544 112.397C22.9792 111.55 23.0004 110.64 23.0004 109.751C23.0286 108.721 23.0498 107.69 23.0639 106.66C23.1062 104.247 24.2071 100.605 27.2767 102.384C30.1347 104.035 29.6478 108.883 28.7163 111.423Z" fill="#F3F6FC"/>
<path d="M116.995 31.2524C117.906 33.1789 119.874 34.5761 121.991 34.8301C122.372 34.8725 122.796 34.8725 123.113 34.6608C123.41 34.4491 123.558 34.068 123.579 33.7081C123.579 33.3482 123.473 32.9883 123.346 32.6496C122.69 30.9348 121.272 29.0931 119.599 28.2463C117.546 27.2089 116.148 29.4529 116.995 31.2524Z" fill="#F3F6FC"/>
<path d="M149.386 56.9105C150.021 56.9105 150.698 56.6141 150.995 56.0425C151.079 55.8943 151.122 55.7249 151.1 55.5768C151.079 55.0898 150.592 54.7723 150.169 54.5606C149.717 54.3348 149.266 54.1301 148.814 53.9467C147.819 53.5656 146.231 53.5021 146.401 54.984C146.528 56.233 148.306 56.9105 149.386 56.9105Z" fill="#F3F6FC"/>
<path d="M162.744 125.586C163.125 125.184 163.569 124.761 164.12 124.697C164.564 124.634 164.988 124.782 165.348 125.036C166.385 125.756 166.703 127.216 166.385 128.444C166.067 129.651 165.242 130.688 164.374 131.598C163.718 132.297 162.977 132.953 162.066 133.292C156.499 135.346 161.389 127.005 162.744 125.586Z" fill="#F3F6FC"/>
<path d="M32.0187 135.197C31.7012 135.155 31.3413 135.113 31.0661 135.261C30.4945 135.6 31.0026 138.712 35.8717 140.871C36.782 141.273 37.777 141.675 38.7296 141.421C44.0645 140.13 33.5853 135.43 32.0187 135.197Z" fill="#F3F6FC"/>
<path d="M140.515 106.342C144.389 105.877 148.792 106.364 151.375 109.285C151.926 109.92 152.391 110.682 152.37 111.508C152.328 112.312 151.841 113.053 151.206 113.561C149.851 114.705 147.967 114.98 146.189 114.895C144.431 114.789 142.696 114.387 140.917 114.281C138.948 114.175 137.001 114.493 135.053 114.81C132.894 115.149 130.713 115.53 128.639 116.292C127.051 116.885 125.548 117.711 124.087 118.579C123.537 118.917 122.902 119.277 122.309 119.044C121.42 118.685 121.504 117.393 121.928 116.546C123.41 113.583 127.157 111.275 129.972 109.751C133.233 107.972 136.81 106.808 140.515 106.342Z" fill="#99CFDB"/>
<path d="M126.691 51.4697C127.114 49.2468 127.347 46.9393 128.131 44.8011C128.914 42.6629 130.354 40.6518 132.471 39.805C136.175 38.3231 140.536 41.2234 141.87 44.9917C143.183 48.7599 142.23 52.9516 140.79 56.6775C135.879 69.2525 125.23 79.4353 112.444 83.7752C109.628 84.749 102.07 84.368 105.542 79.8376C107.68 77.022 112.634 75.2013 115.28 72.5762C121.081 66.9027 125.188 59.472 126.691 51.4697Z" fill="#99CFDB"/>
<path d="M137.001 52.9091C136.853 52.8033 136.662 52.8456 136.556 52.9938C135.35 54.8568 133.36 56.4233 132.217 57.249C135.244 50.157 135.329 44.9068 135.329 44.8645C135.329 44.674 135.18 44.5469 135.011 44.5469C134.842 44.5258 134.693 44.674 134.693 44.8433C134.693 44.8857 134.672 46.8545 133.931 49.9665C133.593 48.8656 133.042 47.0874 132.852 45.8383C132.809 45.669 132.661 45.5631 132.471 45.5843C132.301 45.6266 132.195 45.7748 132.217 45.9442C132.534 47.7648 133.466 50.5804 133.656 51.1308C133.169 52.9515 132.492 55.0473 131.454 57.376C130.417 59.7471 128.935 62.5203 126.861 65.4418C126.924 63.854 127.178 60.7209 128.194 58.2863C128.258 58.117 128.173 57.9476 128.025 57.8629C127.856 57.7994 127.665 57.8841 127.602 58.0323C126.268 61.2713 126.225 65.5265 126.225 66.3521C122.542 71.3271 117.186 76.7254 109.332 81.5522C109.184 81.6369 109.12 81.8274 109.226 81.9756C109.289 82.0815 109.374 82.1238 109.48 82.1238C109.55 82.1238 109.607 82.1097 109.649 82.0815C114.222 79.2658 117.969 76.2597 121.039 73.2536C121.505 73.1054 126.458 71.3906 131.433 68.3844C131.581 68.2998 131.645 68.1092 131.539 67.9399C131.454 67.7917 131.264 67.7493 131.116 67.834C127.517 70.0145 123.918 71.4964 122.076 72.2162C123.876 70.3532 125.4 68.5115 126.734 66.7332C126.776 66.6908 126.811 66.6414 126.839 66.585C129.02 63.6 130.586 60.7844 131.73 58.3287C132.28 57.9899 135.371 55.9788 137.086 53.3325C137.192 53.1843 137.149 52.9938 137.001 52.9091Z" fill="#72A0BD"/>
<path d="M107.024 107.274L116.804 111.423C149.406 101.071 158.975 76.535 158.975 76.535C132.597 75.6882 107.024 107.274 107.024 107.274Z" fill="#72A0BD"/>
<path d="M152.857 79.8162C152.73 79.668 152.519 79.6468 152.37 79.7527C152.286 79.8374 148.454 82.7377 142.611 87.141C143.352 85.7438 144.199 83.6056 143.691 81.658C143.627 81.4886 143.458 81.3828 143.267 81.4251C143.098 81.4675 142.992 81.658 143.034 81.8485C143.754 84.5371 141.404 87.8608 141.129 88.2419C138.123 90.4859 134.672 93.0475 130.968 95.7784C131.751 94.3388 132.576 92.0737 131.878 89.7661C131.814 89.5968 131.624 89.4909 131.454 89.5544C131.285 89.5968 131.179 89.7873 131.243 89.9567C132.217 93.2168 129.761 96.5194 129.464 96.9004C126.12 99.3562 122.584 101.939 119.006 104.522C120.192 102.743 121.526 99.8854 121.123 96.3923C121.102 96.2018 120.933 96.0748 120.764 96.096C120.573 96.1171 120.446 96.2865 120.467 96.4559C121.081 101.833 117.228 105.728 116.932 106.025C115.259 107.231 113.566 108.459 111.872 109.645C111.724 109.751 111.682 109.962 111.809 110.111C111.872 110.216 111.978 110.259 112.084 110.259C112.14 110.259 112.204 110.238 112.274 110.195C115.873 107.634 119.515 104.987 123.092 102.405C123.622 102.256 127.856 101.261 130.862 102.214C130.904 102.214 130.939 102.214 130.968 102.214C131.116 102.214 131.243 102.129 131.285 101.981C131.349 101.812 131.243 101.621 131.073 101.558C128.851 100.859 126.098 101.156 124.405 101.431C128.364 98.5517 132.174 95.7361 135.667 93.1533C136.133 93.0687 139.287 92.6241 142.505 93.5344C142.533 93.5344 142.569 93.5344 142.611 93.5344C142.738 93.5344 142.886 93.4285 142.929 93.3015C142.971 93.111 142.865 92.9205 142.696 92.8781C140.346 92.2218 138.081 92.243 136.726 92.3489C140.833 89.3004 144.41 86.6118 147.163 84.5583C147.671 84.5371 150.296 84.4524 151.757 85.1722C151.799 85.2004 151.848 85.2146 151.905 85.2146C152.032 85.2146 152.138 85.151 152.201 85.024C152.286 84.8547 152.222 84.6641 152.053 84.5795C150.91 84.0079 149.174 83.8808 148.052 83.8808C150.973 81.6792 152.73 80.3454 152.794 80.3031C152.921 80.1761 152.963 79.9644 152.857 79.8162Z" fill="#5F7CA9"/>
<path d="M124.998 116.652C124.892 116.631 124.786 116.567 124.723 116.483C124.595 116.271 124.638 115.996 124.828 115.869C135.181 108.713 146.845 110.153 146.951 110.153C147.205 110.174 147.374 110.407 147.332 110.661C147.311 110.894 147.078 111.063 146.845 111.042C146.739 111.021 135.392 109.624 125.336 116.589C125.231 116.652 125.125 116.673 124.998 116.652Z" fill="#72A0BD"/>
<path d="M48.8065 78.0169C41.0795 61.462 28.1657 63.706 35.2577 85.5958C42.3497 107.486 70.2306 118.579 70.2306 118.579L76.4123 112.757C65.2768 109.349 56.5124 94.5719 48.8065 78.0169Z" fill="#99CFDB"/>
<path d="M73.004 114.027C67.1399 111.931 62.1861 108.544 58.058 104.712C57.8886 103.844 56.8513 98.8695 55.1153 94.2544C55.0518 94.0851 54.8613 94.0004 54.6919 94.0639C54.5225 94.1274 54.4379 94.3179 54.5014 94.4873C55.8774 98.1709 56.8301 102.087 57.2323 103.929C52.8501 99.674 49.4841 94.953 47.0284 90.8884C46.7179 90.3521 46.4074 89.8228 46.0969 89.3006C46.3933 88.5809 47.4306 85.4477 46.0969 81.1078C46.0545 80.9385 45.864 80.8538 45.6946 80.8961C45.5253 80.9596 45.4194 81.129 45.4829 81.3195C46.5203 84.7067 46.0122 87.353 45.6735 88.5385C41.3971 80.8114 39.5341 74.3969 39.513 74.3334C39.4495 74.1429 39.2801 74.0582 39.1107 74.1005C38.9202 74.1429 38.8355 74.3334 38.8779 74.5028C38.899 74.5451 39.5977 76.9373 41.0796 80.5362C40.1269 80.007 38.4333 78.8215 37.2266 76.6198C37.1419 76.4716 36.9514 76.4081 36.8032 76.4927C36.6339 76.5774 36.5703 76.768 36.655 76.9373C38.3486 80.0281 40.889 81.2137 41.4818 81.4677C42.6885 84.2622 44.3186 87.6494 46.4568 91.2059C47.6211 93.1536 48.9972 95.2494 50.6061 97.3664C49.3147 96.816 46.9013 95.5035 44.0434 92.6455C43.8952 92.4973 43.7047 92.4973 43.5776 92.6243C43.4506 92.7514 43.4506 92.9631 43.5776 93.0901C47.5999 97.1547 50.7543 98.1709 51.347 98.3403C53.1253 100.627 55.1788 102.913 57.4864 105.072C57.5287 105.143 57.5781 105.192 57.6346 105.221C59.8151 107.253 62.2496 109.158 64.9171 110.809C61.9321 109.899 56.9359 108.121 53.9298 105.75C53.7816 105.644 53.5699 105.665 53.464 105.813C53.3582 105.961 53.3794 106.152 53.5276 106.279C58.1215 109.857 66.78 112.037 67.2246 112.164C68.9817 113.096 70.8235 113.943 72.7923 114.641C72.8347 114.655 72.8699 114.662 72.8982 114.662C73.0252 114.662 73.1522 114.578 73.2157 114.451C73.2792 114.281 73.1734 114.091 73.004 114.027Z" fill="#72A0BD"/>
<path d="M52.9771 48.8022C55.0094 83.0554 76.878 109.751 76.878 109.751L80.2017 108.459C75.7137 64.3411 52.9771 48.8022 52.9771 48.8022Z" fill="#72A0BD"/>
<path d="M81.9589 106.872C80.6252 104.437 78.9527 101.283 77.1109 97.7474C77.1533 97.578 77.0898 97.4086 76.9416 97.324L76.8781 97.3028C71.6702 87.247 65.2557 74.3333 61.3816 66.4792L61.8262 61.1443C61.8473 60.9326 61.6991 60.7633 61.5086 60.7421C61.2969 60.7421 61.1275 60.8903 61.1064 61.0808L60.7677 65.2513C59.0529 61.7371 57.952 59.5142 57.9097 59.4295C57.825 59.239 57.6133 59.1755 57.444 59.2602C57.2534 59.3449 57.1899 59.5566 57.2746 59.7259C57.3381 59.8741 59.7938 64.8703 63.2022 71.7505L58.693 67.2201C58.566 67.0719 58.3331 67.0719 58.2061 67.2201C58.0579 67.3683 58.0579 67.58 58.2061 67.7282L64.1972 73.7829C67.7114 80.8325 72.009 89.4275 75.7772 96.71L69.7861 93.4922C69.6167 93.3863 69.405 93.4498 69.2992 93.6404C69.2145 93.8097 69.278 94.0214 69.4474 94.1061L76.3488 97.832C78.233 101.452 79.9689 104.712 81.345 107.21C81.4085 107.337 81.5355 107.401 81.6625 107.401C81.719 107.401 81.7754 107.387 81.8319 107.359C82.0012 107.274 82.0647 107.041 81.9589 106.872Z" fill="#5F7CA9"/>
<path d="M24.207 102.976C24.207 102.976 32.0611 122.22 52.6596 126.729L63.1599 121.818C63.1599 121.818 34.6862 113.455 24.207 102.976Z" fill="#72A0BD"/>
<path d="M59.1165 124.083C59.1023 124.083 59.0812 124.083 59.0529 124.083C45.8005 122.008 33.5854 113.477 33.4583 113.392C33.289 113.265 33.2466 113.032 33.3737 112.863C33.5007 112.694 33.7336 112.651 33.9029 112.778C34.0299 112.863 46.0969 121.289 59.18 123.321C59.3917 123.363 59.5187 123.554 59.4975 123.765C59.4552 123.956 59.307 124.083 59.1165 124.083Z" fill="#5F7CA9"/>
<path d="M50.7753 111.741C49.5475 111.847 48.2773 111.677 47.1129 111.254C46.626 111.063 46.1603 110.852 45.6945 110.598C43.1118 109.222 40.7196 107.147 39.7881 104.353C41.397 105.072 43.1965 105.305 44.7842 106.025C46.3508 106.745 47.6422 107.909 48.9124 109.073C49.7168 109.814 50.2884 110.746 50.7753 111.741Z" fill="#72A0BD"/>
<path d="M52.8076 113.138C52.7793 113.138 52.7511 113.131 52.7229 113.117C49.4415 111.656 44.0432 107.465 43.9797 107.422C43.895 107.359 43.8738 107.232 43.9373 107.147C44.022 107.041 44.149 107.041 44.2337 107.105C44.276 107.147 49.6532 111.317 52.8923 112.736C52.9981 112.778 53.0404 112.905 52.9981 113.011C52.9558 113.096 52.8923 113.138 52.8076 113.138Z" fill="#5F7CA9"/>
<path d="M54.8397 77.8687C54.8397 77.8475 54.3528 76.3021 53.2732 74.291L53.9718 70.9673C53.9929 70.8826 53.9294 70.8191 53.8447 70.7979C53.7601 70.7767 53.6754 70.8191 53.6754 70.9038L53.0615 73.8676C52.6592 73.169 52.1935 72.4068 51.6642 71.6235C51.6501 71.6094 51.636 71.5953 51.6219 71.5812C51.2197 70.9884 50.7539 70.3957 50.2458 69.8241L50.6904 67.0931C50.7116 67.0085 50.6481 66.9238 50.5634 66.9238C50.4787 66.9026 50.4152 66.9661 50.394 67.0508L49.9918 69.5277C49.5825 69.0761 49.145 68.6386 48.6793 68.2152C48.6157 68.1516 48.5099 68.1516 48.4676 68.2152C48.404 68.2787 48.404 68.3845 48.4676 68.448C49.5261 69.4007 50.4364 70.4592 51.1985 71.5177L48.8698 71.306C48.7851 71.2848 48.7004 71.3483 48.7004 71.433C48.7004 71.5177 48.7428 71.6024 48.8274 71.6024L51.4314 71.8352C53.6119 74.9684 54.5434 77.911 54.5434 77.9534C54.5645 78.0169 54.628 78.0592 54.6916 78.0592C54.7057 78.0592 54.7198 78.0592 54.7339 78.0592C54.8186 78.0381 54.8609 77.9534 54.8397 77.8687Z" fill="#72A0BD"/>
<path d="M54.7979 70.4803C54.692 70.946 54.2474 71.2424 53.7817 71.1577C53.316 71.0519 53.0196 70.6073 53.1043 70.1416C53.2101 69.6758 53.6547 69.3794 54.1204 69.4641C54.5862 69.57 54.8825 70.0146 54.7979 70.4803Z" fill="#99CFDB"/>
<path d="M49.1031 71.6023C49.0184 71.9834 48.6585 72.2163 48.2986 72.1527C47.9176 72.0681 47.6847 71.7082 47.7482 71.3271C47.8329 70.9672 48.1928 70.7132 48.5738 70.7979C48.9337 70.8825 49.1878 71.2424 49.1031 71.6023Z" fill="#99CFDB"/>
<path d="M51.2834 67.22C51.1987 67.5799 50.8388 67.834 50.4577 67.7493C50.0978 67.6858 49.8438 67.3047 49.9285 66.9448C50.0132 66.5637 50.373 66.3309 50.7329 66.4156C51.114 66.4791 51.3469 66.839 51.2834 67.22Z" fill="#99CFDB"/>
<path d="M48.8912 68.1729C48.8065 68.5328 48.4466 68.7868 48.0656 68.7022C47.7057 68.6175 47.4728 68.2576 47.5363 67.8977C47.621 67.5166 47.9809 67.2838 48.3619 67.3684C48.7218 67.4319 48.9547 67.7918 48.8912 68.1729Z" fill="#99CFDB"/>
<path d="M73.0464 57.5455C72.9618 57.5455 72.8982 57.5032 72.8771 57.4185C71.501 50.0301 74.6977 42.6418 74.7189 42.5571C74.7612 42.4936 74.8459 42.4513 74.9306 42.4936C75.0152 42.5148 75.0364 42.5995 75.0152 42.6841C74.9729 42.7476 71.8186 50.0725 73.1946 57.355C73.1946 57.4397 73.1523 57.5244 73.0676 57.5455C73.0535 57.5455 73.0464 57.5455 73.0464 57.5455Z" fill="#72A0BD"/>
<path d="M71.1831 52.8458C70.5691 52.1472 70.0822 51.258 70.1457 50.3265C70.1669 50.0302 70.2727 49.7126 70.548 49.6279C70.8655 49.5433 71.1407 49.8185 71.3312 50.0725C71.8817 50.8346 72.3262 51.7026 72.6226 52.5917C72.7285 52.9305 72.919 53.6926 72.3474 53.6079C71.8817 53.5444 71.4794 53.1845 71.1831 52.8458Z" fill="#99CFDB"/>
<path d="M73.4062 48.0401C73.5967 47.7861 73.8508 47.5956 74.1048 47.405C74.2954 47.278 74.4647 47.151 74.6764 47.0875C74.8881 47.024 75.121 47.0451 75.3115 47.151C75.3539 47.1792 75.3891 47.2074 75.4174 47.2357C75.5021 47.3415 75.502 47.4897 75.4597 47.6167C75.3962 47.8708 75.248 48.0613 75.0575 48.2307C74.8669 48.3789 74.6341 48.4847 74.4224 48.6117C74.2812 48.6823 74.1401 48.7529 73.999 48.8234C73.8296 48.9081 73.3004 49.1621 73.131 48.9293C72.9828 48.7176 73.3004 48.2095 73.4062 48.0401Z" fill="#99CFDB"/>
<path d="M73.0675 45.4786C72.9193 45.288 72.8558 45.0763 72.7923 44.8435C72.6653 44.3989 72.623 43.9331 72.6653 43.4462C72.6653 43.2769 72.7076 43.0863 72.8558 42.9805C73.0464 42.8535 73.3216 42.9593 73.4698 43.1499C73.5968 43.3404 73.6179 43.5733 73.6391 43.8061C73.6956 44.2436 73.745 44.6882 73.7873 45.1398C73.7873 45.288 73.8508 45.7326 73.6815 45.7961C73.4909 45.8808 73.1734 45.6056 73.0675 45.4786Z" fill="#99CFDB"/>
<path d="M75.5865 42.1972C75.8406 42.049 76.137 41.9008 76.4334 41.922C76.5392 41.922 76.6874 41.9643 76.7297 42.0701C76.7509 42.176 76.6874 42.2818 76.6027 42.3454C76.2005 42.8111 75.6289 43.0863 75.0361 43.1498C74.9303 43.1498 74.7397 43.1498 74.7397 43.0228C74.7397 42.9381 74.9091 42.7899 74.9514 42.7476C75.149 42.5359 75.3607 42.3524 75.5865 42.1972Z" fill="#99CFDB"/>
<path d="M35.1732 99.3353C33.5642 96.7737 31.0027 94.8472 28.1235 93.9792C29.9865 96.4138 32.2729 98.298 35.1732 99.3353Z" fill="#99CFDB"/>
<path d="M119.514 54.8992C119.43 54.8992 119.366 54.8357 119.366 54.751C119.366 54.6663 119.62 46.5793 116.847 41.9854C116.783 41.9008 116.826 41.8161 116.889 41.7737C116.953 41.7314 117.059 41.7526 117.101 41.8161C119.916 46.4947 119.684 54.6875 119.684 54.7722C119.684 54.8568 119.599 54.9203 119.514 54.9203C119.514 54.9062 119.514 54.8992 119.514 54.8992Z" fill="#5F7CA9"/>
<path d="M116.72 51.5332C116.445 51.3638 116.191 51.1521 116.106 50.8557C116.318 50.7711 116.572 50.7499 116.805 50.7711C117.271 50.7922 117.737 50.9193 118.181 51.1098C118.435 51.2156 119.303 51.6179 119.367 51.9142C119.494 52.5493 117.017 51.7025 116.72 51.5332Z" fill="#72A0BD"/>
<path d="M119.727 51.6179C119.621 51.6814 119.494 51.7237 119.451 51.8296C119.437 51.8437 119.43 51.8649 119.43 51.8931C119.43 51.9566 119.515 51.9778 119.578 51.9778C120.213 51.9989 120.827 51.7449 121.357 51.4274C121.505 51.3427 122.712 50.5594 122.373 50.39C122.246 50.3265 122.076 50.4535 121.971 50.4959C121.829 50.5664 121.688 50.637 121.547 50.7076C121.265 50.8487 120.976 50.9898 120.679 51.131C120.355 51.2862 120.037 51.4485 119.727 51.6179Z" fill="#72A0BD"/>
<path d="M118.266 48.7388C118.096 48.7388 117.948 48.7176 117.779 48.6964C117.546 48.6541 117.313 48.5906 117.08 48.5059C116.89 48.4212 116.678 48.3577 116.572 48.1884C116.487 48.0825 116.466 47.9132 116.572 47.8285C116.614 47.8073 116.678 47.8073 116.72 47.8073C117.525 47.765 118.329 48.019 118.964 48.4847C119.113 48.5694 119.218 48.76 118.986 48.7811C118.753 48.8023 118.499 48.76 118.266 48.7388Z" fill="#72A0BD"/>
<path d="M120.065 47.8496C120.51 47.5744 120.997 47.2992 121.526 47.2568C121.61 47.2568 121.716 47.278 121.759 47.3627C121.759 47.4262 121.716 47.4897 121.674 47.5532C121.314 47.9766 120.742 48.1883 120.192 48.4C119.924 48.4988 119.649 48.5976 119.366 48.6964C118.964 48.8446 119.049 48.5694 119.282 48.3789C119.515 48.1883 119.79 48.019 120.065 47.8496Z" fill="#72A0BD"/>
<path d="M116.127 45.2456C116.064 45.2032 115.979 45.1397 116.021 45.055C116.042 45.0339 116.085 45.0127 116.127 45.0127C116.522 44.928 116.931 44.8927 117.355 44.9068C117.545 44.9068 117.757 44.928 117.926 45.0127C118.117 45.0762 118.286 45.2032 118.371 45.3937C118.456 45.5419 117.44 45.5419 117.291 45.5419C116.889 45.5208 116.487 45.4149 116.127 45.2456Z" fill="#72A0BD"/>
<path d="M120.002 44.0601C120.044 44.1236 120.044 44.1871 120.044 44.2506C119.811 44.5893 119.536 44.8645 119.197 45.0762C119.07 45.1609 118.329 45.6055 118.287 45.4149C118.202 45.0127 119.896 43.8695 120.002 44.0601Z" fill="#72A0BD"/>
<path d="M115.81 42.3665C115.746 42.3665 115.661 42.3877 115.598 42.43C115.556 42.4724 115.513 42.557 115.556 42.6205C115.577 42.6629 115.64 42.684 115.661 42.7052C115.979 42.8111 116.297 42.8534 116.614 42.8534C116.72 42.8534 117.44 42.8746 117.461 42.7476C117.546 42.3665 116 42.3242 115.81 42.3665Z" fill="#72A0BD"/>
<path d="M117.863 41.2234C117.99 41.1175 118.138 41.054 118.287 40.9905C118.329 41.0963 118.329 41.2234 118.287 41.3292C118.244 41.4562 118.181 41.5621 118.117 41.6468C117.962 41.8867 117.807 42.1266 117.652 42.3665C117.546 42.5147 117.397 42.7053 117.355 42.4089C117.313 42.049 117.609 41.4562 117.863 41.2234Z" fill="#72A0BD"/>
<path d="M137.53 74.8203C137.255 73.2749 137.975 71.7507 138.737 70.3746C139.499 68.9985 140.303 67.6648 141.383 66.5216C142.442 65.3785 143.775 64.447 145.3 64.0659C144.537 68.5328 141.341 72.3646 137.53 74.8203Z" fill="#72A0BD"/>
<path d="M131.497 80.2821C131.454 80.3033 131.391 80.2821 131.37 80.2186C131.327 80.1551 131.349 80.0916 131.412 80.0493C138.038 76.3868 141.891 67.8977 141.934 67.813C141.955 67.7495 142.039 67.7071 142.103 67.7495C142.166 67.7706 142.188 67.8341 142.166 67.9188C142.124 68.0035 138.229 76.5562 131.539 80.2821C131.525 80.2821 131.511 80.2821 131.497 80.2821Z" fill="#5F7CA9"/>
<path d="M142.886 119.447C144.072 119.214 145.321 119.299 146.485 119.659C147.036 119.828 147.565 120.082 148.073 120.357C150.084 121.543 151.566 123.639 151.989 125.946C150.084 125.819 148.369 124.951 146.824 123.808C145.3 122.644 143.902 121.098 142.886 119.447Z" fill="#72A0BD"/>
<path d="M148.56 123.469C148.517 123.469 148.454 123.448 148.433 123.384C148.411 123.342 145.659 118.812 139.33 119.468C139.245 119.489 139.181 119.426 139.16 119.341C139.16 119.256 139.224 119.171 139.308 119.171C142.696 118.812 145.088 119.934 146.464 120.95C147.967 122.029 148.666 123.194 148.687 123.236C148.729 123.3 148.708 123.406 148.644 123.448C148.616 123.462 148.588 123.469 148.56 123.469Z" fill="#5F7CA9"/>
<path d="M151.227 116.123C154.127 116.165 157.006 117.33 159.335 119.404C156.52 119.108 153.746 117.69 151.227 116.123Z" fill="#99CFDB"/>
<path d="M155.017 97.218C155.123 97.1969 155.229 97.1545 155.335 97.1757C155.44 97.1757 155.546 97.2604 155.567 97.3662C155.567 97.4086 155.546 97.4721 155.546 97.5356C155.335 98.1707 154.763 98.5941 154.191 98.9751C154.022 99.1022 153.281 99.6314 153.027 99.4409C152.858 99.2927 153.26 98.6999 153.345 98.5306C153.747 97.9378 154.34 97.4721 155.017 97.218Z" fill="#99CFDB"/>
<path d="M155.271 105.178C155.271 105.538 155.377 105.919 155.631 106.173C155.694 106.215 155.737 106.258 155.8 106.258C155.864 106.279 155.948 106.237 156.012 106.194C156.308 105.961 156.457 105.602 156.478 105.242C156.52 104.882 156.457 104.522 156.372 104.162C156.329 103.95 156.245 103.569 156.012 103.506C155.821 103.442 155.589 103.654 155.504 103.823C155.44 103.971 155.292 104.882 155.271 105.178Z" fill="#99CFDB"/>
<path d="M159.568 101.579C159.738 101.219 159.928 100.86 160.203 100.584C160.479 100.288 160.839 100.076 161.241 100.034C161.283 100.013 161.368 100.013 161.41 100.055C161.474 100.076 161.495 100.14 161.495 100.203C161.579 100.606 161.325 100.965 161.071 101.283C160.86 101.537 160.627 101.812 160.33 102.003C160.076 102.172 159.653 102.363 159.335 102.236C159.357 102.024 159.484 101.791 159.568 101.579Z" fill="#99CFDB"/>
<path d="M160.267 103.887C159.745 103.478 159.208 103.118 158.658 102.807C159.103 102.68 159.801 102.341 160.267 101.579C160.33 101.495 160.288 101.41 160.225 101.368C160.161 101.325 160.055 101.346 160.013 101.41C159.441 102.363 158.446 102.574 158.235 102.595C157.261 102.087 156.266 101.706 155.271 101.41C155.243 101.396 155.214 101.389 155.186 101.389C153.831 101.008 152.519 100.817 151.333 100.711C152.201 100.33 153.789 99.4623 154.318 98.2979C154.339 98.2132 154.318 98.1285 154.233 98.1074C154.17 98.065 154.064 98.1074 154.043 98.1709C153.387 99.6316 150.677 100.669 150.634 100.69C148.031 100.563 146.168 100.923 146.125 100.944C146.041 100.965 145.977 101.029 145.998 101.114C146.019 101.198 146.104 101.262 146.189 101.241C146.231 101.219 150.507 100.394 155.101 101.685C155.25 102.003 155.842 103.485 155.779 105.242C155.758 105.326 155.821 105.39 155.906 105.39C155.92 105.39 155.927 105.39 155.927 105.39C156.012 105.39 156.075 105.326 156.075 105.263C156.139 103.696 155.715 102.363 155.461 101.791C157.049 102.278 158.637 103.019 160.076 104.12C160.105 104.148 160.14 104.162 160.182 104.162C160.225 104.162 160.267 104.141 160.309 104.099C160.352 104.035 160.33 103.929 160.267 103.887Z" fill="#5F7CA9"/>
<path d="M61.8897 93.0475C62.0168 93.1322 62.1438 93.1957 62.292 93.2381C63.1811 93.598 61.3817 87.0776 60.0903 88.1149C58.7777 89.1522 60.9794 92.4124 61.8897 93.0475Z" fill="#72A0BD"/>
<path d="M148.242 73.8677C148.327 73.7618 148.412 73.6771 148.433 73.5713C148.454 73.3807 148.242 73.1902 147.988 73.1267C147.734 73.042 147.438 73.0632 147.163 73.0844C146.231 73.2114 143.543 73.8677 144.58 74.778C145.617 75.6883 147.607 74.5028 148.242 73.8677Z" fill="#99CFDB"/>
<path d="M111.131 43.3615C110.687 42.0278 107.977 39.1698 109.162 29.5163C110.538 18.402 103.637 16.7295 103.637 16.7295C103.637 16.7295 102.367 14.8031 99.3395 14.1891C95.7194 13.4694 93.3696 15.0359 93.3696 15.0359C81.599 16.2426 83.335 25.8327 83.2503 26.9335C83.0174 30.0667 81.4297 32.9246 80.9216 36.0366C80.3076 39.9108 82.5728 41.7314 80.0959 47.7225C79.2703 49.6913 77.8943 51.6813 78.36 53.756L113.46 56.8468C111.851 52.1894 112.719 47.913 111.131 43.3615Z" fill="#191F5D"/>
<path d="M105.881 140.151C105.881 140.151 107.765 139.728 109.141 140.151C110.517 140.574 120.997 143.665 122.013 143.496C123.05 143.327 124.595 142.205 123.982 141.739C123.389 141.273 110.009 133.123 110.009 133.123L102.642 135.261L105.182 140.236L105.881 140.151Z" fill="#FFB294"/>
<path d="M136.345 119.637C126.988 114.324 115.196 108.671 113.608 106.427C112.783 105.263 110.75 94.7625 110.75 94.7625L81.4933 97.7686C81.4933 97.7686 80.9217 106.935 76.7088 110.365C72.5172 113.816 50.2886 124.189 46.1604 132.932C42.0534 141.696 46.1604 146.333 48.9125 147.264C51.6647 148.217 67.9656 147.878 76.9629 144.957C85.9813 142.035 103.404 140.49 105.881 140.151C105.881 140.151 105.521 137.06 103.468 135.6C103.468 135.6 118.244 141.083 125.696 143.411C133.169 145.719 144.749 147.434 147.078 139.812C149.386 132.17 142.4 123.088 136.345 119.637Z" fill="#7272BD"/>
<path d="M105.034 137.484L103.468 135.6L90.2576 130.159C90.2576 130.159 87.3996 129.016 85.7272 130.879C85.0286 131.662 82.0859 133.779 81.4932 134.266C83.7584 133.356 92.4804 131.789 105.034 137.484Z" fill="#645CA3"/>
<path d="M78.7412 131.387C78.7412 131.387 71.1411 134.753 66.3355 135.6C61.5299 136.468 58.1851 139.368 58.1851 139.368C58.1851 139.368 59.3706 135.769 64.0068 134.562C68.6431 133.377 81.3663 127.491 83.2292 125.798C85.1134 124.104 83.8432 128.656 83.8432 128.656L78.7412 131.387Z" fill="#645CA3"/>
<path d="M95.9735 120.505C95.9735 120.505 109.311 124.528 120.383 125.734C131.455 126.941 136.43 133.123 136.43 133.123C136.43 133.123 131.624 124.866 120.912 123.511C110.179 122.135 104.124 123.151 91.5278 117.372L92.0783 119.553L95.9735 120.505Z" fill="#645CA3"/>
<path d="M113.841 106.702C113.841 106.702 113.848 106.709 113.862 106.724C96.3757 112.185 83.3137 108.883 78.995 107.443L78.5293 108.227C82.5728 109.645 96.9473 113.689 114.434 107.232C114.194 107.048 113.996 106.872 113.841 106.702Z" fill="#EBE0F3"/>
<path d="M90.2577 130.159C90.5117 126.539 95.9736 120.505 95.9736 120.505C95.9736 120.505 93.6661 119.277 92.0571 117.732C90.4482 116.187 88.183 117.986 87.315 119.172C86.4471 120.378 82.954 126.814 80.5406 129.545C78.1272 132.276 73.364 135.938 73.5757 137.039C73.8085 138.14 75.6292 138.161 77.1111 137.039C78.593 135.917 88.5852 129.905 89.4109 130.032C90.2577 130.159 90.2577 130.159 90.2577 130.159Z" fill="#FFB294"/>
<path d="M78.9951 107.443C83.3138 108.883 96.3757 112.185 113.862 106.724C113.763 106.611 113.679 106.512 113.608 106.427C112.783 105.263 110.75 94.7625 110.75 94.7625L81.4932 97.7686C81.4932 97.7686 81.1333 103.358 78.9951 107.443Z" fill="#FFB294"/>
<path d="M80.498 103.442C85.4942 102.108 88.2039 100.648 93.3483 100.965C96.3756 101.156 101.837 102.934 104.865 102.743C106.982 102.595 109.141 101.748 111.131 100.965C111.406 100.859 111.682 100.711 111.957 100.563C111.66 99.2292 111.364 97.8743 111.152 96.8158C110.496 96.7311 109.819 96.6676 109.162 96.6041C105.775 96.3077 102.374 96.096 98.9583 95.969L81.493 97.7684C81.493 97.7684 81.3237 100.436 80.498 103.442Z" fill="#E49D94"/>
<path d="M113.206 99.4834C113.206 99.4834 111.745 88.7501 113.036 85.2571C114.328 81.764 114.984 76.7044 114.984 76.7044L115.683 78.5885C117.355 78.5038 119.98 77.2971 121.06 76.2598C122.139 75.2436 124.807 75.8788 124.807 75.8788C123.558 71.8141 117.143 55.5555 115.619 53.8195C114.095 52.1048 107.066 49.1621 106.558 48.8022C106.558 48.8022 103.616 57.9477 96.1215 61.8007C88.6273 57.9477 85.6846 48.8022 85.6846 48.8022C85.1554 49.1621 78.1481 52.1048 76.6238 53.8195C75.0784 55.5555 68.6851 71.8141 67.436 75.8788C67.436 75.8788 70.0823 75.2436 71.1831 76.2598C72.2628 77.2971 74.8879 78.5038 76.5603 78.5885L77.2589 76.7044C77.2589 76.7044 77.894 81.764 79.1854 85.2571C80.4768 88.7501 79.0372 99.4834 79.0372 99.4834C80.8155 100.605 83.1654 100.457 85.1977 99.8856C87.2512 99.314 89.22 98.4249 91.3159 98.2555C92.5861 98.1497 93.8563 98.2978 95.0418 98.7212C96.1215 99.0811 97.1165 99.6527 98.1961 100.034C99.9956 100.711 101.943 100.838 103.87 100.923C106.939 101.071 110.432 100.838 113.206 99.4834Z" fill="#A691F3"/>
<path d="M98.1963 85.6169C97.9211 84.5796 94.5763 84.5372 93.7718 84.6431C92.9673 84.7489 92.2052 85.0665 91.4431 85.3629C89.3261 86.1956 87.2161 87.0353 85.1132 87.8821C83.7584 88.4114 82.3823 88.9618 81.1333 89.7239C80.6464 90.0203 80.1806 90.3378 79.7149 90.6977C79.6937 92.7724 79.5243 94.9741 79.355 96.6465C81.7049 95.1434 83.9912 93.5769 86.3623 92.095C89.2414 90.3167 92.2476 88.6654 95.4866 87.6069C96.164 87.374 98.5351 86.7813 98.1963 85.6169Z" fill="#917CD4"/>
<path d="M90.7655 79.2449C90.2786 79.3507 89.9399 79.7318 89.4953 79.9435C89.0719 80.1552 88.585 80.1975 88.0981 80.2187C86.2139 80.3034 84.3086 80.2822 82.488 79.8588C81.8317 79.7106 81.1331 79.4989 80.5615 79.0967C83.9276 80.134 87.3359 80.007 90.7655 79.2449Z" fill="#917CD4"/>
<path d="M105.352 67.1779C103.997 68.1518 102.409 68.7869 100.8 69.2314C102.621 68.9351 104.357 68.4481 106.072 67.1779C107.681 65.9924 109.819 63.071 109.967 61.8643C108.591 63.6637 107.194 65.8442 105.352 67.1779Z" fill="#917CD4"/>
<path d="M101.457 94.7413C103.298 95.5034 105.542 95.4611 107.003 96.8371C106.135 96.7313 105.288 96.4773 104.463 96.202C102.303 95.5246 99.2337 94.7413 97.7729 92.8572C99.0643 93.0477 100.25 94.2544 101.457 94.7413Z" fill="#917CD4"/>
<path d="M113.862 64.5527C113.862 64.5527 114.434 81.9757 109.819 84.5373C107.151 86.0192 109.861 86.8025 112.634 87.1835C112.719 86.4214 112.846 85.7651 113.037 85.2571C114.328 81.764 114.984 76.7043 114.984 76.7043L115.683 78.5885C115.979 78.5673 116.318 78.525 116.678 78.4403C116.191 76.3445 114.159 67.6436 113.862 64.5527Z" fill="#917CD4"/>
<path d="M79.1858 85.2572C79.214 85.3136 79.2351 85.3771 79.2493 85.4477L79.6303 85.9981C76.6242 79.8376 79.7997 65.5479 79.7997 65.5479C78.0426 69.6548 77.2593 76.7045 77.2593 76.7045C77.2593 76.7045 77.8944 81.7641 79.1858 85.2572Z" fill="#917CD4"/>
<path d="M96.1216 63.1767C96.1216 63.1767 104.95 58.4346 107.829 49.4373C107.151 49.1198 106.685 48.8869 106.558 48.8022C106.558 48.8022 103.616 57.9477 96.1216 61.8007C88.6274 57.9477 85.6848 48.8022 85.6848 48.8022C85.5366 48.9081 84.9438 49.1833 84.1182 49.5644C85.3037 52.5493 88.8391 59.9377 96.1216 63.1767Z" fill="#EBE0F3"/>
<path d="M95.0844 74.2063C93.8565 78.5461 94.6821 81.4676 92.3111 82.6743C89.9189 83.9022 79.2703 84.749 75.2903 86.2732C75.2903 86.2732 76.2642 82.018 76.37 78.5673C74.6976 78.4191 72.2207 77.2548 71.1834 76.2598C70.5059 75.6458 69.278 75.6247 68.4101 75.7305C67.9443 78.1016 65.912 89.0888 67.4363 91.7351C69.1299 94.6989 81.0486 92.8359 87.6748 89.6816C94.3011 86.5272 95.4866 86.9718 96.1217 86.5908V72.428C96.1217 72.428 95.169 72.555 95.0844 74.2063Z" fill="#FFB294"/>
<path d="M97.1589 74.2063C98.2386 76.2598 97.5823 81.0865 99.9534 82.3144C102.346 83.5211 112.952 84.749 116.953 86.2732C116.953 86.2732 115.958 82.018 115.852 78.5673C117.546 78.4191 120.001 77.2548 121.06 76.2598C121.716 75.6458 122.965 75.6247 123.833 75.7305C124.299 78.1016 126.331 89.0888 124.807 91.7351C123.092 94.6989 111.195 92.8359 104.568 89.6816C97.921 86.5272 96.7567 86.9718 96.1216 86.5908V72.428C96.1216 72.428 97.0531 72.555 97.1589 74.2063Z" fill="#FFB294"/>
<path d="M124.447 79.2447C124.193 77.6569 123.96 76.3656 123.833 75.7305C122.965 75.6246 121.716 75.6458 121.06 76.2597C120.001 77.2547 117.546 78.4191 115.852 78.5673C115.866 78.9201 115.887 79.28 115.916 79.6469C116.064 79.6681 116.212 79.6893 116.381 79.7104C118.033 79.7951 119.663 78.906 121.293 78.8425C122.351 78.8001 123.41 79.033 124.447 79.2447Z" fill="#E49D94"/>
<path d="M96.2486 86.6543C96.2909 86.6684 96.3403 86.6825 96.3968 86.6966C96.3968 86.6966 96.4038 86.6966 96.418 86.6966C96.4603 86.7107 96.5097 86.7248 96.5662 86.7389C96.5944 86.7531 96.6155 86.7601 96.6297 86.7601C96.672 86.7742 96.7143 86.7813 96.7567 86.7813C97.0954 86.8448 97.54 86.9295 98.2386 87.1412C96.3121 85.257 96.3968 74.6932 96.4391 72.5762C96.2909 72.4703 96.1639 72.4491 96.1216 72.428C96.1428 72.6608 96.1428 72.8725 96.1216 72.9572V86.5908C96.1639 86.6049 96.2063 86.626 96.2486 86.6543Z" fill="#E49D94"/>
<path d="M76.3488 78.9907C76.3629 78.8495 76.3699 78.7084 76.3699 78.5673C74.6975 78.4191 72.2206 77.2547 71.1833 76.2597C70.5058 75.6458 69.278 75.6246 68.41 75.7305C68.3465 76.048 68.2406 76.5138 68.1348 77.1065C69.2144 77.0853 70.2941 77.2124 71.3314 77.4452C72.8769 77.784 74.3376 78.6519 75.883 78.9695C76.0383 78.9977 76.1935 79.0048 76.3488 78.9907Z" fill="#E49D94"/>
<path d="M96.1214 61.8008C102.938 58.2866 105.987 50.4113 106.474 49.0141V48.8024C106.474 48.8024 102.981 47.4898 102.409 46.3678C101.372 44.3778 101.372 39.9321 101.372 39.9321H90.7866C90.7866 39.9321 90.7866 44.3778 89.7492 46.3678C89.1776 47.4898 85.6846 48.8024 85.6846 48.8024C85.6846 48.8024 88.6272 57.9479 96.1214 61.8008Z" fill="#FFA18B"/>
<path d="M101.414 41.1388C101.372 40.5037 101.372 40.0592 101.372 39.9533C101.372 39.9392 101.372 39.9321 101.372 39.9321H90.7865C90.7865 39.9321 90.7865 44.2932 89.7915 46.3043C93.4116 45.4787 97.8361 48.0191 101.414 41.1388Z" fill="#D99085"/>
<path d="M87.8652 29.2199C87.8652 29.2199 87.1031 28.4154 86.0869 28.7541C85.0919 29.0717 84.8167 33.6021 88.4792 34.3007L87.8652 29.2199Z" fill="#DA968B"/>
<path d="M87.9078 29.601C87.7667 29.5022 87.5973 29.4246 87.3997 29.3682C87.0398 29.2835 86.5953 29.3046 86.2989 29.5799C86.066 29.8127 85.9813 30.1726 86.0237 30.4902C86.0448 30.8077 86.1719 31.1253 86.2989 31.4217C86.3836 31.6334 86.4682 31.838 86.5529 32.0356C86.6164 32.2049 86.6799 32.3743 86.8493 32.4166C86.9975 32.459 87.1457 32.3955 87.2939 32.4166C87.5479 32.459 87.6749 32.7554 87.7596 33.0094C87.8655 33.2634 88.0348 33.5387 88.31 33.5175C88.3383 33.5034 88.3594 33.4963 88.3736 33.4963L87.9078 29.601Z" fill="#C3898B"/>
<path d="M104.59 29.22C104.611 28.7542 105.352 28.4155 106.368 28.7542C107.363 29.0718 107.49 33.6022 103.807 34.3008C103.807 34.3008 104.442 31.464 104.59 29.22Z" fill="#DA968B"/>
<path d="M105.902 32.0353C105.987 31.8378 106.071 31.6331 106.156 31.4214C106.283 31.125 106.41 30.8075 106.431 30.4899C106.474 30.1724 106.389 29.8125 106.156 29.5796C105.881 29.3044 105.415 29.2832 105.055 29.3679C104.872 29.4244 104.709 29.4949 104.568 29.5796C104.441 31.0192 104.145 32.5858 103.976 33.5172C104.039 33.5172 104.145 33.5172 104.145 33.5172C104.42 33.5384 104.59 33.2632 104.695 33.0092C104.78 32.7551 104.907 32.4587 105.161 32.4164C105.309 32.3952 105.457 32.4587 105.606 32.4164C105.775 32.3741 105.839 32.2047 105.902 32.0353Z" fill="#C3898B"/>
<path d="M103.404 28.3519C101.605 28.5424 99.8051 27.5474 99.0007 25.9173C98.1539 26.256 97.3 26.5948 96.4391 26.9335C95.2536 27.3781 94.0046 27.865 92.7343 27.8015C92.3745 27.7803 92.0146 27.7168 91.6547 27.6321C90.0246 27.2934 88.3733 26.6159 87.6112 25.134C87.6112 25.134 86.2563 41.2233 96.0792 43.7425C101.351 42.3876 103.404 37.1163 104.166 32.5224C103.023 31.3157 103.404 28.3519 103.404 28.3519Z" fill="#FFB294"/>
<path d="M92.4591 32.586C91.5488 32.586 90.7443 32.3108 90.5326 32.2473L90.1939 32.3954C90.1304 32.4378 90.0669 32.4166 90.0245 32.3531C90.0034 32.2896 90.0245 32.2049 90.088 32.1837L90.5114 31.972L90.575 31.9932C90.5961 32.0144 92.819 32.84 94.195 31.845C94.2585 31.8027 94.3432 31.8239 94.3644 31.8874C94.4067 31.9297 94.4067 32.0144 94.3432 32.0567C93.7716 32.459 93.0942 32.586 92.4591 32.586Z" fill="#9A7381"/>
<path d="M90.1941 30.3632C90.1517 30.3632 90.1306 30.342 90.1094 30.3208C90.0882 30.2785 90.1094 30.2361 90.1517 30.215C91.93 29.3893 94.1529 29.9821 94.174 29.9821C94.2375 30.0033 94.2587 30.0456 94.2375 30.0879C94.2375 30.1303 94.174 30.1515 94.1317 30.1303C94.1105 30.1303 91.9512 29.5587 90.2152 30.3632C90.2011 30.3632 90.1941 30.3632 90.1941 30.3632Z" fill="#C38387"/>
<path d="M99.2762 32.586C98.6411 32.586 97.9425 32.459 97.3709 32.0567C97.3286 32.0144 97.3074 31.9297 97.3497 31.8874C97.3921 31.8239 97.4768 31.8027 97.5191 31.845C98.9163 32.84 101.139 32.0144 101.16 31.9932L101.203 31.972L101.647 32.1837C101.69 32.2049 101.732 32.2896 101.69 32.3531C101.668 32.4166 101.584 32.4378 101.541 32.3954L101.203 32.2473C100.991 32.3108 100.187 32.586 99.2762 32.586Z" fill="#9A7381"/>
<path d="M101.541 30.3632C101.527 30.3632 101.513 30.3632 101.499 30.3632C99.7841 29.5587 97.6036 30.1303 97.5824 30.1303C97.5401 30.1515 97.4977 30.1303 97.4766 30.0879C97.4766 30.0456 97.4977 30.0033 97.5401 29.9821C97.5612 29.9821 99.7841 29.3893 101.584 30.215C101.626 30.2361 101.626 30.2785 101.626 30.3208C101.605 30.342 101.584 30.3632 101.541 30.3632Z" fill="#C38387"/>
<path d="M96.3542 36.7354C96.3119 36.7354 96.2696 36.7143 96.2484 36.6931C96.2272 36.6507 96.2484 36.5872 96.2907 36.5449L96.693 36.3332C96.7353 36.312 96.7776 36.2908 96.82 36.2697C96.9047 36.1638 96.8411 35.9733 96.7565 35.8039C96.3966 34.9783 96.1849 34.068 96.206 33.1788C96.206 33.1153 96.2484 33.073 96.3119 33.073C96.3542 33.073 96.3966 33.1153 96.3966 33.1788C96.3966 34.0468 96.5871 34.9148 96.947 35.7193C97.0105 35.8674 97.1587 36.185 96.9682 36.3967C96.9258 36.4602 96.8411 36.4814 96.7988 36.5237L96.3966 36.7354C96.3825 36.7354 96.3683 36.7354 96.3542 36.7354Z" fill="#D18887"/>
<path d="M96.3331 39.9319C95.3805 39.9319 94.5972 39.6779 94.5549 39.6567C94.4913 39.6356 94.4702 39.5932 94.4913 39.5297C94.4913 39.4874 94.5548 39.445 94.6184 39.4662C94.6395 39.4662 96.3966 40.0378 97.7939 39.4662C97.8574 39.445 97.9209 39.4662 97.9421 39.5297C97.9632 39.572 97.9209 39.6356 97.8785 39.6567C97.3705 39.8684 96.8412 39.9319 96.3331 39.9319Z" fill="#D18887"/>
</svg>
