<svg width="28" height="55" viewBox="0 0 28 55" fill="none" xmlns="http://www.w3.org/2000/svg">
<path d="M10.1019 50.2715L12.5838 1.11504C12.6014 0.590747 13.0453 0.187907 13.5654 0.222741C14.0511 0.249236 14.432 0.633108 14.4441 1.10992L16.564 50.3055C16.6458 52.075 15.2605 53.5804 13.4738 53.658C11.687 53.7356 10.1817 52.3504 10.1041 50.5637C10.1033 50.4663 10.1026 50.3689 10.1019 50.2715Z" fill="#1D325B"/>
<path d="M7.00306 47.666C7.09163 44.2649 9.9436 41.59 13.3447 41.6963C16.7458 41.8026 19.4207 44.6368 19.3144 48.038C19.2258 51.4391 16.3738 54.1139 12.9727 54.0253C9.57161 53.919 6.89678 51.0671 7.00306 47.666Z" fill="#345384"/>
</svg>
