<svg width="157" height="79" viewBox="0 0 157 79" fill="none" xmlns="http://www.w3.org/2000/svg">
<g clip-path="url(#clip0_386_35)">
<path d="M39.9452 57.8544C36.7212 63.8063 34.8612 70.5908 34.755 77.7828C34.755 78.1193 34.4715 78.4028 34.135 78.4028H9.3529C9.01634 78.4028 8.73291 78.1193 8.73291 77.765C8.83919 66.056 11.8329 54.7898 17.3774 44.8168L39.9452 57.8544Z" fill="#5EBF4A"/>
<path d="M55.0377 41.7523C49.1743 45.4368 44.2498 50.503 40.7247 56.4904L18.1392 43.4528C21.1151 38.3866 24.7642 33.6569 29.0333 29.3878C32.9836 25.4376 37.3413 22.0187 42.0001 19.1667L55.0377 41.7523Z" fill="#B2C42D"/>
<path d="M76.3299 9.1228V35.1626C69.0848 35.4283 62.2826 37.5008 56.3838 40.9374L43.3462 18.3696C53.3015 12.5948 64.5677 9.40623 76.3299 9.1228Z" fill="#F2E141"/>
<path d="M111.333 17.5725L98.2776 40.158C92.2371 36.9517 85.3463 35.1272 78.0304 35.1272H77.8887V9.0874H78.0304C89.8634 9.0874 101.236 12.0457 111.333 17.5725Z" fill="#F9943A"/>
<path d="M137.444 42.6734L114.858 55.6933C111.103 49.5996 105.86 44.5157 99.6597 40.9197L112.68 18.3519C117.87 21.3456 122.688 25.0479 127.028 29.3878C131.085 33.4444 134.557 37.8906 137.444 42.6734Z" fill="#F9553A"/>
<path d="M146.708 78.4028H121.926C121.589 78.4028 121.306 78.1193 121.306 77.7828C121.2 70.2543 119.163 63.1863 115.655 57.0395L138.241 44.0197C144.069 54.1876 147.222 65.7372 147.328 77.7651C147.328 78.1194 147.045 78.4028 146.708 78.4028Z" fill="#EA2440"/>
<path d="M40.7247 56.4905C40.453 56.9392 40.1932 57.3939 39.9452 57.8545L17.3774 44.8169C17.6254 44.3563 17.8793 43.9016 18.1391 43.4529L40.7247 56.4905Z" fill="white"/>
<path d="M56.3839 40.9374C55.9233 41.1972 55.4745 41.4688 55.0376 41.7523L42 19.1668C42.4488 18.8951 42.8975 18.6294 43.3463 18.3696L56.3839 40.9374Z" fill="white"/>
<path d="M77.8889 9.0874V35.1272C77.3693 35.1272 76.8497 35.139 76.3301 35.1626V9.12283C76.8497 9.09921 77.3693 9.0874 77.8889 9.0874Z" fill="white"/>
<path d="M112.679 18.3519L99.6595 40.9197C99.199 40.6599 98.7384 40.406 98.2778 40.158L111.333 17.5725C111.782 17.8323 112.231 18.0921 112.679 18.3519Z" fill="white"/>
<path d="M138.241 44.0196L115.656 57.0395C115.408 56.5907 115.142 56.142 114.858 55.6932L137.444 42.6733C137.716 43.1221 137.981 43.5709 138.241 44.0196Z" fill="white"/>
<path d="M4.78281 69.4039L5.10167 66.9771L6.0228 67.0833L5.56223 70.6616L0 69.953L0.141714 68.8016L4.78281 69.4039Z" fill="white"/>
<path fill-rule="evenodd" clip-rule="evenodd" d="M4.30471 61.7338C4.84794 61.84 5.3026 62.029 5.66869 62.3006C6.0466 62.5722 6.31231 62.9029 6.46583 63.2926C6.61935 63.6941 6.64888 64.1252 6.5544 64.5857C6.47173 65.0463 6.28869 65.436 6.00526 65.7549C5.71003 66.0737 5.33803 66.2922 4.88927 66.4103C4.45232 66.5284 3.96814 66.5343 3.43671 66.428L3.15329 66.3749C2.61006 66.2686 2.15539 66.0796 1.7893 65.808C1.4114 65.5364 1.14569 65.1998 0.992166 64.7983C0.838643 64.3968 0.80912 63.9657 0.903595 63.5052C0.986261 63.0446 1.17521 62.6608 1.47045 62.3538C1.75387 62.0349 2.11996 61.8164 2.56872 61.6983C3.01748 61.5802 3.51347 61.5743 4.05671 61.6806L4.30471 61.7338ZM3.84414 62.832C3.26548 62.7258 2.80491 62.7494 2.46244 62.9029C2.11996 63.0446 1.9133 63.3103 1.84244 63.7C1.77159 64.0779 1.86016 64.3968 2.10815 64.6566C2.36796 64.9282 2.7872 65.1172 3.36586 65.2234L3.63157 65.2766C4.18661 65.3829 4.64127 65.3652 4.99556 65.2234C5.34984 65.0699 5.56241 64.8042 5.63327 64.4263C5.70412 64.0366 5.60965 63.7118 5.34984 63.452C5.09003 63.1922 4.6767 63.0033 4.10985 62.8852L3.84414 62.832Z" fill="white"/>
<path d="M6.69604 56.8801L3.06465 55.0733L3.3835 53.9573L8.44974 56.6675L8.13089 57.7835L4.26921 57.6595L7.63489 59.5549L7.31604 60.6709L1.57666 60.3521L1.89551 59.2361L5.93434 59.5904L2.33837 57.6241L2.60408 56.6853L6.69604 56.8801Z" fill="white"/>
<path d="M63.2751 1.36399L65.3831 5.1371L66.1094 0.885707L67.5973 0.619995L68.5362 6.16452L67.4025 6.35937L67.1368 4.83596L66.8179 2.21427L66.0208 6.58966L65.2414 6.71366L63.0448 2.85198L63.6117 5.43824L63.8597 6.96165L62.726 7.15651L61.7871 1.61199L63.2751 1.36399Z" fill="white"/>
<path d="M72.5925 3.34797L70.3782 3.56054L70.5199 5.04852L73.1062 4.81824L73.1947 5.73937L69.4571 6.07594L68.9434 0.495991L72.681 0.159424L72.7696 1.08056L70.1833 1.32855L70.2896 2.65711L72.5039 2.44455L72.5925 3.34797Z" fill="white"/>
<path fill-rule="evenodd" clip-rule="evenodd" d="M73.7795 5.704L73.6201 0.0886211L75.3561 0.0354782C75.8521 0.0236688 76.295 0.124051 76.6847 0.336621C77.0862 0.54919 77.3991 0.856234 77.6235 1.25775C77.8479 1.65927 77.9719 2.12575 77.9955 2.65717V2.90517C78.0073 3.42478 77.9128 3.89125 77.7121 4.30458C77.5113 4.71791 77.222 5.04267 76.8441 5.27886C76.4544 5.51505 76.0174 5.63905 75.5333 5.65086L73.7795 5.704ZM74.7893 0.992043L74.8955 4.74744L75.4624 4.72972C75.9111 4.71791 76.2536 4.55849 76.4898 4.25144C76.7142 3.9562 76.8205 3.53107 76.8087 2.97602V2.67488C76.785 2.10803 76.6551 1.68289 76.419 1.39947C76.171 1.10423 75.8167 0.968424 75.3561 0.992043H74.7893Z" fill="white"/>
<path d="M80.0679 5.63309L78.9165 5.61538L79.0228 0L80.1919 0.0354277L80.0679 5.63309Z" fill="white"/>
<path d="M85.719 0.35424L85.4533 4.03878C85.406 4.65287 85.1816 5.12525 84.7801 5.45591C84.3668 5.78657 83.8295 5.92828 83.1681 5.88105C82.5186 5.83381 82.0108 5.62124 81.6447 5.24334C81.2905 4.86544 81.131 4.37535 81.1665 3.77307L81.4322 0.0531006L82.5836 0.123956L82.3179 3.82621C82.2943 4.1923 82.3651 4.46392 82.5304 4.64106C82.684 4.8182 82.9202 4.91858 83.239 4.9422C83.8885 4.98944 84.2428 4.67649 84.3019 4.00335L84.5498 0.26567L85.719 0.35424Z" fill="white"/>
<path d="M88.4999 0.690855L89.297 4.92453L91.3341 1.13371L92.8398 1.36399L91.9896 6.90851L90.8381 6.73137L91.0684 5.20796L91.5821 2.60398L89.4564 6.5188L88.677 6.3948L87.809 2.03713L87.5256 4.65882L87.2953 6.18223L86.1616 6.00509L87.0119 0.460571L88.4999 0.690855Z" fill="white"/>
<path d="M148.196 59.0589L147.842 57.9429L150.145 57.2344L149.472 55.091L147.187 55.7995L146.833 54.6835L152.2 53.0361L152.536 54.1344L150.375 54.8075L151.031 56.9687L153.21 56.2955L153.546 57.3938L148.196 59.0589Z" fill="white"/>
<path d="M148.693 61.1669L148.409 60.0332L153.865 58.6692L154.149 59.7852L148.693 61.1669Z" fill="white"/>
<path d="M150.517 66.3394C150.234 66.1859 149.986 65.9379 149.773 65.5954C149.56 65.253 149.413 64.8515 149.33 64.3909C149.236 63.9185 149.253 63.4816 149.383 63.08C149.525 62.6785 149.773 62.3419 150.127 62.0703C150.493 61.7987 150.942 61.6039 151.474 61.4858L151.846 61.4149C152.389 61.3086 152.885 61.3086 153.334 61.4149C153.771 61.5212 154.131 61.7279 154.414 62.0349C154.686 62.342 154.869 62.7317 154.963 63.204C155.093 63.8536 155.04 64.3909 154.804 64.816C154.568 65.253 154.154 65.56 153.564 65.7372L153.351 64.6389C153.658 64.5326 153.865 64.3791 153.971 64.1783C154.089 63.9776 154.119 63.7237 154.06 63.4166C153.977 63.0269 153.776 62.7612 153.458 62.6195C153.127 62.4778 152.672 62.4601 152.094 62.5663L151.739 62.6372C151.161 62.7553 150.747 62.9501 150.499 63.2218C150.251 63.5052 150.169 63.8536 150.251 64.2669C150.334 64.692 150.482 64.9814 150.694 65.1349L151.651 64.94L151.438 63.9126L152.288 63.7532L152.714 65.9143L150.517 66.3394Z" fill="white"/>
<path d="M150.499 71.8484L150.358 70.697L152.749 70.4136L152.466 68.1639L150.092 68.4651L149.95 67.3136L155.512 66.6405L155.654 67.7919L153.404 68.0576L153.67 70.2896L155.92 70.0239L156.062 71.1753L150.499 71.8484Z" fill="white"/>
</g>
<defs>
<clipPath id="clip0_386_35">
<rect width="157" height="79" fill="white"/>
</clipPath>
</defs>
</svg>
