<svg width="32" height="36" viewBox="0 0 32 36" fill="none" xmlns="http://www.w3.org/2000/svg">
<path d="M9.6665 7.95413C9.10018 7.95413 8.629 7.48295 8.629 6.91663V2.16663C8.629 1.6003 9.10018 1.12913 9.6665 1.12913C10.2328 1.12913 10.704 1.6003 10.704 2.16663V6.91663C10.704 7.48295 10.2328 7.95413 9.6665 7.95413Z" fill="black" stroke="white" stroke-width="0.3"/>
<path d="M22.3335 7.95413C21.7672 7.95413 21.296 7.48295 21.296 6.91663V2.16663C21.296 1.6003 21.7672 1.12913 22.3335 1.12913C22.8998 1.12913 23.371 1.6003 23.371 2.16663V6.91663C23.371 7.48295 22.8998 7.95413 22.3335 7.95413Z" fill="black" stroke="white" stroke-width="0.3"/>
<path d="M9.91436 21.6933L9.91438 21.6932L9.91051 21.6917C9.72842 21.6217 9.5865 21.5239 9.43899 21.3918C9.18047 21.1169 9.025 20.7589 9.025 20.3751C9.025 20.192 9.06735 20.0058 9.14013 19.8311C9.21159 19.6596 9.3114 19.5017 9.44042 19.3571C9.58742 19.2256 9.72901 19.1282 9.91051 19.0584L9.91053 19.0585L9.91436 19.0569C10.4297 18.8421 11.0761 18.9579 11.475 19.3555C11.7346 19.6303 11.8917 20.005 11.8917 20.3751C11.8917 20.4568 11.8779 20.5556 11.8618 20.6687C11.8485 20.747 11.822 20.8272 11.7808 20.9097L11.7761 20.9192L11.7727 20.9293C11.7458 21.01 11.7046 21.0931 11.6477 21.1785L11.6476 21.1784L11.6439 21.1846C11.6268 21.213 11.6019 21.2448 11.5691 21.2833C11.5599 21.2942 11.5496 21.3061 11.5387 21.3187C11.5171 21.3436 11.4935 21.3709 11.4722 21.3971C11.198 21.6535 10.8259 21.8084 10.4583 21.8084C10.2753 21.8084 10.089 21.7661 9.91436 21.6933Z" fill="black" stroke="white" stroke-width="0.3"/>
<path d="M15.4559 21.693L15.4559 21.6929L15.452 21.6915C15.2699 21.6214 15.128 21.5237 14.9805 21.3915C14.722 21.1166 14.5665 20.7586 14.5665 20.3748C14.5665 20.1917 14.6089 20.0055 14.6816 19.8308C14.7531 19.6593 14.8529 19.5014 14.9819 19.3568C15.1289 19.2253 15.2705 19.1279 15.452 19.0581L15.4521 19.0583L15.4591 19.0552C15.9698 18.8282 16.6154 18.9554 17.0165 19.3553C17.2761 19.63 17.4332 20.0047 17.4332 20.3748C17.4332 20.4565 17.4194 20.5553 17.4033 20.6684C17.39 20.7467 17.3635 20.827 17.3223 20.9094L17.3176 20.9189L17.3142 20.929C17.2873 21.0097 17.2461 21.0928 17.1892 21.1782L17.1891 21.1782L17.1854 21.1843C17.1683 21.2127 17.1434 21.2445 17.1107 21.2831C17.1014 21.2939 17.0911 21.3059 17.0802 21.3184C17.0586 21.3433 17.035 21.3706 17.0137 21.3968C16.7395 21.6532 16.3674 21.8081 15.9998 21.8081C15.8168 21.8081 15.6305 21.7658 15.4559 21.693Z" fill="black" stroke="white" stroke-width="0.3"/>
<path d="M20.9979 21.693L20.9979 21.6929L20.994 21.6915C20.8138 21.6221 20.6729 21.5257 20.527 21.3955L20.4398 21.2865L20.349 21.173C20.2938 21.0894 20.2538 21.0081 20.2275 20.929L20.2241 20.9189L20.2193 20.9094C20.1781 20.827 20.1516 20.7467 20.1384 20.6684C20.1222 20.5553 20.1085 20.4565 20.1085 20.3748C20.1085 20.006 20.2645 19.6326 20.5225 19.3581C20.67 19.2259 20.8119 19.1282 20.994 19.0581L20.9941 19.0582L20.9997 19.0558C21.5273 18.8276 22.1577 18.9557 22.5585 19.3553C22.8181 19.63 22.9752 20.0047 22.9752 20.3748C22.9752 20.4565 22.9614 20.5553 22.9453 20.6684C22.932 20.7467 22.9055 20.827 22.8643 20.9094L22.8596 20.9189L22.8562 20.929C22.8293 21.0097 22.7881 21.0928 22.7312 21.1782L22.731 21.1782L22.7274 21.1843C22.7103 21.2127 22.6854 21.2445 22.6526 21.2831C22.6434 21.2939 22.6331 21.3059 22.6222 21.3184C22.6006 21.3433 22.577 21.3706 22.5557 21.3968C22.2815 21.6532 21.9094 21.8081 21.5418 21.8081C21.3588 21.8081 21.1725 21.7658 20.9979 21.693Z" fill="black" stroke="white" stroke-width="0.3"/>
<path d="M9.14013 25.3724L9.14018 25.3725L9.14167 25.3686C9.214 25.1805 9.31389 25.0248 9.44023 24.8985C9.70071 24.638 10.076 24.503 10.4583 24.503C10.84 24.503 11.2146 24.6375 11.475 24.897C11.7346 25.1718 11.8917 25.5463 11.8917 25.9164C11.8917 26.2858 11.7351 26.6599 11.4764 26.9345C11.2018 27.1932 10.8278 27.3497 10.4583 27.3497C10.2752 27.3497 10.0889 27.3075 9.91436 27.2348C9.74237 27.1631 9.584 27.0628 9.43898 26.9331C9.18101 26.6586 9.025 26.2852 9.025 25.9164C9.025 25.7333 9.06735 25.5471 9.14013 25.3724Z" fill="black" stroke="white" stroke-width="0.3"/>
<path d="M14.6816 25.3724L14.6817 25.3725L14.6832 25.3686C14.7555 25.1805 14.8554 25.0248 14.9817 24.8985C15.2422 24.638 15.6175 24.503 15.9998 24.503C16.3822 24.503 16.7575 24.638 17.0179 24.8985C17.1443 25.0248 17.2442 25.1805 17.3165 25.3686L17.3164 25.3686L17.318 25.3724C17.3908 25.5471 17.4332 25.7333 17.4332 25.9164C17.4332 26.2858 17.2766 26.6599 17.0179 26.9345C16.7433 27.1932 16.3693 27.3497 15.9998 27.3497C15.6304 27.3497 15.2564 27.1932 14.9818 26.9345C14.723 26.6599 14.5665 26.2858 14.5665 25.9164C14.5665 25.7333 14.6089 25.5471 14.6816 25.3724Z" fill="black" stroke="white" stroke-width="0.3"/>
<path d="M20.2252 26.4643L20.2252 26.4643L20.2236 26.4605C20.1509 26.2858 20.1085 26.0996 20.1085 25.9165C20.1085 25.7334 20.1509 25.5472 20.2236 25.3725L20.2237 25.3726L20.2252 25.3687C20.2975 25.1806 20.3974 25.0247 20.5237 24.8984C20.8534 24.5687 21.3561 24.412 21.8106 24.5114L21.8105 24.5118L21.8214 24.5133C21.915 24.5267 21.9945 24.5531 22.0764 24.594L22.0859 24.5988L22.0961 24.6022C22.1768 24.6291 22.2599 24.6702 22.3453 24.7272L22.3452 24.7273L22.3513 24.731C22.3798 24.748 22.4116 24.7729 22.4501 24.8057C22.461 24.8149 22.4729 24.8253 22.4854 24.8361C22.5104 24.8577 22.5377 24.8814 22.5638 24.9026C22.8202 25.1768 22.9752 25.549 22.9752 25.9165C22.9752 26.2859 22.8186 26.66 22.5599 26.9346C22.2853 27.1933 21.9113 27.3499 21.5418 27.3499C21.1717 27.3499 20.797 27.1928 20.5223 26.9332C20.3967 26.8071 20.2972 26.6517 20.2252 26.4643Z" fill="black" stroke="white" stroke-width="0.3"/>
<path d="M29.4582 14.4297H2.5415C1.97518 14.4297 1.504 13.9585 1.504 13.3922C1.504 12.8259 1.97518 12.3547 2.5415 12.3547H29.4582C30.0245 12.3547 30.4957 12.8259 30.4957 13.3922C30.4957 13.9585 30.0245 14.4297 29.4582 14.4297Z" fill="black" stroke="white" stroke-width="0.3"/>
<path d="M22.3333 34.8708H9.66667C6.80556 34.8708 4.57188 34.0482 3.05346 32.5298C1.53504 31.0114 0.7125 28.7777 0.7125 25.9166V12.4583C0.7125 9.59718 1.53504 7.36351 3.05346 5.84509C4.57188 4.32667 6.80556 3.50413 9.66667 3.50413H22.3333C25.1944 3.50413 27.4281 4.32667 28.9465 5.84509C30.465 7.36351 31.2875 9.59718 31.2875 12.4583V25.9166C31.2875 28.7777 30.465 31.0114 28.9465 32.5298C27.4281 34.0482 25.1944 34.8708 22.3333 34.8708ZM9.66667 5.57913C7.38045 5.57913 5.65273 6.13468 4.49789 7.28952C3.34306 8.44435 2.7875 10.1721 2.7875 12.4583V25.9166C2.7875 28.2028 3.34306 29.9306 4.49789 31.0854C5.65273 32.2402 7.38045 32.7958 9.66667 32.7958H22.3333C24.6195 32.7958 26.3473 32.2402 27.5021 31.0854C28.6569 29.9306 29.2125 28.2028 29.2125 25.9166V12.4583C29.2125 10.1721 28.6569 8.44435 27.5021 7.28952C26.3473 6.13468 24.6195 5.57913 22.3333 5.57913H9.66667Z" fill="black" stroke="white" stroke-width="0.3"/>
</svg>
