<svg width="79" height="88" viewBox="0 0 79 88" fill="none" xmlns="http://www.w3.org/2000/svg">
<path d="M79 52.1213C78.9998 50.417 78.5575 48.3642 77.8704 46.1107C77.3795 44.5007 75.2171 44.1974 74.3078 45.6139C74.2804 45.6564 74.2529 45.6991 74.2252 45.7415C73.3826 47.0397 71.4021 46.7182 71.0011 45.2233C68.4234 35.6153 62.6896 22.8412 65.6274 17.5714C66.1467 16.6402 65.432 15.493 64.3682 15.5648C61.9558 15.7275 59.2179 16.7831 56.7447 18.6198C56.0973 19.1006 55.211 18.9535 54.7668 18.2805L44.5391 2.78412C42.0891 -0.928039 36.6423 -0.928039 34.1922 2.78412L21.5019 22.012C20.9862 22.7931 19.8554 22.8425 19.2761 22.1073C17.6848 20.0874 16.0644 18.3799 14.6112 17.1125C13.5455 16.1828 11.9396 17.2579 12.4041 18.5935C14.7668 25.3853 11.5408 33.9313 8.937 42.2298C8.69147 42.8334 8.3834 44.0775 8.07927 45.6638C7.78026 47.2229 5.74323 47.6521 4.84979 46.3397C4.83305 46.3151 4.81648 46.2907 4.7999 46.2661C3.81847 44.8159 1.5718 45.2687 1.21846 46.9837C0.198406 51.9344 -0.611824 59.004 0.627271 61.3811C4.42879 75.4707 19.3345 87.1398 39.3375 87.1398H39.3377C39.3423 87.1398 39.3469 87.1396 39.3517 87.1396C39.3563 87.1396 39.3611 87.1398 39.3657 87.1398C39.4107 87.1398 39.4553 87.1381 39.5002 87.1381C63.6738 87.0613 80.3623 69.9346 78.9079 52.1429C78.9383 52.1348 78.9699 52.1294 79 52.1213Z" fill="url(#paint0_linear_42_47843)"/>
<path d="M64.7094 50.0963C62.5641 43.2591 59.9066 36.2184 61.843 30.6192C62.2271 29.5086 60.9142 28.6065 60.0286 29.3789C58.8302 30.4244 57.4937 31.8325 56.1813 33.4986C55.7034 34.105 54.7707 34.0643 54.3454 33.42L43.8779 17.5602C41.8569 14.4982 37.3642 14.4982 35.3434 17.5602L26.9073 30.3421C26.5437 30.8929 25.7965 31.0079 25.2661 30.6149C23.229 29.1045 20.9748 28.2362 18.9883 28.1022C18.0957 28.0419 17.5348 29.0001 17.9643 29.7849C21.0004 35.3326 12.5557 50.8146 12.5552 58.2554C12.5757 58.262 12.5972 58.2665 12.6181 58.273C11.6236 72.9813 23.0607 87.1398 39.6106 87.1398H39.6107C53.2558 87.1398 63.4237 77.5148 66.0168 65.8931C67.2385 63.0593 65.5395 52.1375 64.7094 50.0963Z" fill="url(#paint1_linear_42_47843)"/>
<path d="M12.5552 58.2554C12.5757 58.262 12.5972 58.2665 12.6181 58.273C11.6236 72.9813 23.0607 87.1399 39.6106 87.1399H39.6107C53.2558 87.1399 63.4237 77.5148 66.0168 65.8931C67.2387 63.0594 65.5396 52.1375 64.7094 50.0964C64.0656 48.0446 63.3765 45.9748 62.7783 43.9308H16.201C14.5102 49.2325 12.5553 54.6748 12.5552 58.2554Z" fill="url(#paint2_linear_42_47843)"/>
<path d="M37.4748 49.3231L27.5419 64.373C21.1001 74.1332 28.0998 87.1397 39.794 87.1397C51.4881 87.1397 58.4878 74.1332 52.0462 64.3732L42.1132 49.3233C41.0149 47.6589 38.5731 47.6589 37.4748 49.3231Z" fill="url(#paint3_linear_42_47843)"/>
<path d="M8.07927 45.6636C7.78026 47.2227 5.74324 47.6518 4.8498 46.3395C4.83305 46.3149 4.81648 46.2905 4.7999 46.2659C3.81847 44.8158 1.5718 45.2686 1.21845 46.9835C0.198406 51.9343 -0.611824 59.004 0.627271 61.3807C4.42862 75.4707 19.3343 87.1398 39.3374 87.1398H39.3375C39.3421 87.1398 39.3468 87.1396 39.3515 87.1396C39.3562 87.1396 39.3609 87.1398 39.3656 87.1398C39.4105 87.1398 39.4551 87.1381 39.5 87.1379C63.6736 87.0612 80.3621 69.9344 78.9077 52.1427C78.9381 52.1348 78.9698 52.1294 78.9998 52.1213C78.9997 50.417 78.5573 48.3643 77.8703 46.1107C77.3794 44.5007 75.2169 44.1974 74.3076 45.6139C74.2803 45.6566 74.2528 45.6991 74.2253 45.7415C73.3826 47.0397 71.4021 46.7182 71.0009 45.2233C70.8871 44.7989 70.7651 44.3664 70.64 43.9305H8.4456C8.32565 44.4406 8.20229 45.0222 8.07927 45.6636Z" fill="url(#paint4_linear_42_47843)"/>
<path d="M73.6785 11.3389C73.4203 10.2322 71.8446 10.2322 71.5864 11.3389C71.0371 13.6937 69.8399 15.8478 68.1301 17.5576C65.6435 20.0442 65.6435 24.0759 68.1301 26.5624C70.6166 29.049 74.6483 29.049 77.1349 26.5624C79.6214 24.0759 79.6214 20.0442 77.1349 17.5576C75.425 15.8478 74.2278 13.6937 73.6785 11.3389Z" fill="url(#paint5_linear_42_47843)"/>
<path d="M68.1302 26.5624C70.6167 29.049 74.6484 29.049 77.135 26.5624C78.4672 25.2302 79.0847 23.4548 78.9895 21.7109H66.2756C66.1805 23.4548 66.798 25.2302 68.1302 26.5624Z" fill="url(#paint6_linear_42_47843)"/>
<path d="M18.3386 15.0641C21.0279 15.0641 23.2081 12.884 23.2081 10.1947C23.2081 7.50543 21.0279 5.32532 18.3386 5.32532C15.6493 5.32532 13.4692 7.50543 13.4692 10.1947C13.4692 12.884 15.6493 15.0641 18.3386 15.0641Z" fill="url(#paint7_linear_42_47843)"/>
<path d="M21.3853 64.0726L26.4758 71.2067C26.6615 71.504 26.7731 71.8012 26.7731 72.0985C26.7731 73.4362 24.841 74.9596 23.4662 74.9596C22.9089 74.9596 22.4258 74.7366 22.0915 74.2536L17.5954 67.6024L15.7003 69.3488V72.8045C15.7003 73.6962 14.3999 74.5879 12.7649 74.5879C11.1299 74.5879 9.94092 73.6962 9.94092 72.8045V48.5408C9.94092 47.5004 11.1299 46.7944 12.7649 46.7944C14.3997 46.7944 15.7003 47.5004 15.7003 48.5408V63.1065L21.8685 57.1243C22.1658 56.827 22.5745 56.6783 22.9832 56.6783C24.2465 56.6783 25.77 58.2019 25.77 59.428C25.77 59.7996 25.6213 60.134 25.324 60.4313L21.3853 64.0726Z" fill="url(#paint8_linear_42_47843)"/>
<path d="M27.9258 67.0821V64.5554C27.9258 60.1337 30.4525 56.678 36.2861 56.678C39.9275 56.678 42.5656 58.1271 42.5656 59.762C42.5656 60.8397 41.6739 62.5861 40.3362 62.5861C39.4445 62.5861 38.7755 61.6943 36.7691 61.6943C34.5397 61.6943 33.685 62.7347 33.685 64.5554V67.0821C33.685 68.9028 34.5395 69.9432 36.8062 69.9432C38.8126 69.9432 39.3329 68.9399 40.3362 68.9399C41.8967 68.9399 42.7886 70.5749 42.7886 71.6896C42.7886 73.3617 39.9646 74.9594 36.3604 74.9594C30.4525 74.9596 27.9258 71.5782 27.9258 67.0821Z" fill="url(#paint9_linear_42_47843)"/>
<path d="M59.7696 63.961V72.8045C59.7696 73.8078 58.5806 74.588 56.9458 74.588C55.4967 74.588 54.382 73.8077 54.382 72.8045V71.9871C53.0443 73.5478 51.335 74.9596 48.7342 74.9596C46.1704 74.9596 43.978 73.3989 43.978 70.0178C43.978 65.6333 47.5451 64.407 52.6727 64.407H54.0104V64.0355C54.0104 62.7722 53.3415 61.2858 51.2236 61.2858C48.1766 61.2858 47.8795 62.5119 46.8762 62.5119C45.6128 62.5119 44.9439 60.9885 44.9439 59.6508C44.9439 57.9045 48.5483 56.6783 51.2979 56.6783C57.3916 56.6782 59.7696 60.2082 59.7696 63.961ZM54.0102 67.1937H53.8616C51.7436 67.1937 49.7744 67.4167 49.7744 69.2003C49.7744 70.2778 50.3688 70.7608 51.2234 70.7608C52.3754 70.7608 54.0102 69.2374 54.0102 67.3424V67.1937Z" fill="url(#paint10_linear_42_47843)"/>
<path d="M69.0591 48.5408V72.8045C69.0591 73.6962 67.7586 74.5879 66.1609 74.5879C64.4888 74.5879 63.2998 73.6962 63.2998 72.8045V48.5408C63.2998 47.5004 64.4888 46.7944 66.1609 46.7944C67.7586 46.7944 69.0591 47.5004 69.0591 48.5408Z" fill="url(#paint11_linear_42_47843)"/>
<defs>
<linearGradient id="paint0_linear_42_47843" x1="21.3681" y1="23.3515" x2="49.4304" y2="63.8305" gradientUnits="userSpaceOnUse">
<stop stop-color="#FEF0AE"/>
<stop offset="1" stop-color="#FAC600"/>
</linearGradient>
<linearGradient id="paint1_linear_42_47843" x1="31.5778" y1="37.7355" x2="47.6819" y2="68.0002" gradientUnits="userSpaceOnUse">
<stop stop-color="#FEF0AE"/>
<stop offset="1" stop-color="#FAC600"/>
</linearGradient>
<linearGradient id="paint2_linear_42_47843" x1="38.3858" y1="56.3455" x2="49.2144" y2="84.9441" gradientUnits="userSpaceOnUse">
<stop stop-color="#FEA613" stop-opacity="0"/>
<stop offset="0.2409" stop-color="#FDA315" stop-opacity="0.241"/>
<stop offset="0.4349" stop-color="#FB991A" stop-opacity="0.435"/>
<stop offset="0.6125" stop-color="#F88822" stop-opacity="0.613"/>
<stop offset="0.7804" stop-color="#F2702E" stop-opacity="0.78"/>
<stop offset="0.94" stop-color="#EC523D" stop-opacity="0.94"/>
<stop offset="1" stop-color="#E94444"/>
</linearGradient>
<linearGradient id="paint3_linear_42_47843" x1="30.8992" y1="37.2393" x2="43.6715" y2="87.7729" gradientUnits="userSpaceOnUse">
<stop stop-color="#FEA613" stop-opacity="0"/>
<stop offset="0.2409" stop-color="#FDA315" stop-opacity="0.241"/>
<stop offset="0.4349" stop-color="#FB991A" stop-opacity="0.435"/>
<stop offset="0.6125" stop-color="#F88822" stop-opacity="0.613"/>
<stop offset="0.7804" stop-color="#F2702E" stop-opacity="0.78"/>
<stop offset="0.94" stop-color="#EC523D" stop-opacity="0.94"/>
<stop offset="1" stop-color="#E94444"/>
</linearGradient>
<linearGradient id="paint4_linear_42_47843" x1="39.4999" y1="56.3845" x2="39.4999" y2="87.1398" gradientUnits="userSpaceOnUse">
<stop stop-color="#FEA613" stop-opacity="0"/>
<stop offset="0.2409" stop-color="#FDA315" stop-opacity="0.241"/>
<stop offset="0.4349" stop-color="#FB991A" stop-opacity="0.435"/>
<stop offset="0.6125" stop-color="#F88822" stop-opacity="0.613"/>
<stop offset="0.7804" stop-color="#F2702E" stop-opacity="0.78"/>
<stop offset="0.94" stop-color="#EC523D" stop-opacity="0.94"/>
<stop offset="1" stop-color="#E94444"/>
</linearGradient>
<linearGradient id="paint5_linear_42_47843" x1="69.3703" y1="17.2971" x2="77.6107" y2="25.5374" gradientUnits="userSpaceOnUse">
<stop stop-color="#FEF0AE"/>
<stop offset="1" stop-color="#FAC600"/>
</linearGradient>
<linearGradient id="paint6_linear_42_47843" x1="72.6326" y1="23.4823" x2="72.6326" y2="29.9187" gradientUnits="userSpaceOnUse">
<stop stop-color="#FEA613" stop-opacity="0"/>
<stop offset="0.2409" stop-color="#FDA315" stop-opacity="0.241"/>
<stop offset="0.4349" stop-color="#FB991A" stop-opacity="0.435"/>
<stop offset="0.6125" stop-color="#F88822" stop-opacity="0.613"/>
<stop offset="0.7804" stop-color="#F2702E" stop-opacity="0.78"/>
<stop offset="0.94" stop-color="#EC523D" stop-opacity="0.94"/>
<stop offset="1" stop-color="#E94444"/>
</linearGradient>
<linearGradient id="paint7_linear_42_47843" x1="16.6124" y1="8.16386" x2="20.9691" y2="13.2894" gradientUnits="userSpaceOnUse">
<stop stop-color="#FEF0AE"/>
<stop offset="1" stop-color="#FAC600"/>
</linearGradient>
<linearGradient id="paint8_linear_42_47843" x1="16.9208" y1="62.9544" x2="21.5338" y2="78.3314" gradientUnits="userSpaceOnUse">
<stop stop-color="#FFFAF8"/>
<stop offset="1" stop-color="#FFDFCF"/>
</linearGradient>
<linearGradient id="paint9_linear_42_47843" x1="33.4248" y1="58.0034" x2="38.0379" y2="73.3801" gradientUnits="userSpaceOnUse">
<stop stop-color="#FFFAF8"/>
<stop offset="1" stop-color="#FFDFCF"/>
</linearGradient>
<linearGradient id="paint10_linear_42_47843" x1="47.9089" y1="53.6582" x2="52.522" y2="69.035" gradientUnits="userSpaceOnUse">
<stop stop-color="#FFFAF8"/>
<stop offset="1" stop-color="#FFDFCF"/>
</linearGradient>
<linearGradient id="paint11_linear_42_47843" x1="62.7438" y1="49.2077" x2="67.3568" y2="64.5845" gradientUnits="userSpaceOnUse">
<stop stop-color="#FFFAF8"/>
<stop offset="1" stop-color="#FFDFCF"/>
</linearGradient>
</defs>
</svg>
