<svg width="28" height="28" viewBox="0 0 28 28" fill="none" xmlns="http://www.w3.org/2000/svg">
<g clip-path="url(#clip0_128_18887)">
<path d="M16.5652 14.0229L27.4679 3.1199C28.1774 2.41071 28.1774 1.26404 27.4679 0.554844C26.7587 -0.154349 25.612 -0.154349 24.9028 0.554844L13.9998 11.4578L3.0972 0.554844C2.38767 -0.154349 1.24134 -0.154349 0.532144 0.554844C-0.177381 1.26404 -0.177381 2.41071 0.532144 3.1199L11.4348 14.0229L0.532144 24.9259C-0.177381 25.635 -0.177381 26.7817 0.532144 27.4909C0.885578 27.8447 1.35029 28.0224 1.81467 28.0224C2.27905 28.0224 2.74343 27.8447 3.0972 27.4909L13.9998 16.5879L24.9028 27.4909C25.2566 27.8447 25.721 28.0224 26.1853 28.0224C26.6497 28.0224 27.1141 27.8447 27.4679 27.4909C28.1774 26.7817 28.1774 25.635 27.4679 24.9259L16.5652 14.0229Z" fill="white"/>
</g>
<defs>
<clipPath id="clip0_128_18887">
<rect width="28" height="28" fill="white"/>
</clipPath>
</defs>
</svg>
