<svg width="60" height="60" viewBox="0 0 60 60" fill="none" xmlns="http://www.w3.org/2000/svg">
<path d="M48.9192 44.3725L38.7939 41.3945C37.5673 41.0338 36.7251 39.908 36.7251 38.6295V34.0612H23.2752V38.6295C23.2752 39.908 22.4329 41.0337 21.2064 41.3945L11.0811 44.3725C8.62805 45.094 6.94336 47.3454 6.94336 49.9025V57.1178C6.94336 58.7096 8.23371 60 9.82547 60H50.1749C51.7666 60 53.057 58.7096 53.057 57.1178V49.9025C53.057 47.3454 51.3724 45.094 48.9192 44.3725Z" fill="#E3AA75"/>
<path d="M48.9192 44.3726L38.7939 41.3946C38.6227 41.3442 38.4611 41.2758 38.3062 41.1973L29.9997 42.7075L21.6941 41.1973C21.5392 41.2758 21.3776 41.3442 21.2064 41.3946L11.0811 44.3726C8.62793 45.0941 6.94336 47.3455 6.94336 49.9026V57.118C6.94336 58.7097 8.23371 60 9.82547 60H50.1749C51.7666 60 53.057 58.7097 53.057 57.1179V49.9024C53.057 47.3455 51.3724 45.0941 48.9192 44.3726Z" fill="#E6646E"/>
<path d="M18.6378 43.596L23.3979 47.6762C24.094 48.2728 24.9817 48.6014 25.8977 48.6014C27.0721 48.6014 28.1663 48.0757 28.8996 47.1592L30.0003 45.7832L31.101 47.1591C31.8343 48.0757 32.9283 48.6013 34.1029 48.6013C35.0189 48.6013 35.9066 48.2727 36.6027 47.6761L41.3628 43.596C41.7488 43.265 42.0146 42.8427 42.1637 42.3855L38.7941 41.3945C38.6229 41.3441 38.4613 41.2757 38.3063 41.1971L29.9998 42.7073L21.6943 41.1971C21.5393 41.2757 21.3777 41.3441 21.2065 41.3945L17.8369 42.3855C17.986 42.8428 18.2518 43.2652 18.6378 43.596Z" fill="#DC4655"/>
<path d="M23.2754 36.205C25.2937 37.2831 27.5826 37.904 30.0003 37.904C32.418 37.904 34.7069 37.2831 36.7253 36.205V34.0612H23.2754V36.205Z" fill="#D29B6E"/>
<path d="M42.9695 19.6506H42.4891V9.08289H17.511V19.6505H17.0307C15.7042 19.6505 14.6289 20.7258 14.6289 22.0523C14.6289 23.3787 15.7042 24.454 17.0307 24.454H17.5595C18.0516 30.9011 23.4269 35.9824 30.0001 35.9824C36.5732 35.9824 41.9485 30.9011 42.4406 24.454H42.9695C44.2959 24.454 45.3712 23.3787 45.3712 22.0523C45.3712 20.726 44.296 19.6506 42.9695 19.6506Z" fill="#F5B97D"/>
<path d="M38.6463 11.0043V9.08289H17.5109V19.6505H17.1677C15.9113 19.6505 14.7665 20.5544 14.6414 21.8044C14.4973 23.2421 15.6224 24.4539 17.0307 24.4539H17.5596C18.0516 30.901 23.4269 35.9823 30.0001 35.9823C30.6573 35.9823 31.2981 35.9183 31.9275 35.8203C25.9416 34.8965 21.3537 29.7376 21.3537 23.4931V16.7682C21.3537 14.6459 23.0742 12.9254 25.1966 12.9254H36.7249C37.786 12.9257 38.6463 12.0655 38.6463 11.0043Z" fill="#E3AA75"/>
<path d="M29.9997 42.7074L22.2305 38.3912C21.7524 38.1255 21.1494 38.3121 20.9047 38.8013L19.7003 41.21C19.5426 41.5255 19.6198 41.9077 19.8876 42.1372L24.6478 46.2173C25.4729 46.9245 26.7198 46.8074 27.3985 45.9588L29.9997 42.7074Z" fill="#E6646E"/>
<path d="M30 42.7074L37.7692 38.3912C38.2473 38.1255 38.8504 38.3121 39.0951 38.8013L40.2994 41.21C40.4571 41.5255 40.3799 41.9077 40.1121 42.1372L35.352 46.2173C34.5268 46.9245 33.28 46.8074 32.6012 45.9588L30 42.7074Z" fill="#E6646E"/>
<path d="M24.2361 22.6161C23.7051 22.6161 23.2754 22.1859 23.2754 21.6554V20.6947C23.2754 20.1642 23.7051 19.734 24.2361 19.734C24.7671 19.734 25.1968 20.1642 25.1968 20.6947V21.6554C25.1968 22.186 24.7672 22.6161 24.2361 22.6161Z" fill="#5A4650"/>
<path d="M35.7644 22.6161C35.2334 22.6161 34.8037 22.1859 34.8037 21.6554V20.6947C34.8037 20.1642 35.2334 19.734 35.7644 19.734C36.2954 19.734 36.7251 20.1642 36.7251 20.6947V21.6554C36.7251 22.186 36.2954 22.6161 35.7644 22.6161Z" fill="#5A4650"/>
<path d="M25.1966 18.69H23.2752C22.7442 18.69 22.3145 18.2598 22.3145 17.7293C22.3145 17.1988 22.7442 16.7686 23.2752 16.7686H25.1966C25.7275 16.7686 26.1573 17.1988 26.1573 17.7293C26.1573 18.2598 25.7277 18.69 25.1966 18.69Z" fill="#6E5A64"/>
<path d="M36.7249 18.69H34.8035C34.2725 18.69 33.8428 18.2598 33.8428 17.7293C33.8428 17.1988 34.2725 16.7686 34.8035 16.7686H36.7249C37.2559 16.7686 37.6856 17.1988 37.6856 17.7293C37.6856 18.2598 37.2559 18.69 36.7249 18.69Z" fill="#6E5A64"/>
<path d="M26.2018 25.9752C25.8993 25.9752 25.6746 26.2517 25.7248 26.5499C26.0369 28.3996 27.8321 29.818 29.9999 29.818C32.1678 29.818 33.963 28.3996 34.2751 26.5499C34.3253 26.2517 34.1006 25.9752 33.7981 25.9752H26.2018Z" fill="white"/>
<path d="M29.9998 51.3537C30.5304 51.3537 30.9605 50.9235 30.9605 50.393C30.9605 49.8624 30.5304 49.4323 29.9998 49.4323C29.4692 49.4323 29.0391 49.8624 29.0391 50.393C29.0391 50.9235 29.4692 51.3537 29.9998 51.3537Z" fill="#FFC350"/>
<path d="M29.9998 57.1181C30.5304 57.1181 30.9605 56.6879 30.9605 56.1574C30.9605 55.6268 30.5304 55.1967 29.9998 55.1967C29.4692 55.1967 29.0391 55.6268 29.0391 56.1574C29.0391 56.6879 29.4692 57.1181 29.9998 57.1181Z" fill="#FFC350"/>
<path d="M40.764 7.16162H19.2361C16.3028 7.16162 14.0544 9.76776 14.4845 12.6693L15.5896 20.1254L17.7466 19.8589C18.7093 19.74 19.4324 18.9221 19.4324 17.952V12.9257C19.4324 11.8645 20.2927 11.0043 21.3538 11.0043H38.6464C39.7075 11.0043 40.5678 11.8645 40.5678 12.9257V17.9519C40.5678 18.922 41.291 19.74 42.2537 19.8588L44.4106 20.1253L45.5157 12.6692C45.9457 9.76764 43.6973 7.16162 40.764 7.16162Z" fill="#5A4650"/>
<path d="M42.9396 0.675743C42.7549 0.103633 42.0905 -0.174102 41.5655 0.11875C40.5647 0.677267 38.7042 1.39727 35.7636 1.39727H26.1566C22.4425 1.39727 19.4316 4.40806 19.4316 8.1222C19.4316 9.71396 20.722 11.0043 22.3138 11.0043H37.6849C41.2952 11.0043 44.9053 6.76493 42.9396 0.675743Z" fill="#64505A"/>
<path d="M15.5891 51.3536V60H12.707V54.2358C12.707 52.644 13.9974 51.3536 15.5891 51.3536Z" fill="#DC4655"/>
<path d="M44.4102 51.3536V60H47.2923V54.2358C47.2923 52.644 46.0019 51.3536 44.4102 51.3536Z" fill="#DC4655"/>
<path d="M15.5898 60H19.4327V41.9161L15.5898 43.0464V60Z" fill="#FFE17D"/>
<path d="M44.4112 60H40.5684V41.9161L44.4112 43.0464V60Z" fill="#FFE17D"/>
<path d="M15.5898 60H17.5113V53.275C17.5113 52.2139 16.651 51.3536 15.5898 51.3536V60Z" fill="#FFD164"/>
<path d="M44.4107 60H42.4893V53.275C42.4893 52.2139 43.3495 51.3536 44.4107 51.3536V60Z" fill="#FFD164"/>
<path d="M25.1507 4.74633C25.1653 6.10851 26.3717 7.16156 27.7339 7.16156H40.7635C41.4548 7.16156 42.1058 7.31063 42.6949 7.56996C43.5701 5.79351 43.8284 3.42574 42.9386 0.672059C42.7546 0.102761 42.0906 -0.174388 41.5683 0.11741C40.5681 0.676161 38.7069 1.39745 35.7637 1.39745H26.1567C26.0967 1.43272 26.0287 1.47257 25.9687 1.50784C25.4492 2.46163 25.1504 3.55277 25.1504 4.71539C25.1505 4.72558 25.1506 4.7359 25.1507 4.74633Z" fill="#6E5A64"/>
</svg>
