<svg width="44" height="44" viewBox="0 0 44 44" fill="none" xmlns="http://www.w3.org/2000/svg">
<g clip-path="url(#clip0_57_47960)">
<path d="M42.8555 37.4108L25.6023 20.1575L5.44478 0H3.86946L3.5478 0.817352C2.69882 2.97473 2.33608 5.18126 2.49893 7.19813C2.68455 9.49713 3.55794 11.4875 5.0248 12.9544L20.7608 28.6904L22.8364 26.6148L37.3843 42.8822C38.8315 44.3294 41.3224 44.4153 42.8555 42.8822C44.3641 41.3737 44.3641 38.9193 42.8555 37.4108Z" fill="white"/>
<path d="M13.4688 25.0458L1.14446 37.3702C-0.36391 38.8785 -0.36391 41.333 1.14446 42.8414C2.57739 44.2743 5.05625 44.4008 6.61568 42.8414L18.9401 30.5169L13.4688 25.0458Z" fill="white"/>
<path d="M42.131 7.32607L35.1399 14.3171L33.316 12.4933L40.3071 5.50222L38.4834 3.67845L31.4923 10.6695L29.6686 8.8457L36.6597 1.85469L34.836 0.0310059L25.7172 9.14983C24.6016 10.2654 23.9355 11.7466 23.8413 13.3208C23.8175 13.7196 23.7271 14.112 23.5771 14.4851L29.5007 20.4087C29.8739 20.2585 30.2663 20.1682 30.665 20.1444C32.2392 20.0505 33.7204 19.3842 34.836 18.2687L43.9548 9.14992L42.131 7.32607Z" fill="white"/>
</g>
<defs>
<clipPath id="clip0_57_47960">
<rect width="44" height="44" fill="white"/>
</clipPath>
</defs>
</svg>
