<svg width="62" height="62" viewBox="0 0 62 62" fill="none" xmlns="http://www.w3.org/2000/svg">
<g clip-path="url(#clip0_42_47440)">
<path d="M62 31C62 39.077 58.9097 46.4334 53.8492 51.9504C53.1832 52.6764 49.2985 50.1735 48.5668 50.8332C46.3719 52.8123 47.0776 57.6785 44.3821 58.969C40.3315 60.9126 35.7929 62 31 62C26.2071 62 21.6685 60.9126 17.6179 58.969C14.0239 57.2483 10.8149 54.8543 8.15082 51.9504C3.09031 46.4334 0 39.077 0 31C0 27.7813 0.49043 24.6765 1.40227 21.7569C2.80453 17.2595 5.20461 13.2029 8.34215 9.84371C13.9996 3.7866 22.0572 0 31 0C39.9428 0 48.0004 3.7866 53.6578 9.84371C56.7954 13.2029 59.1955 17.2595 60.5977 21.7569C61.5096 24.6765 62 27.7813 62 31Z" fill="#FFC344"/>
<path d="M60.9419 20.2202C60.8268 20.7325 60.713 21.2447 60.598 21.7569C58.348 31.821 56.0981 41.8863 53.8494 51.9504C51.1854 54.8543 47.9764 57.2483 44.3823 58.969C44.3169 58.9618 44.2527 58.9533 44.1873 58.9448C35.4383 57.7327 26.5621 57.7327 17.8131 58.9448C17.7477 58.9533 17.6836 58.9618 17.6182 58.969C13.2588 59.4728 9.1973 56.6319 8.23582 52.3282C8.20797 52.2023 8.18011 52.0764 8.15105 51.9504C5.90234 41.8863 3.65242 31.821 1.4025 21.7569C1.28746 21.2447 1.17363 20.7325 1.05859 20.2202C-0.0167227 15.4055 3.18015 10.6635 8.05175 9.88852C8.14863 9.87277 8.2455 9.85824 8.34238 9.84371C23.3556 7.48602 38.6449 7.48602 53.6581 9.84371C53.755 9.85824 53.8518 9.87277 53.9487 9.88852C58.8203 10.6635 62.0172 15.4055 60.9419 20.2202Z" fill="#4F66D0"/>
<path d="M40.1006 11.5903H21.8995C19.5633 11.5903 17.6694 13.4841 17.6694 15.8203V20.7949C17.6694 23.131 19.5632 25.0249 21.8995 25.0249H40.1007C42.4369 25.0249 44.3308 23.1311 44.3308 20.7949V15.8203C44.3306 13.4841 42.4369 11.5903 40.1006 11.5903Z" fill="#314DC9"/>
<path d="M41.8434 15.8204V20.7945C41.8434 21.0046 41.8061 21.2061 41.7377 21.3925C41.4927 22.0603 40.8511 20.9399 40.1012 20.9399H21.8989C21.1491 20.9399 20.5074 22.0603 20.2625 21.3925C20.194 21.2061 20.1567 21.0046 20.1567 20.7945V15.8204C20.1567 14.8592 20.9389 14.077 21.8989 14.077H40.1012C41.0612 14.077 41.8434 14.8592 41.8434 15.8204Z" fill="#AFEFE8"/>
<path d="M17.8683 58.9375C17.8496 58.9401 17.831 58.9425 17.8123 58.945C13.3805 59.5581 9.21103 56.6956 8.23489 52.3297C5.84366 41.6256 3.45121 30.9229 1.05864 20.2201C-0.0182503 15.4065 3.17875 10.6639 8.05083 9.88912C9.24954 9.69888 10.4508 9.52233 11.6533 9.36188C7.51863 10.8454 4.99806 15.2387 5.99405 19.6915C8.48108 30.8184 10.968 41.9464 13.4563 53.0744C14.0358 55.6647 15.6946 57.745 17.8683 58.9375Z" fill="#314DC9"/>
<path d="M41.7375 21.3925C41.4925 22.0603 40.8508 22.5378 40.101 22.5378H33.8126L30.9998 21.0767L28.1871 22.5378H21.8987C21.1489 22.5378 20.5072 22.0604 20.2622 21.3925C22.4521 17.7528 26.4411 15.3181 30.9998 15.3181C35.5585 15.3181 39.5476 17.7528 41.7375 21.3925Z" fill="#EAF1F4"/>
<path d="M33.8127 22.5378H28.187L30.1183 19.1918C30.5101 18.5131 31.4895 18.5131 31.8812 19.1918L33.8127 22.5378Z" fill="#DD7F66"/>
<path d="M57.3017 19.4065L55.0082 29.6668L50.1245 51.5145C49.6268 53.7414 47.6772 55.2962 45.3836 55.2962C45.156 55.2962 44.9259 55.2805 44.6983 55.249C43.8433 55.1316 42.9848 55.0226 42.125 54.9269C40.374 54.7307 38.6157 54.5818 36.855 54.4777C34.9054 54.1713 32.9473 54.0151 31.0001 54.0151C29.0529 54.0151 27.0949 54.1713 25.1452 54.4777C23.3845 54.5818 21.6263 54.7307 19.8752 54.9269C19.0155 55.0226 18.1569 55.1316 17.302 55.249C17.0743 55.2805 16.8443 55.2962 16.6166 55.2962C15.6115 55.2962 14.6731 54.9971 13.8932 54.4752C12.893 53.8056 12.1555 52.7666 11.8758 51.5145L6.99208 29.6668L4.69856 19.4065C4.40431 18.0853 4.65981 16.7412 5.42149 15.6199C5.68669 15.2287 5.99911 14.8873 6.35028 14.5978C6.99934 14.0638 7.7804 13.7102 8.63653 13.5734C8.65227 13.571 8.66802 13.5686 8.68255 13.5661C11.1698 13.1726 13.4839 14.9321 13.783 17.4327L14.3703 22.3261C14.7578 25.5496 17.6023 27.9157 20.8416 27.6832C24.2261 27.4411 27.6192 27.3187 31.0001 27.3187C34.3811 27.3187 37.7741 27.4411 41.1587 27.6832C44.3979 27.9157 47.2424 25.5496 47.6299 22.3261L48.2172 17.4327C48.5163 14.9321 50.8304 13.1726 53.3177 13.5661C53.3322 13.5686 53.348 13.571 53.3637 13.5734C54.6836 13.7841 55.8256 14.5095 56.5788 15.6199C57.3404 16.7412 57.596 18.0853 57.3017 19.4065Z" fill="#B3DAFE"/>
<path d="M13.8932 54.4752C12.893 53.8056 12.1555 52.7666 11.8758 51.5145L6.99208 29.6667L4.69856 19.4065C4.40431 18.0853 4.65981 16.7412 5.42149 15.6199C5.68669 15.2287 5.99911 14.8873 6.35028 14.5978C5.75692 16.1672 5.59829 17.9243 5.99427 19.691C8.48153 30.8183 10.9688 41.9469 13.4561 53.0742C13.565 53.5598 13.7116 54.0272 13.8932 54.4752Z" fill="#8AC9FE"/>
<path d="M47.3567 34.5276C47.2691 34.5276 47.1802 34.518 47.0914 34.4981C36.5641 32.1451 25.4354 32.1452 14.9084 34.4981C14.2559 34.6442 13.6083 34.2333 13.4625 33.5805C13.3166 32.9278 13.7275 32.2804 14.3801 32.1346C25.2528 29.7043 36.7467 29.7042 47.6197 32.1346C48.2724 32.2806 48.6831 32.9279 48.5372 33.5805C48.4113 34.1442 47.9112 34.5275 47.3567 34.5276Z" fill="#4F66D0"/>
<path d="M47.3567 39.3373C47.2691 39.3373 47.1802 39.3277 47.0914 39.3079C36.5641 36.9548 25.4354 36.9549 14.9084 39.3079C14.2559 39.4539 13.6083 39.043 13.4625 38.3902C13.3166 37.7375 13.7275 37.0901 14.3801 36.9443C25.2528 34.514 36.7467 34.514 47.6197 36.9443C48.2724 37.0903 48.6831 37.7376 48.5372 38.3902C48.4113 38.954 47.9112 39.3373 47.3567 39.3373Z" fill="#4F66D0"/>
<path d="M47.3567 44.1471C47.2691 44.1471 47.1802 44.1376 47.0914 44.1177C36.5641 41.7646 25.4354 41.7647 14.9084 44.1177C14.2559 44.2636 13.6083 43.8528 13.4625 43.2001C13.3166 42.5474 13.7275 41.9 14.3801 41.7542C25.2528 39.3239 36.7467 39.3237 47.6197 41.7542C48.2724 41.9001 48.6831 42.5475 48.5372 43.2001C48.4113 43.7638 47.9112 44.147 47.3567 44.1471Z" fill="#4F66D0"/>
<path d="M47.3567 48.9568C47.2691 48.9568 47.1802 48.9473 47.0914 48.9274C36.5641 46.5743 25.4354 46.5744 14.9084 48.9274C14.2559 49.0733 13.6083 48.6626 13.4625 48.0098C13.3166 47.3571 13.7275 46.7097 14.3801 46.5639C25.2528 44.1335 36.7467 44.1334 47.6197 46.5639C48.2724 46.7098 48.6831 47.3572 48.5372 48.0098C48.4113 48.5736 47.9112 48.9568 47.3567 48.9568Z" fill="#4F66D0"/>
<path d="M51.2729 21.4539C57.1972 21.4539 61.9998 16.6513 61.9998 10.727C61.9998 4.80263 57.1972 0 51.2729 0C45.3485 0 40.5459 4.80263 40.5459 10.727C40.5459 16.6513 45.3485 21.4539 51.2729 21.4539Z" fill="#BBEC6C"/>
<path d="M52.8042 21.3457C52.3041 21.4171 51.7931 21.4547 51.2736 21.4547C45.3485 21.4547 40.5459 16.6521 40.5459 10.727C40.5459 4.80307 45.3485 0.000488281 51.2736 0.000488281C51.7931 0.000488281 52.3041 0.0380273 52.8042 0.109473C47.6045 0.851777 43.6071 5.32256 43.6071 10.727C43.6071 16.1326 47.6045 20.6034 52.8042 21.3457Z" fill="#A2E62E"/>
<path d="M55.2985 11.1401H53.9605V4.73172C53.9605 4.01509 53.3795 3.43408 52.6629 3.43408H49.8834C49.1668 3.43408 48.5858 4.01509 48.5858 4.73172V11.1401H47.2478C46.3327 11.1401 45.8373 12.2118 46.4302 12.9089L50.4556 17.6418C50.8842 18.1458 51.6623 18.1458 52.0909 17.6418L56.1163 12.9089C56.709 12.2119 56.2136 11.1401 55.2985 11.1401Z" fill="#EAF1F4"/>
</g>
<defs>
<clipPath id="clip0_42_47440">
<rect width="62" height="62" fill="white"/>
</clipPath>
</defs>
</svg>
