<svg width="29" height="29" viewBox="0 0 29 29" fill="none" xmlns="http://www.w3.org/2000/svg">
<g clip-path="url(#clip0_1_6207)">
<path d="M7.45361 14.7783C7.45361 13.391 7.83582 12.0915 8.49984 10.9788V6.25879H3.77987C1.90655 8.69173 0.891113 11.6568 0.891113 14.7783C0.891113 17.8997 1.90655 20.8648 3.77987 23.2978H8.49984V18.5778C7.83582 17.4651 7.45361 16.1655 7.45361 14.7783Z" fill="#FBBD00"/>
<path d="M14.8911 22.2159L11.6099 25.4971L14.8911 28.7784C18.0126 28.7784 20.9777 27.7629 23.4106 25.8896V21.1747H18.6957C17.5732 21.8411 16.2682 22.2159 14.8911 22.2159Z" fill="#0F9D58"/>
<path d="M8.49975 18.5779L3.77979 23.2979C4.15068 23.7795 4.55454 24.2408 4.99155 24.6779C7.6358 27.3221 11.1515 28.7784 14.891 28.7784V22.2159C12.1772 22.2159 9.79869 20.7546 8.49975 18.5779Z" fill="#31AA52"/>
<path d="M28.8911 14.7783C28.8911 13.9265 28.814 13.0732 28.6619 12.2421L28.5388 11.5695H14.8911V18.132H21.533C20.888 19.415 19.8963 20.4618 18.6956 21.1747L23.4106 25.8896C23.8922 25.5187 24.3535 25.1148 24.7906 24.6778C27.4348 22.0335 28.8911 18.5178 28.8911 14.7783Z" fill="#3C79E6"/>
<path d="M20.1502 9.51919L20.7303 10.0992L25.3707 5.45886L24.7906 4.87884C22.1464 2.23459 18.6307 0.77832 14.8911 0.77832L11.6099 4.05957L14.8911 7.34082C16.8777 7.34082 18.7454 8.11443 20.1502 9.51919Z" fill="#CF2D48"/>
<path d="M14.8911 7.34082V0.77832C11.1516 0.77832 7.63586 2.23459 4.99155 4.87879C4.55454 5.3158 4.15068 5.77709 3.77979 6.25883L8.49975 10.9788C9.79875 8.80207 12.1773 7.34082 14.8911 7.34082Z" fill="#EB4132"/>
</g>
<defs>
<clipPath id="clip0_1_6207">
<rect width="28" height="28" fill="white" transform="translate(0.891113 0.77832)"/>
</clipPath>
</defs>
</svg>
