<svg width="92" height="84" viewBox="0 0 92 84" fill="none" xmlns="http://www.w3.org/2000/svg">
<path d="M56.4827 10.164V0H65.1723V28.9655H50.6896V18.8276C50.6896 17.2912 50.0792 15.8177 48.9928 14.7312C47.9064 13.6448 46.4329 13.0345 44.8965 13.0345V4.34483C47.1476 4.34492 49.3675 4.87113 51.3791 5.88148C53.3908 6.89182 55.1384 8.35833 56.4827 10.164Z" fill="#FA7360"/>
<path d="M73.8623 11.5862V0H85.4485V43.4483C85.4485 48.7736 84.3996 54.0468 82.3617 58.9667C80.3237 63.8867 77.3367 68.3571 73.5711 72.1227C69.8056 75.8882 65.3352 78.8753 60.4152 80.9132C55.4953 82.9511 50.2221 84 44.8968 84C41.8239 84 38.8769 82.7793 36.7041 80.6065C34.5312 78.4336 33.3105 75.4866 33.3105 72.4138V46.3448C33.3105 39.4309 36.0571 32.8002 40.946 27.9113C45.8348 23.0224 52.4656 20.2759 59.3795 20.2759H65.1726C67.4773 20.2759 69.6875 19.3603 71.3171 17.7307C72.9468 16.1011 73.8623 13.8908 73.8623 11.5862Z" fill="#FF8777"/>
<path d="M85.4484 43.4482V2.89648H76.7588V11.5861C76.7588 14.659 75.5381 17.606 73.3652 19.7788C71.1924 21.9517 68.2454 23.1723 65.1725 23.1723H59.3794C53.2337 23.1723 47.3397 25.6137 42.9941 29.9594C38.6484 34.3051 36.207 40.1991 36.207 46.3448V75.3103C36.2053 77.6751 36.9309 79.9832 38.2853 81.9216C40.2238 83.2761 42.5319 84.0017 44.8967 83.9999C50.222 83.9999 55.4952 82.951 60.4152 80.9131C65.3351 78.8752 69.8055 75.8882 73.5711 72.1226C77.3367 68.357 80.3237 63.8866 82.3616 58.9667C84.3995 54.0467 85.4484 48.7735 85.4484 43.4482Z" fill="#FA7360"/>
<path d="M84.213 34.7587C81.1282 34.7215 78.1543 35.9084 75.9428 38.0594C73.7313 40.2104 72.4624 43.1501 72.4139 46.2348C72.424 48.9502 71.801 51.6306 70.5943 54.0632C69.3876 56.4957 67.6304 58.6135 65.4622 60.2483L61.9863 62.8552L63.7243 65.1725L66.531 63.0667C69.1894 61.1654 71.3674 58.6699 72.8915 55.7787C74.4157 52.8876 75.244 49.6806 75.3105 46.4129C75.3028 45.2664 75.5219 44.1298 75.955 43.0682C76.3882 42.0067 77.0269 41.0412 77.8344 40.2274C78.642 39.4135 79.6024 38.7673 80.6605 38.3259C81.7187 37.8844 82.8536 37.6565 84.0001 37.6552H85.4484V34.7587H84.213Z" fill="#F8504C"/>
<path d="M81.1037 23.1725C76.1103 23.1725 71.3214 25.1561 67.7906 28.687C64.2597 32.2178 62.2761 37.0067 62.2761 42.0001C62.2762 43.344 61.9554 44.6685 61.3405 45.8635C60.7256 47.0585 59.8344 48.0895 58.7409 48.8707L52.1382 53.5863L60.8278 63.7242L65.4623 60.2483C67.6208 58.6295 69.3727 56.5304 70.5793 54.1172C71.7859 51.7039 72.414 49.0429 72.414 46.3449C72.414 43.272 73.6347 40.325 75.8076 38.1522C77.9804 35.9794 80.9274 34.7587 84.0002 34.7587H91.2416V23.1725H81.1037Z" fill="#FF8777"/>
<path d="M83.2758 26.069C80.7879 26.0689 78.3246 26.5618 76.0284 27.5194C73.7322 28.477 71.6485 29.8801 69.8978 31.6478C68.1471 33.4155 66.764 35.5126 65.8287 37.818C64.8933 40.1234 64.4241 42.5912 64.4482 45.079C64.4372 46.3955 64.1101 47.6901 63.4947 48.854C62.8793 50.0178 61.9934 51.0169 60.9115 51.7672L54.5015 56.3452L60.8275 63.7241L65.462 60.2483C67.6205 58.6294 69.3724 56.5303 70.579 54.1171C71.7856 51.7039 72.4137 49.0429 72.4137 46.3448C72.4137 43.272 73.6344 40.325 75.8073 38.1521C77.9801 35.9793 80.9271 34.7586 83.9999 34.7586H91.2413V26.069H83.2758Z" fill="#FA7360"/>
<path d="M52.1379 31.8621C51.7538 31.8621 51.3854 32.0146 51.1138 32.2862C50.8422 32.5579 50.6896 32.9262 50.6896 33.3103V36.3372C48.667 36.6809 46.831 37.7283 45.5059 39.2946C44.1809 40.8608 43.4521 42.845 43.4482 44.8965C43.4482 45.2806 43.6008 45.649 43.8724 45.9206C44.144 46.1922 44.5124 46.3448 44.8965 46.3448C45.2806 46.3448 45.649 46.1922 45.9206 45.9206C46.1922 45.649 46.3448 45.2806 46.3448 44.8965C46.3496 43.616 46.7786 42.3731 47.5647 41.3621C48.3508 40.3512 49.4497 39.6292 50.6896 39.3091V42C50.6896 42.3841 50.8422 42.7525 51.1138 43.0241C51.3854 43.2957 51.7538 43.4483 52.1379 43.4483C52.522 43.4483 52.8904 43.2957 53.162 43.0241C53.4336 42.7525 53.5862 42.3841 53.5862 42V33.3103C53.5862 32.9262 53.4336 32.5579 53.162 32.2862C52.8904 32.0146 52.522 31.8621 52.1379 31.8621Z" fill="#F8504C"/>
<path d="M44.8965 65.1724C44.5124 65.1724 44.144 65.3249 43.8724 65.5966C43.6008 65.8682 43.4482 66.2365 43.4482 66.6206C43.4482 67.0047 43.6008 67.3731 43.8724 67.6447C44.144 67.9163 44.5124 68.0689 44.8965 68.0689C46.4329 68.0689 47.9064 68.6793 48.9929 69.7657C50.0793 70.8521 50.6896 72.3256 50.6896 73.862C50.6896 74.2461 50.8422 74.6145 51.1138 74.8861C51.3854 75.1577 51.7538 75.3103 52.1379 75.3103C52.522 75.3103 52.8904 75.1577 53.162 74.8861C53.4336 74.6145 53.5862 74.2461 53.5862 73.862C53.5839 71.5581 52.6676 69.3492 51.0385 67.72C49.4094 66.0909 47.2005 65.1747 44.8965 65.1724Z" fill="#F8504C"/>
<path d="M44.8965 44.8966C44.8965 32.8987 35.1703 23.1725 23.1724 23.1725C11.1745 23.1725 1.44824 32.8987 1.44824 44.8966C1.44824 56.8945 11.1745 66.6208 23.1724 66.6208C35.1703 66.6208 44.8965 56.8945 44.8965 44.8966Z" fill="#E9F1FF"/>
<path d="M44.8965 46.3448H36.2069C35.903 46.3446 35.607 46.2488 35.3606 46.071C35.1142 45.8933 34.9299 45.6425 34.8339 45.3542L33.6144 41.6988L30.3819 56.7869C30.3123 57.1109 30.1337 57.4012 29.876 57.6094C29.6182 57.8176 29.2968 57.9311 28.9655 57.931C28.6358 57.9313 28.3158 57.8191 28.0586 57.6129C27.8013 57.4067 27.6221 57.1189 27.5505 56.797L23.1724 37.0889L18.7942 56.797C18.7227 57.1189 18.5435 57.4067 18.2862 57.6129C18.0289 57.8191 17.709 57.9313 17.3793 57.931C17.0489 57.9298 16.7289 57.8157 16.4723 57.6076C16.2157 57.3995 16.038 57.1099 15.9687 56.7869L12.7303 41.6988L11.5109 45.3542C11.4149 45.6425 11.2306 45.8933 10.9842 46.071C10.7378 46.2488 10.4417 46.3446 10.1379 46.3448H1.44824V43.4483H9.09369L11.6615 35.7493C11.7621 35.4482 11.9588 35.1885 12.2213 35.0101C12.4839 34.8318 12.7978 34.7446 13.1147 34.762C13.4317 34.7795 13.7341 34.9006 13.9755 35.1067C14.2169 35.3128 14.3839 35.5925 14.4509 35.9028L17.4053 49.6918L21.7502 30.0995C21.8206 29.7767 21.9994 29.4876 22.2568 29.2804C22.5142 29.0731 22.8347 28.9601 23.1651 28.9601C23.4956 28.9601 23.8161 29.0731 24.0735 29.2804C24.3309 29.4876 24.5096 29.7767 24.5801 30.0995L28.9249 49.6918L31.8794 35.9028C31.9463 35.5925 32.1134 35.3128 32.3548 35.1067C32.5962 34.9006 32.8986 34.7795 33.2155 34.762C33.5325 34.7446 33.8464 34.8318 34.109 35.0101C34.3715 35.1885 34.5682 35.4482 34.6688 35.7493L37.2511 43.4483H44.8965V46.3448Z" fill="#535D6A"/>
<path d="M23.1724 68.069C18.5894 68.069 14.1092 66.7099 10.2985 64.1637C6.48784 61.6175 3.51777 57.9984 1.76391 53.7642C0.0100402 49.53 -0.448851 44.8708 0.445262 40.3758C1.33937 35.8808 3.54633 31.7519 6.78705 28.5112C10.0278 25.2705 14.1567 23.0635 18.6517 22.1694C23.1467 21.2753 27.8059 21.7342 32.0401 23.488C36.2743 25.2419 39.8934 28.212 42.4396 32.0226C44.9858 35.8333 46.3448 40.3135 46.3448 44.8965C46.3376 51.04 43.8938 56.9298 39.5497 61.2739C35.2057 65.618 29.3159 68.0617 23.1724 68.069ZM23.1724 24.6207C19.1622 24.6207 15.2421 25.8098 11.9078 28.0378C8.57341 30.2657 5.9746 33.4324 4.43997 37.1373C2.90534 40.8422 2.50381 44.919 3.28616 48.8522C4.06851 52.7853 5.99959 56.3981 8.83522 59.2337C11.6709 62.0694 15.2837 64.0005 19.2168 64.7828C23.1499 65.5652 27.2267 65.1636 30.9317 63.629C34.6366 62.0944 37.8032 59.4956 40.0312 56.1612C42.2591 52.8269 43.4483 48.9067 43.4483 44.8965C43.4425 39.5208 41.3045 34.3669 37.5033 30.5657C33.7021 26.7645 28.5481 24.6264 23.1724 24.6207Z" fill="#98D3FF"/>
</svg>
