<svg width="30" height="32" viewBox="0 0 30 32" fill="none" xmlns="http://www.w3.org/2000/svg">
<path d="M6.46565 30.1359L6.46545 30.1357C5.7605 29.4861 5.36729 28.6069 5.36729 27.6923V24.0803C5.36729 23.5096 5.87295 23.0263 6.52163 23.0263C7.17032 23.0263 7.67598 23.5096 7.67598 24.0803V27.6923C7.67598 28.0547 7.83152 28.4011 8.10612 28.6535C8.37921 28.9069 8.74884 29.0463 9.13033 29.0463H26.0868C26.4682 29.0463 26.8377 28.907 27.1108 28.6538C27.3856 28.4013 27.5412 28.0548 27.5412 27.6923V10.1306V10.0649L27.4929 10.0203L19.1269 2.29781L19.0838 2.25803H19.0251H9.13033C8.74897 2.25803 8.37948 2.39732 8.10641 2.65058C7.83163 2.90302 7.67598 3.24951 7.67598 3.61204V14.4482C7.67598 15.0189 7.17032 15.5022 6.52163 15.5022C5.87295 15.5022 5.36729 15.0189 5.36729 14.4482V3.61204C5.36729 2.69746 5.7605 1.81821 6.46545 1.16864L6.46565 1.16846C7.16975 0.517363 8.12812 0.15 9.13033 0.15H9.15266H9.17506H9.19752H9.22005H9.24263H9.26528H9.288H9.31077H9.33361H9.3565H9.37946H9.40247H9.42555H9.44868H9.47188H9.49513H9.51844H9.54181H9.56523H9.58871H9.61225H9.63584H9.65949H9.68319H9.70695H9.73076H9.75463H9.77854H9.80251H9.82654H9.85061H9.87474H9.89892H9.92315H9.94742H9.97175H9.99613H10.0206H10.045H10.0696H10.0941H10.1187H10.1434H10.1681H10.1929H10.2177H10.2425H10.2674H10.2924H10.3173H10.3424H10.3674H10.3925H10.4177H10.4429H10.4681H10.4934H10.5187H10.5441H10.5695H10.5949H10.6204H10.6459H10.6715H10.6971H10.7227H10.7483H10.774H10.7998H10.8255H10.8514H10.8772H10.9031H10.929H10.9549H10.9809H11.0069H11.0329H11.059H11.0851H11.1112H11.1374H11.1636H11.1898H11.2161H11.2424H11.2687H11.295H11.3214H11.3478H11.3742H11.4006H11.4271H11.4536H11.4801H11.5066H11.5332H11.5598H11.5864H11.6131H11.6397H11.6664H11.6931H11.7198H11.7466H11.7733H11.8001H11.8269H11.8538H11.8806H11.9075H11.9343H11.9612H11.9881H12.0151H12.042H12.069H12.096H12.1229H12.15H12.177H12.204H12.231H12.2581H12.2852H12.3123H12.3394H12.3665H12.3936H12.4207H12.4478H12.475H12.5021H12.5293H12.5565H12.5836H12.6108H12.638H12.6652H12.6924H12.7196H12.7468H12.774H12.8013H12.8285H12.8557H12.883H12.9102H12.9374H12.9647H12.9919H13.0191H13.0464H13.0736H13.1009H13.1281H13.1553H13.1826H13.2098H13.237H13.2643H13.2915H13.3187H13.3459H13.3731H13.4004H13.4276H13.4547H13.4819H13.5091H13.5363H13.5635H13.5906H13.6178H13.6449H13.672H13.6992H13.7263H13.7534H13.7805H13.8076H13.8346H13.8617H13.8887H13.9158H13.9428H13.9698H13.9968H14.0237H14.0507H14.0776H14.1046H14.1315H14.1584H14.1852H14.2121H14.2389H14.2657H14.2926H14.3193H14.3461H14.3728H14.3996H14.4263H14.4529H14.4796H14.5062H14.5328H14.5594H14.586H14.6125H14.639H14.6655H14.692H14.7184H14.7449H14.7712H14.7976H14.8239H14.8502H14.8765H14.9028H14.929H14.9552H14.9813H15.0074H15.0335H15.0596H15.0856H15.1116H15.1376H15.1635H15.1894H15.2153H15.2411H15.2669H15.2927H15.3184H15.3441H15.3698H15.3954H15.421H15.4465H15.472H15.4975H15.5229H15.5483H15.5737H15.599H15.6243H15.6495H15.6747H15.6998H15.7249H15.75H15.775H15.8H15.8249H15.8498H15.8746H15.8994H15.9242H15.9489H15.9735H15.9981H16.0227H16.0472H16.0717H16.0961H16.1205H16.1448H16.1691H16.1933H16.2175H16.2416H16.2656H16.2896H16.3136H16.3375H16.3614H16.3852H16.4089H16.4326H16.4563H16.4798H16.5034H16.5268H16.5502H16.5736H16.5969H16.6201H16.6433H16.6664H16.6895H16.7125H16.7355H16.7583H16.7812H16.8039H16.8266H16.8493H16.8718H16.8944H16.9168H16.9392H16.9615H16.9838H17.006H17.0281H17.0502H17.0721H17.0941H17.1159H17.1377H17.1595H17.1811H17.2027H17.2242H17.2457H17.267H17.2883H17.3096H17.3307H17.3518H17.3729H17.3938H17.4147H17.4355H17.4562H17.4769H17.4974H17.5179H17.5384H17.5587H17.579H17.5992H17.6193H17.6394H17.6593H17.6792H17.699H17.7187H17.7384H17.7579H17.7774H17.7968H17.8162H17.8354H17.8546H17.8736H17.8926H17.9115H17.9304H17.9491H17.9678H17.9863H18.0048H18.0232H18.0415H18.0597H18.0779H18.0959H18.1139H18.1318H18.1495H18.1672H18.1848H18.2024H18.2198H18.2371H18.2543H18.2715H18.2885H18.3055H18.3224H18.3391H18.3558H18.3724H18.3889H18.4053H18.4216H18.4378H18.4539H18.4699H18.4858H18.5016H18.5173H18.533H18.5485H18.5639H18.5792H18.5944H18.6095H18.6245H18.6395H18.6543H18.669H18.6836H18.6981H18.7125H18.7268H18.7409H18.755H18.769H18.7829H18.7966H18.8103H18.8238H18.8373H18.8506H18.8638H18.8769H18.8899H18.9028H18.9156H18.9283H18.9409H18.9533H18.9656H18.9779H18.99H19.002H19.0139H19.0256H19.0373H19.0488H19.0603H19.0716H19.0828H19.0939H19.1048H19.1157H19.1264H19.137H19.1475H19.1579H19.1681H19.1782H19.1882H19.1981H19.2079H19.2176H19.2271H19.2365H19.2458H19.2549H19.2639H19.2729H19.2816H19.2903H19.2988H19.3072H19.3155H19.3237H19.3317H19.3396H19.3474H19.355H19.3625H19.3699H19.3771H19.3843H19.3913H19.3981H19.4048H19.4114H19.4179H19.4242H19.4304H19.4365H19.4424H19.4482H19.4539H19.4594H19.4648H19.4701H19.4752H19.4802H19.485H19.4897H19.4943H19.4987H19.503H19.5072H19.5112H19.5151H19.5188H19.5224H19.5258H19.5291H19.5323H19.5353H19.5382H19.5409H19.5435H19.546H19.5483H19.5504H19.5524H19.5543H19.556H19.5576H19.559H19.5603H19.5614H19.5624H19.5632H19.5639H19.5644H19.5648H19.565L19.5651 0V0.15C19.8749 0.15 20.1705 0.263449 20.3853 0.462726L20.3855 0.462996L29.516 8.89109L29.5163 8.89136C29.7317 9.0892 29.8499 9.35664 29.8499 9.63211H29.9999C29.8499 9.63211 29.8499 9.63216 29.8499 9.63225V9.63268V9.63341V9.63441V9.63571V9.63729V9.63915V9.6413V9.64372V9.64643V9.64943V9.6527V9.65625V9.66007V9.66418V9.66856V9.67321V9.67815V9.68335V9.68883V9.69457V9.70059V9.70688V9.71344V9.72027V9.72736V9.73472V9.74235V9.75024V9.75839V9.76681V9.77549V9.78443V9.79363V9.80309V9.8128V9.82278V9.83301V9.8435V9.85424V9.86524V9.87649V9.88799V9.89974V9.91174V9.924V9.9365V9.94925V9.96224V9.97549V9.98897V10.0027V10.0167V10.0309V10.0454V10.0601V10.075V10.0902V10.1056V10.1212V10.1371V10.1533V10.1696V10.1862V10.203V10.2201V10.2374V10.2549V10.2726V10.2906V10.3088V10.3272V10.3459V10.3648V10.3839V10.4032V10.4227V10.4425V10.4625V10.4827V10.5031V10.5238V10.5446V10.5657V10.587V10.6085V10.6302V10.6522V10.6743V10.6966V10.7192V10.742V10.765V10.7881V10.8115V10.8351V10.8589V10.8829V10.9071V10.9315V10.9561V10.9809V11.006V11.0312V11.0566V11.0822V11.1079V11.1339V11.1601V11.1865V11.213V11.2398V11.2668V11.2939V11.3212V11.3487V11.3764V11.4043V11.4324V11.4606V11.489V11.5177V11.5465V11.5754V11.6046V11.6339V11.6634V11.6931V11.723V11.753V11.7832V11.8136V11.8442V11.8749V11.9058V11.9369V11.9681V11.9995V12.0311V12.0628V12.0947V12.1268V12.159V12.1914V12.224V12.2567V12.2896V12.3226V12.3558V12.3891V12.4226V12.4563V12.4901V12.5241V12.5582V12.5925V12.6269V12.6615V12.6962V12.731V12.7661V12.8012V12.8365V12.872V12.9076V12.9433V12.9792V13.0152V13.0514V13.0877V13.1241V13.1607V13.1974V13.2343V13.2713V13.3084V13.3456V13.383V13.4205V13.4582V13.496V13.5339V13.5719V13.6101V13.6483V13.6867V13.7253V13.7639V13.8027V13.8416V13.8806V13.9198V13.959V13.9984V14.0379V14.0775V14.1173V14.1571V14.197V14.2371V14.2773V14.3176V14.358V14.3985V14.4391V14.4798V14.5207V14.5616V14.6026V14.6438V14.685V14.7264V14.7678V14.8094V14.851V14.8928V14.9346V14.9766V15.0186V15.0607V15.103V15.1453V15.1877V15.2302V15.2728V15.3155V15.3582V15.4011V15.444V15.4871V15.5302V15.5734V15.6167V15.66V15.7035V15.747V15.7906V15.8343V15.8781V15.9219V15.9658V16.0098V16.0539V16.098V16.1423V16.1865V16.2309V16.2753V16.3198V16.3644V16.409V16.4537V16.4985V16.5433V16.5882V16.6331V16.6782V16.7232V16.7684V16.8136V16.8588V16.9041V16.9495V16.9949V17.0404V17.0859V17.1315V17.1772V17.2229V17.2686V17.3144V17.3602V17.4061V17.452V17.498V17.544V17.5901V17.6362V17.6824V17.7286V17.7748V17.8211V17.8674V17.9137V17.9601V18.0065V18.053V18.0995V18.146V18.1926V18.2392V18.2858V18.3325V18.3791V18.4258V18.4726V18.5194V18.5661V18.613V18.6598V18.7066V18.7535V18.8004V18.8474V18.8943V18.9413V18.9882V19.0352V19.0822V19.1293V19.1763V19.2234V19.2704V19.3175V19.3646V19.4117V19.4588V19.5059V19.553V19.6001V19.6473V19.6944V19.7415V19.7887V19.8358V19.883V19.9301V19.9772V20.0244V20.0715V20.1186V20.1658V20.2129V20.26V20.3071V20.3542V20.4013V20.4484V20.4954V20.5425V20.5895V20.6366V20.6836V20.7306V20.7776V20.8245V20.8715V20.9184V20.9653V21.0122V21.0591V21.1059V21.1527V21.1995V21.2463V21.293V21.3398V21.3865V21.4331V21.4797V21.5264V21.5729V21.6195V21.666V21.7124V21.7589V21.8053V21.8516V21.898V21.9442V21.9905V22.0367V22.0829V22.129V22.1751V22.2211V22.2671V22.313V22.3589V22.4048V22.4506V22.4963V22.5421V22.5877V22.6333V22.6789V22.7243V22.7698V22.8152V22.8605V22.9058V22.951V22.9961V23.0412V23.0863V23.1312V23.1762V23.221V23.2658V23.3105V23.3551V23.3997V23.4442V23.4887V23.5331V23.5774V23.6216V23.6658V23.7099V23.7539V23.7978V23.8417V23.8855V23.9292V23.9728V24.0164V24.0598V24.1032V24.1465V24.1898V24.2329V24.276V24.3189V24.3618V24.4046V24.4473V24.4899V24.5325V24.5749V24.6173V24.6595V24.7017V24.7437V24.7857V24.8276V24.8694V24.911V24.9526V24.9941V25.0355V25.0768V25.1179V25.159V25.2V25.2408V25.2816V25.3222V25.3628V25.4032V25.4435V25.4837V25.5238V25.5638V25.6037V25.6435V25.6831V25.7226V25.7621V25.8014V25.8405V25.8796V25.9185V25.9573V25.996V26.0346V26.0731V26.1114V26.1496V26.1876V26.2256V26.2634V26.3011V26.3386V26.3761V26.4134V26.4505V26.4875V26.5244V26.5612V26.5978V26.6343V26.6706V26.7068V26.7429V26.7788V26.8146V26.8502V26.8857V26.9211V26.9563V26.9914V27.0263V27.061V27.0957V27.1301V27.1644V27.1986V27.2326V27.2665V27.3002V27.3337V27.3671V27.4004V27.4334V27.4664V27.4991V27.5317V27.5642V27.5965V27.6286V27.6605V27.6923C29.8499 28.6069 29.4567 29.4861 28.7517 30.1357L28.7515 30.1359C28.0474 30.787 27.0891 31.1543 26.0868 31.1543H9.13033C8.12812 31.1543 7.16975 30.787 6.46565 30.1359Z" fill="black" stroke="white" stroke-width="0.3"/>
<path d="M17.4107 8.22405V3.40799C17.4107 2.8373 17.9164 2.35398 18.5651 2.35398C19.2138 2.35398 19.7194 2.8373 19.7194 3.40799V8.22405C19.7194 8.98258 20.3825 9.57806 21.1738 9.57806H26.3912C27.0399 9.57806 27.5455 10.0614 27.5455 10.6321C27.5455 11.2028 27.0399 11.6861 26.3912 11.6861H21.1738C19.0838 11.6861 17.4107 10.1252 17.4107 8.22405Z" fill="black" stroke="white" stroke-width="0.3"/>
<path d="M16.9565 20.3182H1.30435C0.65566 20.3182 0.15 19.8349 0.15 19.2642C0.15 18.6935 0.65566 18.2102 1.30435 18.2102H16.9565C17.6052 18.2102 18.1109 18.6935 18.1109 19.2642C18.1109 19.8349 17.6052 20.3182 16.9565 20.3182Z" fill="black" stroke="white" stroke-width="0.3"/>
<path d="M19.5182 19.3744L19.6376 19.2642L19.5182 19.154L15.223 15.1892C14.7787 14.779 14.7787 14.1173 15.223 13.7071C15.6742 13.2906 16.4126 13.2906 16.8639 13.7071L22.0813 18.5232L22.0814 18.5233C22.5269 18.9335 22.5269 19.595 22.0814 20.0051L22.0813 20.0052L16.8639 24.8213C16.4126 25.2378 15.6742 25.2378 15.223 24.8213C14.7787 24.4111 14.7787 23.7494 15.223 23.3393L19.5182 19.3744Z" fill="black" stroke="white" stroke-width="0.3"/>
</svg>
