<svg width="30" height="30" viewBox="0 0 30 30" fill="none" xmlns="http://www.w3.org/2000/svg">
<path d="M1.29237 9.69228C1.29237 9.69228 0.692369 9.32305 1.15391 9.32305C3.73852 9.13843 13.2462 9.59997 13.2462 11.4923C13.2462 13.9384 4.89237 14.4 7.29237 16.7077C9.69237 19.0154 21.0001 21.4154 21.0001 21.4154L22.8462 29.8154C22.8462 29.8154 -2.67686 24.5538 0.23083 18.1384C2.07698 14.0769 9.13852 13.2 9.13852 11.6769C9.13852 10.0615 1.29237 9.69228 1.29237 9.69228Z" fill="#445C6C"/>
<path d="M0.507812 0.230713H1.5232V9.69225H0.507812V0.230713Z" fill="#F0B972"/>
<path d="M7.15372 3.73844H1.52295V0.599976H7.15372L5.95372 2.16921L7.15372 3.73844Z" fill="#5CAB56"/>
<path d="M29.5384 17.3999C29.5384 21.0923 22.8461 29.7692 22.8461 29.7692C22.8461 29.7692 16.1538 21.0923 16.1538 17.3999C16.1538 13.7076 19.1538 10.7076 22.8461 10.7076C26.5384 10.7076 29.5384 13.7076 29.5384 17.3999Z" fill="#5CAB56"/>
<path d="M22.8463 20.6769C24.6561 20.6769 26.1232 19.2098 26.1232 17.4C26.1232 15.5902 24.6561 14.123 22.8463 14.123C21.0365 14.123 19.5693 15.5902 19.5693 17.4C19.5693 19.2098 21.0365 20.6769 22.8463 20.6769Z" fill="#EFF3F5"/>
</svg>
