<svg width="454" height="100" viewBox="0 0 454 100" fill="none" xmlns="http://www.w3.org/2000/svg">
<path d="M165.188 41.7207C165.188 40.7363 165.521 39.9102 166.189 39.2422C166.893 38.5391 167.736 38.1875 168.721 38.1875H176.789L175.418 34.2852C174.855 32.8438 174.293 31.4902 173.73 30.2246C173.203 28.9238 172.588 27.7461 171.885 26.6914C171.252 25.6367 170.531 25.0742 169.723 25.0039C168.879 25.0742 168.123 25.6367 167.455 26.6914C166.787 27.7461 166.172 28.9238 165.609 30.2246C165.082 31.4902 164.537 32.8438 163.975 34.2852L158.965 47.9961C158.613 48.7344 158.156 49.3496 157.594 49.8418C157.066 50.2988 156.258 50.5273 155.168 50.5273C154.148 50.5273 153.305 50.1758 152.637 49.4727C152.004 48.7695 151.723 47.9258 151.793 46.9414C151.828 46.4844 151.934 46.0625 152.109 45.6758L157.91 30.6992C159.527 26.7617 161.145 23.5801 162.762 21.1543C164.344 18.7637 166.664 17.5508 169.723 17.5156C172.746 17.5508 175.049 18.7637 176.631 21.1543C178.248 23.5098 179.865 26.6914 181.482 30.6992L187.283 45.6758C187.459 46.0625 187.564 46.4844 187.6 46.9414C187.67 47.9258 187.371 48.7695 186.703 49.4727C186.07 50.1758 185.244 50.5273 184.225 50.5273C183.064 50.5273 182.203 50.2988 181.641 49.8418C181.113 49.3496 180.674 48.7344 180.322 47.9961L179.32 45.2539H168.721C167.736 45.2539 166.91 44.9023 166.242 44.1992C165.539 43.5312 165.188 42.7051 165.188 41.7207ZM193.98 32.5977C194.648 30.9102 195.773 29.3984 197.355 28.0625C198.973 26.6914 201.012 25.9883 203.473 25.9531H223.301C224.285 25.9531 225.111 26.3047 225.779 27.0078C226.482 27.6758 226.834 28.502 226.834 29.4863C226.834 30.4707 226.482 31.3145 225.779 32.0176C225.111 32.6855 224.285 33.0195 223.301 33.0195H203.262C202.594 33.0195 202.014 33.3008 201.521 33.8633C201.029 34.3906 200.643 35.0234 200.361 35.7617C200.115 36.5 199.992 37.2031 199.992 37.8711V47.0996C199.781 49.209 198.621 50.3516 196.512 50.5273C195.527 50.5273 194.666 50.2109 193.928 49.5781C193.225 48.9102 192.873 48.084 192.873 47.0996V37.9238H192.926C192.926 36.0957 193.277 34.3203 193.98 32.5977ZM242.971 49.8945C239.877 49.7891 237.539 49.0684 235.957 47.7324C234.375 46.3613 233.232 44.832 232.529 43.1445C231.826 41.4219 231.475 39.6816 231.475 37.9238C231.475 36.0957 231.809 34.3379 232.477 32.6504C233.18 30.9277 234.322 29.3984 235.904 28.0625C237.521 26.6914 239.561 25.9883 242.021 25.9531H259.107C261.568 25.9883 263.59 26.6914 265.172 28.0625C266.789 29.3984 267.932 30.9277 268.6 32.6504C269.303 34.3379 269.654 36.0957 269.654 37.9238C269.654 39.6816 269.303 41.4219 268.6 43.1445C267.896 44.832 266.754 46.3613 265.172 47.7324C263.59 49.0684 261.252 49.7891 258.158 49.8945H242.971ZM241.811 33.0195C241.143 33.0195 240.562 33.3008 240.07 33.8633C239.578 34.3906 239.209 35.0234 238.963 35.7617C238.752 36.4648 238.646 37.168 238.646 37.8711C238.646 38.6094 238.752 39.3477 238.963 40.0859C239.209 40.7891 239.578 41.4219 240.07 41.9844C240.562 42.5117 241.143 42.793 241.811 42.8281H259.318C259.986 42.793 260.566 42.5117 261.059 41.9844C261.551 41.4219 261.902 40.7891 262.113 40.0859C262.359 39.3477 262.482 38.6094 262.482 37.8711C262.482 37.168 262.359 36.4648 262.113 35.7617C261.902 35.0234 261.551 34.3906 261.059 33.8633C260.566 33.3008 259.986 33.0195 259.318 33.0195H241.811ZM305.303 34.3906C305.303 33.5117 304.846 33.0547 303.932 33.0195H285.475C284.807 33.0547 284.227 33.3535 283.734 33.916C283.242 34.4434 282.873 35.0762 282.627 35.8145C282.416 36.5176 282.311 37.2383 282.311 37.9766C282.311 38.6797 282.416 39.4004 282.627 40.1387C282.873 40.8418 283.242 41.4746 283.734 42.0371C284.227 42.5645 284.807 42.8281 285.475 42.8281H298.975C299.959 42.8281 300.785 43.1797 301.453 43.8828C302.156 44.5508 302.508 45.377 302.508 46.3613C302.508 47.3457 302.156 48.1719 301.453 48.8398C300.785 49.543 299.959 49.8945 298.975 49.8945H285.686C283.225 49.8594 281.186 49.1738 279.568 47.8379C277.986 46.4668 276.844 44.9375 276.141 43.25C275.473 41.5273 275.139 39.752 275.139 37.9238C275.139 36.166 275.49 34.4434 276.193 32.7559C276.896 31.0332 278.039 29.5039 279.621 28.168C281.203 26.7969 283.541 26.0586 286.635 25.9531H308.783C309.768 25.9531 310.611 26.2871 311.314 26.9551C312.018 27.5879 312.387 28.3965 312.422 29.3809V46.0449C312.422 48.8574 312.035 51.5117 311.262 54.0078C310.559 56.2227 309.398 58.0859 307.781 59.5977C306.199 61.1445 304.178 61.9883 301.717 62.1289H283.471C282.521 62.0938 281.713 61.7422 281.045 61.0742C280.412 60.4414 280.078 59.6504 280.043 58.7012C280.043 57.7168 280.359 56.873 280.992 56.1699C281.66 55.4668 282.486 55.0977 283.471 55.0625H299.924C301.26 54.9922 302.367 54.4824 303.246 53.5332C304.125 52.584 304.688 51.4766 304.934 50.2109C305.18 48.9453 305.303 47.3105 305.303 45.3066V34.3906ZM323.074 25.3203C324.059 25.3203 324.902 25.6543 325.605 26.3223C326.309 26.9551 326.678 27.7637 326.713 28.748V34.0742C326.678 35.5156 326.766 36.8516 326.977 38.082C327.223 39.2773 327.785 40.3496 328.664 41.2988C329.543 42.248 330.65 42.7578 331.986 42.8281H346.066V28.8535C346.066 27.8691 346.418 27.0605 347.121 26.4277C347.859 25.7598 348.721 25.4258 349.705 25.4258C351.814 25.6016 352.975 26.7441 353.186 28.8535V46.0449C353.186 48.8574 352.799 51.5117 352.025 54.0078C351.322 56.2227 350.162 58.0859 348.545 59.5977C346.963 61.1445 344.941 61.9883 342.48 62.1289H324.234C323.285 62.0938 322.477 61.7422 321.809 61.0742C321.176 60.4414 320.842 59.6504 320.807 58.7012C320.807 57.7168 321.123 56.873 321.756 56.1699C322.424 55.4668 323.25 55.0977 324.234 55.0625H340.688C342.023 54.9922 343.131 54.4824 344.01 53.5332C344.889 52.584 345.451 51.4766 345.697 50.2109C345.732 50.1055 345.75 50 345.75 49.8945H330.193C327.732 49.7539 325.693 48.9277 324.076 47.416C322.494 45.8691 321.352 43.9883 320.648 41.7734C319.98 39.5586 319.629 37.2031 319.594 34.707V28.748C319.629 27.7988 319.98 27.0078 320.648 26.375C321.316 25.707 322.125 25.3555 323.074 25.3203ZM389.572 47.0996V34.3906C389.572 33.5117 389.115 33.0547 388.201 33.0195H369.744C369.076 33.0547 368.496 33.3535 368.004 33.916C367.512 34.4434 367.143 35.0762 366.896 35.8145C366.686 36.5176 366.58 37.2383 366.58 37.9766C366.58 38.6797 366.686 39.4004 366.896 40.1387C367.143 40.8418 367.512 41.4746 368.004 42.0371C368.496 42.5645 369.076 42.8281 369.744 42.8281H383.244C384.229 42.8281 385.055 43.1797 385.723 43.8828C386.426 44.5508 386.777 45.377 386.777 46.3613C386.777 47.3457 386.426 48.1719 385.723 48.8398C385.055 49.543 384.229 49.8945 383.244 49.8945H369.955C367.494 49.8594 365.455 49.1738 363.838 47.8379C362.256 46.4668 361.113 44.9375 360.41 43.25C359.742 41.5273 359.408 39.752 359.408 37.9238C359.408 36.166 359.76 34.4434 360.463 32.7559C361.166 31.0332 362.309 29.5039 363.891 28.168C365.473 26.7969 367.811 26.0586 370.904 25.9531H393.053C394.037 25.9531 394.881 26.2871 395.584 26.9551C396.287 27.5879 396.656 28.3965 396.691 29.3809V47.0996C396.691 48.084 396.322 48.9102 395.584 49.5781C394.881 50.2109 394.037 50.5273 393.053 50.5273C390.943 50.3516 389.783 49.209 389.572 47.0996Z" fill="white"/>
<path d="M415.359 41.7207C415.359 40.7363 415.693 39.9102 416.361 39.2422C417.064 38.5391 417.908 38.1875 418.893 38.1875H426.961L425.59 34.2852C425.027 32.8438 424.465 31.4902 423.902 30.2246C423.375 28.9238 422.76 27.7461 422.057 26.6914C421.424 25.6367 420.703 25.0742 419.895 25.0039C419.051 25.0742 418.295 25.6367 417.627 26.6914C416.959 27.7461 416.344 28.9238 415.781 30.2246C415.254 31.4902 414.709 32.8438 414.146 34.2852L409.137 47.9961C408.785 48.7344 408.328 49.3496 407.766 49.8418C407.238 50.2988 406.43 50.5273 405.34 50.5273C404.32 50.5273 403.477 50.1758 402.809 49.4727C402.176 48.7695 401.895 47.9258 401.965 46.9414C402 46.4844 402.105 46.0625 402.281 45.6758L408.082 30.6992C409.699 26.7617 411.316 23.5801 412.934 21.1543C414.516 18.7637 416.836 17.5508 419.895 17.5156C422.918 17.5508 425.221 18.7637 426.803 21.1543C428.42 23.5098 430.037 26.6914 431.654 30.6992L437.455 45.6758C437.631 46.0625 437.736 46.4844 437.771 46.9414C437.842 47.9258 437.543 48.7695 436.875 49.4727C436.242 50.1758 435.416 50.5273 434.396 50.5273C433.236 50.5273 432.375 50.2988 431.812 49.8418C431.285 49.3496 430.846 48.7344 430.494 47.9961L429.492 45.2539H418.893C417.908 45.2539 417.082 44.9023 416.414 44.1992C415.711 43.5312 415.359 42.7051 415.359 41.7207ZM446.684 25.4258C447.633 25.4609 448.441 25.8125 449.109 26.4805C449.777 27.1133 450.129 27.9043 450.164 28.8535V47.0996C449.953 49.209 448.793 50.3516 446.684 50.5273C445.699 50.5273 444.838 50.2109 444.1 49.5781C443.396 48.9102 443.045 48.084 443.045 47.0996V28.8535C443.08 27.8691 443.449 27.0605 444.152 26.4277C444.855 25.7598 445.699 25.4258 446.684 25.4258ZM442.254 18.5703C442.254 17.5859 442.676 16.7422 443.52 16.0391C444.363 15.3359 445.383 14.9844 446.578 14.9844C447.773 14.9844 448.793 15.3359 449.637 16.0391C450.48 16.7422 450.902 17.5859 450.902 18.5703C450.902 19.5898 450.48 20.4512 449.637 21.1543C448.793 21.8574 447.773 22.209 446.578 22.209C445.383 22.209 444.363 21.8574 443.52 21.1543C442.676 20.4512 442.254 19.5898 442.254 18.5703Z" fill="#5CAB56"/>
<path d="M162.858 81.616L155.76 71.112H157.996L163.898 79.926H162.962L168.916 71.112H171.074L163.924 81.616H162.858ZM162.468 89V80.238H164.392V89H162.468ZM175.513 89.26C174.334 89.26 173.26 88.974 172.289 88.402C171.336 87.83 170.573 87.0587 170.001 86.088C169.446 85.1173 169.169 84.034 169.169 82.838C169.169 81.6593 169.446 80.5933 170.001 79.64C170.573 78.6867 171.336 77.9327 172.289 77.378C173.26 76.806 174.334 76.52 175.513 76.52C176.709 76.52 177.784 76.7973 178.737 77.352C179.69 77.9067 180.444 78.6693 180.999 79.64C181.571 80.5933 181.857 81.6593 181.857 82.838C181.857 84.0513 181.571 85.1433 180.999 86.114C180.444 87.0673 179.69 87.83 178.737 88.402C177.784 88.974 176.709 89.26 175.513 89.26ZM175.513 87.492C176.38 87.492 177.142 87.2927 177.801 86.894C178.477 86.4953 179.006 85.9407 179.387 85.23C179.786 84.5193 179.985 83.722 179.985 82.838C179.985 81.954 179.786 81.174 179.387 80.498C179.006 79.8047 178.477 79.2587 177.801 78.86C177.142 78.4613 176.38 78.262 175.513 78.262C174.664 78.262 173.901 78.4613 173.225 78.86C172.549 79.2587 172.02 79.8047 171.639 80.498C171.258 81.174 171.067 81.954 171.067 82.838C171.067 83.7393 171.258 84.5453 171.639 85.256C172.02 85.9493 172.549 86.4953 173.225 86.894C173.901 87.2927 174.664 87.492 175.513 87.492ZM189.588 89.26C188.6 89.26 187.716 89.0347 186.936 88.584C186.156 88.116 185.541 87.4833 185.09 86.686C184.657 85.8887 184.44 84.9527 184.44 83.878V76.78H186.286V83.8C186.286 84.5453 186.416 85.1953 186.676 85.75C186.954 86.3047 187.344 86.738 187.846 87.05C188.349 87.362 188.93 87.518 189.588 87.518C190.611 87.518 191.417 87.18 192.006 86.504C192.613 85.828 192.916 84.9267 192.916 83.8V76.78H194.736V83.878C194.736 84.9353 194.52 85.8713 194.086 86.686C193.653 87.5007 193.046 88.1333 192.266 88.584C191.486 89.0347 190.594 89.26 189.588 89.26ZM198.133 89V76.78H199.953V89H198.133ZM199.953 81.876L199.199 81.538C199.199 79.9953 199.572 78.7733 200.317 77.872C201.08 76.9707 202.12 76.52 203.437 76.52C204.044 76.52 204.598 76.6327 205.101 76.858C205.604 77.066 206.072 77.404 206.505 77.872L205.309 79.146C205.014 78.8167 204.685 78.5827 204.321 78.444C203.974 78.3053 203.576 78.236 203.125 78.236C202.189 78.236 201.426 78.548 200.837 79.172C200.248 79.7787 199.953 80.68 199.953 81.876ZM216.149 81.824V80.134H221.427C222.155 80.134 222.805 79.9867 223.377 79.692C223.966 79.3973 224.425 78.9813 224.755 78.444C225.101 77.8893 225.275 77.2307 225.275 76.468C225.275 75.7053 225.101 75.0553 224.755 74.518C224.425 73.9633 223.966 73.5387 223.377 73.244C222.805 72.932 222.155 72.776 221.427 72.776H216.149V71.112H221.557C222.631 71.112 223.593 71.3373 224.443 71.788C225.292 72.2213 225.959 72.8367 226.445 73.634C226.947 74.4313 227.199 75.376 227.199 76.468C227.199 77.5427 226.947 78.4873 226.445 79.302C225.959 80.0993 225.292 80.7233 224.443 81.174C223.593 81.6073 222.631 81.824 221.557 81.824H216.149ZM214.927 89V71.112H216.825V89H214.927ZM234.82 89.26C233.659 89.26 232.619 88.9827 231.7 88.428C230.781 87.856 230.053 87.0933 229.516 86.14C228.996 85.1867 228.736 84.112 228.736 82.916C228.736 81.7027 228.996 80.6193 229.516 79.666C230.053 78.6953 230.781 77.9327 231.7 77.378C232.619 76.806 233.65 76.52 234.794 76.52C235.73 76.52 236.562 76.7107 237.29 77.092C238.035 77.456 238.633 77.976 239.084 78.652C239.552 79.3107 239.838 80.082 239.942 80.966V84.788C239.838 85.672 239.552 86.452 239.084 87.128C238.633 87.804 238.035 88.3327 237.29 88.714C236.562 89.078 235.739 89.26 234.82 89.26ZM235.106 87.518C236.371 87.518 237.385 87.0933 238.148 86.244C238.928 85.3947 239.318 84.2767 239.318 82.89C239.318 81.9713 239.136 81.1653 238.772 80.472C238.425 79.7613 237.931 79.2153 237.29 78.834C236.666 78.4353 235.929 78.236 235.08 78.236C234.213 78.236 233.442 78.4353 232.766 78.834C232.107 79.2327 231.579 79.7873 231.18 80.498C230.799 81.1913 230.608 81.9887 230.608 82.89C230.608 83.7913 230.799 84.5887 231.18 85.282C231.579 85.9753 232.116 86.5213 232.792 86.92C233.468 87.3187 234.239 87.518 235.106 87.518ZM239.214 89V85.724L239.578 82.708L239.214 79.77V76.78H241.034V89H239.214ZM246.521 89V71.632H248.341V89H246.521ZM243.427 78.418V76.78H251.409V78.418H243.427ZM262.808 89V81.824C262.808 80.7493 262.488 79.8827 261.846 79.224C261.222 78.548 260.39 78.21 259.35 78.21C258.64 78.21 258.016 78.366 257.478 78.678C256.941 78.99 256.516 79.4147 256.204 79.952C255.892 80.4893 255.736 81.1047 255.736 81.798L254.904 81.33C254.904 80.4113 255.121 79.588 255.554 78.86C255.988 78.132 256.568 77.56 257.296 77.144C258.042 76.728 258.891 76.52 259.844 76.52C260.78 76.52 261.612 76.7367 262.34 77.17C263.068 77.586 263.632 78.1667 264.03 78.912C264.446 79.6573 264.654 80.524 264.654 81.512V89H262.808ZM253.916 89V70.592H255.736V89H253.916ZM275.543 89V71.632H277.363V89H275.543ZM272.449 78.418V76.78H280.431V78.418H272.449ZM288.044 89.26C286.865 89.26 285.791 88.974 284.82 88.402C283.867 87.83 283.104 87.0587 282.532 86.088C281.977 85.1173 281.7 84.034 281.7 82.838C281.7 81.6593 281.977 80.5933 282.532 79.64C283.104 78.6867 283.867 77.9327 284.82 77.378C285.791 76.806 286.865 76.52 288.044 76.52C289.24 76.52 290.315 76.7973 291.268 77.352C292.221 77.9067 292.975 78.6693 293.53 79.64C294.102 80.5933 294.388 81.6593 294.388 82.838C294.388 84.0513 294.102 85.1433 293.53 86.114C292.975 87.0673 292.221 87.83 291.268 88.402C290.315 88.974 289.24 89.26 288.044 89.26ZM288.044 87.492C288.911 87.492 289.673 87.2927 290.332 86.894C291.008 86.4953 291.537 85.9407 291.918 85.23C292.317 84.5193 292.516 83.722 292.516 82.838C292.516 81.954 292.317 81.174 291.918 80.498C291.537 79.8047 291.008 79.2587 290.332 78.86C289.673 78.4613 288.911 78.262 288.044 78.262C287.195 78.262 286.432 78.4613 285.756 78.86C285.08 79.2587 284.551 79.8047 284.17 80.498C283.789 81.174 283.598 81.954 283.598 82.838C283.598 83.7393 283.789 84.5453 284.17 85.256C284.551 85.9493 285.08 86.4953 285.756 86.894C286.432 87.2927 287.195 87.492 288.044 87.492ZM307.809 89L302.037 71.112H303.935L308.797 86.504H308.225L313.035 71.112H314.465L319.301 86.504H318.703L323.565 71.112H325.489L319.691 89H318.287L313.477 73.634H314.023L309.213 89H307.809ZM331.947 89.26C330.716 89.26 329.616 88.9827 328.645 88.428C327.674 87.8733 326.903 87.1107 326.331 86.14C325.776 85.1693 325.499 84.0773 325.499 82.864C325.499 81.668 325.776 80.5933 326.331 79.64C326.886 78.6693 327.64 77.9067 328.593 77.352C329.546 76.7973 330.612 76.52 331.791 76.52C332.9 76.52 333.88 76.7713 334.729 77.274C335.596 77.7767 336.272 78.4787 336.757 79.38C337.26 80.264 337.511 81.2867 337.511 82.448C337.511 82.5867 337.502 82.7513 337.485 82.942C337.468 83.1153 337.433 83.3233 337.381 83.566H326.799V82.006H336.393L335.743 82.578C335.76 81.6767 335.604 80.9053 335.275 80.264C334.963 79.6053 334.504 79.1027 333.897 78.756C333.308 78.392 332.588 78.21 331.739 78.21C330.855 78.21 330.084 78.4007 329.425 78.782C328.766 79.1633 328.246 79.7007 327.865 80.394C327.501 81.07 327.319 81.876 327.319 82.812C327.319 83.748 327.51 84.5713 327.891 85.282C328.29 85.9927 328.836 86.5473 329.529 86.946C330.24 87.3447 331.054 87.544 331.973 87.544C332.718 87.544 333.403 87.414 334.027 87.154C334.651 86.8767 335.18 86.4693 335.613 85.932L336.783 87.128C336.211 87.804 335.5 88.3327 334.651 88.714C333.819 89.078 332.918 89.26 331.947 89.26ZM340.295 89V70.592H342.115V89H340.295ZM345.805 89V70.592H347.625V89H345.805ZM360.207 89V81.824C360.207 80.7493 359.886 79.8827 359.245 79.224C358.621 78.548 357.789 78.21 356.749 78.21C356.038 78.21 355.414 78.366 354.877 78.678C354.339 78.99 353.915 79.4147 353.603 79.952C353.291 80.4893 353.135 81.1047 353.135 81.798L352.303 81.33C352.303 80.4113 352.519 79.588 352.953 78.86C353.386 78.132 353.967 77.56 354.695 77.144C355.44 76.728 356.289 76.52 357.243 76.52C358.179 76.52 359.011 76.7453 359.739 77.196C360.467 77.6467 361.03 78.2533 361.429 79.016C361.845 79.7787 362.053 80.6107 362.053 81.512V89H360.207ZM351.315 89V76.78H353.135V89H351.315ZM371.099 89.26C369.869 89.26 368.768 88.9827 367.797 88.428C366.827 87.8733 366.055 87.1107 365.483 86.14C364.929 85.1693 364.651 84.0773 364.651 82.864C364.651 81.668 364.929 80.5933 365.483 79.64C366.038 78.6693 366.792 77.9067 367.745 77.352C368.699 76.7973 369.765 76.52 370.943 76.52C372.053 76.52 373.032 76.7713 373.881 77.274C374.748 77.7767 375.424 78.4787 375.909 79.38C376.412 80.264 376.663 81.2867 376.663 82.448C376.663 82.5867 376.655 82.7513 376.637 82.942C376.62 83.1153 376.585 83.3233 376.533 83.566H365.951V82.006H375.545L374.895 82.578C374.913 81.6767 374.757 80.9053 374.427 80.264C374.115 79.6053 373.656 79.1027 373.049 78.756C372.46 78.392 371.741 78.21 370.891 78.21C370.007 78.21 369.236 78.4007 368.577 78.782C367.919 79.1633 367.399 79.7007 367.017 80.394C366.653 81.07 366.471 81.876 366.471 82.812C366.471 83.748 366.662 84.5713 367.043 85.282C367.442 85.9927 367.988 86.5473 368.681 86.946C369.392 87.3447 370.207 87.544 371.125 87.544C371.871 87.544 372.555 87.414 373.179 87.154C373.803 86.8767 374.332 86.4693 374.765 85.932L375.935 87.128C375.363 87.804 374.653 88.3327 373.803 88.714C372.971 89.078 372.07 89.26 371.099 89.26ZM383.192 89.26C382.533 89.26 381.9 89.1733 381.294 89C380.687 88.8093 380.132 88.5493 379.63 88.22C379.144 87.8907 378.72 87.5007 378.356 87.05L379.526 85.854C380.011 86.4433 380.557 86.8853 381.164 87.18C381.788 87.4573 382.481 87.596 383.244 87.596C384.058 87.596 384.691 87.44 385.142 87.128C385.61 86.816 385.844 86.3827 385.844 85.828C385.844 85.308 385.679 84.9007 385.35 84.606C385.02 84.3113 384.596 84.0773 384.076 83.904C383.573 83.7307 383.036 83.566 382.464 83.41C381.892 83.2367 381.346 83.0287 380.826 82.786C380.306 82.526 379.881 82.1707 379.552 81.72C379.24 81.2693 379.084 80.68 379.084 79.952C379.084 79.2587 379.248 78.6607 379.578 78.158C379.924 77.638 380.41 77.2393 381.034 76.962C381.675 76.6673 382.429 76.52 383.296 76.52C384.214 76.52 385.046 76.6847 385.792 77.014C386.537 77.3433 387.135 77.8287 387.586 78.47L386.416 79.64C386.052 79.172 385.592 78.8167 385.038 78.574C384.5 78.314 383.894 78.184 383.218 78.184C382.438 78.184 381.84 78.34 381.424 78.652C381.025 78.9467 380.826 79.3367 380.826 79.822C380.826 80.29 380.99 80.6627 381.32 80.94C381.649 81.2 382.065 81.4167 382.568 81.59C383.088 81.746 383.634 81.9107 384.206 82.084C384.778 82.24 385.324 82.4567 385.844 82.734C386.364 82.994 386.78 83.358 387.092 83.826C387.421 84.2767 387.586 84.892 387.586 85.672C387.586 86.764 387.187 87.6393 386.39 88.298C385.61 88.9393 384.544 89.26 383.192 89.26ZM394.211 89.26C393.552 89.26 392.92 89.1733 392.313 89C391.706 88.8093 391.152 88.5493 390.649 88.22C390.164 87.8907 389.739 87.5007 389.375 87.05L390.545 85.854C391.03 86.4433 391.576 86.8853 392.183 87.18C392.807 87.4573 393.5 87.596 394.263 87.596C395.078 87.596 395.71 87.44 396.161 87.128C396.629 86.816 396.863 86.3827 396.863 85.828C396.863 85.308 396.698 84.9007 396.369 84.606C396.04 84.3113 395.615 84.0773 395.095 83.904C394.592 83.7307 394.055 83.566 393.483 83.41C392.911 83.2367 392.365 83.0287 391.845 82.786C391.325 82.526 390.9 82.1707 390.571 81.72C390.259 81.2693 390.103 80.68 390.103 79.952C390.103 79.2587 390.268 78.6607 390.597 78.158C390.944 77.638 391.429 77.2393 392.053 76.962C392.694 76.6673 393.448 76.52 394.315 76.52C395.234 76.52 396.066 76.6847 396.811 77.014C397.556 77.3433 398.154 77.8287 398.605 78.47L397.435 79.64C397.071 79.172 396.612 78.8167 396.057 78.574C395.52 78.314 394.913 78.184 394.237 78.184C393.457 78.184 392.859 78.34 392.443 78.652C392.044 78.9467 391.845 79.3367 391.845 79.822C391.845 80.29 392.01 80.6627 392.339 80.94C392.668 81.2 393.084 81.4167 393.587 81.59C394.107 81.746 394.653 81.9107 395.225 82.084C395.797 82.24 396.343 82.4567 396.863 82.734C397.383 82.994 397.799 83.358 398.111 83.826C398.44 84.2767 398.605 84.892 398.605 85.672C398.605 86.764 398.206 87.6393 397.409 88.298C396.629 88.9393 395.563 89.26 394.211 89.26Z" fill="#5CAB56"/>
<g style="mix-blend-mode:multiply">
<path d="M120.593 40.5087C92.6694 40.668 81.4271 61.1727 79.9706 64.063C79.834 64.3664 79.6823 64.6623 79.5154 64.9505C77.1486 69.411 75.6694 74.0536 74.7818 78.4686C77.1941 76.1246 80.1526 73.4164 83.3615 70.7537L83.4753 70.64L84.0669 70.162C84.4462 69.8434 84.8331 69.5248 85.2276 69.2062C85.4097 69.0469 85.5917 68.8876 85.7965 68.7283C85.9938 68.5766 86.191 68.4249 86.3882 68.2732C86.7827 67.9697 87.1772 67.6663 87.5716 67.3628C88.1178 66.9684 88.6564 66.5815 89.1874 66.2022C92.0777 64.1085 95.0589 62.2196 97.9947 60.7176C98.374 60.5052 98.7457 60.3004 99.1098 60.1031C99.4739 59.8983 99.8153 59.7162 100.157 59.5569C100.506 59.3749 100.847 59.2004 101.181 59.0335C101.515 58.8666 101.841 58.6997 102.159 58.5328C102.478 58.3735 102.774 58.2142 103.092 58.0777C103.699 57.7894 104.276 57.5163 104.822 57.2584C105.368 57.0005 105.884 56.7653 106.37 56.5529C106.84 56.3405 107.28 56.1509 107.689 55.984C109.26 55.3013 110.17 54.9144 110.17 54.9144C110.17 54.9144 109.305 55.3923 107.78 56.2116C107.401 56.424 106.984 56.6515 106.529 56.8943C106.089 57.1522 105.603 57.4329 105.072 57.7363C104.556 58.0398 104.01 58.3584 103.434 58.6922C103.138 58.8742 102.842 59.0563 102.546 59.2383C102.243 59.4356 101.939 59.6328 101.636 59.83C101.317 60.0273 100.999 60.2245 100.68 60.4217C100.361 60.6266 100.02 60.8314 99.7015 61.059C99.0339 61.5141 98.3512 61.9769 97.6533 62.4472C97.4864 62.5686 97.3119 62.6899 97.1299 62.8113C96.963 62.9327 96.7885 63.054 96.6065 63.1754C96.2575 63.4333 95.9085 63.6913 95.5596 63.9492C95.1955 64.2071 94.8314 64.4726 94.4672 64.7457C94.1031 65.0188 93.7617 65.3146 93.3976 65.5877C91.9411 66.7029 90.5074 67.9318 89.0736 69.2062C88.7247 69.5248 88.3757 69.851 88.0268 70.1848C87.8447 70.3517 87.6627 70.511 87.4806 70.6627C87.2985 70.822 87.1392 71.0041 86.9572 71.1861C86.6234 71.5199 86.282 71.8537 85.9331 72.1875L85.4324 72.7109L84.9318 73.2343C84.2718 73.9626 83.589 74.6453 82.9746 75.3736C82.6711 75.7377 82.3601 76.1018 82.0415 76.4659C81.7533 76.8452 81.4574 77.2169 81.154 77.5811C80.5623 78.3093 80.0161 79.0831 79.4699 79.8341C79.1968 80.1982 78.9465 80.5851 78.6961 80.9492C78.5748 81.1464 78.4534 81.3361 78.332 81.5181C78.1955 81.7002 78.0589 81.8823 77.9451 82.0871C77.49 82.8381 77.0121 83.5663 76.6024 84.3174C76.4962 84.5146 76.39 84.7042 76.2838 84.8863C76.2535 84.947 76.2231 85.0077 76.1928 85.0684C73.0522 91.2812 73.6667 97.5851 73.9398 99.3374C73.9853 99.6561 74.008 99.8154 74.008 99.8154C74.0232 99.6485 74.046 99.4816 74.0763 99.3147C75.237 88.3227 84.3628 79.8796 95.4231 79.5155C113.288 78.901 119.615 68.7966 123.461 58.3735C127.944 46.1982 136 42.0107 136 42.0107C130.356 40.7818 125.236 40.3494 120.593 40.5087Z" fill="#A4CD38"/>
</g>
<g style="mix-blend-mode:multiply">
<path d="M15.407 40.5087C43.3307 40.668 54.573 61.1727 56.0295 64.063C56.1661 64.3664 56.3178 64.6623 56.4847 64.9505C58.8515 69.411 60.3307 74.0536 61.2183 78.4686C58.806 76.1246 55.8474 73.4164 52.6386 70.7537L52.5248 70.64L51.9331 70.162C51.5538 69.8434 51.1669 69.5248 50.7725 69.2062C50.5904 69.0469 50.4083 68.8876 50.2035 68.7283C50.0063 68.5766 49.8091 68.4249 49.6118 68.2732C49.2174 67.9697 48.8229 67.6663 48.4284 67.3628C47.8822 66.9684 47.3436 66.5815 46.8126 66.2022C43.9224 64.1085 40.9411 62.2196 38.0054 60.7176C37.6261 60.5052 37.2544 60.3004 36.8903 60.1031C36.5261 59.8983 36.1848 59.7162 35.8434 59.5569C35.4945 59.3749 35.1531 59.2004 34.8193 59.0335C34.4855 58.8666 34.1593 58.6997 33.8407 58.5328C33.5221 58.3735 33.2263 58.2142 32.9077 58.0777C32.3008 57.7894 31.7243 57.5163 31.1781 57.2584C30.6319 57.0005 30.1161 56.7653 29.6306 56.5529C29.1602 56.3405 28.7202 56.1509 28.3106 55.984C26.7403 55.3013 25.83 54.9144 25.83 54.9144C25.83 54.9144 26.6948 55.3923 28.2196 56.2116C28.5989 56.424 29.0161 56.6515 29.4713 56.8943C29.9112 57.1522 30.3967 57.4329 30.9277 57.7363C31.4436 58.0398 31.9898 58.3584 32.5663 58.6922C32.8621 58.8742 33.158 59.0563 33.4539 59.2383C33.7573 59.4356 34.0607 59.6328 34.3642 59.83C34.6828 60.0273 35.0014 60.2245 35.32 60.4217C35.6386 60.6266 35.98 60.8314 36.2986 61.059C36.9661 61.5141 37.6489 61.9769 38.3468 62.4472C38.5137 62.5686 38.6881 62.6899 38.8702 62.8113C39.0371 62.9327 39.2116 63.054 39.3936 63.1754C39.7426 63.4333 40.0915 63.6913 40.4405 63.9492C40.8046 64.2071 41.1687 64.4726 41.5328 64.7457C41.897 65.0188 42.2383 65.3146 42.6025 65.5877C44.0589 66.7029 45.4927 67.9318 46.9264 69.2062C47.2754 69.5248 47.6243 69.851 47.9733 70.1848C48.1553 70.3517 48.3374 70.511 48.5195 70.6627C48.7015 70.822 48.8608 71.0041 49.0429 71.1861C49.3767 71.5199 49.718 71.8537 50.067 72.1875L50.5677 72.7109L51.0683 73.2343C51.7283 73.9626 52.411 74.6453 53.0255 75.3736C53.3289 75.7377 53.6399 76.1018 53.9586 76.4659C54.2468 76.8452 54.5427 77.2169 54.8461 77.5811C55.4378 78.3093 55.984 79.0831 56.5302 79.8341C56.8033 80.1982 57.0536 80.5851 57.3039 80.9492C57.4253 81.1464 57.5467 81.3361 57.6681 81.5181C57.8046 81.7002 57.9412 81.8823 58.0549 82.0871C58.5101 82.8381 58.988 83.5663 59.3977 84.3174C59.5039 84.5146 59.6101 84.7042 59.7163 84.8863C59.7466 84.947 59.7769 85.0077 59.8073 85.0684C62.9479 91.2812 62.3334 97.5851 62.0603 99.3374C62.0148 99.6561 61.992 99.8154 61.992 99.8154C61.9769 99.6485 61.9541 99.4816 61.9238 99.3147C60.7631 88.3227 51.6373 79.8796 40.577 79.5155C22.7122 78.901 16.3856 68.7966 12.5395 58.3735C8.05623 46.1982 0 42.0107 0 42.0107C5.64391 40.7818 10.7644 40.3494 15.407 40.5087Z" fill="#A4CD38"/>
</g>
<g style="mix-blend-mode:multiply">
<path d="M89.2326 45.5155C89.3236 47.2299 89.3236 48.9291 89.2326 50.6132C89.3388 50.507 89.445 50.4084 89.5512 50.3173C93.3518 47.0857 97.6074 44.5369 102.205 42.6935C102.933 42.4204 103.661 42.1549 104.389 41.897C104.731 36.8675 104.207 30.8823 102.455 23.7363C95.9006 27.241 91.076 30.9278 87.5713 34.569C88.4968 38.3013 89.0505 41.9501 89.2326 45.5155Z" fill="#6DBD44"/>
</g>
<g style="mix-blend-mode:multiply">
<path d="M33.7946 42.6935C38.3917 44.5369 42.6473 47.0857 46.4479 50.3173C46.5541 50.4084 46.6603 50.507 46.7665 50.6132C46.6755 48.9291 46.6755 47.2299 46.7665 45.5155C46.9486 41.768 47.5554 37.9296 48.5871 34.0001C45.1279 30.5409 40.4626 27.0817 34.2497 23.7363C32.4519 30.996 31.9512 37.0724 32.3153 42.1473C32.816 42.3294 33.3091 42.5114 33.7946 42.6935Z" fill="#6DBD44"/>
</g>
<g style="mix-blend-mode:multiply">
<path fill-rule="evenodd" clip-rule="evenodd" d="M79.9021 73.7123C72.961 79.8569 67.9998 85.4097 67.9998 85.4097C67.9998 85.4097 63.0386 79.8569 56.0975 73.7123C46.8351 60.6266 39.803 36.3441 67.9998 0C96.1966 36.3441 89.1645 60.6266 79.9021 73.7123ZM75.305 70.1393C75.305 66.1112 72.0507 62.8341 67.9998 62.8341C63.9489 62.8341 60.6946 66.1112 60.6946 70.1393C60.6946 74.1902 63.9489 77.4673 67.9998 77.4673C72.0507 77.4673 75.305 74.1902 75.305 70.1393Z" fill="#87C440"/>
</g>
</svg>
