<svg width="417" height="417" viewBox="0 0 417 417" fill="none" xmlns="http://www.w3.org/2000/svg">
<mask id="mask0_200_48" style="mask-type:luminance" maskUnits="userSpaceOnUse" x="0" y="0" width="417" height="417">
<path d="M417 416.84H0.160156V0H417V416.84Z" fill="white"/>
</mask>
<g mask="url(#mask0_200_48)">
<path d="M277.521 362.963C187.796 400.935 84.2895 358.925 46.3594 269.2C8.42929 179.475 50.3981 75.9685 140.123 38.0384C229.848 0.10824 333.354 42.077 371.284 131.802C409.214 221.568 367.246 325.033 277.521 362.963Z" fill="#334159"/>
<path d="M274.523 355.927C188.712 392.233 89.702 352.055 53.3957 266.244C17.0893 180.391 57.2678 81.3812 143.121 45.0749C228.932 8.81018 327.941 48.947 364.248 134.8C400.554 220.653 360.376 319.662 274.523 355.927Z" fill="#3A4966"/>
<path d="M131.338 265.786C95.0313 179.933 135.21 80.9232 221.021 44.6169C229.515 41.0362 238.133 38.205 246.793 36.0816C213.318 28.3374 177.179 30.669 143.121 45.0749C57.2678 81.3812 17.0893 180.391 53.3957 266.244C86.0797 343.603 169.726 383.865 248.792 364.504C197.913 352.679 153.196 317.539 131.338 265.786Z" fill="#435375"/>
<path d="M265.28 330.779C194.666 360.632 113.226 327.573 83.3733 256.959C53.5205 186.345 86.5376 104.905 157.152 75.0526C227.766 45.1998 309.247 78.2169 339.1 148.873C368.953 219.487 335.894 300.926 265.28 330.779Z" fill="#263247"/>
<path d="M262.865 328.364C192.251 358.217 110.811 325.2 80.9586 254.586C51.1058 183.972 84.1646 102.49 154.779 72.6377C225.393 42.7849 306.832 75.8436 336.685 146.458C366.538 217.072 333.521 298.511 262.865 328.364Z" fill="#33425E"/>
<g style="mix-blend-mode:overlay">
<path fill-rule="evenodd" clip-rule="evenodd" d="M258.951 57.0244C259.867 53.9849 258.202 50.779 255.162 49.8214C252.456 48.9887 249.666 48.2392 246.918 47.5314C243.879 46.782 240.756 48.6556 240.007 51.695C239.216 54.776 241.089 57.8987 244.17 58.6481C246.71 59.3143 249.292 60.0221 251.79 60.8132C253.913 61.4377 256.078 60.8132 257.535 59.3559C258.16 58.7314 258.66 57.9403 258.951 57.0244ZM233.303 50.4459C233.72 47.3232 231.471 44.4504 228.349 44.0757C200.952 40.6199 172.973 44.5336 147.451 55.3173C144.536 56.5664 143.162 59.8972 144.37 62.8534C145.619 65.7679 148.991 67.1002 151.906 65.8928C175.596 55.8586 201.535 52.2362 226.892 55.4422C228.723 55.6504 230.472 55.0258 231.68 53.8184C232.554 52.9441 233.137 51.7783 233.303 50.4459Z" fill="#C1CADE"/>
</g>
</g>
<g style="mix-blend-mode:multiply">
<path d="M174.18 205.164C173.306 202.833 174.055 202.541 173.181 200.168C172.306 197.836 172.182 197.92 170.641 195.921C169.267 194.214 169.017 196.046 166.602 196.046C165.145 196.046 163.521 195.172 162.147 195.297C159.816 195.505 157.443 196.504 157.692 197.337C157.984 198.294 159.025 199.668 158.775 201.542C158.567 202.791 157.276 203.957 156.776 205.497C156.36 206.788 155.902 208.079 155.236 209.494C154.403 211.285 154.278 213.2 153.279 213.908C151.031 215.448 150.448 213.158 148.408 214.282C148.408 214.31 148.408 214.338 148.408 214.366C147.492 214.407 146.576 214.574 145.618 214.699C144.577 214.907 144.494 215.282 143.953 214.407C142.62 212.326 143.619 212.201 143.203 209.744C142.828 207.329 141.829 207.496 141.454 205.081C141.038 202.624 141.08 202.624 140.663 200.21C140.289 197.795 141.246 197.628 140.83 195.213C140.455 192.798 139.456 192.965 139.081 190.55C138.748 188.593 138.207 187.011 136.958 185.679C135.709 184.346 134.127 183.68 132.295 183.097C130.587 182.556 128.88 182.265 127.007 182.556C125.05 182.889 123.26 183.305 121.844 184.346C120.262 185.429 119.429 187.053 118.68 188.718C117.972 190.384 117.222 192.132 117.556 194.047C117.972 196.462 118.43 196.421 118.846 198.836C119.221 201.25 119.179 201.25 119.554 203.665C119.97 206.122 120.095 206.08 120.512 208.495C120.886 210.952 120.428 210.993 120.803 213.45C121.219 215.865 123.093 216.323 121.636 218.279C120.179 220.32 119.263 219.362 116.764 219.737C114.308 220.153 114.1 218.904 111.643 219.32C109.145 219.737 109.187 220.028 106.73 220.445C104.274 220.861 104.399 221.485 101.9 221.027C102.317 219.362 102.608 218.238 103.025 216.614C103.441 214.99 103.608 213.325 104.024 211.701C104.44 210.077 104.857 208.453 105.273 206.83C105.689 205.206 106.147 203.582 106.564 201.958C106.98 200.334 108.146 198.919 108.562 197.295C108.979 195.671 108.271 193.756 108.687 192.132C109.103 190.522 109.52 188.899 109.936 187.261C110.353 185.679 111.227 184.18 111.643 182.514C112.06 180.932 112.934 179.433 113.35 177.768C113.767 176.186 114.183 174.562 114.599 172.897C114.974 171.314 114.558 169.441 114.974 167.817C115.39 166.193 116.764 164.819 117.181 163.195C117.597 161.572 117.056 159.74 117.472 158.074C117.889 156.534 118.888 155.451 118.721 154.494C118.43 152.62 116.723 151.163 115.432 149.789C114.183 148.456 112.684 147.207 110.935 146.541C109.187 145.917 107.271 146.125 105.481 146.416C103.399 146.749 101.193 147.082 99.6105 148.456C98.0284 149.789 97.1957 151.871 96.7377 153.911C96.1131 156.45 95.8633 156.367 95.2388 158.865C94.5726 161.405 94.7391 161.447 94.1146 163.945C93.4901 166.443 92.9905 166.318 92.3659 168.816C91.7414 171.314 91.5332 171.273 90.9087 173.771C90.2841 176.269 90.409 176.311 89.7845 178.809C89.1183 181.307 89.2849 181.349 88.6603 183.888C88.0358 186.387 87.7444 186.303 87.1198 188.801C86.4953 191.3 86.4953 191.3 85.8707 193.839C85.2462 196.337 85.3295 196.337 84.6633 198.836C84.0388 201.334 84.0804 201.375 83.4559 203.874C82.8313 206.372 82.7064 206.33 82.0819 208.828C81.4157 211.368 82.2068 211.535 81.5823 214.033C80.9577 216.572 81.041 216.572 80.4165 219.071C79.7919 221.569 79.667 221.569 79.0425 224.067C78.418 226.565 78.5429 226.607 77.8767 229.105C77.2522 231.311 77.0856 234.184 77.2105 234.809C77.502 236.807 78.1265 238.681 79.4172 240.138C80.6246 241.595 82.5399 242.053 84.4551 242.72C86.2038 243.303 87.9942 244.468 90.076 244.135C92.5741 243.719 92.4908 243.344 94.989 242.928C97.4871 242.511 97.5704 242.886 100.027 242.511C102.525 242.095 102.483 241.845 104.982 241.429C107.48 241.054 107.396 240.596 109.895 240.18C112.393 239.764 112.434 240.18 114.932 239.764C117.431 239.389 117.472 239.722 119.97 239.305C122.469 238.889 123.093 236.183 125.216 237.515C127.09 238.681 124.55 240.346 124.925 242.511C125.258 244.677 126.507 244.468 126.882 246.633C127.215 248.798 126.59 248.923 126.965 251.088C127.257 253.004 127.715 255.085 128.922 256.418C130.171 257.792 132.086 258.833 133.918 259.374C135.584 259.874 137.666 259.957 139.622 259.665C141.579 259.332 143.411 258.416 144.827 257.417C146.409 256.293 146.992 254.419 147.741 252.754C148.449 251.088 148.491 249.548 148.158 247.591C147.783 245.426 148.033 245.384 147.95 243.178C147.825 240.971 147.575 241.013 147.242 238.848C146.867 236.682 146.701 236.766 147.283 234.642C147.575 233.643 147.866 234.934 148.907 234.767C150.822 234.434 152.113 232.727 153.529 231.686C155.028 230.562 156.443 229.479 157.109 227.814C157.817 226.149 158.109 224.317 157.817 222.443C157.692 221.652 157.443 220.861 157.151 220.153C157.345 219.931 157.54 219.695 157.734 219.445C158.816 218.071 160.274 216.947 161.689 215.906C163.147 214.824 164.854 214.199 166.394 213.408C168.101 212.575 169.475 211.16 170.974 210.66C173.93 209.619 176.012 212.367 176.22 209.744C176.387 207.246 175.054 207.496 174.18 205.164Z" fill="#435375"/>
</g>
<g style="mix-blend-mode:multiply">
<path d="M355.004 225.108C353.547 222.734 351.257 220.903 348.218 219.987C347.135 219.653 345.845 220.278 345.928 219.154C346.094 214.74 347.552 214.99 348.842 210.743C350.133 206.538 350.133 206.538 351.424 202.291C352.714 198.086 352.256 197.92 353.547 193.714C354.463 190.675 354.713 187.344 353.131 184.846C351.59 182.39 348.717 180.349 345.678 179.433C342.555 178.476 339.141 178.767 336.56 179.891C333.853 181.14 331.397 183.597 330.481 186.678C329.19 190.925 330.065 191.175 328.774 195.421C327.483 199.627 326.734 199.419 325.443 203.624C324.152 207.871 327.108 210.077 323.028 211.743C317.99 213.783 318.032 210.619 312.827 209.036C307.665 207.454 307.123 208.703 302.71 205.581C304.917 202.958 306.457 200.334 308.581 197.836C310.787 195.213 313.702 193.298 315.867 190.8C318.074 188.219 319.406 184.971 321.571 182.431C323.778 179.891 326.234 177.56 328.441 175.02C330.606 172.48 333.562 170.607 335.769 168.025C337.934 165.527 339.1 162.113 341.306 159.49C343.471 156.992 346.427 155.118 348.676 152.495C349.758 151.204 349.717 149.747 350.05 148.748C350.924 145.875 350.258 142.794 348.676 140.171C347.135 137.548 344.762 135.466 341.931 134.592C337.601 133.301 333.021 134.758 330.19 138.256C326.817 142.253 325.859 141.462 322.445 145.459C319.073 149.414 319.364 149.705 315.992 153.703C312.619 157.658 313.161 158.158 309.746 162.113C306.374 166.11 305.541 165.402 302.169 169.399C298.755 173.396 299.213 173.771 295.84 177.768C292.509 181.723 292.759 182.015 289.511 185.887C289.456 185.887 289.414 185.887 289.387 185.887C287.721 186.262 286.555 187.427 285.306 187.719C283.599 188.177 282.059 187.344 280.851 187.386C279.436 187.386 277.937 187.719 276.771 186.303C275.855 185.221 275.605 182.972 274.439 181.307C273.398 179.766 271.566 178.809 270.359 177.643C268.819 176.186 267.569 175.478 265.862 176.186C264.03 176.935 263.614 178.351 264.405 180.391C264.946 181.807 265.571 183.68 266.737 185.221C267.819 186.636 269.152 188.052 270.276 189.176C271.733 190.633 273.523 191.716 273.981 193.59C274.356 195.338 273.648 197.337 273.482 199.377C273.357 201.209 273.024 203.082 272.691 204.998C272.663 205.248 272.663 205.483 272.691 205.705C272.399 206.33 272.233 206.788 272.191 206.996C271.233 210.119 272.024 213.075 273.607 215.823C275.064 218.404 277.062 220.694 280.435 221.694C285.015 223.109 285.015 223.068 289.553 224.442C294.133 225.857 293.925 226.523 298.505 227.939C303.043 229.313 303.126 229.105 307.665 230.479C312.245 231.894 315.326 228.439 316.741 232.977C318.823 239.805 314.868 239.764 312.786 246.55C311.87 249.631 312.661 252.462 314.243 255.002C315.742 257.417 317.782 259.874 320.905 260.831C324.069 261.789 327.108 260.873 329.69 259.749C332.438 258.5 333.062 257.001 333.978 253.92C336.06 247.133 334.686 247.3 337.434 243.802C338.142 242.928 340.682 240.846 341.764 241.179C344.845 242.137 347.968 241.013 350.508 239.805C353.172 238.556 354.921 236.349 355.795 233.352C356.67 230.52 356.545 227.648 355.004 225.108Z" fill="#435375"/>
</g>
<g style="mix-blend-mode:multiply">
<path d="M127.007 163.529C128.09 164.403 128.964 165.777 128.715 167.442C128.506 168.733 127.257 169.857 126.258 171.106C125.259 172.355 124.426 173.854 123.177 174.312C121.636 174.937 120.263 174.062 119.18 173.188C118.097 172.314 116.765 171.148 117.015 169.482C117.223 168.192 118.056 166.568 119.055 165.277C120.096 164.028 121.636 163.195 122.844 162.696C124.426 162.113 125.925 162.654 127.007 163.529Z" fill="#435375"/>
</g>
<g style="mix-blend-mode:multiply">
<path d="M324.36 126.14C325.151 126.806 325.818 127.763 325.609 128.971C325.443 129.928 324.569 130.72 323.819 131.636C323.07 132.552 322.487 133.634 321.612 134.009C320.447 134.425 319.489 133.801 318.698 133.176C317.907 132.51 316.949 131.677 317.116 130.47C317.282 129.512 317.865 128.346 318.615 127.43C319.364 126.514 320.447 125.89 321.363 125.557C322.487 125.099 323.569 125.515 324.36 126.14Z" fill="#435375"/>
</g>
<g style="mix-blend-mode:multiply">
<path d="M160.607 234.559C159.025 235.267 157.442 236.016 156.859 237.598C156.318 239.139 156.36 241.096 157.109 242.678C157.734 244.052 159.024 245.259 160.773 246.134C162.605 247.05 164.229 246.758 165.728 246.675C167.518 246.592 169.142 246.05 170.849 246.009C172.348 245.967 174.222 246.3 175.97 247.424C177.802 248.59 178.677 248.715 179.593 248.091C180.633 247.424 181.882 246.217 181.758 244.427C181.674 243.094 180.717 241.637 179.967 240.305C179.176 238.931 177.552 237.848 175.887 236.599C174.471 235.558 173.139 234.018 171.307 233.352C169.6 232.769 167.685 233.227 165.769 233.268C163.979 233.31 162.397 233.726 160.607 234.559Z" fill="#435375"/>
</g>
<g style="mix-blend-mode:multiply">
<path d="M294.383 143.668C293.009 144.376 291.51 145.167 290.177 146.125C288.887 147.082 287.971 148.498 286.763 149.581C285.598 150.705 284.099 151.537 283.099 152.745C282.058 154.036 281.392 155.618 280.601 156.908C279.685 158.407 278.686 159.781 278.27 161.155C277.687 162.946 277.479 164.861 278.02 166.152C278.561 167.442 280.185 168.358 282.225 168.65C284.557 169.024 286.513 168.691 287.846 167.65C289.178 166.61 289.386 164.403 290.344 162.571C291.135 161.03 292.801 159.74 293.716 158.116C294.632 156.492 295.632 155.118 297.047 153.869C298.338 152.703 299.504 150.913 301.502 150.372C303.418 149.872 305.166 149.289 306.79 148.623C308.705 147.873 310.829 147.915 312.244 147.041C314.243 145.917 315.45 144.334 316.283 143.085C317.49 141.337 317.366 139.796 315.7 138.256C314.576 137.215 313.202 136.715 311.537 136.84C310.121 136.923 308.622 137.256 306.998 137.839C305.624 138.381 304 138.589 302.585 139.296C301.169 140.004 300.295 141.67 298.921 142.378C297.505 143.127 295.715 143.044 294.383 143.668Z" fill="#435375"/>
</g>
<g style="mix-blend-mode:multiply">
<path d="M290.468 240.138C288.886 239.972 287.137 239.972 285.388 239.93C283.723 239.93 281.974 239.93 280.309 240.097C278.56 240.305 276.853 240.763 275.396 241.262C273.606 241.887 272.731 243.303 271.774 244.51C270.774 245.717 270.358 246.758 270.733 248.757C271.149 250.964 271.94 251.796 273.314 252.546C274.73 253.295 276.312 253.42 278.185 253.67C279.893 253.92 281.891 254.211 283.473 254.961C284.972 255.627 286.346 257.084 287.387 258.833C288.261 260.332 289.552 261.456 291.093 262.663C292.508 263.787 294.049 264.578 295.714 265.286C297.504 266.036 299.128 266.66 300.794 266.702C302.834 266.743 304.624 266.619 305.665 265.161C306.498 263.995 306.748 262.247 306.456 259.832C306.248 257.917 306.123 256.085 305.582 254.461C305.041 252.629 303.875 251.172 303 249.673C302.043 248.007 301.418 246.175 300.211 244.926C298.837 243.594 297.088 242.845 295.548 242.053C293.841 241.138 292.133 240.305 290.468 240.138Z" fill="#435375"/>
</g>
<g style="mix-blend-mode:multiply">
<path d="M257.077 231.27C255.87 232.727 255.37 235.017 254.329 236.516C252.706 238.847 251.457 240.596 252.498 241.47C253.205 242.095 254.996 242.511 258.202 241.637C259.825 241.221 261.324 240.263 262.948 239.597C264.53 238.972 266.029 238.056 267.486 237.307C269.11 236.474 270.776 235.933 272.066 235.017C273.773 233.81 274.731 232.394 275.356 231.27C276.272 229.688 276.313 227.856 273.773 227.148C271.525 226.482 269.443 226.856 267.736 226.773C265.53 226.648 263.573 226.773 261.949 227.647C260.367 228.48 258.493 229.521 257.077 231.27Z" fill="#435375"/>
</g>
<g style="mix-blend-mode:multiply">
<path d="M136.834 146.416C135.501 147.291 134.502 148.665 133.961 150.039C133.42 151.454 133.128 153.161 133.295 154.66C133.461 156.242 134.169 157.866 135.043 159.032C135.959 160.198 137.375 161.572 138.957 161.821C140.415 162.071 142.371 161.322 143.954 160.406C145.203 159.656 146.077 157.991 147.243 156.783C148.367 155.618 149.241 154.285 150.116 152.953C150.99 151.537 151.656 150.122 152.114 148.706C152.739 146.957 152.822 145.583 152.489 144.21C152.073 142.461 151.365 141.711 149.658 141.67C148.325 141.628 146.535 141.42 144.953 141.961C143.496 142.461 142.538 144.293 141.247 144.917C139.415 145.833 137.5 145.958 136.834 146.416Z" fill="#435375"/>
</g>
<g style="mix-blend-mode:multiply">
<path d="M85.3717 252.421C83.4565 251.921 81.9576 250.797 80.3754 250.006C78.5851 249.09 76.6282 248.757 75.2126 247.758C73.4639 246.55 72.2565 244.926 70.9657 244.052C68.8423 242.678 66.9271 242.262 65.5531 243.636C64.762 244.385 64.9286 246.259 65.3449 248.465C65.6364 249.839 65.4698 251.713 66.1776 253.337C66.7605 254.794 68.2594 255.918 69.0921 257.375C69.9249 258.791 70.7992 260.165 71.7985 261.414C72.881 262.705 73.6721 264.287 74.8795 265.245C76.2118 266.327 77.8356 267.077 79.2929 267.493C80.875 267.951 82.4572 267.451 84.0394 266.868C85.7464 266.285 87.5784 265.911 89.1189 264.87C90.6178 263.871 91.742 262.33 92.991 261.081C94.365 259.749 95.6141 258.416 96.5717 257.042C97.7791 255.335 98.7368 253.753 99.278 252.338C100.236 249.798 100.027 248.424 98.3204 248.257C96.8215 248.132 95.1977 247.841 93.6988 248.507C92.2416 249.173 90.7843 249.964 89.4936 250.714C87.7449 251.713 86.4542 252.712 85.3717 252.421Z" fill="#435375"/>
</g>
<path d="M173.473 203.998C172.599 201.625 173.348 201.375 172.474 199.002C171.599 196.671 171.475 196.754 169.934 194.755C168.56 193.007 168.31 194.839 165.895 194.88C164.438 194.88 162.814 194.006 161.44 194.131C159.109 194.339 156.735 195.338 156.985 196.171C157.277 197.129 158.318 198.503 158.068 200.376C157.86 201.625 156.569 202.791 156.069 204.332C155.653 205.622 155.195 206.913 154.529 208.329C153.696 210.119 153.571 212.034 152.572 212.742C150.324 214.282 149.741 211.993 147.701 213.117C147.701 213.144 147.687 213.172 147.659 213.2C146.785 213.242 145.869 213.408 144.911 213.533C143.87 213.7 143.787 214.116 143.246 213.242C141.913 211.16 142.912 210.993 142.496 208.578C142.121 206.164 141.122 206.33 140.706 203.915C140.331 201.459 140.373 201.459 139.956 199.044C139.54 196.629 140.539 196.462 140.123 194.048C139.748 191.633 138.749 191.799 138.374 189.343C138.041 187.427 137.5 185.845 136.251 184.513C135.002 183.181 133.378 182.514 131.588 181.932C129.88 181.39 128.173 181.099 126.3 181.39C124.343 181.723 122.553 182.14 121.137 183.181C119.555 184.263 118.68 185.887 117.973 187.552C117.265 189.218 116.515 190.966 116.848 192.882C117.223 195.297 117.723 195.213 118.139 197.67C118.514 200.085 118.472 200.085 118.847 202.5C119.263 204.956 119.388 204.914 119.805 207.329C120.179 209.744 119.721 209.827 120.096 212.284C120.512 214.699 122.386 215.157 120.929 217.114C119.472 219.154 118.556 218.196 116.057 218.571C113.601 218.987 113.393 217.738 110.936 218.155C108.438 218.571 108.48 218.862 106.023 219.279C103.567 219.695 103.692 220.32 101.193 219.862C101.61 218.196 101.901 217.072 102.318 215.448C102.734 213.824 102.901 212.117 103.317 210.535C103.733 208.911 104.15 207.288 104.566 205.664C104.982 204.04 105.44 202.416 105.857 200.793C106.273 199.169 107.439 197.753 107.855 196.129C108.272 194.506 107.564 192.59 107.98 190.966C108.396 189.357 108.813 187.733 109.229 186.095C109.645 184.471 110.52 182.972 110.936 181.349C111.353 179.766 112.227 178.268 112.643 176.602C113.06 175.02 113.476 173.355 113.892 171.731C114.267 170.149 113.851 168.275 114.267 166.651C114.642 165.027 116.057 163.653 116.474 162.03C116.89 160.406 116.349 158.574 116.765 156.908C117.182 155.368 118.181 154.285 118.014 153.328C117.723 151.454 116.016 149.997 114.725 148.623C113.476 147.291 111.977 146.042 110.228 145.375C108.48 144.751 106.564 144.959 104.774 145.25C102.692 145.584 100.486 145.917 98.9035 147.291C97.3213 148.623 96.4886 150.705 96.0306 152.745C95.4061 155.285 95.1563 155.201 94.4901 157.7C93.8656 160.198 94.0321 160.239 93.4076 162.779C92.783 165.277 92.2834 165.152 91.6589 167.65C91.0343 170.149 90.8262 170.107 90.2016 172.605C89.5771 175.103 89.702 175.145 89.0775 177.643C88.4113 180.141 88.5778 180.183 87.9533 182.723C87.3288 185.221 87.0373 185.137 86.4128 187.636C85.7466 190.134 85.7882 190.134 85.1637 192.674C84.5392 195.172 84.5808 195.172 83.9563 197.67C83.3317 200.168 83.3734 200.21 82.7488 202.708C82.1243 205.206 81.9994 205.164 81.3749 207.662C80.7087 210.161 81.4998 210.369 80.8752 212.867C80.2507 215.407 80.334 215.407 79.7094 217.905C79.0849 220.403 78.96 220.403 78.3355 222.901C77.7109 225.399 77.8358 225.441 77.1697 227.939C76.5451 230.146 76.3786 233.019 76.5035 233.643C76.7949 235.642 77.4195 237.515 78.6685 238.972C79.9176 240.43 81.8329 240.888 83.7481 241.554C85.4968 242.137 87.2871 243.303 89.3689 242.969C91.8671 242.553 91.7838 242.178 94.2819 241.762C96.7801 241.346 96.8217 241.72 99.3199 241.304C101.818 240.929 101.776 240.68 104.274 240.263C106.773 239.888 106.689 239.43 109.188 239.014C111.686 238.598 111.727 239.014 114.225 238.598C116.724 238.223 116.765 238.514 119.263 238.14C121.72 237.723 122.386 235.017 124.509 236.349C126.383 237.515 123.843 239.181 124.218 241.346C124.551 243.511 125.8 243.303 126.175 245.468C126.508 247.633 125.883 247.758 126.258 249.923C126.55 251.838 127.008 253.92 128.215 255.252C129.464 256.584 131.379 257.667 133.211 258.208C134.877 258.708 136.959 258.791 138.915 258.5C140.872 258.167 142.704 257.251 144.12 256.21C145.702 255.127 146.285 253.253 147.034 251.588C147.742 249.923 147.784 248.382 147.451 246.425C147.076 244.26 147.326 244.219 147.201 242.012C147.118 239.805 146.868 239.847 146.535 237.682C146.16 235.517 145.993 235.6 146.576 233.477C146.868 232.477 147.159 233.768 148.2 233.601C150.115 233.268 151.406 231.561 152.822 230.52C154.321 229.396 155.736 228.314 156.402 226.648C157.11 224.983 157.402 223.151 157.11 221.277C156.944 220.486 156.735 219.695 156.444 218.987C156.638 218.765 156.833 218.529 157.027 218.279C158.109 216.906 159.567 215.781 160.982 214.74C162.44 213.658 164.147 213.033 165.687 212.242C167.394 211.41 168.768 209.994 170.267 209.494C173.223 208.453 175.305 211.201 175.513 208.578C175.68 206.08 174.347 206.33 173.473 203.998Z" fill="url(#paint0_radial_200_48)"/>
<path d="M354.296 223.942C352.839 221.569 350.549 219.737 347.51 218.821C346.427 218.488 345.137 219.112 345.22 217.988C345.386 213.575 346.844 213.824 348.134 209.578C349.425 205.372 349.425 205.372 350.716 201.125C352.006 196.92 351.548 196.754 352.839 192.549C353.755 189.509 354.005 186.178 352.423 183.68C350.882 181.224 348.009 179.183 344.97 178.267C341.847 177.31 338.433 177.601 335.852 178.725C333.145 179.933 330.689 182.431 329.773 185.512C328.482 189.759 329.357 190.009 328.066 194.256C326.775 198.461 326.026 198.253 324.735 202.458C323.444 206.705 326.4 208.87 322.32 210.577C317.282 212.617 317.324 209.453 312.119 207.87C306.957 206.288 306.415 207.537 302.002 204.415C304.209 201.75 305.749 199.169 307.873 196.67C310.079 194.047 312.994 192.132 315.159 189.634C317.366 187.053 318.698 183.805 320.863 181.265C323.07 178.725 325.526 176.394 327.691 173.854C329.898 171.314 332.854 169.441 335.061 166.859C337.226 164.361 338.392 160.947 340.598 158.324C342.763 155.826 345.719 153.952 347.926 151.329C349.05 150.038 349.009 148.581 349.342 147.582C350.216 144.667 349.55 141.628 347.968 139.005C346.427 136.382 344.054 134.3 341.223 133.426C336.893 132.135 332.313 133.592 329.44 137.09C326.067 141.087 325.151 140.296 321.737 144.293C318.365 148.248 318.656 148.54 315.284 152.537C311.911 156.492 312.453 156.992 309.038 160.947C305.666 164.944 304.833 164.236 301.461 168.233C298.047 172.23 298.505 172.605 295.132 176.602C291.76 180.516 292.051 180.849 288.803 184.721C288.748 184.721 288.692 184.721 288.637 184.721C287.013 185.054 285.847 186.262 284.598 186.553C282.891 187.011 281.351 186.178 280.143 186.22C278.728 186.22 277.229 186.553 276.063 185.137C275.147 184.055 274.897 181.807 273.731 180.141C272.69 178.601 270.858 177.601 269.651 176.477C268.11 175.02 266.861 174.312 265.154 175.02C263.281 175.769 262.906 177.185 263.697 179.183C264.238 180.599 264.863 182.514 266.029 184.013C267.111 185.47 268.444 186.886 269.568 188.01C271.025 189.467 272.815 190.55 273.273 192.424C273.648 194.172 272.94 196.171 272.774 198.211C272.649 200.043 272.316 201.917 271.983 203.832C271.955 204.082 271.955 204.318 271.983 204.54C271.691 205.123 271.525 205.622 271.483 205.83C270.525 208.911 271.316 211.909 272.899 214.657C274.356 217.239 276.354 219.528 279.727 220.528C284.265 221.943 284.307 221.902 288.845 223.276C293.425 224.691 293.217 225.357 297.755 226.773C302.335 228.147 302.418 227.939 306.957 229.313C311.537 230.728 314.618 227.273 316.033 231.811C318.073 238.639 314.16 238.598 312.078 245.384C311.162 248.465 311.953 251.296 313.535 253.836C315.034 256.251 317.074 258.708 320.197 259.665C323.361 260.623 326.4 259.707 328.982 258.583C331.73 257.334 332.354 255.835 333.27 252.754C335.352 245.967 333.978 246.134 336.726 242.636C337.434 241.762 339.974 239.68 341.056 240.013C344.137 240.971 347.26 239.847 349.8 238.639C352.464 237.39 354.171 235.183 355.087 232.186C355.962 229.354 355.837 226.482 354.296 223.942Z" fill="url(#paint1_radial_200_48)"/>
<path d="M126.299 162.363C127.382 163.237 128.256 164.611 128.007 166.235C127.798 167.567 126.549 168.691 125.55 169.94C124.509 171.189 123.718 172.688 122.469 173.146C120.928 173.771 119.555 172.896 118.472 172.022C117.389 171.148 116.057 169.982 116.307 168.317C116.515 167.026 117.348 165.36 118.347 164.111C119.388 162.862 120.928 162.03 122.136 161.53C123.718 160.947 125.217 161.488 126.299 162.363Z" fill="url(#paint2_radial_200_48)"/>
<path d="M323.652 124.974C324.443 125.64 325.068 126.598 324.901 127.805C324.735 128.763 323.861 129.554 323.111 130.47C322.362 131.386 321.779 132.468 320.904 132.801C319.739 133.259 318.781 132.635 317.99 132.01C317.199 131.344 316.2 130.511 316.408 129.304C316.574 128.346 317.157 127.181 317.907 126.265C318.656 125.349 319.739 124.724 320.655 124.391C321.779 123.933 322.861 124.349 323.652 124.974Z" fill="url(#paint3_radial_200_48)"/>
<path d="M159.899 233.352C158.317 234.101 156.735 234.85 156.152 236.433C155.611 237.973 155.653 239.93 156.36 241.512C156.985 242.886 158.317 244.094 160.066 244.968C161.898 245.884 163.522 245.592 165.021 245.509C166.811 245.426 168.435 244.885 170.142 244.843C171.641 244.801 173.514 245.134 175.263 246.259C177.095 247.424 177.969 247.549 178.885 246.925C179.926 246.259 181.175 245.051 181.05 243.261C180.967 241.929 180.009 240.471 179.26 239.097C178.469 237.765 176.845 236.682 175.18 235.433C173.764 234.392 172.432 232.81 170.6 232.186C168.893 231.603 166.977 232.061 165.062 232.102C163.272 232.144 161.69 232.56 159.899 233.352Z" fill="url(#paint4_radial_200_48)"/>
<path d="M293.675 142.502C292.301 143.169 290.802 144.001 289.469 144.959C288.179 145.875 287.263 147.332 286.055 148.415C284.89 149.539 283.391 150.372 282.391 151.579C281.35 152.87 280.684 154.452 279.893 155.743C278.977 157.241 277.978 158.615 277.562 159.989C276.979 161.78 276.771 163.695 277.312 164.986C277.853 166.276 279.477 167.192 281.517 167.484C283.849 167.859 285.805 167.526 287.138 166.485C288.47 165.444 288.678 163.237 289.636 161.405C290.427 159.865 292.051 158.574 293.008 156.908C293.924 155.326 294.924 153.952 296.339 152.703C297.63 151.537 298.754 149.747 300.794 149.206C302.71 148.665 304.458 148.123 306.082 147.457C307.997 146.708 310.121 146.749 311.536 145.875C313.535 144.751 314.742 143.169 315.575 141.92C316.782 140.171 316.658 138.63 314.992 137.09C313.868 136.049 312.494 135.549 310.829 135.674C309.413 135.757 307.914 136.091 306.29 136.673C304.916 137.173 303.292 137.423 301.877 138.131C300.461 138.839 299.587 140.504 298.213 141.212C296.797 141.961 294.965 141.878 293.675 142.502Z" fill="url(#paint5_radial_200_48)"/>
<path d="M289.762 238.931C288.18 238.806 286.431 238.806 284.682 238.764C283.017 238.764 281.268 238.764 279.603 238.931C277.854 239.139 276.147 239.597 274.69 240.097C272.9 240.721 271.984 242.137 271.068 243.344C270.068 244.552 269.652 245.592 270.027 247.591C270.443 249.798 271.192 250.63 272.608 251.38C274.024 252.129 275.606 252.254 277.479 252.504C279.187 252.754 281.185 253.045 282.767 253.795C284.266 254.461 285.64 255.918 286.681 257.667C287.555 259.166 288.846 260.29 290.345 261.497C291.802 262.621 293.343 263.413 295.008 264.12C296.798 264.87 298.422 265.494 300.088 265.536C302.128 265.578 303.918 265.453 304.959 263.995C305.792 262.788 306.042 261.081 305.75 258.666C305.542 256.751 305.417 254.919 304.876 253.295C304.334 251.463 303.169 250.006 302.294 248.507C301.337 246.841 300.712 245.01 299.505 243.76C298.131 242.428 296.382 241.679 294.842 240.888C293.134 239.972 291.427 239.097 289.762 238.931Z" fill="url(#paint6_radial_200_48)"/>
<path d="M256.369 230.104C255.162 231.561 254.662 233.851 253.621 235.35C251.998 237.682 250.749 239.43 251.79 240.305C252.497 240.929 254.288 241.346 257.494 240.471C259.117 240.055 260.616 239.097 262.24 238.431C263.822 237.807 265.279 236.891 266.778 236.141C268.402 235.308 270.068 234.767 271.358 233.851C273.065 232.644 274.023 231.228 274.648 230.104C275.563 228.522 275.564 226.69 273.065 225.982C270.817 225.316 268.735 225.691 267.028 225.607C264.821 225.482 262.865 225.607 261.199 226.482C259.617 227.314 257.785 228.355 256.369 230.104Z" fill="url(#paint7_radial_200_48)"/>
<path d="M136.083 145.25C134.793 146.125 133.793 147.499 133.252 148.873C132.711 150.288 132.419 151.995 132.586 153.494C132.752 155.076 133.46 156.7 134.335 157.866C135.251 159.032 136.666 160.406 138.248 160.656C139.706 160.905 141.621 160.156 143.203 159.24C144.494 158.491 145.368 156.825 146.534 155.618C147.658 154.452 148.532 153.12 149.365 151.787C150.281 150.372 150.947 148.956 151.405 147.54C151.988 145.792 152.071 144.418 151.78 143.044C151.364 141.295 150.656 140.546 148.949 140.504C147.616 140.462 145.826 140.212 144.244 140.795C142.787 141.295 141.829 143.085 140.538 143.751C138.706 144.667 136.749 144.792 136.083 145.25Z" fill="url(#paint8_radial_200_48)"/>
<path d="M84.6637 251.255C82.7485 250.755 81.2496 249.631 79.6674 248.84C77.8771 247.924 75.9202 247.591 74.5046 246.592C72.7559 245.384 71.5484 243.76 70.2577 242.886C68.1343 241.512 66.2191 241.096 64.8451 242.47C64.054 243.219 64.2206 245.093 64.6369 247.299C64.9284 248.673 64.7618 250.547 65.4696 252.171C66.0525 253.628 67.5514 254.752 68.3841 256.21C69.2168 257.584 70.0912 258.999 71.0905 260.248C72.1313 261.539 72.9641 263.121 74.1715 264.079C75.5038 265.161 77.1276 265.911 78.5849 266.327C80.167 266.785 81.7492 266.285 83.3314 265.702C85.0384 265.12 86.8704 264.745 88.4109 263.704C89.9098 262.705 91.034 261.164 92.283 259.915C93.657 258.583 94.9061 257.25 95.8637 255.876C97.0711 254.169 98.0287 252.587 98.57 251.172C99.5276 248.632 99.3195 247.258 97.6124 247.091C96.1135 246.966 94.4897 246.675 92.9908 247.341C91.5336 248.007 90.0763 248.798 88.7856 249.506C87.0369 250.547 85.7462 251.546 84.6637 251.255Z" fill="url(#paint9_radial_200_48)"/>
<g style="mix-blend-mode:multiply">
<path d="M262.032 192.341C262.032 194.797 262.573 197.212 262.198 199.502C261.865 201.875 261.948 204.457 261.241 206.663C260.533 208.953 259.367 211.201 258.284 213.283C257.202 215.448 255.537 217.28 254.163 219.196C252.747 221.111 250.832 222.568 249.125 224.275C247.459 225.941 246.377 228.397 244.461 229.813C242.546 231.228 239.798 231.353 237.716 232.519C235.635 233.601 234.011 235.933 231.763 236.766C229.597 237.599 227.016 237.599 224.684 238.181C222.395 238.723 220.105 239.805 217.69 240.097C215.4 240.346 212.902 239.68 210.487 239.68C208.03 239.68 205.699 238.848 203.325 238.639C200.91 238.39 198.454 238.806 196.122 238.348C193.708 237.848 191.209 237.765 188.961 237.016C186.629 236.225 184.631 234.684 182.508 233.602C180.342 232.519 178.552 230.895 176.595 229.521C174.638 228.106 172.931 226.523 171.224 224.816C169.559 223.151 167.852 221.527 166.478 219.529C165.145 217.572 164.271 215.407 163.272 213.158C162.314 211.035 160.024 209.245 159.4 206.871C158.775 204.623 159.525 202 159.192 199.502C158.942 197.212 157.609 194.839 157.609 192.341C157.609 189.884 157.776 187.303 158.151 184.929C158.484 182.473 160.566 180.433 161.273 178.101C161.981 175.728 162.98 173.604 164.021 171.439C165.104 169.233 164.812 166.235 166.186 164.236C167.56 162.196 169.101 160.156 170.725 158.324C172.39 156.534 174.222 154.744 176.096 153.161C177.969 151.621 180.093 150.122 182.174 148.831C184.256 147.541 186.838 147.124 189.086 146.167C191.334 145.167 193.624 144.376 195.997 143.71C198.329 143.044 200.619 141.795 203.076 141.462C205.449 141.129 207.989 141.295 210.487 141.295C212.985 141.295 215.316 142.628 217.69 142.961C220.146 143.294 222.728 142.711 225.059 143.377C227.432 144.043 229.847 144.709 232.096 145.667C234.344 146.666 236.551 147.832 238.632 149.123C240.714 150.413 241.838 153.036 243.67 154.577C245.586 156.159 248.458 156.659 250.082 158.491C251.706 160.281 251.873 163.237 253.247 165.277C254.579 167.317 256.827 168.775 257.868 170.981C258.909 173.188 260.075 175.395 260.783 177.768C261.49 180.1 262.032 182.556 262.406 184.971C262.74 187.386 262.032 189.884 262.032 192.341Z" fill="#435375"/>
</g>
<path d="M260.991 191.341C260.991 193.798 261.532 196.171 261.199 198.502C260.866 200.876 260.949 203.457 260.242 205.664C259.534 207.954 258.326 210.202 257.285 212.284C256.203 214.407 254.538 216.281 253.164 218.196C251.748 220.111 249.833 221.569 248.126 223.276C246.46 224.941 245.378 227.398 243.462 228.813C241.547 230.229 238.799 230.354 236.676 231.52C234.636 232.602 233.012 234.934 230.764 235.766C228.557 236.599 226.017 236.599 223.685 237.182C221.395 237.723 219.106 238.806 216.691 239.097C214.359 239.347 211.903 238.681 209.488 238.681C207.031 238.681 204.7 237.848 202.326 237.64C199.911 237.39 197.413 237.807 195.123 237.349C192.708 236.849 190.21 236.766 187.962 236.016C185.63 235.225 183.632 233.643 181.508 232.602C179.343 231.52 177.511 229.896 175.596 228.522C173.639 227.106 171.932 225.524 170.225 223.817C168.56 222.152 166.853 220.528 165.479 218.529C164.146 216.572 163.272 214.366 162.273 212.159C161.274 210.036 159.025 208.245 158.401 205.872C157.776 203.624 158.526 200.959 158.193 198.502C157.943 196.213 156.61 193.839 156.61 191.341C156.61 188.885 156.777 186.303 157.11 183.888C157.485 181.473 159.566 179.392 160.274 177.102C160.982 174.729 161.981 172.605 163.022 170.44C164.063 168.233 163.813 165.236 165.187 163.237C166.52 161.197 168.102 159.157 169.726 157.325C171.349 155.493 173.223 153.744 175.097 152.162C176.97 150.621 179.094 149.123 181.175 147.832C183.216 146.541 185.839 146.125 188.087 145.126C190.335 144.168 192.625 143.377 194.998 142.711C197.33 142.044 199.62 140.795 202.077 140.462C204.45 140.129 206.99 140.296 209.488 140.296C211.944 140.296 214.317 141.628 216.691 141.92C219.147 142.253 221.729 141.711 224.06 142.378C226.433 143.044 228.848 143.668 231.055 144.668C233.345 145.667 235.552 146.833 237.633 148.123C239.715 149.414 240.798 151.995 242.671 153.578C244.545 155.16 247.418 155.659 249.083 157.45C250.707 159.282 250.874 162.238 252.206 164.278C253.58 166.276 255.828 167.775 256.869 169.982C257.91 172.189 259.076 174.395 259.784 176.769C260.491 179.059 261.033 181.515 261.366 183.972C261.74 186.345 260.991 188.885 260.991 191.341Z" fill="url(#paint10_radial_200_48)"/>
<path d="M234.468 194.964C233.552 206.08 224.434 211.868 213.276 215.323C202.783 218.571 193.915 205.997 193.915 195.047C193.915 184.097 201.409 174.52 213.734 176.311C224.601 177.893 235.384 184.055 234.468 194.964Z" fill="#EDD9AA"/>
<path d="M233.345 194.214C232.429 205.331 223.311 211.118 212.153 214.574C201.66 217.821 192.792 205.247 192.792 194.297C192.792 183.347 200.286 173.812 212.611 175.603C223.478 177.143 234.22 183.305 233.345 194.214Z" fill="url(#paint11_radial_200_48)"/>
<path d="M221.353 177.935C225.642 181.057 228.39 185.512 227.89 191.216C226.974 202.333 217.856 208.12 206.698 211.576C204.532 212.242 202.451 212.242 200.452 211.701C203.741 214.574 207.78 215.948 212.152 214.574C223.31 211.118 232.428 205.331 233.344 194.214C233.969 186.345 228.515 180.932 221.353 177.935Z" fill="url(#paint12_linear_200_48)"/>
<path fill-rule="evenodd" clip-rule="evenodd" d="M197.663 197.795C198.537 197.711 199.12 196.962 199.037 196.088C199.009 195.755 198.981 195.421 198.954 195.088C198.912 194.256 198.204 193.631 197.33 193.673C196.497 193.714 195.831 194.422 195.914 195.297C195.914 195.657 195.942 196.032 195.998 196.421C196.081 197.212 196.747 197.795 197.496 197.795C197.552 197.795 197.607 197.795 197.663 197.795ZM199.203 190.966C200.328 184.971 204.616 182.14 206.073 181.765C206.864 181.557 207.364 180.724 207.156 179.891C206.989 179.1 206.157 178.601 205.324 178.809C202.285 179.558 197.455 183.639 196.206 190.384C196.039 191.216 196.58 192.049 197.413 192.174C197.496 192.202 197.594 192.216 197.705 192.216C198.412 192.216 199.079 191.716 199.203 190.966Z" fill="url(#paint13_radial_200_48)"/>
<path d="M167.686 174.937C166.936 175.645 165.937 175.728 165.437 175.187C164.938 174.645 165.146 173.646 165.895 172.98C166.645 172.314 167.644 172.189 168.144 172.73C168.602 173.313 168.435 174.271 167.686 174.937Z" fill="#EDD9AA"/>
<path d="M170.932 171.106C169.933 172.064 168.559 172.189 167.893 171.439C167.185 170.69 167.477 169.358 168.476 168.442C169.475 167.526 170.849 167.359 171.515 168.108C172.223 168.858 171.932 170.19 170.932 171.106Z" fill="#EDD9AA"/>
<path d="M166.311 171.856C165.936 172.23 165.353 172.314 165.103 171.981C164.812 171.689 164.937 171.148 165.353 170.773C165.728 170.398 166.311 170.357 166.56 170.648C166.852 170.981 166.727 171.523 166.311 171.856Z" fill="#EDD9AA"/>
<path d="M239.798 160.489C238.965 159.573 238.799 158.324 239.465 157.699C240.131 157.075 241.38 157.283 242.213 158.199C243.087 159.073 243.254 160.323 242.546 160.989C241.88 161.613 240.672 161.405 239.798 160.489Z" fill="#EDD9AA"/>
<path d="M244.669 164.445C243.503 163.195 243.295 161.488 244.211 160.614C245.127 159.781 246.793 160.073 247.958 161.28C249.124 162.529 249.374 164.236 248.458 165.111C247.542 165.985 245.835 165.694 244.669 164.445Z" fill="#EDD9AA"/>
<path d="M243.629 158.699C243.129 158.199 243.046 157.533 243.42 157.158C243.795 156.825 244.461 156.95 244.961 157.45C245.419 157.949 245.502 158.616 245.127 158.99C244.753 159.323 244.087 159.198 243.629 158.699Z" fill="#EDD9AA"/>
<path d="M251.499 209.869C252.331 208.953 253.539 208.662 254.247 209.286C254.954 209.911 254.829 211.16 253.997 212.076C253.164 212.992 251.957 213.283 251.249 212.659C250.583 212.034 250.666 210.785 251.499 209.869Z" fill="#EDD9AA"/>
<path d="M248.001 215.032C249.125 213.783 250.79 213.408 251.748 214.241C252.664 215.073 252.539 216.822 251.415 218.071C250.249 219.362 248.584 219.695 247.626 218.862C246.71 218.03 246.835 216.323 248.001 215.032Z" fill="#EDD9AA"/>
<path d="M253.621 213.491C254.079 212.992 254.745 212.867 255.12 213.2C255.495 213.533 255.412 214.199 254.995 214.74C254.537 215.24 253.829 215.365 253.455 215.032C253.08 214.699 253.163 214.033 253.621 213.491Z" fill="#EDD9AA"/>
<path d="M144.869 225.982C144.411 231.686 139.706 234.684 133.96 236.474C128.548 238.14 123.968 231.644 123.968 225.982C123.968 220.361 127.84 215.406 134.21 216.322C139.789 217.155 145.369 220.319 144.869 225.982Z" fill="#EDD9AA"/>
<path d="M144.286 225.566C143.828 231.311 139.123 234.268 133.377 236.058C127.965 237.765 123.385 231.27 123.385 225.607C123.385 219.945 127.257 215.032 133.627 215.948C139.206 216.781 144.786 219.945 144.286 225.566Z" fill="url(#paint14_radial_200_48)"/>
<path d="M138.124 217.155C140.331 218.779 141.747 221.069 141.497 224.025C141.039 229.771 136.334 232.727 130.547 234.517C129.464 234.892 128.382 234.85 127.341 234.601C129.048 236.058 131.13 236.766 133.378 236.058C139.124 234.268 143.829 231.311 144.287 225.566C144.661 221.485 141.83 218.696 138.124 217.155Z" fill="url(#paint15_linear_200_48)"/>
<path fill-rule="evenodd" clip-rule="evenodd" d="M125.924 227.398C126.341 227.356 126.674 226.981 126.591 226.523C126.591 226.357 126.577 226.19 126.549 226.024C126.549 225.607 126.174 225.274 125.716 225.274C125.3 225.316 124.967 225.691 124.967 226.107C124.995 226.301 125.022 226.509 125.05 226.732C125.092 227.106 125.425 227.439 125.841 227.439C125.869 227.439 125.897 227.425 125.924 227.398ZM126.674 223.9C127.298 220.819 129.505 219.32 130.213 219.154C130.671 219.029 130.921 218.613 130.796 218.196C130.713 217.78 130.255 217.488 129.838 217.613C128.298 217.988 125.8 220.111 125.133 223.609C125.05 224.025 125.342 224.442 125.758 224.525C125.813 224.525 125.869 224.525 125.924 224.525C126.299 224.525 126.632 224.275 126.674 223.9Z" fill="url(#paint16_radial_200_48)"/>
<path d="M299.337 201.5C298.838 207.204 294.133 210.202 288.387 211.992C282.974 213.658 278.395 207.163 278.395 201.542C278.395 195.879 282.267 190.966 288.637 191.882C294.258 192.673 299.795 195.838 299.337 201.5Z" fill="#EDD9AA"/>
<path d="M298.754 201.125C298.255 206.83 293.55 209.827 287.804 211.618C282.391 213.283 277.812 206.788 277.812 201.125C277.812 195.505 281.684 190.55 288.054 191.466C293.675 192.299 299.212 195.463 298.754 201.125Z" fill="url(#paint17_radial_200_48)"/>
<path d="M292.551 192.715C294.757 194.297 296.173 196.587 295.965 199.543C295.465 205.289 290.76 208.245 285.015 210.035C283.89 210.41 282.808 210.41 281.809 210.119C283.474 211.576 285.556 212.284 287.804 211.618C293.55 209.827 298.255 206.829 298.754 201.125C299.087 197.045 296.256 194.255 292.551 192.715Z" fill="url(#paint18_linear_200_48)"/>
<path fill-rule="evenodd" clip-rule="evenodd" d="M280.351 202.957C280.768 202.916 281.101 202.499 281.059 202.083C281.031 201.889 281.017 201.708 281.017 201.542C280.976 201.125 280.601 200.792 280.185 200.792C279.727 200.834 279.394 201.209 279.435 201.667C279.435 201.861 279.449 202.055 279.477 202.25C279.518 202.666 279.852 202.957 280.268 202.957C280.296 202.957 280.323 202.957 280.351 202.957ZM281.142 199.418C281.725 196.337 283.932 194.838 284.681 194.672C285.098 194.589 285.347 194.131 285.264 193.714C285.139 193.298 284.723 193.048 284.307 193.131C282.724 193.548 280.226 195.63 279.602 199.127C279.518 199.543 279.768 199.96 280.226 200.043C280.254 200.071 280.296 200.085 280.351 200.085C280.726 200.085 281.059 199.793 281.142 199.418Z" fill="url(#paint19_radial_200_48)"/>
<path d="M80.5002 237.473C79.5842 237.099 79.0846 236.224 79.376 235.517C79.6675 234.85 80.6251 234.642 81.5411 235.059C82.4571 235.433 82.9567 236.308 82.6652 236.974C82.3738 237.682 81.3745 237.89 80.5002 237.473Z" fill="#EDD9AA"/>
<path d="M85.2878 238.889C84.0388 238.348 83.3726 237.14 83.789 236.224C84.1637 235.308 85.496 234.975 86.7451 235.558C87.9942 236.099 88.702 237.265 88.2856 238.223C87.8693 239.139 86.5369 239.43 85.2878 238.889Z" fill="#EDD9AA"/>
<path d="M82.7478 234.975C82.2481 234.767 81.9567 234.268 82.1232 233.934C82.2898 233.56 82.831 233.435 83.3307 233.643C83.8303 233.851 84.1217 234.351 83.9552 234.726C83.7887 235.1 83.2474 235.225 82.7478 234.975Z" fill="#EDD9AA"/>
<path d="M127.258 192.507C127.84 193.298 127.799 194.297 127.216 194.755C126.591 195.172 125.634 194.88 125.092 194.047C124.51 193.256 124.51 192.215 125.092 191.799C125.717 191.383 126.675 191.674 127.258 192.507Z" fill="#EDD9AA"/>
<path d="M123.801 188.843C124.592 189.925 124.592 191.299 123.76 191.882C122.968 192.507 121.636 192.049 120.845 190.966C120.054 189.842 120.054 188.468 120.887 187.885C121.719 187.302 123.01 187.719 123.801 188.843Z" fill="#EDD9AA"/>
<path d="M124.01 193.506C124.343 193.923 124.343 194.506 124.01 194.714C123.677 194.964 123.136 194.797 122.845 194.339C122.511 193.881 122.511 193.34 122.845 193.132C123.178 192.882 123.719 193.048 124.01 193.506Z" fill="#EDD9AA"/>
<path d="M79.7507 261.039C80.3336 261.872 80.2919 262.871 79.709 263.288C79.0845 263.746 78.1269 263.412 77.5856 262.621C77.0027 261.789 77.0027 260.789 77.5856 260.373C78.2101 259.957 79.1678 260.248 79.7507 261.039Z" fill="#EDD9AA"/>
<path d="M76.2956 257.375C77.0867 258.499 77.0867 259.873 76.254 260.456C75.4629 261.039 74.1306 260.623 73.3395 259.499C72.5484 258.416 72.5901 257.042 73.3811 256.459C74.2139 255.876 75.5046 256.293 76.2956 257.375Z" fill="#EDD9AA"/>
<path d="M76.5025 262.039C76.8356 262.497 76.8356 263.038 76.5025 263.288C76.1694 263.537 75.6282 263.371 75.3367 262.913C75.0036 262.455 75.0036 261.914 75.3367 261.664C75.6698 261.456 76.2111 261.622 76.5025 262.039Z" fill="#EDD9AA"/>
<path d="M165.77 237.473C164.854 237.099 164.354 236.224 164.646 235.517C164.937 234.85 165.936 234.642 166.852 235.059C167.768 235.433 168.268 236.308 167.976 236.974C167.685 237.682 166.686 237.89 165.77 237.473Z" fill="#EDD9AA"/>
<path d="M170.6 238.889C169.351 238.348 168.643 237.14 169.059 236.224C169.475 235.308 170.808 234.975 172.057 235.558C173.306 236.099 173.972 237.265 173.597 238.223C173.181 239.139 171.849 239.43 170.6 238.889Z" fill="#EDD9AA"/>
<path d="M168.018 234.975C167.518 234.767 167.269 234.268 167.435 233.934C167.56 233.56 168.101 233.435 168.601 233.643C169.142 233.851 169.392 234.351 169.226 234.726C169.059 235.1 168.518 235.225 168.018 234.975Z" fill="#EDD9AA"/>
<path d="M143.453 146.083C142.537 145.708 142.038 144.834 142.329 144.168C142.621 143.46 143.62 143.252 144.536 143.668C145.41 144.043 145.91 144.917 145.618 145.583C145.327 146.291 144.369 146.499 143.453 146.083Z" fill="#EDD9AA"/>
<path d="M148.283 147.499C146.993 146.957 146.326 145.75 146.743 144.834C147.159 143.918 148.491 143.627 149.74 144.168C150.99 144.709 151.656 145.917 151.239 146.833C150.865 147.749 149.491 148.04 148.283 147.499Z" fill="#EDD9AA"/>
<path d="M145.702 143.585C145.202 143.377 144.911 142.919 145.077 142.544C145.244 142.169 145.785 142.044 146.285 142.253C146.784 142.461 147.076 142.96 146.909 143.335C146.743 143.71 146.201 143.835 145.702 143.585Z" fill="#EDD9AA"/>
<path d="M289.095 246.092C288.179 245.676 287.679 244.801 287.971 244.135C288.262 243.469 289.261 243.219 290.136 243.636C291.052 244.052 291.551 244.926 291.26 245.592C290.969 246.259 290.011 246.467 289.095 246.092Z" fill="#EDD9AA"/>
<path d="M293.925 247.508C292.634 246.925 291.968 245.759 292.384 244.843C292.801 243.885 294.133 243.594 295.382 244.135C296.631 244.677 297.297 245.884 296.881 246.8C296.506 247.716 295.132 248.049 293.925 247.508Z" fill="#EDD9AA"/>
<path d="M291.343 243.594C290.844 243.386 290.552 242.886 290.719 242.511C290.885 242.137 291.427 242.012 291.926 242.262C292.426 242.47 292.717 242.928 292.551 243.303C292.384 243.677 291.843 243.802 291.343 243.594Z" fill="#EDD9AA"/>
<path d="M340.473 186.595C339.557 186.178 339.057 185.304 339.349 184.638C339.64 183.972 340.639 183.763 341.555 184.138C342.471 184.555 342.971 185.429 342.68 186.095C342.346 186.761 341.389 187.011 340.473 186.595Z" fill="#EDD9AA"/>
<path d="M345.304 188.01C344.055 187.469 343.347 186.262 343.763 185.346C344.18 184.43 345.512 184.097 346.761 184.638C348.01 185.221 348.676 186.386 348.302 187.302C347.885 188.26 346.553 188.552 345.304 188.01Z" fill="#EDD9AA"/>
<path d="M342.722 184.097C342.222 183.888 341.972 183.389 342.097 183.014C342.264 182.639 342.805 182.514 343.305 182.764C343.804 182.972 344.096 183.43 343.929 183.805C343.763 184.18 343.221 184.305 342.722 184.097Z" fill="#EDD9AA"/>
<path d="M326.151 148.873C325.443 149.581 324.485 149.789 323.944 149.289C323.361 148.789 323.486 147.79 324.152 147.082C324.818 146.333 325.817 146.125 326.359 146.624C326.9 147.124 326.817 148.123 326.151 148.873Z" fill="#EDD9AA"/>
<path d="M328.982 144.751C328.066 145.75 326.734 146.042 325.985 145.334C325.235 144.668 325.36 143.294 326.276 142.294C327.192 141.295 328.566 141.004 329.316 141.67C330.065 142.378 329.898 143.752 328.982 144.751Z" fill="#EDD9AA"/>
<path d="M324.486 145.917C324.111 146.333 323.57 146.458 323.278 146.166C322.987 145.875 323.028 145.334 323.403 144.917C323.778 144.543 324.319 144.418 324.611 144.709C324.902 144.959 324.86 145.5 324.486 145.917Z" fill="#EDD9AA"/>
<defs>
<radialGradient id="paint0_radial_200_48" cx="0" cy="0" r="1" gradientUnits="userSpaceOnUse" gradientTransform="translate(125.99 201.815) scale(53.3166 53.3166)">
<stop stop-color="white"/>
<stop offset="1" stop-color="#FFF3D6"/>
</radialGradient>
<radialGradient id="paint1_radial_200_48" cx="0" cy="0" r="1" gradientUnits="userSpaceOnUse" gradientTransform="translate(309.467 196.521) scale(55.5416)">
<stop stop-color="white"/>
<stop offset="1" stop-color="#FFF3D6"/>
</radialGradient>
<radialGradient id="paint2_radial_200_48" cx="0" cy="0" r="1" gradientUnits="userSpaceOnUse" gradientTransform="translate(122.063 166.949) rotate(-51.0145) scale(5.49033)">
<stop stop-color="white"/>
<stop offset="1" stop-color="#FFF3D6"/>
</radialGradient>
<radialGradient id="paint3_radial_200_48" cx="0" cy="0" r="1" gradientUnits="userSpaceOnUse" gradientTransform="translate(320.59 128.312) rotate(-51.0119) scale(3.98317)">
<stop stop-color="white"/>
<stop offset="1" stop-color="#FFF3D6"/>
</radialGradient>
<radialGradient id="paint4_radial_200_48" cx="0" cy="0" r="1" gradientUnits="userSpaceOnUse" gradientTransform="translate(168.426 239.594) scale(10.4626 10.4626)">
<stop stop-color="white"/>
<stop offset="1" stop-color="#FFF3D6"/>
</radialGradient>
<radialGradient id="paint5_radial_200_48" cx="0" cy="0" r="1" gradientUnits="userSpaceOnUse" gradientTransform="translate(296.689 151.645) scale(17.94 17.94)">
<stop stop-color="white"/>
<stop offset="1" stop-color="#FFF3D6"/>
</radialGradient>
<radialGradient id="paint6_radial_200_48" cx="0" cy="0" r="1" gradientUnits="userSpaceOnUse" gradientTransform="translate(287.883 252.153) scale(15.852 15.852)">
<stop stop-color="white"/>
<stop offset="1" stop-color="#FFF3D6"/>
</radialGradient>
<radialGradient id="paint7_radial_200_48" cx="0" cy="0" r="1" gradientUnits="userSpaceOnUse" gradientTransform="translate(263.305 233.257) scale(10.03 10.03)">
<stop stop-color="white"/>
<stop offset="1" stop-color="#FFF3D6"/>
</radialGradient>
<radialGradient id="paint8_radial_200_48" cx="0" cy="0" r="1" gradientUnits="userSpaceOnUse" gradientTransform="translate(142.24 150.565) scale(9.93136)">
<stop stop-color="white"/>
<stop offset="1" stop-color="#FFF3D6"/>
</radialGradient>
<radialGradient id="paint9_radial_200_48" cx="0" cy="0" r="1" gradientUnits="userSpaceOnUse" gradientTransform="translate(81.7171 254.059) scale(15.14 15.14)">
<stop stop-color="white"/>
<stop offset="1" stop-color="#FFF3D6"/>
</radialGradient>
<radialGradient id="paint10_radial_200_48" cx="0" cy="0" r="1" gradientUnits="userSpaceOnUse" gradientTransform="translate(208.003 197.323) scale(59.3588 59.3588)">
<stop stop-color="white"/>
<stop offset="1" stop-color="#FFF3D6"/>
</radialGradient>
<radialGradient id="paint11_radial_200_48" cx="0" cy="0" r="1" gradientUnits="userSpaceOnUse" gradientTransform="translate(196.803 181.714) rotate(44.8454) scale(33.5018)">
<stop stop-color="#FFD438"/>
<stop offset="1" stop-color="#FF971A"/>
</radialGradient>
<linearGradient id="paint12_linear_200_48" x1="200.465" y1="177.939" x2="233.387" y2="177.939" gradientUnits="userSpaceOnUse">
<stop stop-color="#FFAF30" stop-opacity="0"/>
<stop offset="1" stop-color="#F27500"/>
</linearGradient>
<radialGradient id="paint13_radial_200_48" cx="0" cy="0" r="1" gradientUnits="userSpaceOnUse" gradientTransform="translate(201.556 188.273) scale(7.83834)">
<stop stop-color="white"/>
<stop offset="1" stop-color="#FFF3D6"/>
</radialGradient>
<radialGradient id="paint14_radial_200_48" cx="0" cy="0" r="1" gradientUnits="userSpaceOnUse" gradientTransform="translate(125.456 219.12) rotate(44.8458) scale(17.2836)">
<stop stop-color="#FFD438"/>
<stop offset="1" stop-color="#FF971A"/>
</radialGradient>
<linearGradient id="paint15_linear_200_48" x1="127.345" y1="217.173" x2="144.332" y2="217.173" gradientUnits="userSpaceOnUse">
<stop stop-color="#FFAF30" stop-opacity="0"/>
<stop offset="1" stop-color="#F27500"/>
</linearGradient>
<radialGradient id="paint16_radial_200_48" cx="0" cy="0" r="1" gradientUnits="userSpaceOnUse" gradientTransform="translate(127.908 222.505) scale(4.04449 4.04449)">
<stop stop-color="white"/>
<stop offset="1" stop-color="#FFF3D6"/>
</radialGradient>
<radialGradient id="paint17_radial_200_48" cx="0" cy="0" r="1" gradientUnits="userSpaceOnUse" gradientTransform="translate(279.898 194.649) rotate(44.8458) scale(17.2842)">
<stop stop-color="#FFD438"/>
<stop offset="1" stop-color="#FF971A"/>
</radialGradient>
<linearGradient id="paint18_linear_200_48" x1="281.789" y1="192.7" x2="298.773" y2="192.7" gradientUnits="userSpaceOnUse">
<stop stop-color="#FFAF30" stop-opacity="0"/>
<stop offset="1" stop-color="#F27500"/>
</linearGradient>
<radialGradient id="paint19_radial_200_48" cx="0" cy="0" r="1" gradientUnits="userSpaceOnUse" gradientTransform="translate(282.351 198.032) scale(4.04408 4.04407)">
<stop stop-color="white"/>
<stop offset="1" stop-color="#FFF3D6"/>
</radialGradient>
</defs>
</svg>
