<svg width="144" height="134" viewBox="0 0 144 134" fill="none" xmlns="http://www.w3.org/2000/svg">
<path d="M7.49465 82.7101C5.77988 76.846 4.61553 71.0454 8.19327 64.9696C13.9727 55.1466 29.0034 55.4219 36.667 46.975C41.7266 41.4073 42.5523 33.0874 46.9345 26.9481C57.9217 11.5575 83.8339 10.4566 95.6256 25.1063C97.9967 28.0701 99.7538 31.4785 102.167 34.4C105.597 38.5917 110.296 41.7248 115.483 43.2702C120.437 44.731 126.597 45.3449 128.926 49.9812C129.752 51.6324 129.9 53.5589 129.836 55.4007C129.625 62.0693 126.957 68.8225 128.82 75.2159C130.916 82.3502 138.199 87.2193 139.723 94.4806C140.866 99.9002 138.516 106.399 135.743 111.036C133.457 114.91 130.81 120.562 127.55 123.695C124.523 126.596 119.971 127.379 115.801 126.913C111.651 126.447 107.671 124.944 103.628 123.865C93.4663 121.155 82.5637 121.197 72.4232 124.013C68.0834 125.198 63.8705 126.892 59.4883 127.908C53.6666 129.221 47.125 128.628 41.2186 128.056C36.413 127.591 31.5862 126.701 26.9499 125.325C19.2017 123.039 7.70636 118.17 8.57433 108.284C8.91305 104.558 10.2468 100.959 10.395 97.2116C10.5855 92.2366 8.87071 87.4522 7.49465 82.7101Z" fill="#F3F6FC"/>
<path d="M33.2372 40.7087C32.4327 41.5555 31.5012 42.3812 30.3369 42.5505C28.5586 42.8469 26.8015 41.365 26.3992 39.5867C25.9758 37.8296 26.6533 35.9455 27.7753 34.5271C28.8973 33.1087 30.4004 32.0502 31.9034 31.0129C32.2704 30.7588 32.6444 30.4977 33.0255 30.2296C35.46 28.5571 38.5508 30.0179 38.0428 33.1934C37.6617 35.7338 34.9519 38.9093 33.2372 40.7087Z" fill="#F3F6FC"/>
<path d="M132.228 69.1823C131.953 67.5734 131.953 65.8374 132.715 64.3979C133.477 62.9583 135.171 61.921 136.759 62.3232C137.711 62.5772 138.495 63.3182 139.066 64.1227C139.617 64.8424 140.019 65.6469 140.315 66.4937C141.099 68.8224 140.929 71.4263 141.945 73.6703C142.305 74.4536 142.813 75.1734 143.152 75.9779C143.491 76.7824 143.66 77.735 143.3 78.5395C141.903 81.6515 138.05 78.9205 136.653 77.5445C134.388 75.3004 132.779 72.3366 132.228 69.1823Z" fill="#F3F6FC"/>
<path d="M5.71629 97.4233C5.41991 98.249 5.01768 99.0323 4.38258 99.6039C3.74748 100.175 2.83716 100.514 2.01153 100.281C1.14356 100.027 0.529627 99.244 0.254416 98.3972C-0.0207943 97.5504 0.000376388 96.64 0.000376388 95.7509C0.0286031 94.7206 0.0497706 93.6904 0.063884 92.6601C0.106224 90.2467 1.20707 86.6054 4.27673 88.3837C7.13469 90.035 6.64778 94.8829 5.71629 97.4233Z" fill="#F3F6FC"/>
<path d="M93.9952 17.2524C94.9055 19.1789 96.8744 20.5761 98.9914 20.8301C99.3724 20.8725 99.7958 20.8725 100.113 20.6608C100.41 20.4491 100.558 20.068 100.579 19.7081C100.579 19.3482 100.473 18.9883 100.346 18.6496C99.69 16.9348 98.2716 15.0931 96.5991 14.2463C94.5456 13.2089 93.1484 15.4529 93.9952 17.2524Z" fill="#F3F6FC"/>
<path d="M126.386 42.9105C127.021 42.9105 127.698 42.6141 127.995 42.0425C128.079 41.8943 128.122 41.7249 128.1 41.5768C128.079 41.0898 127.592 40.7723 127.169 40.5606C126.717 40.3348 126.266 40.1301 125.814 39.9467C124.819 39.5656 123.231 39.5021 123.401 40.984C123.528 42.233 125.306 42.9105 126.386 42.9105Z" fill="#F3F6FC"/>
<path d="M139.744 111.586C140.125 111.184 140.569 110.761 141.12 110.697C141.564 110.634 141.988 110.782 142.348 111.036C143.385 111.756 143.703 113.216 143.385 114.444C143.067 115.651 142.242 116.688 141.374 117.598C140.718 118.297 139.977 118.953 139.066 119.292C133.499 121.346 138.389 113.005 139.744 111.586Z" fill="#F3F6FC"/>
<path d="M9.01873 121.197C8.70118 121.155 8.34129 121.113 8.06608 121.261C7.49449 121.6 8.00257 124.712 12.8717 126.871C13.782 127.273 14.777 127.675 15.7296 127.421C21.0645 126.13 10.5853 121.43 9.01873 121.197Z" fill="#F3F6FC"/>
<path d="M117.515 92.3424C121.389 91.8766 125.792 92.3636 128.375 95.285C128.926 95.9201 129.391 96.6822 129.37 97.5079C129.328 98.3123 128.841 99.0533 128.206 99.5614C126.851 100.705 124.967 100.98 123.189 100.895C121.431 100.789 119.696 100.387 117.917 100.281C115.948 100.175 114.001 100.493 112.053 100.81C109.894 101.149 107.713 101.53 105.639 102.292C104.051 102.885 102.548 103.711 101.087 104.579C100.537 104.917 99.9015 105.277 99.3088 105.044C98.4196 104.685 98.5043 103.393 98.9277 102.546C100.41 99.5825 104.157 97.275 106.972 95.7508C110.233 93.9725 113.81 92.8081 117.515 92.3424Z" fill="#99CFDB"/>
<path d="M103.691 37.4697C104.114 35.2468 104.347 32.9393 105.131 30.8011C105.914 28.6629 107.354 26.6518 109.471 25.805C113.175 24.3231 117.536 27.2234 118.87 30.9917C120.183 34.7599 119.23 38.9516 117.79 42.6775C112.879 55.2525 102.23 65.4353 89.4436 69.7752C86.628 70.749 79.0703 70.368 82.5422 65.8376C84.6804 63.022 89.6342 61.2013 92.2804 58.5762C98.081 52.9027 102.188 45.472 103.691 37.4697Z" fill="#99CFDB"/>
<path d="M114.001 38.9091C113.853 38.8033 113.662 38.8456 113.556 38.9938C112.35 40.8568 110.36 42.4233 109.217 43.249C112.244 36.157 112.329 30.9068 112.329 30.8645C112.329 30.674 112.18 30.5469 112.011 30.5469C111.842 30.5258 111.693 30.674 111.693 30.8433C111.693 30.8857 111.672 32.8545 110.931 35.9665C110.593 34.8656 110.042 33.0874 109.852 31.8383C109.809 31.669 109.661 31.5631 109.471 31.5843C109.301 31.6266 109.195 31.7748 109.217 31.9442C109.534 33.7648 110.466 36.5804 110.656 37.1308C110.169 38.9515 109.492 41.0473 108.454 43.376C107.417 45.7471 105.935 48.5203 103.861 51.4418C103.924 49.854 104.178 46.7209 105.194 44.2863C105.258 44.117 105.173 43.9476 105.025 43.8629C104.856 43.7994 104.665 43.8841 104.602 44.0323C103.268 47.2713 103.225 51.5265 103.225 52.3521C99.5419 57.3271 94.1858 62.7254 86.3318 67.5522C86.1836 67.6369 86.1201 67.8274 86.2259 67.9756C86.2894 68.0815 86.3741 68.1238 86.4799 68.1238C86.5505 68.1238 86.607 68.1097 86.6493 68.0815C91.222 65.2658 94.9691 62.2597 98.0388 59.2536C98.5045 59.1054 103.458 57.3906 108.433 54.3844C108.581 54.2998 108.645 54.1092 108.539 53.9399C108.454 53.7917 108.264 53.7493 108.116 53.834C104.517 56.0145 100.918 57.4964 99.0761 58.2162C100.876 56.3532 102.4 54.5115 103.734 52.7332C103.776 52.6908 103.811 52.6414 103.839 52.585C106.02 49.6 107.586 46.7844 108.73 44.3287C109.28 43.9899 112.371 41.9788 114.086 39.3325C114.192 39.1843 114.149 38.9938 114.001 38.9091Z" fill="#72A0BD"/>
<path d="M84.0239 93.274L93.8045 97.4233C126.406 87.0711 135.975 62.535 135.975 62.535C109.597 61.6882 84.0239 93.274 84.0239 93.274Z" fill="#72A0BD"/>
<path d="M129.857 65.8162C129.73 65.668 129.519 65.6468 129.37 65.7527C129.286 65.8374 125.454 68.7377 119.611 73.141C120.352 71.7438 121.199 69.6056 120.691 67.658C120.627 67.4886 120.458 67.3828 120.267 67.4251C120.098 67.4675 119.992 67.658 120.034 67.8485C120.754 70.5371 118.404 73.8608 118.129 74.2419C115.123 76.4859 111.672 79.0475 107.968 81.7784C108.751 80.3388 109.576 78.0737 108.878 75.7661C108.814 75.5968 108.624 75.4909 108.454 75.5544C108.285 75.5968 108.179 75.7873 108.243 75.9567C109.217 79.2168 106.761 82.5194 106.464 82.9004C103.12 85.3562 99.5842 87.9389 96.0064 90.5217C97.1919 88.7434 98.5257 85.8854 98.1234 82.3923C98.1023 82.2018 97.9329 82.0748 97.7636 82.096C97.573 82.1171 97.446 82.2865 97.4672 82.4559C98.0811 87.8331 94.2281 91.7283 93.9318 92.0247C92.2593 93.2314 90.5657 94.4593 88.8721 95.6448C88.7239 95.7507 88.6816 95.9624 88.8086 96.1105C88.8721 96.2164 88.978 96.2587 89.0838 96.2587C89.1403 96.2587 89.2038 96.2376 89.2743 96.1952C92.8733 93.6337 96.5145 90.9874 100.092 88.4047C100.622 88.2565 104.856 87.2615 107.862 88.2141C107.904 88.2141 107.939 88.2141 107.968 88.2141C108.116 88.2141 108.243 88.1294 108.285 87.9812C108.349 87.8119 108.243 87.6214 108.073 87.5578C105.851 86.8592 103.098 87.1556 101.405 87.4308C105.364 84.5517 109.174 81.7361 112.667 79.1533C113.133 79.0687 116.287 78.6241 119.505 79.5344C119.533 79.5344 119.569 79.5344 119.611 79.5344C119.738 79.5344 119.886 79.4285 119.929 79.3015C119.971 79.111 119.865 78.9205 119.696 78.8781C117.346 78.2218 115.081 78.243 113.726 78.3489C117.833 75.3004 121.411 72.6118 124.163 70.5583C124.671 70.5371 127.296 70.4524 128.757 71.1722C128.799 71.2004 128.848 71.2146 128.905 71.2146C129.032 71.2146 129.138 71.151 129.201 71.024C129.286 70.8547 129.222 70.6641 129.053 70.5795C127.91 70.0079 126.174 69.8808 125.052 69.8808C127.973 67.6792 129.73 66.3454 129.794 66.3031C129.921 66.1761 129.963 65.9644 129.857 65.8162Z" fill="#5F7CA9"/>
<path d="M101.998 102.652C101.892 102.631 101.786 102.567 101.723 102.483C101.595 102.271 101.638 101.996 101.828 101.869C112.181 94.7134 123.845 96.1529 123.951 96.1529C124.205 96.1741 124.374 96.407 124.332 96.661C124.311 96.8939 124.078 97.0632 123.845 97.0421C123.739 97.0209 112.392 95.6237 102.336 102.589C102.231 102.652 102.125 102.673 101.998 102.652Z" fill="#72A0BD"/>
<path d="M25.8065 64.0169C18.0795 47.462 5.16571 49.706 12.2577 71.5958C19.3497 93.4857 47.2306 104.579 47.2306 104.579L53.4123 98.757C42.2768 95.3486 33.5124 80.5719 25.8065 64.0169Z" fill="#99CFDB"/>
<path d="M50.004 100.027C44.1399 97.9314 39.1861 94.5442 35.058 90.7124C34.8886 89.8445 33.8513 84.8695 32.1153 80.2544C32.0518 80.0851 31.8613 80.0004 31.6919 80.0639C31.5225 80.1274 31.4379 80.3179 31.5014 80.4873C32.8774 84.1709 33.8301 88.0873 34.2323 89.9291C29.8501 85.674 26.4841 80.953 24.0284 76.8884C23.7179 76.3521 23.4074 75.8228 23.0969 75.3006C23.3933 74.5809 24.4306 71.4477 23.0969 67.1078C23.0545 66.9385 22.864 66.8538 22.6946 66.8961C22.5253 66.9596 22.4194 67.129 22.4829 67.3195C23.5203 70.7067 23.0122 73.353 22.6735 74.5385C18.3971 66.8114 16.5341 60.3969 16.513 60.3334C16.4495 60.1429 16.2801 60.0582 16.1107 60.1005C15.9202 60.1429 15.8355 60.3334 15.8779 60.5028C15.899 60.5451 16.5977 62.9373 18.0796 66.5362C17.1269 66.007 15.4333 64.8215 14.2266 62.6198C14.1419 62.4716 13.9514 62.4081 13.8032 62.4927C13.6339 62.5774 13.5703 62.768 13.655 62.9373C15.3486 66.0281 17.889 67.2137 18.4818 67.4677C19.6885 70.2622 21.3186 73.6494 23.4568 77.2059C24.6211 79.1536 25.9972 81.2494 27.6061 83.3664C26.3147 82.816 23.9013 81.5035 21.0434 78.6455C20.8952 78.4973 20.7047 78.4973 20.5776 78.6243C20.4506 78.7514 20.4506 78.9631 20.5776 79.0901C24.5999 83.1547 27.7543 84.1709 28.347 84.3403C30.1253 86.6266 32.1788 88.913 34.4864 91.0723C34.5287 91.1429 34.5781 91.1923 34.6346 91.2205C36.8151 93.2528 39.2496 95.1581 41.9171 96.8094C38.9321 95.8991 33.9359 94.1208 30.9298 91.7498C30.7816 91.6439 30.5699 91.6651 30.464 91.8133C30.3582 91.9615 30.3794 92.152 30.5276 92.279C35.1215 95.8568 43.78 98.0373 44.2246 98.1643C45.9817 99.0958 47.8235 99.9426 49.7923 100.641C49.8347 100.655 49.8699 100.662 49.8982 100.662C50.0252 100.662 50.1522 100.578 50.2157 100.451C50.2792 100.281 50.1734 100.091 50.004 100.027Z" fill="#72A0BD"/>
<path d="M29.9771 34.8022C32.0094 69.0554 53.878 95.7508 53.878 95.7508L57.2017 94.4595C52.7137 50.3411 29.9771 34.8022 29.9771 34.8022Z" fill="#72A0BD"/>
<path d="M58.9589 92.8717C57.6252 90.4371 55.9527 87.2828 54.1109 83.7474C54.1533 83.578 54.0898 83.4086 53.9416 83.324L53.8781 83.3028C48.6702 73.247 42.2557 60.3333 38.3816 52.4792L38.8262 47.1443C38.8473 46.9326 38.6991 46.7633 38.5086 46.7421C38.2969 46.7421 38.1275 46.8903 38.1064 47.0808L37.7677 51.2513C36.0529 47.7371 34.952 45.5142 34.9097 45.4295C34.825 45.239 34.6133 45.1755 34.444 45.2602C34.2534 45.3449 34.1899 45.5566 34.2746 45.7259C34.3381 45.8741 36.7938 50.8703 40.2022 57.7505L35.693 53.2201C35.566 53.0719 35.3331 53.0719 35.2061 53.2201C35.0579 53.3683 35.0579 53.58 35.2061 53.7282L41.1972 59.7829C44.7114 66.8325 49.009 75.4275 52.7772 82.71L46.7861 79.4922C46.6167 79.3863 46.405 79.4498 46.2992 79.6404C46.2145 79.8097 46.278 80.0214 46.4474 80.1061L53.3488 83.832C55.233 87.4521 56.9689 90.7123 58.345 93.2104C58.4085 93.3374 58.5355 93.4009 58.6625 93.4009C58.719 93.4009 58.7754 93.3868 58.8319 93.3586C59.0012 93.2739 59.0647 93.041 58.9589 92.8717Z" fill="#5F7CA9"/>
<path d="M1.20703 88.9763C1.20703 88.9763 9.06113 108.22 29.6596 112.729L40.1599 107.818C40.1599 107.818 11.6862 99.4555 1.20703 88.9763Z" fill="#72A0BD"/>
<path d="M36.1165 110.083C36.1023 110.083 36.0812 110.083 36.0529 110.083C22.8005 108.008 10.5854 99.4768 10.4583 99.3921C10.289 99.2651 10.2466 99.0322 10.3737 98.8629C10.5007 98.6935 10.7336 98.6512 10.9029 98.7782C11.0299 98.8629 23.0969 107.289 36.18 109.321C36.3917 109.363 36.5187 109.554 36.4975 109.765C36.4552 109.956 36.307 110.083 36.1165 110.083Z" fill="#5F7CA9"/>
<path d="M27.7753 97.7409C26.5475 97.8467 25.2773 97.6774 24.1129 97.254C23.626 97.0635 23.1603 96.8517 22.6945 96.5977C20.1118 95.2217 17.7196 93.147 16.7881 90.3525C18.397 91.0723 20.1965 91.3052 21.7842 92.025C23.3508 92.7448 24.6422 93.9091 25.9124 95.0735C26.7168 95.8144 27.2884 96.7459 27.7753 97.7409Z" fill="#72A0BD"/>
<path d="M29.8076 99.1381C29.7793 99.1381 29.7511 99.131 29.7229 99.1169C26.4415 97.6562 21.0432 93.4645 20.9797 93.4222C20.895 93.3587 20.8738 93.2316 20.9373 93.147C21.022 93.0411 21.149 93.0411 21.2337 93.1046C21.276 93.147 26.6532 97.3175 29.8923 98.7359C29.9981 98.7782 30.0404 98.9052 29.9981 99.0111C29.9558 99.0958 29.8923 99.1381 29.8076 99.1381Z" fill="#5F7CA9"/>
<path d="M31.8397 63.8687C31.8397 63.8475 31.3528 62.3021 30.2732 60.291L30.9718 56.9673C30.9929 56.8826 30.9294 56.8191 30.8447 56.7979C30.7601 56.7767 30.6754 56.8191 30.6754 56.9038L30.0615 59.8676C29.6592 59.169 29.1935 58.4068 28.6642 57.6235C28.6501 57.6094 28.636 57.5953 28.6219 57.5812C28.2197 56.9884 27.7539 56.3957 27.2458 55.8241L27.6904 53.0931C27.7116 53.0085 27.6481 52.9238 27.5634 52.9238C27.4787 52.9026 27.4152 52.9661 27.394 53.0508L26.9918 55.5277C26.5825 55.0761 26.145 54.6386 25.6793 54.2152C25.6157 54.1516 25.5099 54.1516 25.4676 54.2152C25.404 54.2787 25.404 54.3845 25.4676 54.448C26.5261 55.4007 27.4364 56.4592 28.1985 57.5177L25.8698 57.306C25.7851 57.2848 25.7004 57.3483 25.7004 57.433C25.7004 57.5177 25.7428 57.6024 25.8274 57.6024L28.4314 57.8352C30.6119 60.9684 31.5434 63.911 31.5434 63.9534C31.5645 64.0169 31.628 64.0592 31.6916 64.0592C31.7057 64.0592 31.7198 64.0592 31.7339 64.0592C31.8186 64.0381 31.8609 63.9534 31.8397 63.8687Z" fill="#72A0BD"/>
<path d="M31.7979 56.4803C31.692 56.946 31.2474 57.2424 30.7817 57.1577C30.316 57.0519 30.0196 56.6073 30.1043 56.1416C30.2101 55.6758 30.6547 55.3794 31.1204 55.4641C31.5862 55.57 31.8825 56.0146 31.7979 56.4803Z" fill="#99CFDB"/>
<path d="M26.1031 57.6023C26.0184 57.9834 25.6585 58.2163 25.2986 58.1527C24.9176 58.0681 24.6847 57.7082 24.7482 57.3271C24.8329 56.9672 25.1928 56.7132 25.5738 56.7979C25.9337 56.8825 26.1878 57.2424 26.1031 57.6023Z" fill="#99CFDB"/>
<path d="M28.2834 53.22C28.1987 53.5799 27.8388 53.834 27.4577 53.7493C27.0978 53.6858 26.8438 53.3047 26.9285 52.9448C27.0132 52.5637 27.373 52.3309 27.7329 52.4156C28.114 52.4791 28.3469 52.839 28.2834 53.22Z" fill="#99CFDB"/>
<path d="M25.8912 54.1729C25.8065 54.5328 25.4466 54.7868 25.0656 54.7022C24.7057 54.6175 24.4728 54.2576 24.5363 53.8977C24.621 53.5166 24.9809 53.2838 25.3619 53.3684C25.7218 53.4319 25.9547 53.7918 25.8912 54.1729Z" fill="#99CFDB"/>
<path d="M50.0464 43.5455C49.9618 43.5455 49.8982 43.5032 49.8771 43.4185C48.501 36.0301 51.6977 28.6418 51.7189 28.5571C51.7612 28.4936 51.8459 28.4513 51.9306 28.4936C52.0152 28.5148 52.0364 28.5995 52.0152 28.6841C51.9729 28.7476 48.8186 36.0725 50.1946 43.355C50.1946 43.4397 50.1523 43.5244 50.0676 43.5455C50.0535 43.5455 50.0464 43.5455 50.0464 43.5455Z" fill="#72A0BD"/>
<path d="M48.1831 38.8458C47.5691 38.1472 47.0822 37.258 47.1457 36.3265C47.1669 36.0302 47.2727 35.7126 47.548 35.6279C47.8655 35.5433 48.1407 35.8185 48.3312 36.0725C48.8817 36.8346 49.3262 37.7026 49.6226 38.5917C49.7285 38.9305 49.919 39.6926 49.3474 39.6079C48.8817 39.5444 48.4794 39.1845 48.1831 38.8458Z" fill="#99CFDB"/>
<path d="M50.4062 34.0401C50.5967 33.7861 50.8508 33.5956 51.1048 33.405C51.2954 33.278 51.4647 33.151 51.6764 33.0875C51.8881 33.024 52.121 33.0451 52.3115 33.151C52.3539 33.1792 52.3891 33.2074 52.4174 33.2357C52.5021 33.3415 52.502 33.4897 52.4597 33.6167C52.3962 33.8708 52.248 34.0613 52.0575 34.2307C51.8669 34.3789 51.6341 34.4847 51.4224 34.6117C51.2812 34.6823 51.1401 34.7529 50.999 34.8234C50.8296 34.9081 50.3004 35.1621 50.131 34.9293C49.9828 34.7176 50.3004 34.2095 50.4062 34.0401Z" fill="#99CFDB"/>
<path d="M50.0675 31.4786C49.9193 31.288 49.8558 31.0763 49.7923 30.8435C49.6653 30.3989 49.623 29.9331 49.6653 29.4462C49.6653 29.2769 49.7076 29.0863 49.8558 28.9805C50.0464 28.8535 50.3216 28.9593 50.4698 29.1499C50.5968 29.3404 50.6179 29.5733 50.6391 29.8061C50.6956 30.2436 50.745 30.6882 50.7873 31.1398C50.7873 31.288 50.8508 31.7326 50.6815 31.7961C50.4909 31.8808 50.1734 31.6056 50.0675 31.4786Z" fill="#99CFDB"/>
<path d="M52.5865 28.1972C52.8406 28.049 53.137 27.9008 53.4334 27.922C53.5392 27.922 53.6874 27.9643 53.7297 28.0701C53.7509 28.176 53.6874 28.2818 53.6027 28.3454C53.2005 28.8111 52.6289 29.0863 52.0361 29.1498C51.9303 29.1498 51.7397 29.1498 51.7397 29.0228C51.7397 28.9381 51.9091 28.7899 51.9514 28.7476C52.149 28.5359 52.3607 28.3524 52.5865 28.1972Z" fill="#99CFDB"/>
<path d="M12.1732 85.3353C10.5642 82.7737 8.00266 80.8472 5.12354 79.9792C6.9865 82.4138 9.27287 84.298 12.1732 85.3353Z" fill="#99CFDB"/>
<path d="M96.5143 40.8992C96.4296 40.8992 96.3661 40.8357 96.3661 40.751C96.3661 40.6663 96.6201 32.5793 93.8468 27.9854C93.7833 27.9008 93.8257 27.8161 93.8892 27.7737C93.9527 27.7314 94.0585 27.7526 94.1009 27.8161C96.9165 32.4947 96.6836 40.6875 96.6836 40.7722C96.6836 40.8568 96.599 40.9203 96.5143 40.9203C96.5143 40.9062 96.5143 40.8992 96.5143 40.8992Z" fill="#5F7CA9"/>
<path d="M93.7204 37.5332C93.4452 37.3638 93.1911 37.1521 93.1064 36.8557C93.3181 36.7711 93.5722 36.7499 93.8051 36.7711C94.2708 36.7922 94.7365 36.9193 95.1811 37.1098C95.4351 37.2156 96.3031 37.6179 96.3666 37.9142C96.4936 38.5493 94.0168 37.7025 93.7204 37.5332Z" fill="#72A0BD"/>
<path d="M96.7266 37.6179C96.6207 37.6814 96.4937 37.7237 96.4514 37.8296C96.4372 37.8437 96.4302 37.8649 96.4302 37.8931C96.4302 37.9566 96.5149 37.9778 96.5784 37.9778C97.2135 37.9989 97.8274 37.7449 98.3567 37.4274C98.5048 37.3427 99.7115 36.5594 99.3728 36.39C99.2458 36.3265 99.0764 36.4535 98.9706 36.4959C98.8294 36.5664 98.6883 36.637 98.5472 36.7076C98.2649 36.8487 97.9756 36.9898 97.6792 37.131C97.3546 37.2862 97.0371 37.4485 96.7266 37.6179Z" fill="#72A0BD"/>
<path d="M95.2658 34.7388C95.0964 34.7388 94.9482 34.7176 94.7789 34.6964C94.546 34.6541 94.3131 34.5906 94.0802 34.5059C93.8897 34.4212 93.678 34.3577 93.5722 34.1884C93.4875 34.0825 93.4663 33.9132 93.5722 33.8285C93.6145 33.8073 93.678 33.8073 93.7203 33.8073C94.5248 33.765 95.3293 34.019 95.9644 34.4847C96.1126 34.5694 96.2184 34.76 95.9855 34.7811C95.7527 34.8023 95.4986 34.76 95.2658 34.7388Z" fill="#72A0BD"/>
<path d="M97.065 33.8496C97.5096 33.5744 97.9965 33.2992 98.5258 33.2568C98.6105 33.2568 98.7163 33.278 98.7587 33.3627C98.7587 33.4262 98.7163 33.4897 98.674 33.5532C98.3141 33.9766 97.7425 34.1883 97.1921 34.4C96.9239 34.4988 96.6487 34.5976 96.3664 34.6964C95.9642 34.8446 96.0489 34.5694 96.2818 34.3789C96.5146 34.1883 96.7898 34.019 97.065 33.8496Z" fill="#72A0BD"/>
<path d="M93.127 31.2456C93.0635 31.2032 92.9788 31.1397 93.0212 31.055C93.0423 31.0339 93.0847 31.0127 93.127 31.0127C93.5222 30.928 93.9315 30.8927 94.3549 30.9068C94.5454 30.9068 94.7571 30.928 94.9265 31.0127C95.117 31.0762 95.2864 31.2032 95.371 31.3937C95.4557 31.5419 94.4396 31.5419 94.2914 31.5419C93.8891 31.5208 93.4869 31.4149 93.127 31.2456Z" fill="#72A0BD"/>
<path d="M97.0015 30.0601C97.0439 30.1236 97.0439 30.1871 97.0439 30.2506C96.811 30.5893 96.5358 30.8645 96.1971 31.0762C96.0701 31.1609 95.3291 31.6055 95.2868 31.4149C95.2021 31.0127 96.8957 29.8695 97.0015 30.0601Z" fill="#72A0BD"/>
<path d="M92.8097 28.3665C92.7462 28.3665 92.6615 28.3877 92.598 28.43C92.5556 28.4724 92.5133 28.557 92.5556 28.6205C92.5768 28.6629 92.6403 28.684 92.6615 28.7052C92.979 28.8111 93.2966 28.8534 93.6141 28.8534C93.72 28.8534 94.4398 28.8746 94.4609 28.7476C94.5456 28.3665 93.0002 28.3242 92.8097 28.3665Z" fill="#72A0BD"/>
<path d="M94.8632 27.2234C94.9902 27.1175 95.1384 27.054 95.2866 26.9905C95.329 27.0963 95.329 27.2234 95.2866 27.3292C95.2443 27.4562 95.1808 27.5621 95.1173 27.6468C94.962 27.8867 94.8068 28.1266 94.6515 28.3665C94.5457 28.5147 94.3975 28.7053 94.3551 28.4089C94.3128 28.049 94.6092 27.4562 94.8632 27.2234Z" fill="#72A0BD"/>
<path d="M114.53 60.8203C114.255 59.2749 114.975 57.7507 115.737 56.3746C116.499 54.9985 117.303 53.6648 118.383 52.5216C119.442 51.3785 120.775 50.447 122.3 50.0659C121.537 54.5328 118.341 58.3646 114.53 60.8203Z" fill="#72A0BD"/>
<path d="M108.497 66.2821C108.454 66.3033 108.391 66.2821 108.37 66.2186C108.327 66.1551 108.349 66.0916 108.412 66.0493C115.038 62.3868 118.891 53.8977 118.934 53.813C118.955 53.7495 119.039 53.7071 119.103 53.7495C119.166 53.7706 119.188 53.8341 119.166 53.9188C119.124 54.0035 115.229 62.5562 108.539 66.2821C108.525 66.2821 108.511 66.2821 108.497 66.2821Z" fill="#5F7CA9"/>
<path d="M119.886 105.447C121.072 105.214 122.321 105.299 123.485 105.659C124.036 105.828 124.565 106.082 125.073 106.357C127.084 107.543 128.566 109.639 128.989 111.946C127.084 111.819 125.369 110.951 123.824 109.808C122.3 108.644 120.902 107.098 119.886 105.447Z" fill="#72A0BD"/>
<path d="M125.56 109.469C125.517 109.469 125.454 109.448 125.433 109.384C125.411 109.342 122.659 104.812 116.33 105.468C116.245 105.489 116.181 105.426 116.16 105.341C116.16 105.256 116.224 105.171 116.308 105.171C119.696 104.812 122.088 105.934 123.464 106.95C124.967 108.029 125.666 109.194 125.687 109.236C125.729 109.3 125.708 109.406 125.644 109.448C125.616 109.462 125.588 109.469 125.56 109.469Z" fill="#5F7CA9"/>
<path d="M128.227 102.123C131.127 102.165 134.006 103.33 136.335 105.404C133.52 105.108 130.746 103.69 128.227 102.123Z" fill="#99CFDB"/>
<path d="M132.017 83.218C132.123 83.1969 132.229 83.1545 132.335 83.1757C132.44 83.1757 132.546 83.2604 132.567 83.3662C132.567 83.4086 132.546 83.4721 132.546 83.5356C132.335 84.1707 131.763 84.5941 131.191 84.9751C131.022 85.1022 130.281 85.6314 130.027 85.4409C129.858 85.2927 130.26 84.6999 130.345 84.5306C130.747 83.9378 131.34 83.4721 132.017 83.218Z" fill="#99CFDB"/>
<path d="M132.271 91.1781C132.271 91.538 132.377 91.9191 132.631 92.1731C132.694 92.2155 132.737 92.2578 132.8 92.2578C132.864 92.279 132.948 92.2366 133.012 92.1943C133.308 91.9614 133.457 91.6015 133.478 91.2416C133.52 90.8817 133.457 90.5218 133.372 90.162C133.329 89.9503 133.245 89.5692 133.012 89.5057C132.821 89.4422 132.589 89.6539 132.504 89.8232C132.44 89.9714 132.292 90.8817 132.271 91.1781Z" fill="#99CFDB"/>
<path d="M136.568 87.5793C136.738 87.2194 136.928 86.8596 137.203 86.5843C137.479 86.288 137.839 86.0763 138.241 86.0339C138.283 86.0128 138.368 86.0128 138.41 86.0551C138.474 86.0763 138.495 86.1398 138.495 86.2033C138.579 86.6055 138.325 86.9654 138.071 87.283C137.86 87.537 137.627 87.8122 137.33 88.0027C137.076 88.1721 136.653 88.3626 136.335 88.2356C136.357 88.0239 136.484 87.791 136.568 87.5793Z" fill="#99CFDB"/>
<path d="M137.267 89.8868C136.745 89.4775 136.208 89.1176 135.658 88.8071C136.103 88.6801 136.801 88.3414 137.267 87.5793C137.33 87.4946 137.288 87.4099 137.225 87.3676C137.161 87.3252 137.055 87.3464 137.013 87.4099C136.441 88.3626 135.446 88.5743 135.235 88.5954C134.261 88.0873 133.266 87.7063 132.271 87.4099C132.243 87.3958 132.214 87.3887 132.186 87.3887C130.831 87.0077 129.519 86.8172 128.333 86.7113C129.201 86.3302 130.789 85.4623 131.318 84.2979C131.339 84.2132 131.318 84.1285 131.233 84.1074C131.17 84.065 131.064 84.1074 131.043 84.1709C130.387 85.6316 127.677 86.669 127.634 86.6901C125.031 86.5631 123.168 86.923 123.125 86.9442C123.041 86.9653 122.977 87.0288 122.998 87.1135C123.019 87.1982 123.104 87.2617 123.189 87.2406C123.231 87.2194 127.507 86.3937 132.101 87.6851C132.25 88.0027 132.842 89.4846 132.779 91.2417C132.758 91.3264 132.821 91.3899 132.906 91.3899C132.92 91.3899 132.927 91.3899 132.927 91.3899C133.012 91.3899 133.075 91.3264 133.075 91.2629C133.139 89.6963 132.715 88.3626 132.461 87.791C134.049 88.2779 135.637 89.0188 137.076 90.1197C137.105 90.1479 137.14 90.162 137.182 90.162C137.225 90.162 137.267 90.1409 137.309 90.0985C137.352 90.035 137.33 89.9292 137.267 89.8868Z" fill="#5F7CA9"/>
<path d="M38.8897 79.0475C39.0168 79.1322 39.1438 79.1957 39.292 79.2381C40.1811 79.598 38.3817 73.0776 37.0903 74.1149C35.7777 75.1522 37.9794 78.4124 38.8897 79.0475Z" fill="#72A0BD"/>
<path d="M125.242 59.8677C125.327 59.7618 125.412 59.6771 125.433 59.5713C125.454 59.3807 125.242 59.1902 124.988 59.1267C124.734 59.042 124.438 59.0632 124.163 59.0844C123.231 59.2114 120.543 59.8677 121.58 60.778C122.617 61.6883 124.607 60.5028 125.242 59.8677Z" fill="#99CFDB"/>
<path d="M88.1313 29.3615C87.6867 28.0278 84.9769 25.1698 86.1624 15.5163C87.5385 4.40198 80.6371 2.72954 80.6371 2.72954C80.6371 2.72954 79.3669 0.803069 76.3395 0.189137C72.7195 -0.530645 70.3696 1.03594 70.3696 1.03594C58.599 2.24263 60.335 11.8327 60.2503 12.9335C60.0174 16.0667 58.4297 18.9246 57.9216 22.0366C57.3076 25.9108 59.5728 27.7314 57.0959 33.7225C56.2703 35.6913 54.8943 37.6813 55.36 39.756L90.46 42.8468C88.851 38.1894 89.719 33.913 88.1313 29.3615Z" fill="#191F5D"/>
<path d="M82.8811 126.151C82.8811 126.151 84.7652 125.728 86.1413 126.151C87.5174 126.574 97.9965 129.665 99.0127 129.496C100.05 129.327 101.595 128.205 100.982 127.739C100.389 127.273 87.0093 119.123 87.0093 119.123L79.6421 121.261L82.1825 126.236L82.8811 126.151Z" fill="#FFB294"/>
<path d="M113.345 105.637C103.988 100.324 92.196 94.6712 90.6082 92.4272C89.7826 91.2628 87.7503 80.7625 87.7503 80.7625L58.4933 83.7686C58.4933 83.7686 57.9217 92.9352 53.7088 96.3648C49.5172 99.8155 27.2886 110.189 23.1604 118.932C19.0534 127.696 23.1604 132.333 25.9125 133.264C28.6647 134.217 44.9656 133.878 53.9629 130.957C62.9813 128.035 80.4043 126.49 82.8812 126.151C82.8812 126.151 82.5213 123.06 80.4678 121.6C80.4678 121.6 95.2445 127.083 102.696 129.411C110.169 131.719 121.749 133.434 124.078 125.812C126.386 118.17 119.4 109.088 113.345 105.637Z" fill="#7272BD"/>
<path d="M82.0343 123.484L80.4677 121.6L67.2576 116.159C67.2576 116.159 64.3996 115.016 62.7272 116.879C62.0286 117.662 59.0859 119.779 58.4932 120.266C60.7584 119.356 69.4804 117.789 82.0343 123.484Z" fill="#645CA3"/>
<path d="M55.7412 117.387C55.7412 117.387 48.1411 120.753 43.3355 121.6C38.5299 122.468 35.1851 125.368 35.1851 125.368C35.1851 125.368 36.3706 121.769 41.0068 120.562C45.6431 119.377 58.3663 113.491 60.2292 111.798C62.1134 110.104 60.8432 114.656 60.8432 114.656L55.7412 117.387Z" fill="#645CA3"/>
<path d="M72.9735 106.505C72.9735 106.505 86.3107 110.528 97.3826 111.734C108.455 112.941 113.43 119.123 113.43 119.123C113.43 119.123 108.624 110.866 97.9119 109.511C87.1787 108.135 81.124 109.151 68.5278 103.372L69.0783 105.553L72.9735 106.505Z" fill="#645CA3"/>
<path d="M90.841 92.7024C90.841 92.7024 90.848 92.7094 90.8621 92.7236C73.3757 98.1854 60.3137 94.8829 55.995 93.4433L55.5293 94.2266C59.5728 95.645 73.9473 99.6885 91.4337 93.2316C91.1938 93.0482 90.9962 92.8718 90.841 92.7024Z" fill="#EBE0F3"/>
<path d="M67.2577 116.159C67.5117 112.539 72.9736 106.505 72.9736 106.505C72.9736 106.505 70.6661 105.277 69.0571 103.732C67.4482 102.187 65.183 103.986 64.315 105.172C63.4471 106.378 59.954 112.814 57.5406 115.545C55.1272 118.276 50.364 121.938 50.5757 123.039C50.8085 124.14 52.6292 124.161 54.1111 123.039C55.593 121.917 65.5852 115.905 66.4109 116.032C67.2577 116.159 67.2577 116.159 67.2577 116.159Z" fill="#FFB294"/>
<path d="M55.9951 93.4433C60.3138 94.8829 73.3757 98.1854 90.8622 92.7235C90.7634 92.6106 90.6787 92.5118 90.6082 92.4272C89.7825 91.2628 87.7502 80.7625 87.7502 80.7625L58.4932 83.7686C58.4932 83.7686 58.1333 89.3575 55.9951 93.4433Z" fill="#FFB294"/>
<path d="M57.498 89.442C62.4942 88.1083 65.2039 86.6476 70.3483 86.9651C73.3756 87.1557 78.8375 88.9339 81.8648 88.7434C83.9818 88.5952 86.1411 87.7484 88.1311 86.9651C88.4063 86.8593 88.6815 86.7111 88.9568 86.5629C88.6604 85.2292 88.364 83.8743 88.1523 82.8158C87.496 82.7311 86.8186 82.6676 86.1623 82.6041C82.7751 82.3077 79.3738 82.096 75.9583 81.969L58.493 83.7684C58.493 83.7684 58.3237 86.4359 57.498 89.442Z" fill="#E49D94"/>
<path d="M90.2057 85.4834C90.2057 85.4834 88.745 74.7501 90.0364 71.2571C91.3277 67.764 91.984 62.7044 91.984 62.7044L92.6826 64.5885C94.355 64.5038 96.9801 63.2971 98.0598 62.2598C99.1395 61.2436 101.807 61.8788 101.807 61.8788C100.558 57.8141 94.1433 41.5555 92.6191 39.8195C91.0948 38.1048 84.0664 35.1621 83.5583 34.8022C83.5583 34.8022 80.6157 43.9477 73.1215 47.8007C65.6273 43.9477 62.6846 34.8022 62.6846 34.8022C62.1554 35.1621 55.1481 38.1048 53.6238 39.8195C52.0784 41.5555 45.6851 57.8141 44.436 61.8788C44.436 61.8788 47.0823 61.2436 48.1831 62.2598C49.2628 63.2971 51.8879 64.5038 53.5603 64.5885L54.2589 62.7044C54.2589 62.7044 54.894 67.764 56.1854 71.2571C57.4768 74.7501 56.0372 85.4834 56.0372 85.4834C57.8155 86.6054 60.1654 86.4572 62.1977 85.8856C64.2512 85.314 66.22 84.4249 68.3159 84.2555C69.5861 84.1497 70.8563 84.2978 72.0418 84.7212C73.1215 85.0811 74.1165 85.6527 75.1961 86.0338C76.9956 86.7112 78.9432 86.8383 80.8697 86.9229C83.9394 87.0711 87.4324 86.8383 90.2057 85.4834Z" fill="#A691F3"/>
<path d="M75.1963 71.6169C74.9211 70.5796 71.5763 70.5372 70.7718 70.6431C69.9673 70.7489 69.2052 71.0665 68.4431 71.3629C66.3261 72.1956 64.2161 73.0353 62.1132 73.8821C60.7584 74.4114 59.3823 74.9618 58.1333 75.7239C57.6464 76.0203 57.1806 76.3378 56.7149 76.6977C56.6937 78.7724 56.5243 80.9741 56.355 82.6465C58.7049 81.1434 60.9912 79.5769 63.3623 78.095C66.2414 76.3167 69.2476 74.6654 72.4866 73.6069C73.164 73.374 75.5351 72.7813 75.1963 71.6169Z" fill="#917CD4"/>
<path d="M67.7655 65.2449C67.2786 65.3507 66.9399 65.7318 66.4953 65.9435C66.0719 66.1552 65.585 66.1975 65.0981 66.2187C63.2139 66.3034 61.3086 66.2822 59.488 65.8588C58.8317 65.7106 58.1331 65.4989 57.5615 65.0967C60.9276 66.134 64.3359 66.007 67.7655 65.2449Z" fill="#917CD4"/>
<path d="M82.3519 53.1779C80.997 54.1518 79.4092 54.7869 77.8003 55.2314C79.6209 54.9351 81.3569 54.4481 83.0716 53.1779C84.6806 51.9924 86.8187 49.071 86.9669 47.8643C85.5909 49.6637 84.1937 51.8442 82.3519 53.1779Z" fill="#917CD4"/>
<path d="M78.4565 80.7413C80.2983 81.5034 82.5424 81.4611 84.0031 82.8371C83.1351 82.7313 82.2883 82.4773 81.4627 82.202C79.3034 81.5246 76.2337 80.7413 74.7729 78.8572C76.0643 79.0477 77.2499 80.2544 78.4565 80.7413Z" fill="#917CD4"/>
<path d="M90.8622 50.5527C90.8622 50.5527 91.4338 67.9757 86.8187 70.5373C84.1513 72.0192 86.861 72.8025 89.6343 73.1835C89.719 72.4214 89.846 71.7651 90.0365 71.2571C91.3279 67.764 91.9842 62.7043 91.9842 62.7043L92.6828 64.5885C92.9792 64.5673 93.3179 64.525 93.6778 64.4403C93.1909 62.3445 91.1586 53.6436 90.8622 50.5527Z" fill="#917CD4"/>
<path d="M56.1858 71.2572C56.214 71.3136 56.2351 71.3771 56.2493 71.4477L56.6303 71.9981C53.6242 65.8376 56.7997 51.5479 56.7997 51.5479C55.0426 55.6548 54.2593 62.7045 54.2593 62.7045C54.2593 62.7045 54.8944 67.7641 56.1858 71.2572Z" fill="#917CD4"/>
<path d="M73.1216 49.1767C73.1216 49.1767 81.9495 44.4346 84.8286 35.4373C84.1512 35.1198 83.6855 34.8869 83.5584 34.8022C83.5584 34.8022 80.6158 43.9477 73.1216 47.8007C65.6274 43.9477 62.6848 34.8022 62.6848 34.8022C62.5366 34.9081 61.9438 35.1833 61.1182 35.5644C62.3037 38.5493 65.8391 45.9377 73.1216 49.1767Z" fill="#EBE0F3"/>
<path d="M72.0844 60.2063C70.8565 64.5461 71.6821 67.4676 69.3111 68.6743C66.9189 69.9022 56.2703 70.749 52.2903 72.2732C52.2903 72.2732 53.2642 68.018 53.37 64.5673C51.6976 64.4191 49.2207 63.2548 48.1834 62.2598C47.5059 61.6458 46.278 61.6247 45.4101 61.7305C44.9443 64.1016 42.912 75.0888 44.4363 77.7351C46.1299 80.6989 58.0486 78.8359 64.6748 75.6816C71.3011 72.5272 72.4866 72.9718 73.1217 72.5908V58.428C73.1217 58.428 72.169 58.555 72.0844 60.2063Z" fill="#FFB294"/>
<path d="M74.1589 60.2063C75.2386 62.2598 74.5823 67.0865 76.9534 68.3144C79.3456 69.5211 89.9518 70.749 93.9529 72.2732C93.9529 72.2732 92.9579 68.018 92.8521 64.5673C94.5457 64.4191 97.0014 63.2548 98.0599 62.2598C98.7162 61.6458 99.9652 61.6247 100.833 61.7305C101.299 64.1016 103.331 75.0888 101.807 77.7351C100.092 80.6989 88.1947 78.8359 81.5684 75.6816C74.921 72.5272 73.7567 72.9718 73.1216 72.5908V58.428C73.1216 58.428 74.0531 58.555 74.1589 60.2063Z" fill="#FFB294"/>
<path d="M101.447 65.2447C101.193 63.6569 100.96 62.3656 100.833 61.7305C99.9652 61.6246 98.7162 61.6458 98.0599 62.2597C97.0014 63.2547 94.5457 64.4191 92.8521 64.5673C92.8662 64.9201 92.8873 65.28 92.9156 65.6469C93.0637 65.6681 93.2119 65.6893 93.3813 65.7104C95.0326 65.7951 96.6627 64.906 98.2928 64.8425C99.3513 64.8001 100.41 65.033 101.447 65.2447Z" fill="#E49D94"/>
<path d="M73.2486 72.6543C73.2909 72.6684 73.3403 72.6825 73.3968 72.6966C73.3968 72.6966 73.4038 72.6966 73.418 72.6966C73.4603 72.7107 73.5097 72.7248 73.5662 72.7389C73.5944 72.7531 73.6155 72.7601 73.6297 72.7601C73.672 72.7742 73.7143 72.7813 73.7567 72.7813C74.0954 72.8448 74.54 72.9295 75.2386 73.1412C73.3121 71.257 73.3968 60.6932 73.4391 58.5762C73.2909 58.4703 73.1639 58.4491 73.1216 58.428C73.1428 58.6608 73.1428 58.8725 73.1216 58.9572V72.5908C73.1639 72.6049 73.2063 72.626 73.2486 72.6543Z" fill="#E49D94"/>
<path d="M53.3488 64.9907C53.3629 64.8495 53.3699 64.7084 53.3699 64.5673C51.6975 64.4191 49.2206 63.2547 48.1833 62.2597C47.5058 61.6458 46.278 61.6246 45.41 61.7305C45.3465 62.048 45.2406 62.5138 45.1348 63.1065C46.2144 63.0853 47.2941 63.2124 48.3314 63.4452C49.8769 63.784 51.3376 64.6519 52.883 64.9695C53.0383 64.9977 53.1935 65.0048 53.3488 64.9907Z" fill="#E49D94"/>
<path d="M73.1214 47.8008C79.9382 44.2866 82.9867 36.4113 83.4736 35.0141V34.8024C83.4736 34.8024 79.9805 33.4898 79.4089 32.3678C78.3716 30.3778 78.3716 25.9321 78.3716 25.9321H67.7866C67.7866 25.9321 67.7866 30.3778 66.7492 32.3678C66.1776 33.4898 62.6846 34.8024 62.6846 34.8024C62.6846 34.8024 65.6272 43.9479 73.1214 47.8008Z" fill="#FFA18B"/>
<path d="M78.4139 27.1388C78.3715 26.5037 78.3715 26.0592 78.3715 25.9533C78.3715 25.9392 78.3715 25.9321 78.3715 25.9321H67.7865C67.7865 25.9321 67.7865 30.2932 66.7915 32.3043C70.4116 31.4787 74.8361 34.0191 78.4139 27.1388Z" fill="#D99085"/>
<path d="M64.8652 15.2199C64.8652 15.2199 64.1031 14.4154 63.0869 14.7541C62.0919 15.0717 61.8167 19.6021 65.4792 20.3007L64.8652 15.2199Z" fill="#DA968B"/>
<path d="M64.9078 15.601C64.7667 15.5022 64.5973 15.4246 64.3997 15.3682C64.0398 15.2835 63.5953 15.3046 63.2989 15.5799C63.066 15.8127 62.9813 16.1726 63.0237 16.4902C63.0448 16.8077 63.1719 17.1253 63.2989 17.4217C63.3836 17.6334 63.4682 17.838 63.5529 18.0356C63.6164 18.2049 63.6799 18.3743 63.8493 18.4166C63.9975 18.459 64.1457 18.3955 64.2939 18.4166C64.5479 18.459 64.6749 18.7554 64.7596 19.0094C64.8655 19.2634 65.0348 19.5387 65.31 19.5175C65.3383 19.5034 65.3594 19.4963 65.3736 19.4963L64.9078 15.601Z" fill="#C3898B"/>
<path d="M81.5899 15.22C81.6111 14.7542 82.3521 14.4155 83.3682 14.7542C84.3632 15.0718 84.4902 19.6022 80.8066 20.3008C80.8066 20.3008 81.4417 17.464 81.5899 15.22Z" fill="#DA968B"/>
<path d="M82.9021 18.0353C82.9867 17.8378 83.0714 17.6331 83.1561 17.4214C83.2831 17.125 83.4102 16.8075 83.4313 16.4899C83.4737 16.1724 83.389 15.8125 83.1561 15.5796C82.8809 15.3044 82.4152 15.2832 82.0553 15.3679C81.8718 15.4244 81.7095 15.4949 81.5684 15.5796C81.4413 17.0192 81.1449 18.5858 80.9756 19.5172C81.0391 19.5172 81.145 19.5172 81.145 19.5172C81.4202 19.5384 81.5895 19.2632 81.6954 19.0092C81.7801 18.7551 81.9071 18.4587 82.1611 18.4164C82.3093 18.3952 82.4575 18.4587 82.6057 18.4164C82.775 18.3741 82.8386 18.2047 82.9021 18.0353Z" fill="#C3898B"/>
<path d="M80.4041 14.3519C78.6046 14.5424 76.8051 13.5474 76.0007 11.9173C75.1539 12.256 74.3 12.5948 73.4391 12.9335C72.2536 13.3781 71.0046 13.865 69.7343 13.8015C69.3745 13.7803 69.0146 13.7168 68.6547 13.6321C67.0246 13.2934 65.3733 12.6159 64.6112 11.134C64.6112 11.134 63.2563 27.2233 73.0792 29.7425C78.3506 28.3876 80.4041 23.1163 81.1662 18.5224C80.023 17.3157 80.4041 14.3519 80.4041 14.3519Z" fill="#FFB294"/>
<path d="M69.4591 18.586C68.5488 18.586 67.7443 18.3108 67.5326 18.2473L67.1939 18.3954C67.1304 18.4378 67.0669 18.4166 67.0245 18.3531C67.0034 18.2896 67.0245 18.2049 67.088 18.1837L67.5114 17.972L67.575 17.9932C67.5961 18.0144 69.819 18.84 71.195 17.845C71.2585 17.8027 71.3432 17.8239 71.3644 17.8874C71.4067 17.9297 71.4067 18.0144 71.3432 18.0567C70.7716 18.459 70.0942 18.586 69.4591 18.586Z" fill="#9A7381"/>
<path d="M67.1941 16.3632C67.1517 16.3632 67.1306 16.342 67.1094 16.3208C67.0882 16.2785 67.1094 16.2361 67.1517 16.215C68.93 15.3893 71.1529 15.9821 71.174 15.9821C71.2375 16.0033 71.2587 16.0456 71.2375 16.0879C71.2375 16.1303 71.174 16.1515 71.1317 16.1303C71.1105 16.1303 68.9512 15.5587 67.2152 16.3632C67.2011 16.3632 67.1941 16.3632 67.1941 16.3632Z" fill="#C38387"/>
<path d="M76.2762 18.586C75.6411 18.586 74.9425 18.459 74.3709 18.0567C74.3286 18.0144 74.3074 17.9297 74.3497 17.8874C74.3921 17.8239 74.4768 17.8027 74.5191 17.845C75.9163 18.84 78.1392 18.0144 78.1603 17.9932L78.2027 17.972L78.6473 18.1837C78.6896 18.2049 78.7319 18.2896 78.6896 18.3531C78.6684 18.4166 78.5837 18.4378 78.5414 18.3954L78.2027 18.2473C77.991 18.3108 77.1865 18.586 76.2762 18.586Z" fill="#9A7381"/>
<path d="M78.5412 16.3632C78.5271 16.3632 78.513 16.3632 78.4989 16.3632C76.7841 15.5587 74.6036 16.1303 74.5824 16.1303C74.5401 16.1515 74.4977 16.1303 74.4766 16.0879C74.4766 16.0456 74.4977 16.0033 74.5401 15.9821C74.5612 15.9821 76.7841 15.3893 78.5836 16.215C78.6259 16.2361 78.6259 16.2785 78.6259 16.3208C78.6047 16.342 78.5836 16.3632 78.5412 16.3632Z" fill="#C38387"/>
<path d="M73.3542 22.7354C73.3119 22.7354 73.2696 22.7142 73.2484 22.6931C73.2272 22.6507 73.2484 22.5872 73.2907 22.5449L73.693 22.3332C73.7353 22.312 73.7776 22.2908 73.82 22.2697C73.9047 22.1638 73.8411 21.9733 73.7565 21.8039C73.3966 20.9783 73.1849 20.068 73.206 19.1788C73.206 19.1153 73.2484 19.073 73.3119 19.073C73.3542 19.073 73.3966 19.1153 73.3966 19.1788C73.3966 20.0468 73.5871 20.9148 73.947 21.7193C74.0105 21.8674 74.1587 22.185 73.9682 22.3967C73.9258 22.4602 73.8411 22.4814 73.7988 22.5237L73.3966 22.7354C73.3825 22.7354 73.3683 22.7354 73.3542 22.7354Z" fill="#D18887"/>
<path d="M73.3331 25.9319C72.3805 25.9319 71.5972 25.6779 71.5549 25.6567C71.4913 25.6356 71.4702 25.5932 71.4913 25.5297C71.4913 25.4874 71.5548 25.445 71.6184 25.4662C71.6395 25.4662 73.3966 26.0378 74.7939 25.4662C74.8574 25.445 74.9209 25.4662 74.9421 25.5297C74.9632 25.572 74.9209 25.6356 74.8785 25.6567C74.3705 25.8684 73.8412 25.9319 73.3331 25.9319Z" fill="#D18887"/>
</svg>
