<svg width="22" height="22" viewBox="0 0 22 22" fill="none" xmlns="http://www.w3.org/2000/svg">
<g clip-path="url(#clip0_57_47942)">
<path d="M1.10007 9.9H9.89993V1.09993C9.89993 0.492865 10.3928 0 11.0001 0C11.6071 0 12.1 0.492865 12.1 1.09993V9.9H20.9001C21.5071 9.9 22 10.3929 22 10.9999C22 11.6072 21.5071 12.1001 20.9001 12.1001H12.1V20.8999C12.1 21.5072 11.6071 22.0001 11.0001 22.0001C10.3928 22.0001 9.89993 21.5072 9.89993 20.8999V12.1001H1.10007C0.492798 12.1001 -6.67572e-05 11.6072 -6.67572e-05 10.9999C-6.67572e-05 10.3929 0.492798 9.9 1.10007 9.9Z" fill="#5CAB56"/>
</g>
<defs>
<clipPath id="clip0_57_47942">
<rect width="22" height="22" fill="white" transform="matrix(-1 0 0 1 22 0)"/>
</clipPath>
</defs>
</svg>
