<svg width="62" height="62" viewBox="0 0 62 62" fill="none" xmlns="http://www.w3.org/2000/svg">
<g clip-path="url(#clip0_168_33)">
<path d="M61.9998 3.7424V23.7022C61.9998 25.7692 60.3245 27.4446 58.2574 27.4446H54.515L50.7725 3.7424C50.7725 1.67533 56.1902 0 58.2574 0C60.3245 0 61.9998 1.67533 61.9998 3.7424Z" fill="#FFCE71"/>
<path d="M58.2579 0C56.1908 0 54.5155 1.67533 54.5155 3.7424V47.3208C28.2994 43.4126 17.3172 20.3387 21.9486 0H58.2579Z" fill="#FFF8E6"/>
<path d="M54.5152 47.3209V54.5151C54.5152 56.582 52.8397 58.2575 50.7728 58.2575H15.4939C13.4269 58.2575 11.7515 56.5819 11.7515 54.5151V4.98991C11.7515 2.23406 13.9855 0 16.7414 0H21.9484C20.54 17.7605 31.055 41.2082 54.5152 47.3209Z" fill="#FFF1CF"/>
<path d="M45.5902 28.3179C45.5902 28.8344 45.1711 29.2535 44.6547 29.2535H29.6773C28.8931 28.7415 28.4239 28.1406 28.5197 27.3822H44.6546C45.1711 27.3823 45.5902 27.8014 45.5902 28.3179Z" fill="#919191"/>
<path d="M45.5905 33.3078C45.5905 33.8242 45.1714 34.2433 44.655 34.2433H33.4413C32.5275 33.6323 32.0061 33.0073 31.9019 32.3721H44.6548C45.1714 32.3722 45.5905 32.7913 45.5905 33.3078Z" fill="#919191"/>
<path d="M23.7945 29.2535C24.3112 29.2535 24.73 28.8346 24.73 28.3179C24.73 27.8012 24.3112 27.3823 23.7945 27.3823C23.2778 27.3823 22.8589 27.8012 22.8589 28.3179C22.8589 28.8346 23.2778 29.2535 23.7945 29.2535Z" fill="#858586"/>
<path d="M23.7945 34.2433C24.3112 34.2433 24.73 33.8245 24.73 33.3078C24.73 32.7911 24.3112 32.3722 23.7945 32.3722C23.2778 32.3722 22.8589 32.7911 22.8589 33.3078C22.8589 33.8245 23.2778 34.2433 23.7945 34.2433Z" fill="#858586"/>
<path d="M44.6549 24.2635H28.4375C27.9207 24.2635 27.502 23.8447 27.502 23.328C27.502 22.8113 27.9208 22.3924 28.4375 22.3924H44.6549C45.1717 22.3924 45.5905 22.8113 45.5905 23.328C45.5905 23.8447 45.1716 24.2635 44.6549 24.2635Z" fill="#919191"/>
<path d="M23.7945 24.2635C24.3112 24.2635 24.73 23.8447 24.73 23.328C24.73 22.8113 24.3112 22.3924 23.7945 22.3924C23.2778 22.3924 22.8589 22.8113 22.8589 23.328C22.8589 23.8447 23.2778 24.2635 23.7945 24.2635Z" fill="#858586"/>
<path d="M45.5905 38.2978C45.5905 38.8143 45.1714 39.2334 44.6549 39.2334H38.5672C37.4298 38.7428 36.6118 38.1479 36.439 37.3621H44.6549C45.1714 37.3621 45.5905 37.7812 45.5905 38.2978Z" fill="#919191"/>
<path d="M23.7945 39.2334C24.3112 39.2334 24.73 38.8145 24.73 38.2978C24.73 37.7811 24.3112 37.3622 23.7945 37.3622C23.2778 37.3622 22.8589 37.7811 22.8589 38.2978C22.8589 38.8145 23.2778 39.2334 23.7945 39.2334Z" fill="#858586"/>
<path d="M29.6775 29.2535H28.4375C27.9211 29.2535 27.502 28.8344 27.502 28.3179C27.502 27.8014 27.9212 27.3823 28.4375 27.3823H28.5199C28.8904 28.0136 29.2759 28.6372 29.6775 29.2535Z" fill="#858586"/>
<path d="M33.4412 34.2435H28.4375C27.9211 34.2435 27.502 33.8244 27.502 33.3079C27.502 32.7915 27.9212 32.3724 28.4375 32.3724H31.9018C32.3958 33.0071 32.9098 33.6322 33.4412 34.2435Z" fill="#858586"/>
<path d="M38.5671 39.2334H28.4375C27.9211 39.2334 27.502 38.8143 27.502 38.2978C27.502 37.7813 27.9212 37.3622 28.4375 37.3622H36.4389C37.1238 38.0059 37.8336 38.6308 38.5671 39.2334Z" fill="#858586"/>
<path d="M44.1239 56.5577C42.95 58.2805 41.3806 59.649 39.5893 60.582C38.1547 60.027 34.4586 59.2905 33.5542 58.1502C32.1705 54.987 35.468 55.6044 42.0243 52.5084L42.9013 52.8277C44.422 53.3816 45.0345 55.2216 44.1239 56.5577Z" fill="#FF6E80"/>
<path d="M39.589 60.582C36.5938 62.1439 32.9761 62.4907 29.5518 61.2444C24.0791 59.2522 20.8469 53.8281 21.402 48.2881C21.5629 46.6789 23.2158 45.6634 24.7352 46.2161L25.6122 46.5354C26.0692 50.54 33.7112 56.8592 36.0797 57.9573C36.9843 59.0975 38.1544 60.0269 39.589 60.582Z" fill="#FD5C6F"/>
<path d="M42.0241 52.5084C41.0123 55.289 38.7357 57.2425 36.0798 57.9573C32.6648 55.7092 31.2777 52.4699 33.8718 49.5418L42.0241 52.5084Z" fill="#FFA1AC"/>
<path d="M36.0801 57.9573C34.4071 58.4077 32.5833 58.3653 30.8318 57.7279C26.2998 56.0787 23.9632 51.0675 25.6123 46.5354L33.8719 49.5418C33.4553 52.2888 34.1926 55.5822 36.0801 57.9573Z" fill="#FF8A98"/>
<path d="M36.2285 54.6315C36.7452 54.6315 37.1641 54.2126 37.1641 53.6959C37.1641 53.1792 36.7452 52.7603 36.2285 52.7603C35.7118 52.7603 35.293 53.1792 35.293 53.6959C35.293 54.2126 35.7118 54.6315 36.2285 54.6315Z" fill="#FFF8E6"/>
<path d="M32.1704 54.987C32.6871 54.987 33.106 54.5681 33.106 54.0514C33.106 53.5347 32.6871 53.1158 32.1704 53.1158C31.6537 53.1158 31.2349 53.5347 31.2349 54.0514C31.2349 54.5681 31.6537 54.987 32.1704 54.987Z" fill="#FFF1CF"/>
<path d="M29.2886 52.1066C29.8053 52.1066 30.2242 51.6877 30.2242 51.171C30.2242 50.6543 29.8053 50.2354 29.2886 50.2354C28.7719 50.2354 28.353 50.6543 28.353 51.171C28.353 51.6877 28.7719 52.1066 29.2886 52.1066Z" fill="#FFF1CF"/>
<path d="M14.8866 50.564C14.415 51.0356 13.9235 51.4497 13.4195 51.8152C7.21904 51.8243 4.04117 48.5511 6.78164 41.562C10.5553 38.1601 15.4205 38.0653 17.5188 38.2126C18.1376 38.255 18.6303 38.7477 18.6727 39.3665C18.8261 41.5509 18.7164 46.7354 14.8866 50.564Z" fill="#8CE09F"/>
<path d="M13.4193 51.8151C8.6015 55.3031 2.64974 54.2353 2.64974 54.2353C2.64974 54.2353 1.34616 46.9737 6.32106 41.9987C6.47206 41.8478 6.62549 41.7018 6.78134 41.562C6.04545 45.8921 8.59036 50.005 13.4193 51.8151Z" fill="#73DA8C"/>
<path d="M12.2229 45.9857L9.1429 49.0658C8.21883 49.1389 7.62353 48.8729 7.98028 47.5813L10.8994 44.6622C11.2648 44.2966 11.8575 44.2966 12.2229 44.6622C12.5884 45.0276 12.5884 45.6202 12.2229 45.9857Z" fill="#BBE5A7"/>
<path d="M9.14302 49.0657L3.31103 54.8977C3.12769 55.0798 2.88817 55.1709 2.64986 55.1709C2.41033 55.1709 2.17081 55.0798 1.98747 54.8977C1.62201 54.5323 1.62201 53.9396 1.98747 53.5742L7.9804 47.5812C8.30966 48.1052 8.69885 48.6017 9.14302 49.0657Z" fill="#ACE094"/>
<path d="M23.0525 13.7735C25.1068 13.7735 26.772 12.4473 26.772 10.8114C26.772 9.17547 25.1068 7.8493 23.0525 7.8493C20.9983 7.8493 19.333 9.17547 19.333 10.8114C19.333 12.4473 20.9983 13.7735 23.0525 13.7735Z" fill="#FFA1AC"/>
<path d="M43.2137 13.7735C45.2679 13.7735 46.9332 12.4473 46.9332 10.8114C46.9332 9.17547 45.2679 7.8493 43.2137 7.8493C41.1594 7.8493 39.4941 9.17547 39.4941 10.8114C39.4941 12.4473 41.1594 13.7735 43.2137 13.7735Z" fill="#FFA1AC"/>
<path d="M36.7395 7.24536C36.2226 7.24536 35.8039 7.66422 35.8039 8.18093C35.8039 8.65937 35.4147 9.04857 34.9363 9.04857C34.4577 9.04857 34.0685 8.65937 34.0685 8.18093C34.0685 7.66422 33.6496 7.24536 33.1329 7.24536C32.6162 7.24536 32.1974 7.66422 32.1974 8.18093C32.1974 8.65937 31.8082 9.04857 31.3297 9.04857C30.8512 9.04857 30.462 8.65937 30.462 8.18093C30.462 7.66422 30.0431 7.24536 29.5264 7.24536C29.0096 7.24536 28.5908 7.66422 28.5908 8.18093C28.5908 9.69121 29.8196 10.9198 31.3298 10.9198C32.0198 10.9198 32.651 10.6634 33.1332 10.2407C33.6154 10.6634 34.2465 10.9198 34.9365 10.9198C36.4468 10.9198 37.6754 9.69121 37.6754 8.18093C37.6752 7.66422 37.2563 7.24536 36.7395 7.24536Z" fill="#666667"/>
<path d="M27.1756 7.64269C26.6587 7.64269 26.24 7.22383 26.24 6.70712C26.24 6.27615 25.8894 5.92558 25.4583 5.92558C25.0275 5.92558 24.6768 6.27615 24.6768 6.70712C24.6768 7.22383 24.2579 7.64269 23.7412 7.64269C23.2245 7.64269 22.8057 7.22383 22.8057 6.70712C22.8057 5.24443 23.9957 4.05432 25.4583 4.05432C26.921 4.05432 28.1111 5.24431 28.1111 6.70712C28.1111 7.22383 27.6923 7.64269 27.1756 7.64269Z" fill="#666667"/>
<path d="M42.5252 7.64269C42.0084 7.64269 41.5896 7.22383 41.5896 6.70712C41.5896 6.27615 41.239 5.92558 40.808 5.92558C40.3771 5.92558 40.0264 6.27615 40.0264 6.70712C40.0264 7.22383 39.6076 7.64269 39.0908 7.64269C38.5741 7.64269 38.1553 7.22383 38.1553 6.70712C38.1553 5.24443 39.3453 4.05432 40.808 4.05432C42.2706 4.05432 43.4608 5.24431 43.4608 6.70712C43.4608 7.22383 43.042 7.64269 42.5252 7.64269Z" fill="#666667"/>
<path d="M15.9156 25.5159C8.42162 26.6421 3.20817 23.42 3.56673 15.8691C4.09192 15.4025 4.67196 14.9834 5.30322 14.6192C10.3755 11.6914 16.8599 13.4278 19.7889 18.5001C20.9018 20.4273 18.9383 23.1543 15.9156 25.5159Z" fill="#FFCE71"/>
<path d="M15.9156 25.5159C10.9856 29.3668 3.23741 32.2473 1.42234 29.1037C-1.14122 24.6625 -0.128267 19.1399 3.56679 15.8691C4.80546 21.4365 9.57461 25.2101 15.9156 25.5159Z" fill="#FFB357"/>
<path d="M15.9163 25.5159C9.74314 26.9389 5.96126 24.6501 5.12305 19.6764C5.66191 18.9591 6.35057 18.3367 7.1751 17.8602C10.4511 15.969 14.6551 17.0954 16.5474 20.3714C17.6676 22.3123 16.4664 25.0855 15.9163 25.5159Z" fill="#E4996D"/>
<path d="M15.9164 25.516C14.9621 26.2607 13.903 26.9693 12.8014 27.6056C11.6986 28.2418 10.556 28.8044 9.4332 29.2585C8.78571 29.5204 5.78307 29.1736 4.66284 27.2326C3.24822 24.7813 3.52262 21.8098 5.12311 19.6766C7.28379 23.1045 11.1572 25.2864 15.9164 25.516Z" fill="#DF8A57"/>
<path d="M15.9165 25.5159C12.4831 27.4682 9.90891 26.6161 8.3916 23.0821C8.67847 22.6417 9.07021 22.2612 9.55422 21.9818C10.0944 21.67 10.6881 21.5202 11.2745 21.5202C12.3511 21.5202 13.4065 22.0242 14.0751 22.9548L15.9165 25.5159Z" fill="#FFCE71"/>
<path d="M17.1853 31.9802L14.3984 33.5895C13.1198 34.328 11.4843 33.8003 10.8768 32.4555L8.13606 26.384C7.63836 25.2788 7.76806 24.0388 8.39181 23.0819C10.4464 24.5115 13.0175 25.376 15.9167 25.5158L17.9638 28.3638C18.8257 29.5627 18.4639 31.243 17.1853 31.9802Z" fill="#FFB357"/>
</g>
<defs>
<clipPath id="clip0_168_33">
<rect width="62" height="62" fill="white"/>
</clipPath>
</defs>
</svg>
