<svg width="36" height="36" viewBox="0 0 36 36" fill="none" xmlns="http://www.w3.org/2000/svg">
<path d="M4.5 18C4.5 18.6213 3.99628 19.125 3.375 19.125C2.75372 19.125 2.25 18.6213 2.25 18C2.25 9.31528 9.31528 2.25 18 2.25C22.3287 2.25 26.334 3.97491 29.25 6.94491V3.375C29.25 2.75372 29.7537 2.25 30.375 2.25C30.9963 2.25 31.5 2.75372 31.5 3.375V10.125C31.5 10.7463 30.9963 11.25 30.375 11.25H23.625C23.0037 11.25 22.5 10.7463 22.5 10.125C22.5 9.50372 23.0037 9 23.625 9H28.0991C25.5749 6.1605 21.9437 4.5 18 4.5C10.5562 4.5 4.5 10.5562 4.5 18ZM32.625 16.875C32.0037 16.875 31.5 17.3787 31.5 18C31.5 25.4438 25.4438 31.5 18 31.5C14.0563 31.5 10.4251 29.8395 7.90087 27H12.375C12.9963 27 13.5 26.4963 13.5 25.875C13.5 25.2537 12.9963 24.75 12.375 24.75H5.625C5.00372 24.75 4.5 25.2537 4.5 25.875V32.625C4.5 33.2463 5.00372 33.75 5.625 33.75C6.24628 33.75 6.75 33.2463 6.75 32.625V29.0551C9.666 32.0251 13.6713 33.75 18 33.75C26.6847 33.75 33.75 26.6847 33.75 18C33.75 17.3787 33.2463 16.875 32.625 16.875Z" fill="black"/>
</svg>
