<svg width="25" height="25" viewBox="0 0 25 25" fill="none" xmlns="http://www.w3.org/2000/svg">
<path d="M19.745 19.704C19.4741 19.7723 19.2231 19.9036 19.0126 20.0874C18.8021 20.2712 18.6381 20.5022 18.534 20.7615C18.3302 21.2757 17.9762 21.7166 17.5181 22.0268C17.06 22.3369 16.5192 22.5018 15.966 22.5C15.0621 22.5008 14.1735 22.2665 13.3875 21.82L13.0605 22.1465L11.5605 23.6465C11.014 24.193 10.2729 24.5 9.50002 24.5C8.72719 24.5 7.986 24.193 7.43952 23.6465L3.85352 20.0605C3.3947 19.6027 3.10208 19.0046 3.02218 18.3614C2.94227 17.7182 3.07967 17.0667 3.41252 16.5105C3.39911 16.5061 3.38541 16.5026 3.37152 16.5C3.00781 16.4996 2.65912 16.3549 2.40199 16.0977C2.14485 15.8405 2.00029 15.4917 2.00002 15.128V14.8085C1.69733 14.649 1.4441 14.4096 1.26781 14.1164C1.09152 13.8231 0.998912 13.4872 1.00002 13.145C1.0005 12.6433 1.1174 12.1484 1.34152 11.6995C1.44571 11.4906 1.49997 11.2604 1.50002 11.027C1.50229 10.8688 1.52945 10.7118 1.58052 10.562L1.32052 10.367C1.06429 10.1735 0.85671 9.92282 0.71428 9.63501C0.571849 9.3472 0.498489 9.03014 0.500024 8.70902C0.498642 8.24675 0.643172 7.79584 0.913024 7.42052C0.641316 6.7752 0.500916 6.0822 0.500024 5.38202V5.00002C0.500604 4.53424 0.663454 4.08321 0.960569 3.7245C1.25768 3.36579 1.6705 3.12181 2.12802 3.03452L2.22802 2.73452C2.34714 2.37455 2.57689 2.06139 2.8845 1.83971C3.19211 1.61803 3.56186 1.49915 3.94102 1.50002C4.23124 1.49886 4.51724 1.43039 4.77652 1.30002C5.17518 1.1025 5.61411 0.999824 6.05902 1.00002C6.75546 1.00069 7.44226 1.16276 8.06552 1.47352C8.14952 1.51563 8.23641 1.55172 8.32552 1.58152L8.55552 1.65802C8.97099 1.79771 9.34847 2.03169 9.65841 2.34163C9.96835 2.65157 10.2023 3.02905 10.342 3.44452C10.3474 3.46069 10.3577 3.47476 10.3715 3.48473C10.3854 3.49469 10.402 3.50004 10.419 3.50002C10.6834 3.50059 10.9384 3.59828 11.1355 3.77452C11.0491 3.52529 11.0033 3.26378 11 3.00002C11.0008 2.33722 11.2645 1.7018 11.7331 1.23313C12.2018 0.764458 12.8372 0.50081 13.5 0.500016C16.549 0.503325 19.4721 1.71599 21.6281 3.87194C23.784 6.0279 24.9967 8.95104 25 12C24.9991 12.5827 24.7946 13.1468 24.422 13.5948C24.0493 14.0428 23.5318 14.3465 22.959 14.4535C22.983 14.814 23 15.1755 23 15.5355C23.001 16.4941 22.681 17.4254 22.0911 18.1809C21.5011 18.9364 20.6752 19.4726 19.745 19.704ZM17.6055 20.39C17.7688 19.9835 18.0261 19.6214 18.3564 19.3335C18.6867 19.0457 19.0805 18.8402 19.5055 18.734C20.2187 18.5559 20.8517 18.1442 21.3038 17.5645C21.7559 16.9849 22.001 16.2706 22 15.5355C22 15.1695 21.982 14.802 21.955 14.4355C21.4011 14.3118 20.9057 14.0032 20.5504 13.5606C20.1951 13.118 20.001 12.5676 20 12C19.998 10.2767 19.3126 8.62457 18.094 7.40602C16.8755 6.18746 15.2233 5.502 13.5 5.50002C13.0664 5.49743 12.6412 5.38068 12.267 5.16152C11.8675 5.05501 11.456 5.00072 11.0425 5.00002C10.501 5.00055 9.98177 5.21591 9.59884 5.59884C9.21591 5.98176 9.00055 6.50097 9.00002 7.04252C8.99871 8.74737 8.40102 10.398 7.31052 11.7085C6.78716 12.3373 6.50042 13.1294 6.50002 13.9475C6.49565 14.8679 6.79037 15.7647 7.33981 16.5031C7.88926 17.2415 8.66369 17.7814 9.54652 18.0415C10.6736 18.3812 11.6993 18.994 12.5325 19.8255L12.9635 20.2565C13.3569 20.6521 13.8248 20.9656 14.3402 21.1791C14.8556 21.3925 15.4082 21.5016 15.966 21.5C16.3192 21.5011 16.6645 21.3959 16.957 21.1979C17.2494 20.9999 17.4754 20.7183 17.6055 20.39ZM12.5555 21.236C12.4555 21.1485 12.351 21.06 12.2555 20.9635L11.8245 20.5325C11.1089 19.8181 10.2278 19.2916 9.25952 19C8.43854 18.758 7.68938 18.3185 7.07757 17.7199C6.46576 17.1214 6.00996 16.382 5.75002 15.5665C5.54181 15.9283 5.45916 16.3488 5.51496 16.7625C5.57077 17.1762 5.76189 17.5598 6.05852 17.8535L9.64452 21.4395C10.0035 21.7984 10.4904 22 10.998 22C11.5057 22 11.9925 21.7984 12.3515 21.4395L12.5555 21.236ZM4.56052 19.3535L8.14652 22.9395C8.4948 23.2895 8.9655 23.4904 9.45916 23.4997C9.95282 23.5091 10.4308 23.3261 10.792 22.9895C10.0946 22.9381 9.43847 22.6391 8.94202 22.1465L5.35602 18.5605C4.86028 18.0662 4.56059 17.4089 4.51252 16.7105C4.17617 17.0719 3.99337 17.5498 4.0027 18.0434C4.01203 18.537 4.21276 19.0076 4.56252 19.356L4.56052 19.3535ZM2.48902 13.9355C2.643 14.0119 2.77249 14.13 2.86281 14.2762C2.95313 14.4225 3.00066 14.5911 3.00002 14.763V15.128C3.00002 15.2266 3.03915 15.3211 3.1088 15.3909C3.17846 15.4606 3.27295 15.4999 3.37152 15.5C3.62412 15.5014 3.87134 15.5731 4.08552 15.707L5.35352 14.4395L5.51352 14.2795C5.50652 14.1695 5.50002 14.059 5.50002 13.9475C5.50153 13.4717 5.57849 12.9992 5.72802 12.5475L4.25752 13.43L3.74252 12.573L6.79252 10.744C7.33512 9.99879 7.70739 9.14347 7.88302 8.23852C7.84902 8.22302 7.81152 8.21552 7.77852 8.19902C7.43958 8.03139 7.05721 7.97232 6.68349 8.02985C6.30976 8.08738 5.96286 8.25872 5.69002 8.52052C5.38064 8.82729 4.96271 8.9996 4.52702 9.00002C4.3873 9.00015 4.25333 9.05571 4.15452 9.15452C4.05572 9.25332 4.00016 9.38729 4.00002 9.52702C3.99976 9.78499 3.89716 10.0323 3.71475 10.2147C3.53233 10.3972 3.285 10.4998 3.02702 10.5C2.8873 10.5001 2.75333 10.5557 2.65452 10.6545C2.55572 10.7533 2.50016 10.8873 2.50002 11.027C2.49954 11.4157 2.40919 11.799 2.23602 12.147C2.08082 12.4575 2.00002 12.7999 2.00002 13.147C2 13.311 2.04576 13.4716 2.13216 13.6109C2.21856 13.7503 2.34216 13.8627 2.48902 13.9355ZM9.39352 3.76052C9.30317 3.49227 9.15198 3.24856 8.95178 3.04845C8.75159 2.84834 8.50781 2.69726 8.23952 2.60702L8.00902 2.53052C7.87518 2.4852 7.74456 2.43091 7.61802 2.36802C7.1337 2.12672 6.60012 2.00077 6.05902 2.00002C5.7688 2.00118 5.48281 2.06964 5.22352 2.20002C4.82486 2.39754 4.38593 2.50021 3.94102 2.50002C3.77201 2.49969 3.60721 2.55267 3.47004 2.65141C3.33288 2.75016 3.23034 2.88964 3.17702 3.05002L2.97402 3.65702C2.94105 3.75672 2.87751 3.84352 2.79243 3.90509C2.70735 3.96665 2.60504 3.99987 2.50002 4.00002C2.23481 4.00002 1.98045 4.10537 1.79292 4.29291C1.60538 4.48045 1.50002 4.7348 1.50002 5.00002V5.38202C1.50106 6.03958 1.65422 6.68799 1.94752 7.27652C1.99438 7.3704 2.01051 7.47663 1.99364 7.58019C1.97677 7.68374 1.92775 7.77936 1.85352 7.85352C1.73927 7.96825 1.64914 8.10468 1.58843 8.25478C1.52772 8.40489 1.49766 8.56562 1.50002 8.72752C1.50018 8.89036 1.53821 9.05093 1.6111 9.19654C1.68399 9.34215 1.78975 9.46881 1.92002 9.56652L2.18202 9.76252C2.42364 9.60102 2.70952 9.51871 3.00002 9.52702C3.00042 9.12215 3.16143 8.73399 3.44771 8.4477C3.73399 8.16142 4.12216 8.00041 4.52702 8.00002C4.6972 7.99955 4.86033 7.932 4.98102 7.81202C5.20937 7.58744 5.47498 7.40422 5.76602 7.27052L3.92602 6.99452L4.07602 6.00552L5.44802 6.21102L5.03752 5.18552L5.96652 4.81452L6.59402 6.38302L8.03802 6.59952C8.06975 6.38156 8.12542 6.16777 8.20402 5.96202L7.53352 4.17602L8.47052 3.82602L8.87752 4.91202C9.13615 4.65033 9.43984 4.43743 9.77402 4.28352C9.59642 4.15247 9.46355 3.96984 9.39352 3.76052ZM24 12C23.9968 9.21622 22.8896 6.54735 20.9211 4.5789C18.9527 2.61046 16.2838 1.50319 13.5 1.50002C13.1022 1.50002 12.7207 1.65805 12.4394 1.93936C12.1581 2.22066 12 2.60219 12 3.00002C12 3.39784 12.1581 3.77937 12.4394 4.06068C12.7207 4.34198 13.1022 4.50002 13.5 4.50002C13.54 4.50002 13.579 4.50552 13.619 4.50602C13.7836 3.80334 14.1392 3.15981 14.6465 2.64652L15.3535 3.35352C15.0093 3.69908 14.7568 4.12514 14.619 4.59302C15.3366 4.70048 16.0345 4.91257 16.6905 5.22252C16.8797 4.62879 17.2074 4.08858 17.6465 3.64652L18.3535 4.35352C17.98 4.73226 17.7168 5.20577 17.5925 5.72302C18.1867 6.11232 18.7228 6.58365 19.185 7.12302C19.461 6.71361 19.8133 6.36119 20.2225 6.08502L20.7775 6.91702C20.3746 7.18807 20.0476 7.55759 19.8275 7.99052C20.2249 8.61526 20.5268 9.29573 20.7235 10.0095C21.1416 9.45524 21.6484 8.97391 22.2235 8.58502L22.7785 9.41702C22.0073 9.93339 21.3852 10.6432 20.9745 11.4755C20.9865 11.65 21.001 11.8255 21.001 12.001C21.001 12.3988 21.1591 12.7804 21.4404 13.0617C21.7217 13.343 22.1032 13.501 22.501 13.501C22.8988 13.501 23.2804 13.343 23.5617 13.0617C23.843 12.7804 24.001 12.3988 24.001 12.001L24 12Z" fill="#5CAB56"/>
</svg>
