<svg width="47" height="30" viewBox="0 0 47 30" fill="none" xmlns="http://www.w3.org/2000/svg">
<path d="M31.007 14.2423L30.7595 13.9948L31.007 14.2423C33.5545 11.6947 37.0328 10.6 39.954 10.1527C42.8696 9.7063 45.185 9.91185 45.3608 9.92861C45.8736 9.97764 46.2796 10.3836 46.3287 10.8965C46.3454 11.0717 46.551 13.3873 46.1046 16.3033C45.6573 19.2245 44.5625 22.7028 42.015 25.2502L42.2625 25.4977L42.015 25.2502C38.1606 29.1048 32.1832 29.6256 29.2783 29.6256C28.9002 29.6256 28.3229 29.6306 27.6909 29.636L27.484 29.6378C26.771 29.6439 26.0087 29.65 25.3887 29.65C24.0293 29.65 22.1738 29.573 20.0904 29.2742C14.4321 28.4629 9.81706 26.3806 6.71822 23.2818L6.48215 23.5179L6.71821 23.2818C3.61929 20.183 1.53712 15.5679 0.725779 9.90964C0.121835 5.69759 0.424258 2.41883 0.436139 2.29513L0.436154 2.29498C0.485189 1.78211 0.891173 1.37613 1.40404 1.32709L1.40442 1.32706C1.52787 1.31512 4.8067 1.01268 9.0187 1.61672L9.06515 1.29283L9.0187 1.61672C14.677 2.42805 19.292 4.51031 22.3909 7.60915L22.6383 7.36167L22.3909 7.60916C24.9049 10.1231 26.7499 13.635 27.7901 17.8946L28.0259 18.8599L28.4472 17.9599C29.072 16.625 29.9032 15.3461 31.007 14.2423ZM24.2088 27.4767L25.0952 27.5066L24.4681 26.8794L13.7943 16.2058C13.7943 16.2057 13.7943 16.2057 13.7943 16.2057C13.3744 15.7858 13.3745 15.1051 13.7943 14.6854C14.2142 14.2656 14.8949 14.2657 15.3146 14.6854L25.984 25.3548L26.6122 25.983L26.5813 25.0951C26.4375 20.9653 25.4856 13.7446 20.8706 9.12959C18.101 6.35998 14.4081 4.91171 11.0198 4.16389C7.62821 3.41535 4.51007 3.36159 2.8562 3.40474L2.52358 3.41342L2.51543 3.74605C2.47492 5.39965 2.53157 8.52139 3.28063 11.9149C4.02895 15.305 5.47539 18.9986 8.23847 21.7616C12.8665 26.3897 20.0828 27.3378 24.2088 27.4767ZM30.9927 26.7849L30.3142 27.4634L31.2703 27.3811C34.0073 27.1453 37.8924 26.3324 40.4947 23.73C42.1913 22.0334 43.1248 19.794 43.6349 17.6939C44.1457 15.5913 44.2388 13.6005 44.2343 12.3715L44.2331 12.0241L43.8857 12.0228C42.6566 12.0181 40.666 12.111 38.5634 12.6218C36.4634 13.132 34.224 14.0657 32.5271 15.7625C29.9135 18.3761 29.1028 22.2587 28.8706 24.9929L28.7895 25.9473L29.4668 25.27L35.7507 18.9861C35.7507 18.9861 35.7507 18.9861 35.7508 18.9861C36.1707 18.5663 36.8514 18.5664 37.2711 18.986C37.691 19.406 37.6909 20.0867 37.2711 20.5064L37.2711 20.5064L30.9927 26.7849Z" fill="#5CAB56" stroke="#EDFBEB" stroke-width="0.7"/>
</svg>
