<svg width="13" height="13" viewBox="0 0 13 13" fill="none" xmlns="http://www.w3.org/2000/svg">
<g clip-path="url(#clip0_42_47397)">
<path d="M12.2186 7.41249C12.1654 7.42112 12.1116 7.4251 12.0577 7.42441L2.8865 7.42441L3.08648 7.51742C3.28196 7.60994 3.45979 7.73586 3.61202 7.88948L6.18386 10.4613C6.52258 10.7847 6.57949 11.3048 6.31873 11.6938C6.01524 12.1082 5.43324 12.1982 5.01874 11.8947C4.98525 11.8702 4.95343 11.8435 4.92352 11.8147L0.272802 7.16396C-0.0906516 6.80092 -0.0909712 6.21199 0.272075 5.84854C0.272308 5.84831 0.272569 5.84804 0.272802 5.84781L4.92352 1.1971C5.28726 0.834371 5.87619 0.835184 6.23894 1.19893C6.26749 1.22756 6.29414 1.25802 6.31873 1.29011C6.57949 1.67906 6.52258 2.19921 6.18386 2.52255L3.61667 5.09905C3.4802 5.23566 3.32329 5.35022 3.1516 5.43855L2.87255 5.56412L12.0066 5.56412C12.4817 5.54648 12.8986 5.87839 12.9879 6.34544C13.0701 6.85251 12.7257 7.33023 12.2186 7.41249Z" fill="black"/>
</g>
<defs>
<clipPath id="clip0_42_47397">
<rect width="13" height="13" fill="white" transform="matrix(1 1.74846e-07 1.74846e-07 -1 0 13)"/>
</clipPath>
</defs>
</svg>
