<svg width="21" height="18" viewBox="0 0 21 18" fill="none" xmlns="http://www.w3.org/2000/svg">
<path d="M20.8592 9.99999L18.3314 8.54058C17.9064 9.11443 17.0027 9.95014 16.2983 10.035C14.8998 10.1872 12.3102 9.60492 12.1581 8.20636C11.9244 8.1651 10.4667 7.48733 10.3243 7.28807C9.50762 6.06758 9.30895 4.38472 10.0283 3.74681L5.06055 0.878662C2.53698 5.24961 4.02824 10.8151 8.39919 13.3386C12.7701 15.8622 18.3356 14.3709 20.8592 9.99999Z" fill="#65D6CE"/>
<path d="M19.1388 9.00674L17.5238 8.07433C17.0989 8.64818 16.4687 9.00993 15.7468 9.08466C14.3483 9.23682 13.0831 8.22552 12.9309 6.82697C12.6973 6.78571 12.4839 6.70933 12.2733 6.58771C11.536 6.16205 11.1676 5.34079 11.3171 4.5143L6.75305 1.87925C4.80445 5.29486 5.96926 9.642 9.39229 11.6183C12.8153 13.5946 17.1625 12.4298 19.1388 9.00674Z" fill="#FF5A5A"/>
<path d="M7.72012 5.43357L8.33669 5.29804C8.52038 5.26366 8.65955 5.06314 8.60762 4.86932C8.57324 4.68563 8.37273 4.54646 8.1789 4.5984L7.56233 4.73393C7.37864 4.76831 7.24961 4.95127 7.29141 5.16265C7.30353 5.26327 7.37103 5.34905 7.4588 5.39972C7.53915 5.42271 7.63705 5.45583 7.72012 5.43357Z" fill="#231887"/>
<path d="M7.90593 7.78764C7.93832 7.85316 7.99098 7.88356 8.04364 7.91396C8.14897 7.97477 8.28469 7.98292 8.39817 7.908L8.95267 7.5962C9.12152 7.50644 9.18034 7.28294 9.09058 7.11409C9.00082 6.94525 8.77732 6.88642 8.60848 6.97618L8.05397 7.28798C7.85743 7.38516 7.79861 7.60866 7.90593 7.78764Z" fill="#231887"/>
<path d="M13.1199 10.6342C13.1219 10.7524 13.1867 10.8834 13.292 10.9442C13.3447 10.9746 13.4075 10.9875 13.4703 11.0004C13.6614 10.9937 13.8255 10.831 13.8188 10.6399L13.8116 10.0037C13.8326 9.80522 13.6976 9.63366 13.4991 9.61266C13.3006 9.59166 13.129 9.72666 13.108 9.92519C13.1154 9.95288 13.0951 9.98799 13.1026 10.0157L13.1199 10.6342Z" fill="#231887"/>
<path d="M10.691 10.098L11.0052 9.55387C11.1065 9.37833 11.0472 9.15682 10.8716 9.05547C10.6961 8.95413 10.4746 9.01348 10.3732 9.18902L10.0591 9.73319C9.95771 9.90873 10.0171 10.1302 10.1926 10.2316C10.3681 10.3329 10.5897 10.2736 10.691 10.098Z" fill="#231887"/>
</svg>
