<svg width="24" height="21" viewBox="0 0 24 21" fill="none" xmlns="http://www.w3.org/2000/svg">
<path d="M21.0784 3.23077H17.6432L17.2432 2.01923C17.0504 1.43096 16.6787 0.919103 16.181 0.55655C15.6833 0.193997 15.0849 -0.000764054 14.4712 2.25267e-06H9.5288C8.91523 -0.000471097 8.31714 0.194417 7.81961 0.55694C7.32208 0.919464 6.95045 1.43116 6.7576 2.01923L6.3568 3.23077H2.9216C2.147 3.23163 1.40438 3.54267 0.856652 4.09566C0.30893 4.64865 0.000847017 5.39842 0 6.18046V18.0535C0.00169329 18.835 0.310149 19.584 0.857781 20.1363C1.40541 20.6885 2.14756 20.9991 2.9216 21H21.0816C21.8556 20.9983 22.5975 20.6869 23.1445 20.134C23.6915 19.5811 23.9992 18.8318 24 18.0503V6.17723C23.9983 5.39575 23.6899 4.64681 23.1422 4.09452C22.5946 3.54223 21.8524 3.23162 21.0784 3.23077ZM22.4 18.0503C22.3996 18.4041 22.2602 18.7432 22.0124 18.9933C21.7647 19.2435 21.4288 19.3842 21.0784 19.3846H2.9216C2.57122 19.3842 2.23531 19.2435 1.98756 18.9933C1.7398 18.7432 1.60042 18.4041 1.6 18.0503V6.17723C1.60127 5.82404 1.74102 5.48573 1.98868 5.23629C2.23635 4.98685 2.57177 4.84658 2.9216 4.84616H6.9336C7.10144 4.84603 7.26498 4.79261 7.40108 4.69346C7.53719 4.59431 7.63896 4.45446 7.692 4.29369L8.2752 2.52727C8.36277 2.26158 8.53102 2.03049 8.75605 1.8668C8.98107 1.70311 9.25145 1.61515 9.5288 1.61539H14.4712C14.7487 1.61508 15.0192 1.70312 15.2442 1.86698C15.4693 2.03083 15.6375 2.26217 15.7248 2.52808L16.308 4.29369C16.361 4.45446 16.4628 4.59431 16.5989 4.69346C16.735 4.79261 16.8986 4.84603 17.0664 4.84616H21.0784C21.4288 4.84658 21.7647 4.9873 22.0124 5.23744C22.2602 5.48758 22.3996 5.82671 22.4 6.18046V18.0503Z" fill="white"/>
<path d="M12 5.65381C10.8133 5.65381 9.65328 6.00909 8.66658 6.67471C7.67989 7.34034 6.91085 8.28642 6.45673 9.39332C6.0026 10.5002 5.88378 11.7182 6.11529 12.8933C6.3468 14.0684 6.91825 15.1478 7.75736 15.9949C8.59648 16.8421 9.66557 17.4191 10.8295 17.6528C11.9933 17.8865 13.1997 17.7666 14.2961 17.3081C15.3925 16.8496 16.3295 16.0732 16.9888 15.077C17.6481 14.0808 18 12.9096 18 11.7115C17.9983 10.1054 17.3656 8.56562 16.2408 7.42996C15.1159 6.29429 13.5908 5.65552 12 5.65381ZM12 16.1538C11.1298 16.1538 10.2791 15.8933 9.55549 15.4051C8.83192 14.917 8.26796 14.2232 7.93493 13.4115C7.60191 12.5998 7.51477 11.7066 7.68455 10.8449C7.85432 9.98313 8.27338 9.19158 8.88873 8.57031C9.50408 7.94905 10.2881 7.52596 11.1416 7.35455C11.9951 7.18314 12.8798 7.27112 13.6838 7.60734C14.4878 7.94357 15.175 8.51295 15.6585 9.24349C16.1419 9.97402 16.4 10.8329 16.4 11.7115C16.3987 12.8893 15.9348 14.0185 15.1099 14.8513C14.285 15.6841 13.1666 16.1525 12 16.1538Z" fill="white"/>
<path d="M20.0002 8.07705C20.442 8.07705 20.8002 7.71544 20.8002 7.26936C20.8002 6.82329 20.442 6.46167 20.0002 6.46167C19.5584 6.46167 19.2002 6.82329 19.2002 7.26936C19.2002 7.71544 19.5584 8.07705 20.0002 8.07705Z" fill="white"/>
</svg>
