<svg height="512" viewBox="0 0 32 32" width="512" xmlns="http://www.w3.org/2000/svg"><path d="m23.43 8a8 8 0 0 0 -14.86 0 6 6 0 0 0 -2.57 11.66v8.34a1 1 0 0 0 1.45.89l1.45-.72a5.33 5.33 0 0 1 4.37-.17 7.36 7.36 0 0 0 5.46 0 5.33 5.33 0 0 1 4.37.18l1.45.72a1 1 0 0 0 .45.1 1 1 0 0 0 .53-.15 1 1 0 0 0 .47-.85v-8.34a6 6 0 0 0 -2.57-11.66zm.57 18.38a7.35 7.35 0 0 0 -6-.25 5.32 5.32 0 0 1 -4 0 7.31 7.31 0 0 0 -6 .25v-2.38h16zm.8-8.46a1 1 0 0 0 -.8 1v3.08h-2.87l.87-6.88a1 1 0 0 0 -2-.24l-.88 7.12h-2.12v-10a1 1 0 0 0 -2 0v10h-2.12l-.88-7.12a1 1 0 1 0 -2 .24l.87 6.88h-2.87v-3.1a1 1 0 0 0 -.8-1 4 4 0 1 1 1.8-7.77 1 1 0 0 0 1.21-.71 6 6 0 0 1 11.56 0 1 1 0 0 0 1.21.71 4 4 0 1 1 1.81 7.79z"/></svg>