<svg width="20" height="20" viewBox="0 0 20 20" fill="none" xmlns="http://www.w3.org/2000/svg">
<g clip-path="url(#clip0_388_60)">
<mask id="mask0_388_60" style="mask-type:luminance" maskUnits="userSpaceOnUse" x="0" y="0" width="20" height="20">
<path d="M20 0H0V20H20V0Z" fill="white"/>
</mask>
<g mask="url(#mask0_388_60)">
<path d="M7.70828 0H1.45828C0.654144 0 0 0.654144 0 1.45828V5.20828C0 6.01257 0.654144 6.66672 1.45828 6.66672H7.70828C8.51257 6.66672 9.16672 6.01257 9.16672 5.20828V1.45828C9.16672 0.654144 8.51257 0 7.70828 0Z" fill="white"/>
<path d="M7.70828 8.33325H1.45828C0.654144 8.33325 0 8.9874 0 9.79169V18.5417C0 19.3458 0.654144 20 1.45828 20H7.70828C8.51257 20 9.16672 19.3458 9.16672 18.5417V9.79169C9.16672 8.9874 8.51257 8.33325 7.70828 8.33325Z" fill="white"/>
<path d="M18.5414 13.3333H12.2914C11.4872 13.3333 10.833 13.9874 10.833 14.7917V18.5417C10.833 19.3458 11.4872 20 12.2914 20H18.5414C19.3456 20 19.9997 19.3458 19.9997 18.5417V14.7917C19.9997 13.9874 19.3456 13.3333 18.5414 13.3333Z" fill="white"/>
<path d="M18.5414 0H12.2914C11.4872 0 10.833 0.654144 10.833 1.45828V10.2083C10.833 11.0126 11.4872 11.6667 12.2914 11.6667H18.5414C19.3456 11.6667 19.9997 11.0126 19.9997 10.2083V1.45828C19.9997 0.654144 19.3456 0 18.5414 0Z" fill="white"/>
</g>
</g>
<defs>
<clipPath id="clip0_388_60">
<rect width="20" height="20" fill="white"/>
</clipPath>
</defs>
</svg>
