<svg width="100" height="100" viewBox="0 0 100 100" fill="none" xmlns="http://www.w3.org/2000/svg">
<circle cx="50" cy="50" r="50" fill="#FE646F"/>
<path fill-rule="evenodd" clip-rule="evenodd" d="M50.4526 64.1937C49.4227 64.1937 48.5414 63.3149 48.3626 62.1062L43.0948 26.5765C42.4326 22.1019 45.3233 18 49.1382 18H51.7645C55.5793 18 58.4701 22.1019 57.8078 26.5765L52.54 62.1062C52.3638 63.3149 51.4825 64.1937 50.4526 64.1937Z" fill="#E6E9ED"/>
<path fill-rule="evenodd" clip-rule="evenodd" d="M55.2719 77.5595C55.2719 74.9055 53.1064 72.74 50.4524 72.74C47.7983 72.74 45.6328 74.9055 45.6328 77.5595C45.6328 80.2135 47.7983 82.3791 50.4524 82.3791C53.1064 82.3791 55.2719 80.2161 55.2719 77.5595Z" fill="#E6E9ED"/>
</svg>
