<svg width="22" height="22" viewBox="0 0 22 22" fill="none" xmlns="http://www.w3.org/2000/svg">
<g clip-path="url(#clip0_200_8)">
<path d="M21.9881 0.798503C21.9781 0.719503 21.9606 0.643412 21.9317 0.572021C21.9308 0.570231 21.9308 0.567769 21.9304 0.565531C21.9304 0.565084 21.93 0.564636 21.9295 0.564189C21.8977 0.488993 21.8543 0.420736 21.8053 0.357402C21.7932 0.342407 21.7814 0.327637 21.7686 0.313538C21.7162 0.254456 21.6594 0.199849 21.5934 0.155314C21.5916 0.153971 21.5893 0.153524 21.5875 0.152181C21.5238 0.110107 21.4533 0.0783285 21.3794 0.0532634C21.3611 0.0467733 21.3432 0.0411784 21.3244 0.0362549C21.2469 0.0152181 21.1673 0 21.0833 0H14.6667C14.1607 0 13.75 0.410665 13.75 0.916667C13.75 1.42267 14.1607 1.83333 14.6667 1.83333H18.87L13.3989 7.30446C11.9399 6.13759 10.1438 5.5 8.25 5.5C3.70113 5.5 0 9.20113 0 13.75C0 18.2989 3.70113 22 8.25 22C12.7989 22 16.5 18.2989 16.5 13.75C16.5 11.8571 15.8629 10.0614 14.6951 8.60114L20.1667 3.12956V7.33333C20.1667 7.83934 20.5773 8.25 21.0833 8.25C21.5893 8.25 22 7.83934 22 7.33333V0.916667C22 0.89742 21.9955 0.879069 21.9944 0.86027C21.9931 0.839233 21.9908 0.819092 21.9881 0.798503ZM8.25 20.1667C4.71157 20.1667 1.83333 17.2884 1.83333 13.75C1.83333 10.2116 4.71157 7.33333 8.25 7.33333C9.96316 7.33333 11.5761 8.00024 12.7888 9.20874C13.9998 10.424 14.6667 12.0368 14.6667 13.75C14.6667 17.2884 11.7884 20.1667 8.25 20.1667Z" fill="#5CAB56"/>
</g>
<defs>
<clipPath id="clip0_200_8">
<rect width="22" height="22" fill="white"/>
</clipPath>
</defs>
</svg>
