<svg width="42" height="34" viewBox="0 0 42 34" fill="none" xmlns="http://www.w3.org/2000/svg">
<path d="M36.8177 28.5915H34.2892C34.1825 28.5915 34.0788 28.5574 33.9926 28.4943L33.967 28.4758C33.8578 28.3956 33.7455 28.3129 33.6278 28.2352C31.8354 27.0562 29.6702 26.6202 27.0094 26.9039C26.7674 26.9294 26.5414 26.7776 26.4743 26.5431C26.4076 26.3086 26.5189 26.06 26.7384 25.9543C27.3427 25.6627 27.5461 24.8684 27.7025 24.0802C27.8638 23.2675 28.1339 21.907 29.361 21.4195C29.4036 21.4024 29.4482 21.3914 29.4938 21.3869C30.5551 21.2762 31.5393 20.9915 32.4187 20.5411C32.6432 20.4263 32.8937 20.2329 33.1588 20.0285C33.6098 19.6807 34.0763 19.3209 34.6039 19.1881C35.5705 18.9451 36.3858 19.1711 36.9615 19.8416C37.5879 20.5706 37.7372 21.3578 37.418 22.2478C37.2682 22.6647 37.0447 22.9558 36.8478 23.2129C36.6513 23.4689 36.4965 23.6714 36.4168 23.9705C36.2685 24.5272 36.4464 25.1781 36.8708 25.6296C37.6625 26.4714 37.7978 27.4651 37.2426 28.3555C37.1514 28.5023 36.9906 28.5915 36.8177 28.5915ZM34.4531 27.5893H36.511C36.6704 27.1674 36.5481 26.7485 36.1412 26.3161C35.4753 25.6076 35.2102 24.6099 35.4492 23.7129C35.5805 23.2209 35.8316 22.8932 36.053 22.604C36.2274 22.3765 36.3783 22.1796 36.4755 21.91C36.6724 21.3608 36.5932 20.951 36.2019 20.4955C35.8812 20.1222 35.4387 20.0124 34.8489 20.1607C34.5232 20.2429 34.1409 20.5376 33.7711 20.8227C33.4815 21.0462 33.1818 21.2772 32.8752 21.434C31.9066 21.9301 30.8297 22.2468 29.6737 22.376C29.0534 22.6622 28.8519 23.4378 28.6856 24.2762C28.6009 24.7041 28.4841 25.2929 28.2045 25.822C30.5266 25.7689 32.4908 26.2885 34.179 27.3994C34.2772 27.4631 34.3669 27.5267 34.4531 27.5893Z" fill="#5CAB56"/>
<path d="M19.0285 17.5378C18.9659 17.7413 18.7815 17.8831 18.5686 17.8911C18.3706 17.8986 18.1727 17.9056 17.9758 17.9126C16.5412 17.9628 15.1862 18.0099 14.1194 18.2809C9.18321 19.5362 7.67494 23.2502 7.90945 26.3083C7.95254 26.8706 8.06078 27.4172 8.23165 27.9324C8.28226 28.0852 8.2567 28.2531 8.1625 28.3833C8.06829 28.5141 7.91697 28.5913 7.75612 28.5913H7.44995C7.3317 28.5913 7.21745 28.5497 7.12675 28.473C6.5956 28.0246 6.10955 27.5124 5.68262 26.9507C4.68797 25.6424 4.14429 24.1336 4.10921 22.5873C4.07414 21.0344 4.55468 19.5056 5.49923 18.1662C6.57857 16.6349 8.11439 15.4884 9.8241 14.9382C11.9602 14.2502 14.2557 14.4747 16.6469 15.6056C17.2717 15.9008 17.9502 16.3267 18.8467 16.9871C19.018 17.1134 19.0912 17.3344 19.0285 17.5378Z" fill="#5CAB56"/>
<path d="M29.7313 22.3508C29.0664 22.6153 28.8574 23.4121 28.6861 24.2754C28.5342 25.0411 28.2797 26.3234 27.1748 26.857C27.1227 26.8816 27.0671 26.8976 27.0099 26.9036C25.867 27.0259 24.6563 27.2764 23.3094 27.6698C23.2633 27.6833 23.2157 27.6898 23.1691 27.6898C23.0143 27.6898 22.8645 27.6177 22.7682 27.4894C22.643 27.3225 22.6345 27.0955 22.7462 26.9197C23.2738 26.0914 23.7228 25.3187 24.1573 24.5711C24.4584 24.0529 24.7425 23.5634 25.0296 23.0964C25.3899 22.5106 25.7367 21.9795 26.0899 21.4739C26.2022 21.314 26.3971 21.2333 26.5895 21.2679C27.5777 21.4453 28.5548 21.4854 29.4943 21.3867C29.7434 21.3606 29.9734 21.5225 30.033 21.7655C30.0926 22.0085 29.9643 22.2586 29.7313 22.3508Z" fill="#5CAB56"/>
<path d="M27.663 20.7264C27.5778 20.7264 27.4916 20.7048 27.4135 20.6597C27.2015 20.5379 27.1088 20.2809 27.1935 20.0514C27.4235 19.43 27.0296 18.7626 26.5696 18.0761C26.0886 17.3581 25.2843 16.157 25.9558 14.9047C25.9924 14.8366 26.044 14.778 26.1071 14.7329C27.5107 13.7362 28.572 12.469 29.1758 11.0689C29.2755 10.8379 29.3451 10.5298 29.4193 10.203C29.5456 9.64735 29.6759 9.0726 29.9981 8.63365C30.5878 7.83041 31.3605 7.48566 32.2319 7.63549C33.1794 7.79884 33.7958 8.31045 34.116 9.19988C34.2663 9.61628 34.2798 9.98357 34.2914 10.3073C34.3034 10.6295 34.3124 10.884 34.4417 11.1656C34.6817 11.6893 35.2339 12.0781 35.8477 12.1553C37.0824 12.3111 37.8461 13.0958 37.8907 14.2538C37.9217 15.0656 37.2929 15.7 36.656 15.9685C36.2145 16.1549 35.8147 16.1775 35.4278 16.199C35.291 16.2066 35.1502 16.2146 35.0089 16.2301C32.4955 16.5042 30.219 17.9153 28.0493 20.5445C27.9516 20.6632 27.8088 20.7264 27.663 20.7264ZM26.7926 15.4745C26.5436 16.0502 26.8187 16.647 27.4024 17.5179C27.6414 17.8742 27.9692 18.3632 28.143 18.9234C30.2346 16.7107 32.4549 15.5 34.9002 15.2335C35.0675 15.2149 35.2224 15.2064 35.3717 15.1979C35.7144 15.1783 35.9855 15.1633 36.2671 15.0445C36.5858 14.9103 36.902 14.6086 36.89 14.2919C36.8644 13.6285 36.4716 13.2436 35.723 13.1494C34.7584 13.0282 33.9186 12.4279 33.5312 11.5835C33.3188 11.121 33.3037 10.7081 33.2902 10.3444C33.2797 10.0572 33.2706 9.8097 33.1734 9.53961C32.976 8.99042 32.6538 8.72535 32.062 8.62313C31.5765 8.53944 31.1656 8.73687 30.8063 9.22693C30.6074 9.49802 30.5006 9.96904 30.3969 10.425C30.3162 10.7813 30.2326 11.1496 30.0963 11.4658C29.4348 12.9991 28.2944 14.3826 26.7926 15.4745Z" fill="#5CAB56"/>
<path d="M22.5777 28.5913H7.75653C7.54057 28.5913 7.34915 28.453 7.281 28.248C7.08408 27.6552 6.95981 27.0279 6.9107 26.3845C6.76739 24.5169 7.22137 22.6549 8.18847 21.1416C9.39709 19.251 11.3092 17.9617 13.8733 17.3098C15.0443 17.0122 16.4514 16.9631 17.9416 16.9109C18.1375 16.9039 18.3345 16.8974 18.5314 16.8899C19.4313 16.8553 20.3834 16.8062 21.2508 16.6794C22.968 16.4289 24.6927 15.7374 26.1083 14.7327C26.2982 14.5979 26.5553 14.6115 26.7297 14.7658C26.904 14.9196 26.9496 15.1732 26.8399 15.3786C26.5147 15.9849 26.7868 16.5988 27.4031 17.5188C27.8361 18.1652 28.5611 19.2465 28.1342 20.4C28.1147 20.4526 28.0866 20.5017 28.0505 20.5448C27.6737 21.0008 27.2909 21.5069 26.9125 22.0486C26.5708 22.5381 26.2346 23.0528 25.8843 23.622C25.6037 24.0785 25.3226 24.5625 25.0245 25.0751C24.585 25.8313 24.1305 26.613 23.5929 27.4583C23.3869 27.782 23.1905 28.0812 22.9931 28.3723C22.8989 28.5091 22.7435 28.5913 22.5777 28.5913ZM8.12884 27.5891H22.3111C22.4539 27.3751 22.5977 27.1541 22.747 26.9196C23.2742 26.0913 23.7236 25.3182 24.1576 24.5705C24.4587 24.0524 24.7433 23.5629 25.03 23.0959C25.3903 22.5096 25.737 21.9789 26.0903 21.4733C26.4646 20.9382 26.8434 20.4351 27.2177 19.9776C27.3931 19.3773 27.0123 18.7349 26.5698 18.075C26.2556 17.606 25.8031 16.9305 25.715 16.1693C24.3866 16.9285 22.8883 17.4521 21.3951 17.6701C20.4811 17.8039 19.4965 17.855 18.569 17.8906C18.371 17.8981 18.1731 17.9051 17.9762 17.9121C16.5416 17.9622 15.1866 18.0093 14.1198 18.2804C9.18363 19.5351 7.67536 23.2497 7.90987 26.3073C7.94344 26.7473 8.0166 27.1767 8.12884 27.5891Z" fill="#5CAB56"/>
<path d="M13.095 28.3052C12.8841 28.3052 12.6882 28.1714 12.619 27.9599C12.0217 26.1375 11.7566 24.2419 11.8318 22.3252C11.8428 22.0486 12.0758 21.8327 12.3519 21.8442C12.6285 21.8552 12.844 22.0877 12.833 22.3643C12.7628 24.1612 13.0109 25.9391 13.5711 27.6478C13.6573 27.9108 13.5139 28.194 13.2509 28.2801C13.1998 28.2972 13.1472 28.3052 13.095 28.3052Z" fill="#5CAB56"/>
<path d="M16.6343 27.6357C16.4339 27.6357 16.2445 27.5144 16.1673 27.316C15.4748 25.5351 15.1767 23.3554 15.3501 21.336C15.3736 21.0604 15.6161 20.856 15.8922 20.8795C16.1678 20.9031 16.3723 21.1461 16.3487 21.4217C16.1879 23.2938 16.4625 25.3096 17.1014 26.9527C17.2016 27.2108 17.0738 27.5009 16.8162 27.6011C16.7561 27.6247 16.6945 27.6357 16.6343 27.6357Z" fill="#5CAB56"/>
<path d="M19.8788 26.2267C19.6628 26.2267 19.4634 26.0859 19.3987 25.868C18.9052 24.2033 18.7303 22.41 18.8931 20.6812C18.9192 20.4056 19.1637 20.2037 19.4388 20.2292C19.7144 20.2553 19.9169 20.4998 19.8908 20.7749C19.74 22.3774 19.9018 24.0395 20.3593 25.5823C20.438 25.8474 20.2867 26.1265 20.0216 26.2052C19.974 26.2197 19.9259 26.2267 19.8788 26.2267Z" fill="#5CAB56"/>
<path d="M8.73793 9.74701C8.61166 9.74701 8.48538 9.69941 8.38767 9.6042C8.18974 9.41078 8.18624 9.0936 8.37966 8.89567C9.2791 7.97617 9.2791 6.47943 8.37966 5.55994C7.75681 4.92306 7.41406 4.08223 7.41406 3.1913C7.41406 2.30087 7.75681 1.45955 8.37966 0.822671C8.57307 0.624742 8.89026 0.621234 9.08819 0.814654C9.28612 1.00807 9.28963 1.32526 9.09621 1.52319C8.19676 2.44268 8.19676 3.93943 9.09621 4.85892C9.71906 5.4958 10.0618 6.33662 10.0618 7.22755C10.0618 8.11798 9.71906 8.9593 9.09621 9.59618C8.9985 9.6969 8.86821 9.74701 8.73793 9.74701Z" fill="#5CAB56"/>
<path d="M17.0739 11.6315C16.9476 11.6315 16.8208 11.5839 16.7236 11.4887C16.5257 11.2953 16.5222 10.9781 16.7156 10.7802C17.615 9.8607 17.615 8.36395 16.7156 7.44446C16.0927 6.80758 15.75 5.96676 15.75 5.07583C15.75 4.1854 16.0927 3.34407 16.7156 2.70719C16.909 2.50926 17.2262 2.50576 17.4241 2.69918C17.6221 2.89259 17.6256 3.20978 17.4321 3.40771C16.5327 4.3272 16.5327 5.82395 17.4321 6.74344C18.055 7.38032 18.3977 8.22114 18.3977 9.11207C18.3977 10.0025 18.055 10.8438 17.4321 11.4807C17.3339 11.5814 17.2042 11.6315 17.0739 11.6315Z" fill="#5CAB56"/>
<path d="M25.4098 9.74701C25.2835 9.74701 25.1573 9.69941 25.0595 9.6042C24.8616 9.41078 24.8581 9.0936 25.0515 8.89567C25.951 7.97617 25.951 6.47943 25.0515 5.55994C24.4287 4.92306 24.0859 4.08223 24.0859 3.1913C24.0859 2.30037 24.4287 1.45955 25.0515 0.822671C25.2449 0.624742 25.5621 0.621234 25.7601 0.814654C25.958 1.00807 25.9615 1.32526 25.7681 1.52319C24.8686 2.44268 24.8686 3.93943 25.7681 4.85892C26.3909 5.4958 26.7337 6.33662 26.7337 7.22755C26.7337 8.11848 26.3909 8.9593 25.7681 9.59618C25.6699 9.6969 25.5401 9.74701 25.4098 9.74701Z" fill="#5CAB56"/>
<path d="M3.97311 28.5913H0.501086C0.224487 28.5913 0 28.3668 0 28.0902C0 27.8136 0.224487 27.5891 0.501086 27.5891H3.97311C4.24971 27.5891 4.4742 27.8136 4.4742 28.0902C4.4742 28.3668 4.24971 28.5913 3.97311 28.5913Z" fill="#5CAB56"/>
<path d="M41.4985 28.5913H38.0265C37.7499 28.5913 37.5254 28.3668 37.5254 28.0902C37.5254 27.8136 37.7499 27.5891 38.0265 27.5891H41.4985C41.7751 27.5891 41.9996 27.8136 41.9996 28.0902C41.9996 28.3668 41.7751 28.5913 41.4985 28.5913Z" fill="#5CAB56"/>
<path d="M33.3828 33.2674H8.61817C7.31033 33.2674 6.08017 32.5709 5.40721 31.45L3.54417 28.3483C3.45147 28.1934 3.44846 28.0005 3.53766 27.8437C3.62685 27.6868 3.79321 27.5891 3.9736 27.5891H38.0274C38.2078 27.5891 38.3747 27.6863 38.4633 27.8437C38.552 28.001 38.5495 28.1934 38.4568 28.3483L36.5938 31.45C35.9208 32.5709 34.6907 33.2674 33.3828 33.2674ZM4.85902 28.5913L6.26607 30.9339C6.75914 31.7551 7.66009 32.2652 8.61817 32.2652H33.3828C34.3404 32.2652 35.2419 31.7551 35.7349 30.9339L37.142 28.5913H4.85902Z" fill="#5CAB56"/>
</svg>
