<svg width="40" height="40" viewBox="0 0 40 40" fill="none" xmlns="http://www.w3.org/2000/svg">
<rect width="40" height="40" rx="8" fill="#DEF3DA"/>
<path d="M19.8533 19.9582C21.3908 19.9582 22.7222 19.4067 23.81 18.3187C24.8979 17.2309 25.4493 15.8999 25.4493 14.3622C25.4493 12.8251 24.8979 11.4939 23.8099 10.4057C22.7219 9.31804 21.3907 8.7666 19.8533 8.7666C18.3156 8.7666 16.9846 9.31804 15.8968 10.4059C14.8089 11.4937 14.2573 12.8249 14.2573 14.3622C14.2573 15.8999 14.8089 17.2311 15.8969 18.3189C16.9849 19.4066 18.3161 19.9582 19.8533 19.9582Z" fill="#5CAB56"/>
<path d="M29.6449 26.6318C29.6135 26.1791 29.55 25.6853 29.4566 25.1638C29.3623 24.6384 29.2409 24.1417 29.0955 23.6878C28.9454 23.2186 28.7412 22.7552 28.4888 22.3112C28.2268 21.8503 27.9191 21.449 27.5738 21.1188C27.2127 20.7733 26.7706 20.4956 26.2594 20.293C25.75 20.0914 25.1854 19.9893 24.5815 19.9893C24.3444 19.9893 24.115 20.0866 23.672 20.375C23.3994 20.5528 23.0805 20.7584 22.7246 20.9858C22.4202 21.1798 22.0079 21.3615 21.4987 21.5259C21.0018 21.6867 20.4973 21.7683 19.9994 21.7683C19.5015 21.7683 18.9972 21.6867 18.4998 21.5259C17.9911 21.3616 17.5788 21.1799 17.2748 20.986C16.9223 20.7607 16.6032 20.5551 16.3265 20.3748C15.8841 20.0864 15.6545 19.9891 15.4174 19.9891C14.8133 19.9891 14.2489 20.0914 13.7396 20.2931C13.2288 20.4954 12.7865 20.7731 12.4251 21.119C12.08 21.4494 11.7721 21.8505 11.5104 22.3112C11.2582 22.7552 11.054 23.2184 10.9037 23.6879C10.7585 24.1419 10.6371 24.6384 10.5428 25.1638C10.4494 25.6845 10.3859 26.1786 10.3545 26.6323C10.3237 27.0769 10.3081 27.5383 10.3081 28.0043C10.3081 29.2171 10.6936 30.1989 11.4539 30.923C12.2048 31.6375 13.1983 32 14.4065 32H25.5935C26.8017 32 27.7948 31.6377 28.5459 30.923C29.3063 30.1994 29.6918 29.2174 29.6918 28.0041C29.6917 27.536 29.6759 27.0742 29.6449 26.6318Z" fill="#5CAB56"/>
</svg>
